<?xml version="1.0" encoding="utf-8"?>
<!-- Generator: Adobe Illustrator 24.0.2, SVG Export Plug-In . SVG Version: 6.00 Build 0)  -->
<svg version="1.1" id="图层_1" xmlns="http://www.w3.org/2000/svg" xmlns:xlink="http://www.w3.org/1999/xlink" x="0px" y="0px"
	 viewBox="0 0 452.4 159.9" style="enable-background:new 0 0 452.4 159.9;" xml:space="preserve">
<style type="text/css">
	.st0{fill:none;stroke:#EF830D;stroke-width:1.07;stroke-miterlimit:10;}
	.st1{fill:#939393;}
	.st2{fill:#F0850F;}
	.st3{fill:none;stroke:#939393;stroke-width:0.65;stroke-miterlimit:10;}
</style>
<title>04_Ivana-anne</title>
<path d="M295.8,153.5v-2.8h-5.2v-0.9l5.5-7.1h0.7v7.1h1.4v1h-1.4v2.8L295.8,153.5z M291.7,149.8h4.1v-5.4L291.7,149.8z"/>
<path d="M307.1,148.5c0,0.5-0.1,0.9-0.3,1.3c-0.2,0.4-0.5,0.7-0.8,1c-0.4,0.3-0.8,0.5-1.2,0.6c-0.5,0.2-1,0.2-1.5,0.2
	c-0.5,0-1-0.1-1.5-0.3c-0.4-0.2-0.9-0.4-1.2-0.7c-0.3-0.3-0.6-0.6-0.8-1c-0.2-0.4-0.3-0.8-0.3-1.3c0-0.3,0.1-0.7,0.2-1
	c0.1-0.3,0.3-0.6,0.5-0.8c0.2-0.2,0.4-0.4,0.7-0.6c0.3-0.2,0.5-0.3,0.8-0.4c-0.2-0.1-0.5-0.2-0.7-0.4c-0.2-0.1-0.4-0.3-0.6-0.5
	c-0.2-0.2-0.3-0.4-0.4-0.6c-0.1-0.2-0.2-0.5-0.1-0.8c0-0.4,0.1-0.8,0.3-1.2c0.2-0.3,0.5-0.6,0.8-0.9c0.3-0.2,0.7-0.4,1.1-0.6
	c0.8-0.2,1.7-0.2,2.5,0c0.4,0.1,0.8,0.3,1.1,0.5c0.3,0.2,0.6,0.5,0.8,0.9c0.2,0.4,0.3,0.8,0.3,1.2c0,0.3,0,0.5-0.1,0.8
	c-0.1,0.2-0.2,0.5-0.4,0.7c-0.2,0.2-0.4,0.4-0.6,0.5c-0.2,0.2-0.5,0.3-0.7,0.4c0.3,0.1,0.6,0.3,0.9,0.4c0.3,0.2,0.5,0.4,0.7,0.6
	c0.2,0.2,0.4,0.5,0.5,0.8C307.1,147.8,307.1,148.1,307.1,148.5z M306,148.4c0-0.4-0.1-0.7-0.3-1c-0.2-0.3-0.4-0.5-0.6-0.7
	c-0.3-0.2-0.6-0.4-0.9-0.4c-0.3-0.1-0.7-0.2-1-0.2c-0.3,0-0.7,0.1-1,0.2c-0.3,0.1-0.6,0.3-0.9,0.5c-0.3,0.2-0.5,0.5-0.6,0.7
	c-0.2,0.3-0.2,0.7-0.2,1c0,0.4,0.1,0.7,0.3,1c0.2,0.3,0.4,0.5,0.6,0.7c0.3,0.2,0.6,0.3,0.9,0.4c0.3,0.1,0.7,0.2,1,0.1
	c0.3,0,0.7-0.1,1-0.2c0.3-0.1,0.6-0.3,0.9-0.5c0.3-0.2,0.5-0.4,0.6-0.7C306,149.1,306.1,148.7,306,148.4L306,148.4z M300.9,143.4
	c0,0.3,0.1,0.6,0.2,0.8c0.1,0.2,0.3,0.4,0.6,0.6c0.2,0.2,0.5,0.3,0.8,0.4c0.5,0.2,1.1,0.2,1.7,0c0.3-0.1,0.5-0.2,0.8-0.4
	c0.2-0.2,0.4-0.4,0.6-0.6c0.1-0.2,0.2-0.5,0.2-0.8c0-0.3-0.1-0.5-0.2-0.8c-0.1-0.2-0.3-0.4-0.5-0.6c-0.2-0.2-0.5-0.3-0.8-0.4
	c-0.3-0.1-0.6-0.1-0.9-0.1c-0.3,0-0.6,0-0.9,0.1c-0.3,0.1-0.5,0.2-0.8,0.4c-0.2,0.2-0.4,0.4-0.5,0.6
	C301,142.8,300.9,143.1,300.9,143.4L300.9,143.4z"/>
<path d="M316.8,140.5l-7.3,11h-1.2l7.3-11H316.8z"/>
<path d="M325.6,147.9c0,1.5-0.9,2.9-2.4,3.5c-0.5,0.2-1,0.3-1.5,0.3c-0.5,0-1.1-0.1-1.6-0.3c-0.5-0.2-0.9-0.5-1.3-0.9
	c-0.4-0.4-0.6-0.9-0.8-1.4c-0.2-0.6-0.3-1.3-0.3-1.9c0-1,0.1-2,0.3-2.9c0.2-0.7,0.4-1.4,0.8-2.1c0.3-0.5,0.8-0.9,1.3-1.2
	c0.5-0.3,1.1-0.4,1.7-0.4c0.7,0,1.4,0.2,2,0.5c0.6,0.4,1,0.9,1.3,1.5l-0.7,0.6c-0.2-0.5-0.6-1-1-1.3c-0.5-0.3-1-0.5-1.6-0.5
	c-0.4,0-0.9,0.1-1.2,0.3c-0.4,0.2-0.7,0.5-1,0.9c-0.3,0.5-0.5,1-0.6,1.5c-0.2,0.7-0.2,1.3-0.2,2c0.2-0.6,0.6-1.1,1.2-1.5
	c0.6-0.4,1.2-0.6,1.9-0.5c1,0,2,0.4,2.7,1.1c0.3,0.3,0.6,0.7,0.8,1.2C325.6,146.9,325.7,147.4,325.6,147.9z M321.8,150.8
	c0.4,0,0.8-0.1,1.1-0.2c0.3-0.1,0.6-0.4,0.9-0.6c0.5-0.5,0.8-1.2,0.9-2c0-0.4-0.1-0.8-0.2-1.1c-0.1-0.3-0.4-0.6-0.6-0.9
	c-0.3-0.3-0.6-0.5-0.9-0.6c-0.7-0.3-1.5-0.3-2.2,0c-0.3,0.1-0.7,0.4-0.9,0.6c-0.3,0.3-0.5,0.6-0.6,0.9c-0.2,0.4-0.2,0.7-0.2,1.1
	c0,0.4,0.1,0.8,0.2,1.1C319.6,150.1,320.6,150.8,321.8,150.8L321.8,150.8z"/>
<path d="M331.6,147.8c0.6,0.1,1.2,0.4,1.6,0.9c0.4,0.5,0.6,1.2,0.6,1.9c0,0.4-0.1,0.9-0.3,1.3c-0.2,0.4-0.4,0.7-0.7,1
	c-0.3,0.3-0.7,0.5-1.1,0.6c-0.5,0.2-1,0.2-1.5,0.2c-0.7,0-1.4-0.1-2.1-0.5c-0.6-0.3-1-0.7-1.3-1.3l0.7-0.7c0.2,0.5,0.6,0.8,1,1.1
	c0.5,0.3,1.1,0.4,1.7,0.4c0.7,0,1.3-0.2,1.8-0.6c0.5-0.4,0.7-1,0.7-1.6c0-0.6-0.2-1.3-0.7-1.7c-0.6-0.4-1.3-0.7-2-0.6h-0.4v-0.9h0.4
	c0.7,0,1.3-0.2,1.8-0.6c0.4-0.4,0.7-0.9,0.6-1.4c0-0.3-0.1-0.6-0.2-0.8c-0.1-0.2-0.3-0.4-0.5-0.6c-0.2-0.2-0.5-0.3-0.7-0.4
	c-0.3-0.1-0.6-0.1-0.9-0.1c-0.5,0-1.1,0.1-1.6,0.4c-0.4,0.3-0.8,0.6-1,1.1l-0.7-0.6c0.1-0.3,0.3-0.5,0.5-0.7
	c0.2-0.2,0.5-0.4,0.8-0.6c0.3-0.2,0.7-0.3,1-0.4c0.4-0.1,0.7-0.1,1.1-0.1c0.4,0,0.9,0.1,1.3,0.2c0.4,0.1,0.7,0.3,1,0.6
	c0.6,0.5,0.9,1.2,0.9,2c0,0.3,0,0.6-0.1,0.9c-0.1,0.3-0.2,0.5-0.4,0.8c-0.2,0.2-0.4,0.4-0.6,0.6C332.3,147.7,332,147.8,331.6,147.8z
	"/>
<path d="M346.5,151.5h-1.1V147c0.1-0.7-0.1-1.4-0.5-2.1c-0.3-0.5-0.8-0.7-1.4-0.7c-0.3,0-0.6,0.1-0.9,0.2c-0.3,0.1-0.6,0.3-0.8,0.5
	c-0.3,0.2-0.5,0.4-0.7,0.7c-0.2,0.3-0.3,0.6-0.4,0.9v4.9h-1v-11.3h1v5.1c0.3-0.6,0.8-1.1,1.3-1.4c0.5-0.4,1.2-0.5,1.8-0.5
	c0.4,0,0.8,0.1,1.2,0.3c0.3,0.2,0.6,0.4,0.8,0.7c0.2,0.3,0.4,0.7,0.5,1.1c0.1,0.5,0.1,0.9,0.1,1.4L346.5,151.5z"/>
<path d="M352.2,151.7c-0.6,0-1.1-0.1-1.6-0.3c-0.5-0.2-0.9-0.5-1.3-0.9c-0.4-0.4-0.6-0.8-0.8-1.3c-0.2-0.5-0.3-1-0.3-1.6
	c0-0.6,0.1-1.1,0.3-1.6c0.2-0.5,0.5-1,0.8-1.3c0.4-0.4,0.8-0.7,1.3-0.9c1-0.5,2.2-0.5,3.2,0c0.5,0.2,0.9,0.5,1.3,0.9
	c0.4,0.4,0.6,0.8,0.8,1.3c0.2,0.5,0.3,1.1,0.3,1.6c0,0.5-0.1,1.1-0.3,1.6c-0.2,0.5-0.5,0.9-0.8,1.3c-0.4,0.4-0.8,0.7-1.3,0.9
	C353.3,151.6,352.8,151.7,352.2,151.7z M349.3,147.5c0,0.4,0.1,0.9,0.2,1.3c0.1,0.4,0.4,0.7,0.6,1c0.3,0.3,0.6,0.5,0.9,0.7
	c0.4,0.2,0.7,0.3,1.1,0.3c0.4,0,0.8-0.1,1.1-0.3c0.4-0.2,0.7-0.4,0.9-0.7c0.3-0.3,0.5-0.6,0.6-1c0.2-0.4,0.2-0.8,0.2-1.3
	c0-0.4-0.1-0.9-0.2-1.3c-0.2-0.4-0.4-0.7-0.6-1c-0.3-0.3-0.6-0.5-0.9-0.7c-0.4-0.2-0.7-0.3-1.1-0.3c-0.4,0-0.8,0.1-1.1,0.3
	c-0.4,0.2-0.7,0.4-0.9,0.7c-0.3,0.3-0.5,0.6-0.6,1C349.3,146.7,349.3,147.1,349.3,147.5z"/>
<path d="M360.5,151.7c-0.8,0.1-1.5-0.3-2-0.9c-0.5-0.8-0.7-1.7-0.6-2.6v-4.7h1v4.6c0,1.8,0.6,2.8,1.9,2.8c0.3,0,0.6-0.1,0.9-0.2
	c0.3-0.1,0.6-0.3,0.8-0.4c0.5-0.4,1-1,1.2-1.6v-5.1h1.1v6.7c0,0.3,0.1,0.4,0.4,0.4v0.9h-0.3h-0.2c-0.2,0-0.4-0.1-0.6-0.3
	c-0.2-0.2-0.2-0.4-0.2-0.7v-0.9C363.1,150.9,361.8,151.6,360.5,151.7L360.5,151.7z"/>
<path d="M371.2,144.4c-0.7,0-1.3,0.2-1.9,0.6c-0.5,0.4-0.9,0.9-1.1,1.5v5h-1.1v-8.1h1v1.9c0.3-0.6,0.7-1.1,1.2-1.4
	c0.5-0.3,1-0.5,1.6-0.5h0.2L371.2,144.4z"/>
<path d="M375.3,151.7c-0.6,0-1.3-0.1-1.9-0.3c-0.6-0.2-1.1-0.5-1.5-0.9l0.5-0.7c0.4,0.3,0.9,0.6,1.4,0.8c0.5,0.2,1,0.3,1.5,0.3
	c0.5,0,1.1-0.1,1.6-0.4c0.4-0.2,0.6-0.7,0.6-1.1c0-0.2,0-0.4-0.1-0.6c-0.1-0.2-0.3-0.3-0.5-0.4c-0.2-0.1-0.5-0.2-0.8-0.3
	c-0.3-0.1-0.7-0.2-1.1-0.3s-0.9-0.2-1.2-0.3c-0.3-0.1-0.6-0.2-0.9-0.4c-0.2-0.1-0.4-0.3-0.5-0.5c-0.1-0.2-0.2-0.5-0.2-0.8
	c0-0.4,0.1-0.7,0.2-1.1c0.2-0.3,0.4-0.6,0.7-0.8c0.3-0.2,0.6-0.4,1-0.5c0.4-0.1,0.8-0.2,1.2-0.1c0.6,0,1.2,0.1,1.7,0.3
	c0.5,0.2,0.9,0.4,1.2,0.8l-0.5,0.6c-0.3-0.3-0.7-0.6-1.1-0.7c-0.4-0.2-0.9-0.2-1.3-0.2c-0.3,0-0.5,0-0.8,0.1
	c-0.2,0.1-0.4,0.1-0.6,0.3c-0.2,0.1-0.3,0.3-0.4,0.5c-0.1,0.2-0.2,0.4-0.2,0.7c0,0.2,0,0.4,0.1,0.5c0.1,0.1,0.2,0.3,0.4,0.4
	c0.2,0.1,0.4,0.2,0.6,0.3c0.3,0.1,0.6,0.2,0.9,0.2s1,0.3,1.4,0.4c0.4,0.1,0.7,0.3,1,0.4c0.3,0.1,0.5,0.3,0.6,0.6
	c0.1,0.3,0.2,0.6,0.2,0.9c0,0.7-0.3,1.4-0.9,1.8C377,151.5,376.1,151.7,375.3,151.7z"/>
<path d="M296.2,115.5v1h-5.3v-1h2.2v-6.6c-0.1,0.2-0.3,0.3-0.4,0.4c-0.2,0.1-0.4,0.3-0.7,0.4c-0.2,0.1-0.5,0.2-0.8,0.3
	c-0.2,0.1-0.5,0.1-0.7,0.1v-1c0.3,0,0.5-0.1,0.8-0.2c0.3-0.1,0.5-0.3,0.8-0.5c0.2-0.2,0.4-0.3,0.6-0.5c0.1-0.1,0.2-0.2,0.3-0.3h1.1
	v7.9L296.2,115.5z"/>
<path d="M297.2,116.5c0-0.4,0-0.7,0.1-1.1c0.1-0.4,0.2-0.7,0.4-1.1c0.2-0.4,0.5-0.7,0.8-1c0.4-0.4,0.9-0.7,1.3-0.9
	c0.3-0.2,0.6-0.3,0.9-0.5c0.3-0.1,0.6-0.3,0.9-0.5c0.3-0.2,0.5-0.4,0.7-0.6c0.2-0.2,0.3-0.5,0.3-0.8c0-0.2,0-0.4-0.1-0.6
	c-0.1-0.2-0.2-0.4-0.4-0.5c-0.2-0.2-0.4-0.3-0.6-0.4c-0.3-0.1-0.6-0.1-0.9-0.1c-0.3,0-0.6,0-0.9,0.1c-0.2,0.1-0.5,0.2-0.7,0.3
	c-0.2,0.1-0.4,0.3-0.5,0.4l-0.3,0.4l-0.7-0.8l0.4-0.3c0.2-0.2,0.4-0.4,0.7-0.5c0.3-0.2,0.7-0.3,1-0.4c0.4-0.1,0.9-0.2,1.3-0.2
	c0.4,0,0.9,0.1,1.3,0.2c0.3,0.1,0.7,0.3,1,0.5c0.2,0.2,0.4,0.5,0.6,0.8c0.1,0.3,0.2,0.6,0.2,0.9c0,0.4-0.1,0.8-0.3,1.1
	c-0.2,0.3-0.4,0.6-0.7,0.8c-0.3,0.2-0.6,0.4-0.9,0.6c-0.3,0.2-0.6,0.3-0.8,0.4s-0.6,0.3-1,0.5c-0.3,0.2-0.6,0.4-0.9,0.6
	c-0.2,0.2-0.4,0.5-0.6,0.7c-0.2,0.3-0.2,0.6-0.2,0.9h5.5v1L297.2,116.5z"/>
<path d="M313,113.4c0,0.5-0.1,0.9-0.3,1.3c-0.2,0.4-0.5,0.7-0.8,1c-0.4,0.3-0.8,0.5-1.2,0.7c-0.5,0.1-1,0.2-1.5,0.2
	c-0.5,0-1-0.1-1.5-0.3c-0.4-0.2-0.8-0.4-1.2-0.7c-0.3-0.3-0.6-0.6-0.8-1c-0.2-0.4-0.3-0.8-0.3-1.3c0-0.3,0.1-0.7,0.2-1
	c0.1-0.3,0.3-0.6,0.5-0.8c0.2-0.2,0.4-0.4,0.7-0.6c0.2-0.2,0.5-0.3,0.8-0.4c-0.2-0.1-0.5-0.2-0.7-0.4c-0.2-0.1-0.4-0.3-0.6-0.5
	c-0.2-0.2-0.3-0.4-0.4-0.7c-0.1-0.2-0.2-0.5-0.1-0.8c0-0.4,0.1-0.8,0.3-1.2c0.2-0.3,0.5-0.6,0.8-0.9c0.3-0.2,0.7-0.4,1.1-0.5
	c0.8-0.3,1.7-0.3,2.5,0c0.4,0.1,0.8,0.3,1.1,0.5c0.3,0.2,0.6,0.5,0.8,0.9c0.2,0.4,0.3,0.8,0.3,1.2c0,0.3,0,0.5-0.1,0.8
	c-0.1,0.2-0.2,0.5-0.4,0.7c-0.2,0.2-0.4,0.4-0.6,0.5c-0.2,0.1-0.5,0.3-0.7,0.4c0.3,0.1,0.6,0.2,0.9,0.4c0.3,0.2,0.5,0.4,0.7,0.6
	c0.2,0.2,0.4,0.5,0.5,0.8C312.9,112.8,313,113.1,313,113.4z M311.9,113.4c0-0.4-0.1-0.7-0.3-1c-0.2-0.3-0.4-0.5-0.6-0.7
	c-0.3-0.2-0.6-0.4-0.9-0.4c-0.3-0.1-0.7-0.2-1-0.2c-0.7,0-1.3,0.2-1.9,0.6c-0.3,0.2-0.5,0.5-0.6,0.7c-0.2,0.3-0.2,0.7-0.2,1
	c0,0.4,0.1,0.7,0.3,1c0.2,0.3,0.4,0.5,0.6,0.7c0.3,0.2,0.6,0.4,0.9,0.4c0.3,0.1,0.7,0.2,1,0.2c0.3,0,0.7-0.1,1-0.2
	c0.3-0.1,0.6-0.3,0.9-0.5c0.3-0.2,0.5-0.4,0.6-0.7C311.9,114.1,312,113.7,311.9,113.4z M306.8,108.4c0,0.3,0.1,0.6,0.2,0.8
	c0.1,0.2,0.3,0.4,0.6,0.6c0.2,0.2,0.5,0.3,0.8,0.4c0.5,0.2,1.1,0.2,1.7,0c0.3-0.1,0.5-0.2,0.8-0.4c0.2-0.2,0.4-0.4,0.6-0.6
	c0.1-0.2,0.2-0.5,0.2-0.8c0-0.3-0.1-0.5-0.2-0.8c-0.1-0.2-0.3-0.4-0.5-0.6c-0.2-0.2-0.5-0.3-0.8-0.4c-0.3-0.1-0.6-0.1-0.9-0.1
	c-0.3,0-0.6,0-0.9,0.1c-0.3,0.1-0.5,0.2-0.8,0.4c-0.2,0.2-0.4,0.4-0.5,0.6C306.9,107.8,306.8,108.1,306.8,108.4L306.8,108.4z"/>
<path d="M322.7,105.5l-7.3,11h-1.2l7.3-11H322.7z"/>
<path d="M329.2,115.5v1h-5.3v-1h2.2v-6.6c-0.1,0.2-0.3,0.3-0.4,0.4c-0.2,0.1-0.4,0.3-0.7,0.4c-0.2,0.1-0.5,0.2-0.8,0.3
	c-0.2,0.1-0.5,0.1-0.7,0.1v-1c0.3,0,0.5-0.1,0.8-0.2c0.3-0.1,0.5-0.3,0.8-0.5c0.2-0.2,0.4-0.3,0.6-0.5c0.1-0.1,0.2-0.2,0.3-0.3h1.1
	v7.9L329.2,115.5z"/>
<path d="M330.2,116.5c0-0.4,0-0.7,0.1-1.1c0.1-0.8,0.5-1.5,1.1-2.1c0.4-0.4,0.8-0.7,1.3-0.9c0.3-0.2,0.6-0.3,0.9-0.5
	c0.3-0.1,0.6-0.3,0.9-0.5c0.3-0.2,0.5-0.4,0.7-0.6c0.2-0.2,0.3-0.5,0.3-0.8c0-0.2,0-0.4-0.1-0.6c-0.1-0.2-0.2-0.4-0.4-0.5
	c-0.2-0.2-0.4-0.3-0.6-0.4c-0.3-0.1-0.6-0.1-0.9-0.1c-0.3,0-0.6,0-0.9,0.1c-0.2,0.1-0.5,0.2-0.7,0.3c-0.2,0.1-0.4,0.3-0.5,0.4
	c-0.1,0.2-0.3,0.3-0.3,0.4l-0.7-0.8l0.4-0.3c0.2-0.2,0.4-0.4,0.7-0.5c0.3-0.2,0.7-0.3,1-0.4c0.4-0.1,0.9-0.2,1.3-0.2
	c0.4,0,0.9,0.1,1.3,0.2c0.3,0.1,0.7,0.3,1,0.5c0.2,0.2,0.4,0.5,0.6,0.8c0.1,0.3,0.2,0.6,0.2,0.9c0,0.4-0.1,0.8-0.3,1.1
	c-0.2,0.3-0.4,0.6-0.7,0.8c-0.3,0.2-0.6,0.4-0.9,0.6c-0.3,0.2-0.6,0.3-0.8,0.4s-0.6,0.3-1,0.5c-0.3,0.2-0.6,0.4-0.9,0.6
	c-0.2,0.2-0.4,0.5-0.6,0.7c-0.2,0.3-0.2,0.6-0.2,0.9h5.5v1L330.2,116.5z"/>
<path d="M346,113.4c0,0.5-0.1,0.9-0.3,1.3c-0.2,0.4-0.5,0.7-0.8,1c-0.4,0.3-0.8,0.5-1.2,0.7c-0.5,0.1-1,0.2-1.5,0.2
	c-0.5,0-1-0.1-1.5-0.3c-0.4-0.2-0.8-0.4-1.2-0.7c-0.3-0.3-0.6-0.6-0.8-1c-0.2-0.4-0.3-0.8-0.3-1.3c0-0.3,0.1-0.7,0.2-1
	c0.1-0.3,0.3-0.6,0.5-0.8c0.2-0.2,0.4-0.4,0.7-0.6c0.2-0.2,0.5-0.3,0.8-0.4c-0.2-0.1-0.5-0.2-0.7-0.4c-0.2-0.1-0.4-0.3-0.6-0.5
	c-0.2-0.2-0.3-0.4-0.4-0.7c-0.1-0.2-0.2-0.5-0.1-0.8c0-0.4,0.1-0.8,0.3-1.2c0.2-0.3,0.5-0.6,0.8-0.9c0.3-0.2,0.7-0.4,1.1-0.5
	c0.8-0.3,1.7-0.3,2.5,0c0.4,0.1,0.8,0.3,1.1,0.5c0.3,0.2,0.6,0.5,0.8,0.9c0.2,0.4,0.3,0.8,0.3,1.2c0,0.3,0,0.5-0.1,0.8
	c-0.1,0.2-0.2,0.5-0.4,0.7c-0.2,0.2-0.4,0.4-0.6,0.5c-0.2,0.1-0.5,0.3-0.7,0.4c0.3,0.1,0.6,0.2,0.9,0.4c0.3,0.2,0.5,0.4,0.7,0.6
	c0.2,0.2,0.4,0.5,0.5,0.8C345.9,112.8,346,113.1,346,113.4z M344.9,113.4c0-0.3-0.1-0.7-0.3-1c-0.2-0.3-0.4-0.5-0.6-0.7
	c-0.3-0.2-0.6-0.4-0.9-0.4c-0.3-0.1-0.7-0.2-1-0.2c-0.7,0-1.3,0.2-1.9,0.6c-0.3,0.2-0.5,0.5-0.6,0.7c-0.2,0.3-0.2,0.7-0.2,1
	c0,0.4,0.1,0.7,0.3,1c0.2,0.3,0.4,0.5,0.6,0.7c0.3,0.2,0.6,0.4,0.9,0.4c0.3,0.1,0.7,0.2,1,0.2c0.3,0,0.7-0.1,1-0.2
	c0.3-0.1,0.6-0.3,0.9-0.5c0.3-0.2,0.5-0.4,0.6-0.7C344.9,114.1,344.9,113.7,344.9,113.4z M339.8,108.4c0,0.3,0.1,0.6,0.2,0.8
	c0.1,0.2,0.3,0.4,0.6,0.6c0.2,0.2,0.5,0.3,0.8,0.4c0.3,0.1,0.5,0.1,0.8,0.1c0.3,0,0.6,0,0.8-0.1c0.3-0.1,0.5-0.2,0.8-0.4
	c0.2-0.2,0.4-0.4,0.6-0.6c0.1-0.2,0.2-0.5,0.2-0.8c0-0.3-0.1-0.5-0.2-0.8c-0.1-0.2-0.3-0.4-0.5-0.6c-0.2-0.2-0.5-0.3-0.8-0.4
	c-0.3-0.1-0.6-0.1-0.9-0.1c-0.3,0-0.6,0-0.9,0.1c-0.3,0.1-0.5,0.2-0.8,0.4c-0.2,0.2-0.4,0.4-0.5,0.6
	C339.9,107.8,339.8,108.1,339.8,108.4L339.8,108.4z"/>
<path d="M356,116.7c-0.6,0-1.3-0.2-1.8-0.5c-0.5-0.3-0.9-0.8-1.3-1.3v5h-1v-11.4h0.9v1.6c0.3-0.5,0.8-0.9,1.3-1.2
	c1-0.6,2.2-0.6,3.3-0.1c0.5,0.2,0.9,0.5,1.2,0.9c0.4,0.4,0.7,0.9,0.9,1.3c0.2,0.5,0.3,1,0.3,1.6c0,0.5-0.1,1.1-0.3,1.6
	c-0.2,0.5-0.4,0.9-0.8,1.3c-0.3,0.4-0.7,0.7-1.2,0.9C357.1,116.6,356.5,116.7,356,116.7z M355.7,115.7c0.4,0,0.8-0.1,1.2-0.3
	c0.4-0.2,0.7-0.4,0.9-0.7c0.2-0.3,0.4-0.6,0.6-1c0.1-0.4,0.2-0.8,0.2-1.2c0-0.8-0.3-1.7-0.9-2.3c-0.3-0.3-0.6-0.5-1-0.7
	c-0.4-0.2-0.8-0.3-1.2-0.3c-0.3,0-0.6,0.1-0.8,0.2c-0.3,0.1-0.6,0.3-0.8,0.4c-0.2,0.2-0.5,0.4-0.6,0.6c-0.2,0.2-0.3,0.5-0.3,0.8v2.5
	c0.1,0.3,0.3,0.6,0.5,0.8c0.2,0.2,0.4,0.5,0.6,0.6c0.2,0.2,0.5,0.3,0.8,0.4C355.1,115.7,355.4,115.7,355.7,115.7z"/>
<path d="M361.3,108.4l2.4,3.2l0.1,0.2l0.1-0.2l2.4-3.2h1.1l-3.1,4.1l3.1,4h-1.1l-2.4-3.2l-0.1-0.2l-0.1,0.2l-2.4,3.2h-1.1l3.1-4
	l-3.1-4.1H361.3z"/>
<path d="M296.5,39.8h-5.9v-0.9h7.6l-5.6,11h-1.2L296.5,39.8z"/>
<path d="M302.4,43.1c0.5,0,1,0.1,1.4,0.3c0.4,0.2,0.8,0.4,1.1,0.7c0.3,0.3,0.6,0.7,0.8,1.1c0.4,0.9,0.4,2,0,2.9
	c-0.2,0.4-0.5,0.8-0.8,1.1c-0.3,0.3-0.8,0.6-1.2,0.7c-0.8,0.3-1.8,0.3-2.6,0.1c-0.4-0.1-0.7-0.2-1-0.4c-0.3-0.2-0.6-0.4-0.8-0.7
	c-0.2-0.3-0.4-0.5-0.6-0.9l0.7-0.5c0.3,0.5,0.7,0.9,1.2,1.2c0.5,0.3,1.1,0.5,1.6,0.5c0.4,0,0.7-0.1,1.1-0.2c0.3-0.1,0.6-0.3,0.9-0.5
	c0.3-0.2,0.4-0.5,0.6-0.9c0.1-0.3,0.2-0.7,0.2-1.1c0-0.4-0.1-0.7-0.2-1c-0.1-0.3-0.3-0.6-0.6-0.8c-0.2-0.2-0.5-0.4-0.8-0.5
	c-0.3-0.1-0.7-0.2-1-0.2c-0.5,0-1,0.1-1.4,0.3c-0.4,0.2-0.8,0.5-1,0.9h-1l0.1-0.4c0-0.2,0.1-0.5,0.1-0.8c0.1-0.3,0.1-0.6,0.2-1
	s0.1-0.7,0.2-1.1c0.2-0.9,0.4-1.8,0.6-2.9h5.3v1h-4.5l-0.8,4c0.3-0.3,0.6-0.5,1-0.7C301.5,43.2,301.9,43.1,302.4,43.1z"/>
<path d="M315.1,43.4c0,0.6-0.1,1.3-0.3,1.9c-0.2,0.5-0.5,1-0.8,1.5c-0.3,0.4-0.8,0.8-1.2,1c-0.5,0.2-1,0.4-1.5,0.3
	c-0.5,0-1.1-0.1-1.5-0.3c-0.5-0.2-0.9-0.6-1.2-1c-0.4-0.4-0.6-0.9-0.8-1.5c-0.2-0.6-0.3-1.2-0.3-1.9c0-0.6,0.1-1.3,0.3-1.9
	c0.2-0.5,0.5-1,0.8-1.5c0.3-0.4,0.8-0.8,1.2-1c0.5-0.2,1-0.4,1.5-0.4c0.5,0,1.1,0.1,1.5,0.4c0.5,0.2,0.9,0.6,1.2,1
	c0.4,0.4,0.6,0.9,0.8,1.5C315,42.1,315.1,42.7,315.1,43.4z M314.1,43.4c0-0.5-0.1-1-0.2-1.5c-0.1-0.4-0.3-0.8-0.6-1.2
	c-0.2-0.3-0.5-0.6-0.9-0.8c-0.7-0.4-1.6-0.4-2.3,0c-0.3,0.2-0.7,0.4-0.9,0.8c-0.3,0.4-0.5,0.7-0.6,1.2c-0.1,0.5-0.2,1-0.2,1.5
	c0,0.5,0.1,1,0.2,1.5c0.1,0.4,0.3,0.8,0.6,1.2c0.2,0.3,0.5,0.6,0.9,0.8c0.7,0.4,1.6,0.4,2.3,0c0.4-0.2,0.7-0.4,0.9-0.8
	c0.3-0.4,0.5-0.7,0.6-1.2C314,44.4,314.1,43.9,314.1,43.4L314.1,43.4z"/>
<path d="M324.9,36.9l-7.3,11h-1.2l7.3-11H324.9z"/>
<path d="M325.7,47.9c0-0.4,0-0.7,0.1-1.1c0.1-0.4,0.2-0.7,0.4-1.1c0.2-0.4,0.5-0.7,0.8-1c0.4-0.4,0.9-0.7,1.4-0.9l0.9-0.5
	c0.3-0.1,0.6-0.3,0.9-0.5c0.3-0.2,0.5-0.4,0.7-0.6c0.2-0.2,0.3-0.5,0.3-0.8c0-0.2,0-0.4-0.1-0.6c-0.1-0.2-0.2-0.4-0.4-0.5
	c-0.2-0.2-0.4-0.3-0.6-0.4c-0.3-0.1-0.6-0.1-0.9-0.1c-0.3,0-0.6,0-0.9,0.2c-0.2,0.1-0.5,0.2-0.7,0.3c-0.2,0.1-0.4,0.3-0.5,0.4
	c-0.1,0.1-0.2,0.2-0.3,0.4l-0.7-0.8l0.4-0.3c0.2-0.2,0.4-0.4,0.7-0.5c0.3-0.2,0.7-0.3,1-0.5c0.4-0.1,0.8-0.2,1.3-0.2
	c0.4,0,0.9,0.1,1.3,0.2c0.3,0.1,0.7,0.3,0.9,0.5c0.3,0.2,0.5,0.5,0.6,0.8c0.1,0.3,0.2,0.6,0.2,0.9c0,0.4-0.1,0.8-0.3,1.1
	c-0.2,0.3-0.4,0.6-0.7,0.8c-0.3,0.2-0.6,0.4-0.9,0.6c-0.3,0.2-0.6,0.3-0.8,0.4s-0.6,0.3-1,0.5c-0.3,0.2-0.6,0.4-0.8,0.6
	c-0.2,0.2-0.5,0.4-0.6,0.7c-0.2,0.3-0.2,0.6-0.2,0.9h5.5v1L325.7,47.9z"/>
<path d="M341.7,43.4c0,0.6-0.1,1.3-0.3,1.9c-0.2,0.5-0.4,1-0.8,1.5c-0.3,0.4-0.8,0.8-1.2,1c-1.5,0.7-3.3,0.3-4.3-1
	c-0.4-0.4-0.6-0.9-0.8-1.5c-0.2-0.6-0.3-1.2-0.3-1.9c0-0.6,0.1-1.3,0.3-1.9c0.2-0.5,0.5-1,0.8-1.5c0.3-0.4,0.8-0.8,1.2-1
	c1-0.5,2.1-0.5,3.1,0c0.5,0.2,0.9,0.6,1.2,1c0.4,0.4,0.6,0.9,0.8,1.5C341.6,42.1,341.7,42.7,341.7,43.4z M340.6,43.4
	c0-0.5-0.1-1-0.2-1.5c-0.1-0.4-0.3-0.8-0.6-1.2c-0.2-0.3-0.5-0.6-0.9-0.8c-0.7-0.4-1.6-0.4-2.3,0c-0.3,0.2-0.6,0.4-0.9,0.8
	c-0.3,0.4-0.5,0.7-0.6,1.2c-0.1,0.5-0.2,1-0.2,1.5c0,0.5,0.1,1,0.2,1.5c0.1,0.4,0.3,0.8,0.6,1.2c0.2,0.3,0.5,0.6,0.9,0.8
	c0.7,0.4,1.6,0.4,2.3,0c0.4-0.2,0.7-0.4,0.9-0.8c0.3-0.3,0.4-0.7,0.6-1.1C340.6,44.4,340.7,43.9,340.6,43.4z"/>
<path d="M351.2,43.4c0,0.6-0.1,1.3-0.3,1.9c-0.2,0.5-0.5,1-0.8,1.5c-0.3,0.4-0.8,0.8-1.2,1c-0.5,0.2-1,0.4-1.5,0.3
	c-0.5,0-1.1-0.1-1.6-0.3c-0.5-0.2-0.9-0.6-1.2-1c-0.4-0.4-0.6-0.9-0.8-1.5c-0.2-0.6-0.3-1.2-0.3-1.9c0-0.6,0.1-1.3,0.3-1.9
	c0.2-0.5,0.5-1,0.8-1.5c0.3-0.4,0.8-0.8,1.2-1c0.5-0.2,1-0.4,1.6-0.4c0.5,0,1.1,0.1,1.5,0.4c0.5,0.2,0.9,0.6,1.2,1
	c0.4,0.4,0.6,1,0.8,1.5C351.1,42.1,351.2,42.7,351.2,43.4z M350.1,43.4c0-0.5-0.1-1-0.2-1.5c-0.1-0.4-0.3-0.8-0.6-1.2
	c-0.2-0.3-0.6-0.6-0.9-0.8c-0.3-0.2-0.7-0.3-1.1-0.3c-0.4,0-0.8,0.1-1.2,0.3c-0.3,0.2-0.7,0.4-0.9,0.8c-0.3,0.4-0.5,0.7-0.6,1.2
	c-0.1,0.5-0.2,1-0.2,1.5c0,0.5,0.1,1,0.2,1.5c0.1,0.4,0.3,0.8,0.6,1.2c0.2,0.3,0.5,0.6,0.9,0.8c0.4,0.2,0.8,0.3,1.2,0.3
	c0.4,0,0.8-0.1,1.1-0.3c0.4-0.2,0.7-0.4,0.9-0.8c0.3-0.3,0.5-0.7,0.6-1.1C350.1,44.4,350.2,43.9,350.1,43.4z"/>
<path d="M360.7,43.4c0,0.6-0.1,1.3-0.3,1.9c-0.2,0.5-0.5,1-0.8,1.5c-1,1.3-2.8,1.7-4.3,1c-0.5-0.2-0.9-0.6-1.2-1
	c-0.4-0.4-0.6-0.9-0.8-1.5c-0.2-0.6-0.3-1.2-0.3-1.9c0-0.6,0.1-1.3,0.3-1.9c0.2-0.5,0.5-1,0.8-1.5c0.3-0.4,0.8-0.8,1.2-1
	c1-0.5,2.1-0.5,3.1,0c0.5,0.2,0.9,0.6,1.2,1c0.4,0.4,0.6,0.9,0.8,1.5C360.6,42.1,360.7,42.7,360.7,43.4z M359.6,43.4
	c0-0.5-0.1-1-0.2-1.5c-0.1-0.4-0.3-0.8-0.6-1.2c-0.2-0.3-0.5-0.6-0.9-0.8c-0.7-0.4-1.6-0.4-2.3,0c-0.4,0.2-0.7,0.4-0.9,0.8
	c-0.3,0.4-0.5,0.8-0.6,1.2c-0.1,0.5-0.2,1-0.2,1.5c0,0.5,0.1,1,0.2,1.5c0.1,0.4,0.3,0.8,0.6,1.2c0.2,0.3,0.5,0.6,0.9,0.8
	c1.1,0.6,2.4,0.2,3.2-0.8c0.3-0.3,0.5-0.7,0.6-1.1C359.6,44.4,359.6,43.9,359.6,43.4z"/>
<path d="M366.7,38.1v-1.6h1v1.5L366.7,38.1z M366.7,47.9v-8.1h1v8.1L366.7,47.9z"/>
<path d="M382,47.9h-1v-4.5c0.1-0.7-0.1-1.4-0.5-2.1c-0.3-0.4-0.8-0.7-1.3-0.7c-0.3,0-0.6,0.1-0.9,0.2c-0.3,0.1-0.5,0.3-0.8,0.5
	c-0.2,0.2-0.4,0.5-0.6,0.7c-0.2,0.3-0.3,0.6-0.4,0.9v4.9h-1v-4.5c0.1-0.7-0.1-1.4-0.4-2.1c-0.3-0.4-0.8-0.7-1.3-0.7
	c-0.6,0-1.2,0.2-1.6,0.6c-0.5,0.5-0.8,1-1,1.7v5h-1v-8.1h1v1.8c0.3-0.6,0.7-1.1,1.3-1.5c0.5-0.3,1.1-0.5,1.8-0.5
	c0.6,0,1.2,0.2,1.6,0.6c0.4,0.4,0.7,0.9,0.8,1.5c0.5-1.2,1.8-2.1,3.1-2.1c0.4,0,0.8,0.1,1.1,0.3c0.3,0.2,0.6,0.4,0.8,0.7
	c0.2,0.3,0.3,0.7,0.4,1.1c0.1,0.5,0.1,1,0.1,1.4L382,47.9z"/>
<path d="M386.3,48.1c-0.4,0-0.7-0.1-1.1-0.2c-0.3-0.1-0.6-0.3-0.9-0.5c-0.2-0.2-0.4-0.5-0.6-0.8c-0.1-0.3-0.2-0.7-0.2-1
	c0-0.3,0.1-0.7,0.3-1c0.2-0.3,0.4-0.6,0.7-0.8c0.3-0.2,0.7-0.4,1.1-0.5c0.4-0.1,0.9-0.2,1.4-0.2c0.4,0,0.8,0,1.3,0.1
	c0.4,0.1,0.8,0.2,1.1,0.3v-0.7c0-0.6-0.2-1.2-0.6-1.7c-0.4-0.4-1-0.7-1.7-0.6c-0.4,0-0.9,0.1-1.3,0.3c-0.5,0.2-0.9,0.4-1.3,0.7
	l-0.4-0.7c0.9-0.6,1.9-1,3-1c0.9-0.1,1.7,0.3,2.4,0.8c0.6,0.6,0.9,1.5,0.9,2.4v3.6c0,0.3,0.1,0.4,0.4,0.4v0.9c-0.1,0-0.3,0-0.4,0
	c-0.2,0-0.5-0.1-0.6-0.2c-0.2-0.1-0.2-0.3-0.2-0.6v-0.6c-0.4,0.5-0.9,0.9-1.4,1.1C387.6,47.9,386.9,48.1,386.3,48.1z M386.6,47.2
	c0.5,0,1-0.1,1.5-0.3c0.4-0.2,0.8-0.5,1-0.8c0.1-0.1,0.2-0.2,0.2-0.3c0-0.1,0.1-0.2,0.1-0.3v-1.3c-0.4-0.1-0.7-0.2-1.1-0.3
	c-0.4-0.1-0.8-0.1-1.1-0.1c-0.6,0-1.3,0.1-1.8,0.5c-0.4,0.3-0.7,0.7-0.7,1.2c0,0.2,0,0.5,0.1,0.7c0.1,0.2,0.2,0.4,0.4,0.6
	c0.2,0.2,0.4,0.3,0.6,0.4C386,47.2,386.3,47.3,386.6,47.2z"/>
<path d="M396,48c-0.5,0-1.1-0.1-1.5-0.3c-0.5-0.2-0.9-0.5-1.2-0.9c-0.4-0.4-0.6-0.8-0.8-1.3c-0.2-0.5-0.3-1-0.3-1.5
	c0-0.5,0.1-1.1,0.3-1.6c0.2-0.5,0.4-1,0.8-1.4c0.3-0.4,0.7-0.7,1.2-0.9c0.5-0.2,1-0.3,1.5-0.3c0.6,0,1.3,0.2,1.8,0.5
	c0.5,0.4,1,0.8,1.3,1.3v-1.7h0.9v8.1c0,1-0.4,1.9-1.2,2.5c-0.4,0.3-0.8,0.5-1.3,0.7c-0.5,0.2-1,0.2-1.5,0.2c-0.8,0-1.6-0.1-2.3-0.5
	c-0.6-0.3-1-0.8-1.3-1.3l0.6-0.5c0.3,0.5,0.7,0.9,1.3,1.1c0.5,0.2,1.1,0.4,1.7,0.4c0.4,0,0.8-0.1,1.1-0.2c0.3-0.1,0.6-0.3,0.9-0.5
	c0.3-0.2,0.5-0.5,0.6-0.8c0.2-0.4,0.2-0.8,0.2-1.2v-1.6c-0.3,0.5-0.7,0.9-1.3,1.2C397.1,47.8,396.6,48,396,48z M396.3,47.1
	c0.3,0,0.6-0.1,0.9-0.2c0.3-0.1,0.6-0.3,0.8-0.5c0.2-0.2,0.4-0.4,0.6-0.6c0.2-0.2,0.3-0.5,0.3-0.7v-2.5c-0.2-0.6-0.6-1.1-1.1-1.4
	c-0.2-0.2-0.5-0.3-0.8-0.4c-0.3-0.1-0.6-0.2-0.9-0.2c-0.4,0-0.8,0.1-1.2,0.3c-0.3,0.2-0.7,0.4-0.9,0.8c-0.2,0.3-0.4,0.6-0.6,1
	c-0.1,0.4-0.2,0.8-0.2,1.2c0,0.8,0.3,1.6,0.9,2.3c0.3,0.3,0.6,0.5,1,0.7C395.5,47,395.9,47.1,396.3,47.1L396.3,47.1z"/>
<path d="M405.8,48.1c-0.6,0-1.1-0.1-1.6-0.3c-1-0.5-1.7-1.3-2.1-2.3c-0.2-0.5-0.3-1.1-0.3-1.6c0-0.5,0.1-1.1,0.3-1.6
	c0.2-0.5,0.5-0.9,0.8-1.3c0.4-0.4,0.8-0.7,1.3-0.9c1-0.4,2.2-0.4,3.2,0c0.5,0.2,0.9,0.5,1.3,0.9c0.4,0.4,0.6,0.8,0.8,1.3
	c0.2,0.5,0.3,1,0.3,1.6v0.3c0,0.1,0,0.1,0,0.2h-6.9c0,0.4,0.1,0.8,0.3,1.2c0.2,0.4,0.4,0.7,0.7,1c0.3,0.3,0.6,0.5,0.9,0.6
	c0.4,0.1,0.7,0.2,1.1,0.2c0.3,0,0.5,0,0.8-0.1c0.2-0.1,0.5-0.2,0.7-0.3c0.2-0.1,0.4-0.3,0.6-0.5c0.2-0.2,0.3-0.4,0.4-0.6l0.9,0.2
	c-0.1,0.3-0.3,0.6-0.5,0.8c-0.2,0.2-0.5,0.5-0.8,0.6c-0.3,0.2-0.6,0.3-1,0.4C406.6,48,406.2,48.1,405.8,48.1z M408.8,43.4
	c0-0.4-0.1-0.8-0.3-1.2c-0.2-0.3-0.4-0.7-0.6-0.9c-0.3-0.3-0.6-0.5-0.9-0.6c-0.3-0.1-0.7-0.2-1.1-0.2c-0.4,0-0.8,0.1-1.1,0.2
	c-0.3,0.1-0.7,0.3-0.9,0.6c-0.3,0.3-0.5,0.6-0.6,0.9c-0.2,0.4-0.3,0.8-0.3,1.2L408.8,43.4z"/>
<path d="M414.1,48.1c-0.6,0-1.3-0.1-1.9-0.3c-0.6-0.2-1.1-0.5-1.5-0.9l0.5-0.7c0.4,0.3,0.9,0.6,1.4,0.8c0.5,0.2,1,0.3,1.5,0.3
	c0.5,0,1.1-0.1,1.6-0.4c0.4-0.2,0.6-0.7,0.6-1.1c0-0.2,0-0.4-0.1-0.6c-0.1-0.2-0.3-0.3-0.5-0.4c-0.2-0.1-0.5-0.2-0.8-0.3
	c-0.3-0.1-0.7-0.2-1.1-0.3s-0.9-0.2-1.2-0.3c-0.3-0.1-0.6-0.2-0.9-0.4c-0.2-0.1-0.4-0.3-0.5-0.5c-0.1-0.3-0.2-0.5-0.2-0.8
	c0-0.4,0.1-0.7,0.2-1.1c0.2-0.3,0.4-0.6,0.6-0.8c0.3-0.2,0.6-0.4,1-0.5c0.4-0.1,0.8-0.2,1.2-0.2c0.6,0,1.2,0.1,1.7,0.3
	c0.5,0.2,0.9,0.4,1.2,0.8l-0.5,0.6c-0.3-0.3-0.7-0.6-1.1-0.7c-0.4-0.2-0.9-0.2-1.3-0.2c-0.3,0-0.5,0-0.8,0.1c-0.2,0-0.4,0.1-0.6,0.3
	c-0.2,0.1-0.3,0.3-0.4,0.5c-0.1,0.2-0.2,0.4-0.2,0.7c0,0.2,0,0.4,0.1,0.5c0.1,0.1,0.2,0.3,0.4,0.3c0.2,0.1,0.4,0.2,0.6,0.3
	c0.3,0.1,0.6,0.2,0.9,0.2s1,0.3,1.4,0.4c0.4,0.1,0.7,0.2,1,0.4c0.2,0.1,0.4,0.4,0.6,0.6c0.1,0.3,0.2,0.6,0.2,0.9
	c0,0.7-0.3,1.4-0.9,1.8C415.7,47.9,414.9,48.1,414.1,48.1z"/>
<path d="M290.6,83.9c0-0.4,0-0.7,0.1-1.1c0.1-0.4,0.2-0.7,0.4-1.1c0.2-0.4,0.5-0.7,0.8-1c0.4-0.4,0.8-0.7,1.3-0.9l0.9-0.4
	c0.3-0.1,0.6-0.3,0.9-0.5c0.3-0.2,0.5-0.4,0.7-0.6c0.2-0.2,0.3-0.5,0.3-0.8c0-0.2,0-0.4-0.1-0.6c-0.1-0.2-0.2-0.4-0.4-0.5
	c-0.2-0.2-0.4-0.3-0.6-0.4c-0.3-0.1-0.6-0.1-0.9-0.1c-0.3,0-0.6,0-0.9,0.1c-0.2,0.1-0.5,0.2-0.7,0.3c-0.2,0.1-0.4,0.3-0.5,0.4
	c-0.1,0.1-0.2,0.2-0.3,0.4l-0.7-0.8l0.4-0.3c0.2-0.2,0.4-0.4,0.7-0.5c0.3-0.2,0.7-0.3,1-0.4c0.4-0.1,0.9-0.2,1.3-0.2
	c0.4,0,0.9,0.1,1.3,0.2c0.3,0.1,0.7,0.3,0.9,0.5c0.3,0.2,0.5,0.5,0.6,0.8c0.1,0.3,0.2,0.6,0.2,0.9c0,0.4-0.1,0.8-0.3,1.1
	c-0.2,0.3-0.4,0.6-0.7,0.8c-0.3,0.2-0.6,0.4-0.9,0.6c-0.3,0.2-0.6,0.3-0.8,0.4s-0.6,0.3-1,0.5c-0.3,0.2-0.6,0.4-0.8,0.6
	c-0.2,0.2-0.4,0.5-0.6,0.7c-0.2,0.3-0.2,0.6-0.2,0.9h5.5v1L290.6,83.9z"/>
<path d="M306.6,79.3c0,0.6-0.1,1.3-0.3,1.9c-0.2,0.5-0.5,1-0.8,1.5c-0.3,0.4-0.7,0.8-1.2,1c-1,0.5-2.1,0.5-3.1,0
	c-0.5-0.2-0.9-0.6-1.2-1c-0.4-0.4-0.6-0.9-0.8-1.5c-0.2-0.6-0.3-1.2-0.3-1.9c0-0.6,0.1-1.3,0.3-1.9c0.2-0.5,0.5-1,0.8-1.5
	c0.3-0.4,0.8-0.8,1.2-1c1-0.5,2.1-0.5,3.1,0c0.5,0.2,0.9,0.6,1.2,1c0.4,0.4,0.6,0.9,0.8,1.5C306.5,78.1,306.6,78.7,306.6,79.3z
	 M305.5,79.3c0-0.5-0.1-1-0.2-1.5c-0.1-0.4-0.3-0.8-0.6-1.2c-0.2-0.3-0.5-0.6-0.9-0.8c-0.7-0.4-1.6-0.4-2.3,0
	c-0.4,0.2-0.7,0.4-0.9,0.8c-0.3,0.4-0.5,0.8-0.6,1.2c-0.3,1-0.3,2,0,3c0.1,0.4,0.3,0.8,0.6,1.2c0.2,0.3,0.5,0.6,0.9,0.8
	c1.1,0.6,2.5,0.2,3.2-0.8c0.3-0.3,0.5-0.7,0.6-1.1C305.5,80.4,305.6,79.9,305.5,79.3z"/>
<path d="M316.1,79.3c0,0.6-0.1,1.3-0.3,1.9c-0.2,0.5-0.4,1-0.8,1.5c-0.3,0.4-0.8,0.8-1.2,1c-0.5,0.2-1,0.4-1.5,0.3
	c-0.5,0-1.1-0.1-1.5-0.3c-0.5-0.2-0.9-0.6-1.2-1c-0.4-0.4-0.6-0.9-0.8-1.5c-0.2-0.6-0.3-1.2-0.3-1.9c0-0.6,0.1-1.3,0.3-1.9
	c0.2-0.5,0.5-1,0.8-1.5c0.3-0.4,0.8-0.8,1.2-1c0.5-0.2,1-0.4,1.5-0.4c0.5,0,1.1,0.1,1.5,0.4c0.5,0.2,0.9,0.6,1.2,1
	c0.4,0.4,0.6,0.9,0.8,1.5C316,78.1,316.1,78.7,316.1,79.3z M315,79.3c0-0.5-0.1-1-0.2-1.5c-0.1-0.4-0.3-0.8-0.6-1.2
	c-0.2-0.3-0.5-0.6-0.9-0.8c-0.7-0.4-1.6-0.4-2.3,0c-0.3,0.2-0.6,0.4-0.9,0.8c-0.3,0.4-0.5,0.8-0.6,1.2c-0.3,1-0.3,2,0,3
	c0.1,0.4,0.3,0.8,0.6,1.2c0.2,0.3,0.5,0.6,0.9,0.8c0.7,0.3,1.6,0.3,2.3,0c0.3-0.2,0.7-0.4,0.9-0.8c0.3-0.4,0.5-0.7,0.6-1.2
	C315,80.4,315,79.9,315,79.3z"/>
<path d="M325.6,79.3c0,0.6-0.1,1.3-0.3,1.9c-0.2,0.5-0.5,1-0.8,1.5c-0.3,0.4-0.8,0.8-1.2,1c-1,0.5-2.1,0.5-3.1,0
	c-0.5-0.2-0.9-0.6-1.2-1c-0.4-0.4-0.6-0.9-0.8-1.5c-0.2-0.6-0.3-1.2-0.3-1.9c0-0.6,0.1-1.3,0.3-1.9c0.2-0.5,0.4-1,0.8-1.5
	c0.3-0.4,0.8-0.8,1.2-1c1-0.5,2.1-0.5,3.1,0c0.5,0.2,0.9,0.6,1.2,1c0.4,0.4,0.6,1,0.8,1.5C325.5,78.1,325.6,78.7,325.6,79.3z
	 M324.5,79.3c0-0.5-0.1-1-0.2-1.5c-0.1-0.4-0.3-0.8-0.6-1.2c-0.2-0.3-0.5-0.6-0.9-0.8c-0.3-0.2-0.7-0.3-1.1-0.3
	c-0.4,0-0.8,0.1-1.1,0.3c-0.4,0.2-0.7,0.4-0.9,0.8c-0.3,0.4-0.5,0.8-0.6,1.2c-0.3,1-0.3,2,0,3c0.1,0.4,0.3,0.8,0.6,1.2
	c0.2,0.3,0.5,0.6,0.9,0.8c0.4,0.2,0.8,0.3,1.1,0.3c0.8,0,1.5-0.4,2-1c0.3-0.3,0.5-0.7,0.6-1.2C324.4,80.4,324.5,79.9,324.5,79.3z"/>
<path d="M335.1,79.3c0,0.6-0.1,1.3-0.3,1.9c-0.2,0.5-0.4,1-0.8,1.5c-0.3,0.4-0.8,0.8-1.2,1c-1.5,0.7-3.3,0.3-4.3-1
	c-0.4-0.4-0.6-0.9-0.8-1.5c-0.2-0.6-0.3-1.2-0.3-1.9c0-0.6,0.1-1.3,0.3-1.9c0.2-0.5,0.5-1,0.8-1.5c0.3-0.4,0.8-0.8,1.2-1
	c1-0.5,2.1-0.5,3.1,0c0.5,0.2,0.9,0.6,1.2,1c0.4,0.4,0.6,0.9,0.8,1.5C335,78.1,335.1,78.7,335.1,79.3z M334,79.3
	c0-0.5-0.1-1-0.2-1.5c-0.1-0.4-0.3-0.8-0.6-1.2c-0.2-0.3-0.5-0.6-0.9-0.8c-0.7-0.4-1.6-0.4-2.3,0c-0.3,0.2-0.6,0.4-0.9,0.8
	c-0.3,0.4-0.5,0.8-0.6,1.2c-0.3,1-0.3,2,0,3c0.1,0.4,0.3,0.8,0.6,1.2c0.2,0.3,0.5,0.6,0.9,0.8c0.7,0.3,1.6,0.3,2.3,0
	c0.3-0.2,0.7-0.4,0.9-0.8c0.3-0.4,0.5-0.7,0.6-1.2C333.9,80.4,334,79.9,334,79.3z"/>
<path d="M344.6,79.3c0,0.6-0.1,1.3-0.3,1.9c-0.2,0.5-0.5,1-0.8,1.5c-0.3,0.4-0.8,0.8-1.2,1c-0.5,0.2-1,0.4-1.5,0.3
	c-0.5,0-1.1-0.1-1.6-0.3c-0.5-0.2-0.9-0.6-1.2-1c-0.4-0.4-0.6-0.9-0.8-1.5c-0.2-0.6-0.3-1.2-0.3-1.9c0-0.6,0.1-1.3,0.3-1.9
	c0.2-0.5,0.5-1,0.8-1.5c0.3-0.4,0.8-0.8,1.2-1c0.5-0.2,1-0.4,1.6-0.4c0.5,0,1.1,0.1,1.5,0.4c0.5,0.2,0.9,0.6,1.2,1
	c0.4,0.4,0.6,1,0.8,1.5C344.5,78.1,344.6,78.7,344.6,79.3z M343.5,79.3c0-0.5-0.1-1-0.2-1.5c-0.1-0.4-0.3-0.8-0.6-1.2
	c-0.2-0.3-0.5-0.6-0.9-0.8c-0.3-0.2-0.7-0.3-1.1-0.3c-0.4,0-0.8,0.1-1.2,0.3c-0.3,0.2-0.7,0.4-0.9,0.8c-0.3,0.4-0.5,0.8-0.6,1.2
	c-0.3,1-0.3,2,0,3c0.1,0.4,0.3,0.8,0.6,1.2c0.5,0.7,1.2,1,2,1c0.4,0,0.8-0.1,1.1-0.3c0.4-0.2,0.7-0.4,0.9-0.8
	c0.3-0.4,0.5-0.7,0.6-1.2C343.4,80.3,343.5,79.8,343.5,79.3z"/>
<path d="M354.3,72.9l-7.3,11h-1.2l7.3-11H354.3z"/>
<path d="M355.1,83.9c0-0.4,0-0.7,0.1-1.1c0.1-0.4,0.2-0.7,0.4-1.1c0.2-0.4,0.5-0.7,0.8-1c0.4-0.4,0.9-0.7,1.3-0.9l0.9-0.4
	c0.3-0.1,0.6-0.3,0.9-0.5c0.3-0.2,0.5-0.4,0.7-0.6c0.2-0.2,0.3-0.5,0.3-0.8c0-0.2,0-0.4-0.1-0.6c-0.1-0.2-0.2-0.4-0.4-0.5
	c-0.2-0.2-0.4-0.3-0.6-0.4c-0.3-0.1-0.6-0.1-0.9-0.1c-0.3,0-0.6,0-0.9,0.1c-0.2,0.1-0.5,0.2-0.7,0.3c-0.2,0.1-0.4,0.3-0.5,0.4
	c-0.1,0.2-0.3,0.3-0.3,0.4l-0.7-0.8l0.4-0.3c0.2-0.2,0.4-0.4,0.7-0.5c0.3-0.2,0.7-0.3,1-0.4c0.4-0.1,0.8-0.2,1.3-0.2
	c0.4,0,0.9,0.1,1.3,0.2c0.3,0.1,0.7,0.3,1,0.5c0.2,0.2,0.4,0.5,0.6,0.8c0.1,0.3,0.2,0.6,0.2,0.9c0,0.4-0.1,0.8-0.3,1.1
	c-0.2,0.3-0.4,0.6-0.7,0.8c-0.3,0.2-0.6,0.4-0.9,0.6c-0.3,0.2-0.6,0.3-0.8,0.4s-0.7,0.3-1,0.5c-0.3,0.2-0.6,0.4-0.9,0.6
	c-0.2,0.2-0.4,0.5-0.6,0.7c-0.2,0.3-0.2,0.6-0.2,0.9h5.5v1L355.1,83.9z"/>
<path d="M371.2,80.3c0,0.5-0.1,1-0.3,1.5c-0.2,0.5-0.5,0.9-0.8,1.2c-0.4,0.3-0.8,0.6-1.2,0.8c-0.5,0.2-1,0.3-1.5,0.3
	c-0.5,0-1.1-0.1-1.6-0.3c-0.5-0.2-0.9-0.5-1.3-0.9c-0.4-0.4-0.6-0.9-0.8-1.4c-0.2-0.6-0.3-1.3-0.3-1.9c0-1,0.1-2,0.3-2.9
	c0.2-0.7,0.4-1.4,0.8-2.1c0.3-0.5,0.8-0.9,1.3-1.2c0.5-0.3,1.1-0.4,1.7-0.4c0.7,0,1.4,0.2,2,0.6c0.6,0.4,1,0.9,1.3,1.5l-0.7,0.6
	c-0.4-1.1-1.5-1.7-2.6-1.7c-0.4,0-0.9,0.1-1.2,0.3c-0.4,0.2-0.7,0.6-1,0.9c-0.3,0.5-0.5,1-0.6,1.5c-0.2,0.7-0.2,1.3-0.2,2
	c0.2-0.6,0.6-1.1,1.2-1.5c0.6-0.4,1.2-0.6,1.9-0.5c0.5,0,1,0.1,1.5,0.3c0.4,0.2,0.9,0.4,1.2,0.8C370.8,78.3,371.2,79.2,371.2,80.3
	L371.2,80.3z M367.3,83.1c0.4,0,0.8-0.1,1.1-0.2c0.3-0.1,0.7-0.4,0.9-0.6c0.3-0.3,0.5-0.6,0.6-0.9c0.3-0.7,0.3-1.5,0-2.2
	c-0.2-0.3-0.4-0.6-0.6-0.9c-0.3-0.3-0.6-0.5-0.9-0.6c-0.7-0.3-1.5-0.3-2.2,0c-0.3,0.1-0.6,0.4-0.9,0.6c-0.3,0.3-0.5,0.6-0.6,0.9
	c-0.2,0.4-0.2,0.7-0.2,1.1c0,0.4,0.1,0.8,0.2,1.1c0.2,0.3,0.4,0.6,0.6,0.9c0.3,0.3,0.6,0.5,0.9,0.6
	C366.6,83.1,366.9,83.1,367.3,83.1z"/>
<path d="M380.3,80.8c0,0.5-0.1,0.9-0.3,1.3c-0.2,0.4-0.5,0.7-0.8,1c-0.4,0.3-0.8,0.5-1.2,0.7c-0.5,0.1-1,0.2-1.5,0.2
	c-0.5,0-1-0.1-1.5-0.3c-0.4-0.2-0.8-0.4-1.2-0.7c-0.3-0.3-0.6-0.6-0.8-1c-0.2-0.4-0.3-0.8-0.3-1.3c0-0.3,0.1-0.7,0.2-1
	c0.1-0.3,0.3-0.6,0.5-0.8c0.2-0.2,0.4-0.4,0.7-0.6c0.2-0.2,0.5-0.3,0.8-0.4c-0.2-0.1-0.5-0.2-0.7-0.4c-0.2-0.1-0.4-0.3-0.6-0.5
	c-0.2-0.2-0.3-0.4-0.4-0.7c-0.1-0.2-0.2-0.5-0.1-0.8c0-0.4,0.1-0.8,0.3-1.2c0.2-0.3,0.5-0.6,0.8-0.9c0.3-0.2,0.7-0.4,1.1-0.5
	c0.8-0.3,1.7-0.3,2.5,0c0.4,0.1,0.8,0.3,1.1,0.5c0.3,0.2,0.6,0.5,0.8,0.9c0.2,0.4,0.3,0.8,0.3,1.2c0,0.3,0,0.5-0.1,0.8
	c-0.1,0.2-0.2,0.5-0.4,0.7c-0.2,0.2-0.4,0.4-0.6,0.5c-0.2,0.1-0.5,0.3-0.7,0.4c0.3,0.1,0.6,0.2,0.9,0.4c0.3,0.2,0.5,0.4,0.7,0.6
	c0.2,0.2,0.4,0.5,0.5,0.8C380.2,80.2,380.3,80.5,380.3,80.8z M379.2,80.8c0-0.3-0.1-0.7-0.3-1c-0.2-0.3-0.4-0.5-0.6-0.7
	c-0.3-0.2-0.6-0.4-0.9-0.4c-0.3-0.1-0.7-0.2-1-0.2c-0.7,0-1.3,0.2-1.9,0.6c-0.3,0.2-0.5,0.5-0.6,0.7c-0.2,0.3-0.2,0.7-0.2,1
	c0,0.4,0.1,0.7,0.3,1c0.2,0.3,0.4,0.5,0.6,0.7c0.3,0.2,0.6,0.4,0.9,0.4c0.3,0.1,0.7,0.2,1,0.2c0.3,0,0.7-0.1,1-0.2
	c0.3-0.1,0.6-0.3,0.9-0.5c0.3-0.2,0.5-0.4,0.6-0.7C379.1,81.5,379.2,81.1,379.2,80.8z M374.1,75.8c0,0.3,0.1,0.6,0.2,0.8
	c0.1,0.2,0.3,0.4,0.6,0.6c0.2,0.2,0.5,0.3,0.8,0.4c0.5,0.2,1.1,0.2,1.7,0c0.3-0.1,0.5-0.2,0.8-0.4c0.2-0.2,0.4-0.4,0.6-0.6
	c0.1-0.2,0.2-0.5,0.2-0.8c0-0.3-0.1-0.5-0.2-0.8c-0.1-0.2-0.3-0.4-0.5-0.6c-0.2-0.2-0.5-0.3-0.8-0.4c-0.3-0.1-0.6-0.1-0.9-0.1
	c-0.3,0-0.6,0-0.9,0.1c-0.3,0.1-0.5,0.2-0.8,0.4c-0.2,0.2-0.4,0.4-0.5,0.6C374.1,75.2,374.1,75.5,374.1,75.8L374.1,75.8z"/>
<path d="M389.7,79.3c0,0.6-0.1,1.3-0.3,1.9c-0.2,0.5-0.5,1-0.8,1.5c-0.3,0.4-0.8,0.8-1.2,1c-1,0.5-2.1,0.5-3.1,0
	c-0.5-0.2-0.9-0.6-1.2-1c-0.4-0.4-0.6-0.9-0.8-1.5c-0.2-0.6-0.3-1.2-0.3-1.9c0-0.6,0.1-1.3,0.3-1.9c0.2-0.5,0.5-1,0.8-1.5
	c0.3-0.4,0.8-0.8,1.2-1c1-0.5,2.1-0.5,3.1,0c0.5,0.2,0.9,0.6,1.2,1c0.4,0.4,0.6,1,0.8,1.5C389.6,78.1,389.7,78.7,389.7,79.3z
	 M388.6,79.3c0-0.5-0.1-1-0.2-1.5c-0.1-0.4-0.3-0.8-0.6-1.2c-0.2-0.3-0.5-0.6-0.9-0.8c-0.3-0.2-0.7-0.3-1.1-0.3
	c-0.4,0-0.8,0.1-1.2,0.3c-0.3,0.2-0.7,0.4-0.9,0.8c-0.3,0.4-0.5,0.8-0.6,1.2c-0.3,1-0.3,2,0,3c0.1,0.4,0.3,0.8,0.6,1.2
	c0.5,0.7,1.2,1,2,1c0.4,0,0.8-0.1,1.1-0.3c0.4-0.2,0.7-0.4,0.9-0.8c0.3-0.3,0.5-0.7,0.6-1.1C388.6,80.4,388.6,79.9,388.6,79.3z"/>
<path d="M399.2,79.3c0,0.6-0.1,1.3-0.3,1.9c-0.2,0.5-0.5,1-0.8,1.5c-0.3,0.4-0.7,0.8-1.2,1c-1,0.5-2.1,0.5-3.1,0
	c-0.5-0.2-0.9-0.6-1.2-1c-0.4-0.4-0.6-0.9-0.8-1.5c-0.2-0.6-0.3-1.2-0.3-1.9c0-0.6,0.1-1.3,0.3-1.9c0.2-0.5,0.5-1,0.8-1.5
	c0.3-0.4,0.8-0.8,1.2-1c1-0.5,2.1-0.5,3.1,0c0.5,0.2,0.9,0.6,1.2,1c0.4,0.4,0.6,0.9,0.8,1.5C399.1,78.1,399.2,78.7,399.2,79.3z
	 M398.1,79.3c0-0.5-0.1-1-0.2-1.5c-0.1-0.4-0.3-0.8-0.6-1.2c-0.2-0.3-0.5-0.6-0.9-0.7c-0.7-0.4-1.6-0.4-2.3,0
	c-0.4,0.2-0.7,0.4-0.9,0.8c-0.3,0.4-0.5,0.8-0.6,1.2c-0.3,1-0.3,2,0,3c0.1,0.4,0.3,0.8,0.6,1.2c0.2,0.3,0.5,0.6,0.9,0.8
	c1.1,0.6,2.5,0.2,3.2-0.8c0.3-0.4,0.5-0.7,0.6-1.2C398,80.4,398.1,79.9,398.1,79.3z"/>
<path d="M408.6,79.3c0,0.6-0.1,1.3-0.3,1.9c-0.2,0.5-0.4,1-0.8,1.5c-0.3,0.4-0.8,0.8-1.2,1c-1.5,0.7-3.3,0.3-4.3-1
	c-0.4-0.4-0.6-0.9-0.8-1.5c-0.2-0.6-0.3-1.2-0.3-1.9c0-0.6,0.1-1.3,0.3-1.9c0.2-0.5,0.5-1,0.8-1.5c0.3-0.4,0.8-0.8,1.2-1
	c1-0.5,2.1-0.5,3.1,0c0.5,0.2,0.9,0.6,1.2,1c0.4,0.4,0.6,0.9,0.8,1.5C408.6,78.1,408.7,78.7,408.6,79.3z M407.6,79.3
	c0-0.5-0.1-1-0.2-1.5c-0.1-0.4-0.3-0.8-0.6-1.2c-0.2-0.3-0.5-0.6-0.9-0.8c-0.7-0.4-1.6-0.4-2.3,0c-0.3,0.2-0.6,0.4-0.9,0.8
	c-0.3,0.4-0.5,0.8-0.6,1.2c-0.3,1-0.3,2,0,3c0.1,0.4,0.3,0.8,0.6,1.2c0.2,0.3,0.5,0.6,0.9,0.8c0.7,0.3,1.6,0.3,2.3,0
	c0.3-0.2,0.7-0.4,0.9-0.8c0.3-0.4,0.5-0.7,0.6-1.2C407.5,80.4,407.6,79.9,407.6,79.3z"/>
<path d="M418.5,83.5l-0.3,0.1l-0.4,0.2c-0.2,0.1-0.4,0.1-0.5,0.1c-0.2,0-0.4,0.1-0.6,0.1c-0.2,0-0.4,0-0.6-0.1
	c-0.2-0.1-0.4-0.2-0.5-0.3c-0.2-0.1-0.3-0.3-0.4-0.5c-0.1-0.2-0.1-0.4-0.1-0.7v-5.8h-1.1v-0.8h1.1v-2.7h1v2.7h1.9v0.8H416v5.5
	c0,0.3,0.1,0.5,0.3,0.7c0.2,0.1,0.4,0.2,0.7,0.2c0.3,0,0.5,0,0.8-0.2c0.1-0.1,0.3-0.1,0.4-0.2L418.5,83.5z"/>
<path d="M419.8,74.1v-1.5h1v1.6L419.8,74.1z M419.8,83.9v-8.1h1v8.1L419.8,83.9z"/>
<path d="M435.2,83.9h-1.1v-4.5c0.1-0.7-0.1-1.4-0.5-2.1c-0.3-0.4-0.8-0.7-1.3-0.7c-0.3,0-0.6,0.1-0.9,0.2c-0.3,0.1-0.5,0.3-0.8,0.5
	c-0.2,0.2-0.5,0.5-0.6,0.7c-0.2,0.3-0.3,0.6-0.4,0.9v4.9h-1v-4.5c0.1-0.7-0.1-1.5-0.4-2.1c-0.3-0.4-0.8-0.7-1.3-0.7
	c-0.6,0-1.2,0.2-1.6,0.6c-0.5,0.5-0.8,1-1,1.7v5h-1v-8.1h1v1.8c0.3-0.6,0.7-1.1,1.3-1.4c0.5-0.3,1.1-0.5,1.8-0.5
	c0.6,0,1.2,0.2,1.6,0.6c0.4,0.4,0.7,0.9,0.8,1.5c0.5-1.2,1.8-2.1,3.1-2.1c0.4,0,0.8,0.1,1.2,0.3c0.3,0.2,0.6,0.4,0.8,0.7
	c0.2,0.3,0.3,0.7,0.4,1.1c0.1,0.5,0.1,1,0.1,1.4L435.2,83.9z"/>
<path d="M440.9,84c-1.1,0-2.2-0.4-2.9-1.3c-0.4-0.4-0.7-0.8-0.9-1.3c-0.2-0.5-0.3-1.1-0.3-1.6c0-1.1,0.4-2.1,1.1-2.9
	c0.4-0.4,0.8-0.7,1.3-0.9c1-0.4,2.2-0.4,3.2,0c0.5,0.2,0.9,0.5,1.3,0.9c0.4,0.4,0.6,0.8,0.8,1.3c0.2,0.5,0.3,1,0.3,1.6v0.3
	c0,0.1,0,0.1,0,0.2H438c0.1,0.8,0.4,1.6,1,2.2c0.3,0.3,0.6,0.5,0.9,0.6c0.3,0.1,0.7,0.2,1.1,0.2c0.3,0,0.5,0,0.8-0.1
	c0.2-0.1,0.5-0.2,0.7-0.3c0.2-0.1,0.4-0.3,0.6-0.5c0.2-0.2,0.3-0.4,0.4-0.6l0.9,0.3c-0.1,0.3-0.3,0.6-0.5,0.8
	c-0.2,0.2-0.5,0.5-0.8,0.6c-0.3,0.2-0.6,0.3-1,0.4C441.7,84,441.3,84.1,440.9,84z M443.9,79.4c0-0.4-0.1-0.8-0.3-1.2
	c-0.2-0.3-0.4-0.7-0.6-0.9c-0.3-0.3-0.6-0.5-0.9-0.6c-0.4-0.1-0.7-0.2-1.1-0.2c-0.4,0-0.8,0.1-1.1,0.2c-0.3,0.1-0.7,0.3-0.9,0.6
	c-0.3,0.3-0.5,0.6-0.6,0.9c-0.2,0.4-0.3,0.8-0.3,1.2H443.9z"/>
<path d="M449.2,84c-0.6,0-1.2-0.1-1.8-0.3c-0.6-0.2-1.1-0.5-1.5-0.9l0.5-0.7c0.4,0.3,0.9,0.6,1.4,0.8c0.5,0.2,1,0.3,1.5,0.3
	c0.5,0,1.1-0.1,1.6-0.4c0.4-0.2,0.6-0.7,0.6-1.1c0-0.2,0-0.4-0.1-0.6c-0.1-0.2-0.3-0.3-0.5-0.4c-0.2-0.1-0.5-0.2-0.8-0.3
	c-0.3-0.1-0.7-0.2-1.1-0.3s-0.9-0.2-1.2-0.3c-0.3-0.1-0.6-0.2-0.8-0.4c-0.2-0.1-0.4-0.3-0.5-0.5c-0.1-0.3-0.2-0.5-0.2-0.8
	c0-0.4,0.1-0.7,0.2-1.1c0.2-0.3,0.4-0.6,0.6-0.8c0.3-0.2,0.6-0.4,1-0.4c0.4-0.1,0.8-0.2,1.2-0.2c0.6,0,1.2,0.1,1.7,0.3
	c0.5,0.2,0.9,0.4,1.2,0.8l-0.5,0.6c-0.3-0.3-0.7-0.6-1.1-0.7c-0.4-0.2-0.9-0.2-1.3-0.2c-0.3,0-0.5,0-0.8,0.1c-0.2,0-0.4,0.1-0.6,0.3
	c-0.2,0.1-0.3,0.3-0.4,0.5c-0.1,0.2-0.2,0.4-0.1,0.7c0,0.2,0,0.4,0.1,0.5c0.1,0.1,0.2,0.3,0.4,0.3c0.2,0.1,0.4,0.2,0.6,0.3
	c0.3,0.1,0.6,0.2,0.9,0.2c0.5,0.1,1,0.3,1.4,0.4c0.4,0.1,0.7,0.2,1,0.4c0.2,0.2,0.5,0.4,0.6,0.6c0.1,0.3,0.2,0.6,0.2,0.9
	c0,0.7-0.3,1.4-0.9,1.8C450.9,83.9,450,84.1,449.2,84z"/>
<path d="M168.8,6.5c-0.3-0.3-0.7-0.6-1.1-0.8c-0.5-0.2-1-0.3-1.6-0.3c-0.7-0.1-1.3,0.1-1.9,0.5c-0.4,0.3-0.6,0.8-0.6,1.3
	c0,0.3,0,0.5,0.2,0.7c0.1,0.2,0.3,0.4,0.5,0.5c0.3,0.2,0.6,0.3,0.9,0.4c0.4,0.1,0.8,0.2,1.2,0.3c0.5,0.1,1,0.2,1.4,0.4
	c0.4,0.1,0.7,0.3,1.1,0.5c0.3,0.2,0.5,0.5,0.7,0.8c0.2,0.3,0.3,0.7,0.2,1.1c0,0.4-0.1,0.8-0.3,1.2c-0.2,0.3-0.4,0.6-0.7,0.8
	c-0.3,0.2-0.7,0.4-1.1,0.5c-0.5,0.1-0.9,0.2-1.4,0.2c-1.5,0-2.9-0.5-4-1.4l0.5-0.8c0.2,0.2,0.4,0.4,0.6,0.5c0.3,0.2,0.5,0.3,0.8,0.4
	c0.3,0.1,0.7,0.2,1,0.3c0.4,0.1,0.7,0.1,1.1,0.1c0.6,0,1.3-0.1,1.8-0.4c0.4-0.3,0.7-0.8,0.7-1.3c0-0.3-0.1-0.5-0.2-0.8
	c-0.1-0.2-0.3-0.4-0.6-0.6c-0.3-0.2-0.6-0.3-0.9-0.4c-0.4-0.1-0.8-0.2-1.3-0.3s-1-0.2-1.4-0.4c-0.4-0.1-0.7-0.3-1-0.5
	c-0.3-0.2-0.5-0.4-0.6-0.7c-0.1-0.3-0.2-0.7-0.2-1c0-0.4,0.1-0.8,0.3-1.2c0.2-0.3,0.4-0.7,0.7-0.9c0.3-0.2,0.7-0.4,1.1-0.5
	c0.5-0.1,0.9-0.2,1.4-0.2c0.6,0,1.2,0.1,1.8,0.3c0.5,0.2,1,0.5,1.4,0.8L168.8,6.5z"/>
<path d="M174.3,4.7h0.8l4.1,9.9h-1l-1.3-3.1h-4.4l-1.3,3.1h-1.1L174.3,4.7z M176.7,10.7l-2-4.9l-2,4.9H176.7z"/>
<path d="M187.3,13.7v0.9h-6.6V4.7h6.5v0.9h-5.5v3.6h4.8v0.8h-4.8v3.8L187.3,13.7z"/>
<path d="M196.9,4.7v9.9h-1V9.9h-5.9v4.6h-1V4.7h1v4.4h5.9V4.7H196.9z"/>
<path d="M199.4,14.6V4.7h3.4c0.7,0,1.4,0.1,2.1,0.4c0.6,0.2,1.1,0.6,1.5,1.1c0.4,0.5,0.7,1,0.9,1.6c0.2,0.6,0.3,1.3,0.3,1.9
	c0,0.7-0.1,1.4-0.3,2c-0.2,0.6-0.6,1.1-1,1.6c-0.4,0.4-0.9,0.8-1.5,1c-0.6,0.3-1.3,0.4-2,0.4L199.4,14.6z M206.5,9.6
	c0-0.6-0.1-1.1-0.3-1.6c-0.2-0.5-0.4-0.9-0.7-1.3c-0.3-0.4-0.7-0.6-1.2-0.8c-0.5-0.2-1.1-0.3-1.6-0.3h-2.4v8.1h2.4
	c0.6,0,1.1-0.1,1.6-0.3c0.5-0.2,0.9-0.5,1.2-0.9c0.3-0.4,0.6-0.8,0.7-1.3C206.4,10.7,206.5,10.2,206.5,9.6L206.5,9.6z"/>
<rect x="158.1" y="0.5" class="st0" width="53.5" height="18.2"/>
<path d="M49.4,139.8h-4.6v11.8h-1.3v-11.8H39v-1.1h10.4V139.8z"/>
<path d="M53.8,143.2c-0.8,0-1.5,0.3-2.2,0.7c-0.6,0.4-1.1,1.1-1.3,1.8v5.9h-1.2v-9.4h1.2v2.3c0.3-0.7,0.8-1.3,1.4-1.7
	c0.6-0.4,1.2-0.6,1.9-0.6h0.2V143.2z"/>
<path d="M57.7,151.8c-0.4,0-0.8-0.1-1.2-0.2c-0.4-0.1-0.7-0.4-1-0.6c-0.3-0.3-0.5-0.6-0.7-0.9c-0.2-0.4-0.2-0.8-0.2-1.1
	c0-0.4,0.1-0.8,0.3-1.1c0.2-0.4,0.5-0.7,0.8-0.9c0.4-0.3,0.8-0.5,1.3-0.6c0.5-0.1,1.1-0.2,1.6-0.2c0.5,0,1,0,1.5,0.1
	c0.5,0.1,0.9,0.2,1.3,0.4v-0.9c0-0.7-0.2-1.5-0.7-2c-0.5-0.5-1.3-0.8-2-0.7c-0.5,0-1,0.1-1.5,0.3c-0.5,0.2-1.1,0.5-1.5,0.8l-0.4-0.8
	c1-0.8,2.3-1.2,3.6-1.2c1-0.1,2,0.3,2.8,1c0.7,0.7,1.1,1.7,1,2.8v4.3c0,0.3,0.2,0.5,0.5,0.5v1.1c-0.2,0-0.3,0.1-0.5,0.1
	c-0.3,0-0.5-0.1-0.7-0.2c-0.2-0.2-0.3-0.4-0.3-0.6V150c-0.4,0.6-1,1-1.7,1.3C59.2,151.6,58.4,151.8,57.7,151.8z M58,150.8
	c0.6,0,1.2-0.1,1.8-0.4c0.5-0.2,0.9-0.6,1.2-1c0.1-0.1,0.2-0.2,0.2-0.4c0.1-0.1,0.1-0.2,0.1-0.4v-1.5c-0.8-0.3-1.7-0.5-2.6-0.5
	c-0.7,0-1.5,0.2-2.1,0.5c-0.5,0.3-0.8,0.8-0.8,1.4c0,0.3,0.1,0.6,0.2,0.8c0.1,0.3,0.3,0.5,0.5,0.7c0.2,0.2,0.5,0.3,0.7,0.4
	C57.4,150.8,57.7,150.8,58,150.8z"/>
<path d="M65.2,140.2v-1.8h1.2v1.8H65.2z M65.2,151.6v-9.4h1.2v9.4H65.2z"/>
<path d="M77.1,151.6h-1.2v-5.3c0.1-0.8-0.1-1.7-0.5-2.4c-0.3-0.5-0.9-0.8-1.5-0.8c-0.4,0-0.7,0.1-1.1,0.2c-0.4,0.1-0.7,0.3-1,0.6
	c-0.3,0.2-0.6,0.5-0.8,0.9c-0.2,0.3-0.4,0.7-0.5,1.1v5.8h-1.3v-9.4h1.1v2.1c0.4-0.7,1-1.3,1.7-1.7c0.7-0.4,1.5-0.6,2.3-0.6
	c0.5,0,0.9,0.1,1.3,0.3c0.4,0.2,0.7,0.5,0.9,0.8c0.2,0.4,0.4,0.8,0.5,1.3c0.1,0.6,0.2,1.1,0.2,1.7L77.1,151.6z"/>
<path d="M79.8,140.2v-1.8H81v1.8H79.8z M79.8,151.6v-9.4H81v9.4H79.8z"/>
<path d="M91.7,151.6h-1.2v-5.3c0.1-0.8-0.1-1.7-0.5-2.4c-0.3-0.5-0.9-0.8-1.5-0.8c-0.4,0-0.7,0.1-1.1,0.2c-0.4,0.1-0.7,0.3-1,0.6
	c-0.3,0.2-0.6,0.5-0.8,0.9c-0.2,0.3-0.4,0.7-0.5,1.1v5.8h-1.3v-9.4h1.1v2.1c0.4-0.7,1-1.3,1.7-1.7c0.7-0.4,1.5-0.6,2.3-0.6
	c0.5,0,0.9,0.1,1.3,0.3c0.4,0.2,0.7,0.5,0.9,0.8c0.2,0.4,0.4,0.8,0.5,1.3c0.1,0.6,0.1,1.1,0.1,1.7L91.7,151.6z"/>
<path d="M98.1,151.7c-0.6,0-1.2-0.1-1.8-0.4c-0.5-0.3-1-0.6-1.4-1.1c-0.4-0.5-0.7-1-0.9-1.5c-0.2-0.6-0.3-1.2-0.3-1.8
	c0-0.6,0.1-1.3,0.3-1.9c0.2-0.6,0.5-1.1,0.9-1.6c0.4-0.4,0.9-0.8,1.4-1.1c0.6-0.3,1.2-0.4,1.8-0.4c0.7,0,1.5,0.2,2.1,0.6
	c0.6,0.4,1.1,0.9,1.5,1.5v-2h1.1v9.5c0,0.6-0.1,1.2-0.4,1.7c-0.2,0.5-0.6,0.9-1,1.3c-0.4,0.3-0.9,0.6-1.5,0.8
	c-0.6,0.2-1.2,0.3-1.8,0.3c-0.9,0-1.8-0.2-2.6-0.6c-0.7-0.4-1.2-0.9-1.6-1.6l0.8-0.6c0.4,0.6,0.9,1,1.5,1.3c0.6,0.3,1.3,0.4,2,0.4
	c0.4,0,0.9-0.1,1.3-0.2c0.4-0.1,0.7-0.3,1.1-0.5c0.3-0.3,0.6-0.6,0.7-0.9c0.2-0.4,0.3-0.9,0.3-1.3v-1.9
	C100.8,151,99.5,151.8,98.1,151.7L98.1,151.7z M98.4,150.7c0.4,0,0.7-0.1,1.1-0.2c0.4-0.1,0.7-0.3,1-0.5c0.3-0.2,0.5-0.5,0.7-0.8
	c0.2-0.3,0.3-0.5,0.4-0.9v-2.9c-0.3-0.7-0.7-1.3-1.3-1.7c-0.3-0.2-0.6-0.4-0.9-0.5c-0.8-0.3-1.7-0.2-2.4,0.1
	c-0.4,0.2-0.8,0.5-1.1,0.9c-0.3,0.4-0.5,0.8-0.7,1.2c-0.1,0.4-0.2,0.9-0.2,1.4c0,0.5,0.1,1,0.3,1.4c0.2,0.4,0.4,0.9,0.8,1.2
	c0.3,0.3,0.7,0.6,1.1,0.8C97.5,150.6,98,150.7,98.4,150.7L98.4,150.7z"/>
<path d="M119,139.8h-4.6v11.8h-1.3v-11.8h-4.6v-1.1H119L119,139.8z"/>
<path d="M120.7,140.2v-1.8h1.2v1.8H120.7z M120.7,151.6v-9.4h1.2v9.4H120.7z"/>
<path d="M138.7,151.6h-1.2v-5.3c0.1-0.8-0.1-1.7-0.5-2.4c-0.3-0.5-0.9-0.8-1.6-0.8c-0.3,0-0.7,0.1-1,0.2c-0.3,0.1-0.6,0.3-0.9,0.6
	c-0.3,0.2-0.5,0.5-0.7,0.9c-0.2,0.3-0.4,0.7-0.5,1.1v5.8H131v-5.3c0.1-0.8-0.1-1.7-0.5-2.4c-0.3-0.5-0.9-0.8-1.6-0.8
	c-0.7,0-1.4,0.3-1.9,0.8c-0.6,0.5-1,1.2-1.2,2v5.8h-1.2v-9.4h1.1v2.1c0.4-0.7,0.9-1.3,1.5-1.7c0.6-0.4,1.3-0.6,2.1-0.6
	c0.7,0,1.4,0.2,1.9,0.7c0.5,0.5,0.8,1.1,0.9,1.8c0.6-1.5,2.1-2.4,3.6-2.4c0.5,0,0.9,0.1,1.4,0.3c0.4,0.2,0.7,0.5,0.9,0.8
	c0.2,0.4,0.4,0.8,0.5,1.3c0.1,0.6,0.2,1.1,0.1,1.7L138.7,151.6z"/>
<path d="M145.4,151.8c-0.7,0-1.3-0.1-1.9-0.4c-0.6-0.3-1.1-0.6-1.5-1.1c-0.4-0.5-0.8-1-1-1.6c-0.5-1.2-0.5-2.6,0-3.8
	c0.2-0.6,0.6-1.1,1-1.5c0.4-0.4,0.9-0.8,1.5-1.1c0.6-0.3,1.2-0.4,1.9-0.4c0.7,0,1.3,0.1,1.9,0.4c0.6,0.2,1.1,0.6,1.5,1.1
	c0.8,0.9,1.3,2.1,1.3,3.4v0.3c0,0.1,0,0.1,0,0.2h-8.1c0,0.5,0.1,1,0.4,1.4c0.2,0.4,0.5,0.8,0.8,1.1c0.3,0.3,0.7,0.6,1.1,0.7
	c0.4,0.2,0.9,0.3,1.3,0.3c0.3,0,0.6,0,0.9-0.1c0.3-0.1,0.6-0.2,0.8-0.3c0.3-0.1,0.5-0.3,0.7-0.5c0.2-0.2,0.4-0.4,0.5-0.7l1.1,0.3
	c-0.1,0.4-0.4,0.7-0.6,0.9c-0.3,0.3-0.6,0.5-0.9,0.7c-0.4,0.2-0.8,0.4-1.2,0.5C146.3,151.7,145.8,151.8,145.4,151.8z M148.8,146.4
	c0-0.5-0.2-1-0.4-1.4c-0.2-0.4-0.4-0.8-0.8-1.1c-0.3-0.3-0.7-0.5-1.1-0.7c-0.4-0.2-0.9-0.3-1.3-0.3c-0.9,0-1.7,0.4-2.4,1
	c-0.3,0.3-0.6,0.7-0.7,1.1c-0.2,0.4-0.3,0.9-0.3,1.4L148.8,146.4z"/>
<path d="M6,117.4c-0.8,0-1.7-0.2-2.5-0.5c-0.7-0.4-1.4-0.9-1.9-1.5c-0.5-0.6-1-1.3-1.2-2.1c-0.3-0.8-0.4-1.6-0.4-2.4
	c0-0.8,0.1-1.7,0.4-2.5c0.3-0.8,0.7-1.5,1.3-2.1c0.6-0.6,1.2-1.1,2-1.4c0.7-0.4,1.6-0.5,2.4-0.5c0.9,0,1.7,0.2,2.5,0.6
	c0.7,0.4,1.4,0.9,1.9,1.5c0.5,0.6,0.9,1.3,1.2,2.1c0.3,0.8,0.4,1.6,0.4,2.4c0,0.8-0.2,1.7-0.5,2.5c-0.3,0.8-0.7,1.5-1.3,2.1
	c-0.5,0.6-1.2,1.1-1.9,1.4C7.7,117.3,6.9,117.4,6,117.4z M1.3,110.9c0,0.7,0.1,1.4,0.4,2c0.2,0.6,0.6,1.2,1,1.7
	c0.4,0.5,0.9,0.9,1.5,1.2c0.6,0.3,1.3,0.4,1.9,0.4c0.7,0,1.4-0.1,2-0.5c0.6-0.3,1.1-0.7,1.5-1.2c0.4-0.5,0.8-1.1,1-1.7
	c0.2-0.6,0.3-1.3,0.3-2c0-0.7-0.2-1.3-0.5-1.9c-0.2-0.6-0.6-1.2-1-1.7c-0.4-0.5-0.9-0.9-1.5-1.2c-0.6-0.3-1.3-0.4-1.9-0.4
	c-0.7,0-1.4,0.1-2,0.5c-0.6,0.3-1,0.7-1.4,1.2C1.7,108.3,1.3,109.6,1.3,110.9z"/>
<path d="M17.2,117.5c-0.9,0.1-1.7-0.3-2.3-1c-0.6-0.9-0.8-2-0.8-3.1v-5.5h1.2v5.3c0,2.1,0.7,3.2,2.2,3.2c0.4,0,0.7-0.1,1.1-0.2
	c0.4-0.1,0.7-0.3,1-0.5c0.3-0.2,0.6-0.5,0.8-0.8c0.2-0.3,0.4-0.7,0.6-1.1v-5.9h1.2v7.8c0,0.3,0.1,0.5,0.4,0.5v1.1
	c-0.1,0-0.2,0-0.4,0h-0.2c-0.3,0-0.5-0.1-0.7-0.3c-0.2-0.2-0.3-0.5-0.3-0.8v-1.1c-0.4,0.7-1,1.3-1.7,1.7
	C18.7,117.3,18,117.5,17.2,117.5z"/>
<path d="M29.5,116.9l-0.3,0.1c-0.2,0.1-0.3,0.1-0.5,0.2c-0.2,0.1-0.4,0.1-0.6,0.2c-0.2,0-0.5,0.1-0.7,0.1c-0.3,0-0.5,0-0.8-0.1
	c-0.2-0.1-0.4-0.2-0.6-0.3c-0.2-0.2-0.3-0.4-0.4-0.6c-0.1-0.3-0.2-0.5-0.2-0.8v-6.8h-1.3v-1h1.4v-3.2h1.2v3.2h2.2v1h-2.2v6.4
	c0,0.3,0.1,0.6,0.4,0.8c0.2,0.2,0.5,0.3,0.8,0.3c0.3,0,0.6-0.1,0.9-0.2c0.2-0.1,0.3-0.2,0.5-0.3L29.5,116.9z"/>
<path d="M35.9,117.5c-0.7,0-1.5-0.2-2.1-0.6c-0.6-0.4-1.1-0.9-1.5-1.5v5.8h-1.2v-13.3h1.1v1.8c0.4-0.6,0.9-1.1,1.5-1.4
	c0.6-0.4,1.3-0.5,2-0.6c0.6,0,1.2,0.1,1.8,0.4c0.5,0.3,1,0.6,1.4,1.1c0.4,0.5,0.7,1,0.9,1.6c0.2,0.6,0.3,1.2,0.3,1.8
	c0,0.6-0.1,1.3-0.3,1.9c-0.2,0.6-0.5,1.1-0.9,1.6c-0.4,0.4-0.8,0.8-1.4,1.1C37.1,117.4,36.5,117.5,35.9,117.5z M35.5,116.4
	c0.5,0,1-0.1,1.4-0.3c0.4-0.2,0.8-0.5,1.1-0.9c0.3-0.4,0.5-0.8,0.7-1.2c0.2-0.4,0.2-0.9,0.2-1.4c0-1-0.4-1.9-1-2.7
	c-0.3-0.4-0.7-0.6-1.1-0.8c-0.4-0.2-0.9-0.3-1.4-0.3c-0.3,0-0.7,0.1-1,0.2c-0.4,0.1-0.7,0.3-1,0.5c-0.3,0.2-0.5,0.5-0.8,0.7
	c-0.2,0.3-0.3,0.6-0.4,0.9v2.9c0.1,0.3,0.3,0.7,0.5,0.9c0.2,0.3,0.5,0.5,0.8,0.8c0.3,0.2,0.6,0.4,0.9,0.5
	C34.8,116.4,35.2,116.4,35.5,116.4z"/>
<path d="M45.2,117.5c-0.9,0.1-1.7-0.3-2.3-1c-0.6-0.9-0.8-2-0.8-3.1v-5.5h1.3v5.3c0,2.1,0.7,3.2,2.2,3.2c0.4,0,0.7-0.1,1.1-0.2
	c0.4-0.1,0.7-0.3,1-0.5c0.3-0.2,0.5-0.5,0.7-0.8c0.2-0.3,0.4-0.7,0.6-1.1v-5.9h1.2v7.8c0,0.3,0.2,0.5,0.4,0.5v1.1
	c-0.1,0-0.2,0-0.3,0h-0.2c-0.3,0-0.5-0.1-0.7-0.3c-0.2-0.2-0.3-0.5-0.3-0.8v-1.1C48.4,116.6,46.8,117.5,45.2,117.5L45.2,117.5z"/>
<path d="M57.6,116.9l-0.3,0.1c-0.2,0.1-0.3,0.1-0.5,0.2c-0.2,0.1-0.4,0.1-0.6,0.2c-0.2,0-0.5,0.1-0.7,0.1c-0.3,0-0.5,0-0.8-0.1
	c-0.2-0.1-0.5-0.2-0.6-0.3c-0.2-0.2-0.3-0.4-0.4-0.6c-0.1-0.3-0.2-0.5-0.2-0.8v-6.8h-1.3v-1h1.3v-3.2h1.2v3.2h2.2v1h-2.2v6.4
	c0,0.3,0.1,0.6,0.4,0.8c0.2,0.2,0.5,0.3,0.8,0.3c0.3,0,0.6-0.1,0.9-0.2c0.2-0.1,0.3-0.2,0.5-0.3L57.6,116.9z"/>
<path d="M64,117.3v-12.9h5.5c0.5,0,1.1,0.1,1.5,0.3c0.5,0.2,0.9,0.5,1.2,0.9c0.7,0.8,1.1,1.7,1.1,2.8c0,0.5-0.1,0.9-0.2,1.3
	c-0.1,0.4-0.3,0.8-0.6,1.2c-0.2,0.3-0.5,0.6-0.9,0.9c-0.4,0.2-0.8,0.4-1.2,0.5l3.2,5h-1.4l-3-4.8h-3.8v4.8L64,117.3z M65.3,111.5
	h4.2c0.3,0,0.7-0.1,1-0.3c0.3-0.2,0.6-0.4,0.8-0.7c0.2-0.3,0.4-0.6,0.5-0.9c0.1-0.4,0.2-0.7,0.2-1.1c0-0.4-0.1-0.8-0.2-1.1
	c-0.1-0.3-0.3-0.7-0.6-0.9c-0.2-0.3-0.5-0.5-0.8-0.6c-0.3-0.2-0.7-0.2-1-0.2h-4.1L65.3,111.5z"/>
<path d="M79.4,117.5c-0.7,0-1.3-0.1-1.9-0.4c-0.6-0.3-1.1-0.6-1.5-1.1c-0.4-0.5-0.8-1-1-1.6c-0.2-0.6-0.4-1.3-0.4-1.9
	c0-0.6,0.1-1.3,0.4-1.9c0.2-0.6,0.6-1.1,1-1.6c0.9-0.9,2.1-1.5,3.4-1.4c0.7,0,1.3,0.1,1.9,0.4c0.6,0.3,1.1,0.6,1.5,1.1
	c0.8,0.9,1.3,2.1,1.3,3.4v0.3c0,0.1,0,0.1,0,0.2h-8.2c0,0.5,0.1,1,0.3,1.4c0.2,0.4,0.5,0.8,0.8,1.1c0.3,0.3,0.7,0.6,1.1,0.7
	c0.4,0.2,0.9,0.3,1.3,0.3c0.9,0,1.8-0.4,2.4-1c0.2-0.2,0.4-0.4,0.5-0.7l1.1,0.3c-0.1,0.4-0.3,0.7-0.6,1c-0.3,0.3-0.6,0.5-0.9,0.7
	c-0.4,0.2-0.8,0.4-1.2,0.5C80.3,117.5,79.9,117.5,79.4,117.5z M82.9,112.1c0-0.5-0.2-1-0.4-1.4c-0.2-0.4-0.4-0.8-0.8-1.1
	c-0.3-0.3-0.7-0.5-1.1-0.7c-0.4-0.2-0.8-0.3-1.3-0.3c-0.9,0-1.8,0.4-2.4,1c-0.3,0.3-0.6,0.7-0.7,1.1c-0.2,0.4-0.3,0.9-0.3,1.4
	L82.9,112.1z"/>
<path d="M89.1,117.5c-0.7,0-1.5-0.1-2.2-0.4c-0.7-0.2-1.3-0.5-1.8-1l0.6-0.8c0.5,0.4,1,0.8,1.6,1c0.6,0.2,1.2,0.3,1.8,0.3
	c0.6,0,1.3-0.1,1.8-0.5c0.4-0.3,0.7-0.8,0.7-1.3c0-0.2-0.1-0.5-0.2-0.7c-0.1-0.2-0.3-0.3-0.5-0.5c-0.3-0.1-0.6-0.3-0.9-0.3
	c-0.4-0.1-0.8-0.2-1.3-0.3s-1-0.3-1.4-0.4c-0.4-0.1-0.7-0.3-1-0.4c-0.2-0.2-0.4-0.4-0.6-0.6c-0.1-0.3-0.2-0.6-0.2-0.9
	c0-0.4,0.1-0.9,0.3-1.3c0.2-0.4,0.4-0.7,0.8-0.9c0.3-0.2,0.7-0.4,1.1-0.5c0.4-0.1,0.9-0.2,1.4-0.2c0.7,0,1.4,0.1,2,0.3
	c0.5,0.2,1,0.5,1.4,0.9l-0.6,0.7c-0.4-0.4-0.8-0.6-1.3-0.8c-0.5-0.2-1-0.3-1.6-0.3c-0.3,0-0.6,0-0.9,0.1c-0.3,0.1-0.5,0.2-0.7,0.3
	c-0.2,0.1-0.4,0.3-0.5,0.6c-0.1,0.2-0.2,0.5-0.2,0.8c0,0.2,0,0.4,0.1,0.6c0.1,0.2,0.2,0.3,0.4,0.4c0.2,0.1,0.5,0.2,0.7,0.3
	c0.3,0.1,0.7,0.2,1.1,0.3c0.6,0.1,1.1,0.3,1.6,0.4c0.4,0.1,0.8,0.3,1.2,0.5c0.3,0.2,0.5,0.4,0.7,0.7c0.2,0.3,0.2,0.7,0.2,1
	c0,0.8-0.3,1.6-1,2.1C91,117.3,90,117.6,89.1,117.5z"/>
<path d="M98.8,117.5c-0.7,0-1.3-0.1-1.9-0.4c-0.6-0.3-1.1-0.6-1.5-1.1c-0.4-0.4-0.8-1-1-1.6c-0.2-0.6-0.3-1.2-0.3-1.9
	c0-0.6,0.1-1.3,0.3-1.9c0.2-0.6,0.6-1.1,1-1.6c0.4-0.4,0.9-0.8,1.5-1.1c1.2-0.5,2.6-0.5,3.7,0c0.6,0.3,1.1,0.6,1.5,1.1
	c0.4,0.5,0.8,1,1,1.6c0.2,0.6,0.4,1.2,0.3,1.9c0,0.6-0.1,1.3-0.3,1.9c-0.2,0.6-0.6,1.1-1,1.6c-0.4,0.5-0.9,0.8-1.5,1.1
	C100.1,117.4,99.4,117.5,98.8,117.5z M95.4,112.7c0,1,0.3,1.9,1,2.7c0.3,0.3,0.7,0.6,1.1,0.8c0.4,0.2,0.9,0.3,1.3,0.3
	c0.5,0,0.9-0.1,1.3-0.3c0.4-0.2,0.8-0.5,1.1-0.8c0.3-0.4,0.6-0.8,0.7-1.2c0.4-1,0.4-2,0-3c-0.2-0.4-0.4-0.8-0.7-1.2
	c-0.3-0.3-0.7-0.6-1.1-0.8c-0.4-0.2-0.9-0.3-1.3-0.3c-0.5,0-0.9,0.1-1.3,0.3c-0.4,0.2-0.7,0.5-1,0.8c-0.3,0.4-0.6,0.8-0.8,1.2
	C95.5,111.6,95.4,112.1,95.4,112.7z"/>
<path d="M105.6,104.1h1.2v11.1c0,0.3,0.1,0.6,0.3,0.8c0.2,0.2,0.5,0.3,0.8,0.3c0.2,0,0.3,0,0.5-0.1c0.2,0,0.3-0.1,0.5-0.1l0.2,1
	c-0.3,0.1-0.6,0.2-0.8,0.2c-0.3,0.1-0.6,0.1-0.9,0.1c-0.5,0-1-0.1-1.3-0.5c-0.3-0.4-0.5-0.9-0.5-1.3L105.6,104.1z"/>
<path d="M113.4,117.5c-0.9,0.1-1.7-0.3-2.3-1c-0.6-0.9-0.8-2-0.8-3.1v-5.5h1.2v5.3c0,2.1,0.7,3.2,2.2,3.2c0.4,0,0.7-0.1,1.1-0.2
	c0.4-0.1,0.7-0.3,1-0.5c0.3-0.2,0.6-0.5,0.8-0.8c0.2-0.3,0.4-0.7,0.6-1.1v-5.9h1.2v7.8c0,0.3,0.2,0.5,0.4,0.5v1.1
	c-0.1,0-0.2,0-0.4,0h-0.2c-0.3,0-0.5-0.1-0.7-0.3c-0.2-0.2-0.3-0.5-0.3-0.8v-1.1c-0.4,0.7-1,1.3-1.7,1.7
	C115,117.3,114.2,117.5,113.4,117.5z"/>
<path d="M125.8,116.9l-0.3,0.1c-0.2,0.1-0.3,0.1-0.5,0.2c-0.2,0.1-0.4,0.1-0.6,0.2c-0.2,0-0.5,0.1-0.7,0.1c-0.3,0-0.5,0-0.8-0.1
	c-0.2-0.1-0.5-0.2-0.6-0.3c-0.2-0.2-0.3-0.4-0.4-0.6c-0.1-0.3-0.2-0.5-0.2-0.8v-6.8h-1.3v-1h1.3v-3.2h1.2v3.2h2.2v1h-2.2v6.4
	c0,0.3,0.1,0.6,0.4,0.8c0.2,0.2,0.5,0.3,0.8,0.3c0.3,0,0.6-0.1,0.9-0.2c0.2-0.1,0.3-0.2,0.5-0.3L125.8,116.9z"/>
<path d="M127.3,105.9v-1.8h1.2v1.8H127.3z M127.3,117.3v-9.4h1.2v9.4L127.3,117.3z"/>
<path d="M135.3,117.5c-0.7,0-1.3-0.1-1.9-0.4c-0.6-0.3-1.1-0.6-1.5-1.1c-0.4-0.4-0.8-1-1-1.6c-0.2-0.6-0.3-1.2-0.3-1.9
	c0-0.6,0.1-1.3,0.4-1.9c0.2-0.6,0.6-1.1,1-1.6c0.4-0.4,0.9-0.8,1.5-1.1c0.6-0.3,1.2-0.4,1.9-0.4c0.6,0,1.3,0.1,1.9,0.4
	c0.6,0.3,1.1,0.6,1.5,1.1c0.4,0.5,0.8,1,1,1.6c0.2,0.6,0.4,1.2,0.4,1.9c0,0.6-0.1,1.3-0.4,1.9c-0.2,0.6-0.6,1.1-1,1.6
	c-0.4,0.5-0.9,0.8-1.5,1.1C136.6,117.4,136,117.5,135.3,117.5z M131.9,112.7c0,1,0.3,1.9,1,2.7c0.3,0.3,0.7,0.6,1.1,0.8
	c0.4,0.2,0.9,0.3,1.3,0.3c0.5,0,0.9-0.1,1.3-0.3c0.4-0.2,0.8-0.5,1.1-0.8c0.3-0.4,0.6-0.8,0.7-1.2c0.4-1,0.4-2,0-3
	c-0.2-0.4-0.4-0.9-0.7-1.2c-0.3-0.3-0.7-0.6-1.1-0.8c-0.8-0.4-1.8-0.4-2.7,0c-0.4,0.2-0.8,0.5-1.1,0.8c-0.3,0.4-0.6,0.8-0.8,1.2
	C132,111.6,131.9,112.1,131.9,112.7z"/>
<path d="M150,117.3h-1.2v-5.3c0.1-0.8-0.1-1.7-0.5-2.4c-0.3-0.5-0.9-0.8-1.5-0.8c-0.4,0-0.7,0.1-1.1,0.2c-0.4,0.1-0.7,0.3-1,0.6
	c-0.3,0.2-0.6,0.5-0.8,0.9c-0.2,0.3-0.4,0.7-0.5,1.1v5.8h-1.2v-9.4h1.1v2.1c0.4-0.7,1-1.3,1.7-1.7c0.7-0.4,1.5-0.6,2.3-0.6
	c0.5,0,0.9,0.1,1.3,0.3c0.4,0.2,0.7,0.5,0.9,0.8c0.2,0.4,0.4,0.8,0.5,1.3c0.1,0.6,0.2,1.1,0.1,1.7L150,117.3z"/>
<path d="M12.3,84.8V72h1.3v12.9H12.3z"/>
<path d="M21.1,84.4l-0.3,0.2l-0.5,0.2c-0.2,0.1-0.4,0.1-0.6,0.2c-0.2,0-0.5,0.1-0.7,0.1c-0.3,0-0.5,0-0.8-0.1
	c-0.2-0.1-0.4-0.2-0.6-0.3c-0.2-0.2-0.3-0.4-0.4-0.6c-0.1-0.3-0.2-0.5-0.2-0.8v-6.8h-1.3v-1h1.3v-3.2h1.2v3.2h2.2v1h-2.2v6.4
	c0,0.3,0.1,0.6,0.4,0.8c0.2,0.2,0.5,0.2,0.8,0.2c0.3,0,0.6-0.1,0.9-0.2c0.3-0.1,0.4-0.2,0.5-0.3L21.1,84.4z"/>
<path d="M26.4,85c-0.7,0-1.3-0.1-1.9-0.4C24,84.4,23.5,84,23,83.6c-0.9-0.9-1.4-2.2-1.3-3.5c0-0.6,0.1-1.3,0.4-1.9
	c0.2-0.6,0.6-1.1,1-1.6c0.4-0.4,0.9-0.8,1.5-1c0.6-0.3,1.2-0.4,1.9-0.4c1.3,0,2.5,0.5,3.4,1.4c0.4,0.4,0.8,1,1,1.5
	c0.2,0.6,0.3,1.2,0.3,1.8v0.3c0,0.1,0,0.1,0,0.2H23c0,0.5,0.2,1,0.4,1.4c0.2,0.4,0.4,0.8,0.8,1.1c0.3,0.3,0.7,0.6,1.1,0.7
	c0.4,0.2,0.8,0.3,1.3,0.3c0.3,0,0.6-0.1,0.9-0.2c0.3-0.1,0.6-0.2,0.8-0.3c0.3-0.1,0.5-0.3,0.7-0.5c0.2-0.2,0.4-0.4,0.5-0.7l1.1,0.3
	c-0.1,0.4-0.4,0.7-0.6,1c-0.3,0.3-0.6,0.5-0.9,0.7c-0.4,0.2-0.8,0.4-1.2,0.5C27.3,85,26.9,85,26.4,85z M29.9,79.6
	c0-0.5-0.1-1-0.4-1.4c-0.2-0.4-0.5-0.8-0.8-1.1c-0.3-0.3-0.7-0.5-1.1-0.7c-0.4-0.2-0.9-0.3-1.3-0.3c-0.9,0-1.8,0.4-2.4,1
	c-0.3,0.3-0.6,0.7-0.7,1.1c-0.2,0.4-0.3,0.9-0.3,1.4L29.9,79.6z"/>
<path d="M37.7,76.5c-0.8,0-1.5,0.3-2.2,0.7c-0.6,0.4-1.1,1.1-1.3,1.8v5.9H33v-9.4h1.2v2.3c0.3-0.7,0.8-1.3,1.4-1.7
	c0.6-0.4,1.2-0.6,1.9-0.6h0.2V76.5z"/>
<path d="M41.6,85c-0.4,0-0.8-0.1-1.2-0.2c-0.4-0.1-0.7-0.4-1-0.6c-0.3-0.3-0.5-0.6-0.7-0.9c-0.2-0.4-0.2-0.8-0.2-1.2
	c0-0.4,0.1-0.8,0.3-1.2c0.2-0.4,0.5-0.7,0.8-0.9c0.4-0.3,0.8-0.5,1.3-0.6c0.5-0.1,1-0.2,1.6-0.2c0.5,0,1,0,1.5,0.1
	c0.5,0.1,0.9,0.2,1.3,0.4v-0.8c0-0.7-0.2-1.5-0.7-2c-0.5-0.5-1.3-0.8-2-0.7c-0.5,0-1,0.1-1.5,0.3c-0.5,0.2-1.1,0.5-1.5,0.8l-0.4-0.8
	c1-0.8,2.3-1.2,3.5-1.2c1-0.1,2,0.3,2.8,1c0.7,0.7,1.1,1.7,1,2.8v4.3c0,0.3,0.1,0.5,0.5,0.5v1.1c-0.1,0-0.3,0-0.4,0
	c-0.3,0-0.5-0.1-0.7-0.2c-0.2-0.2-0.3-0.4-0.3-0.7v-0.7c-0.4,0.6-1,1-1.6,1.3C43.1,84.9,42.4,85,41.6,85z M41.9,84.1
	c0.6,0,1.2-0.1,1.8-0.4c0.5-0.2,0.9-0.6,1.2-1c0.1-0.1,0.2-0.2,0.2-0.3c0.1-0.1,0.1-0.2,0.1-0.4v-1.5c-0.4-0.2-0.8-0.3-1.3-0.4
	c-0.4-0.1-0.9-0.1-1.3-0.1c-0.7,0-1.5,0.2-2.1,0.5c-0.5,0.3-0.8,0.8-0.8,1.4c0,0.6,0.2,1.1,0.6,1.5c0.2,0.2,0.5,0.3,0.7,0.4
	C41.3,84,41.6,84.1,41.9,84.1z"/>
<path d="M53.6,84.4l-0.3,0.2l-0.5,0.2c-0.2,0.1-0.4,0.1-0.6,0.2c-0.3,0-0.5,0.1-0.8,0c-0.3,0-0.5,0-0.8-0.1
	c-0.2-0.1-0.4-0.2-0.6-0.3c-0.2-0.2-0.3-0.3-0.4-0.6c-0.1-0.3-0.2-0.5-0.2-0.8v-6.7h-1.3v-1h1.3v-3.2h1.2v3.2h2.2v1h-2.1v6.4
	c0,0.3,0.1,0.6,0.4,0.8c0.2,0.2,0.5,0.2,0.8,0.2c0.3,0,0.6-0.1,0.9-0.2c0.2-0.1,0.3-0.2,0.5-0.3L53.6,84.4z"/>
<path d="M55.2,73.4v-1.8h1.3v1.8H55.2z M55.2,84.8v-9.4h1.3v9.4L55.2,84.8z"/>
<path d="M63.1,85c-1.3,0-2.5-0.5-3.4-1.4c-0.4-0.4-0.8-1-1-1.6c-0.5-1.2-0.5-2.5,0-3.8c0.2-0.6,0.6-1.1,1-1.6
	c0.4-0.4,0.9-0.8,1.5-1.1c1.2-0.5,2.6-0.5,3.7,0c0.6,0.3,1.1,0.6,1.5,1.1c0.4,0.5,0.8,1,1,1.6c0.2,0.6,0.4,1.2,0.3,1.9
	c0,0.6-0.1,1.3-0.3,1.9c-0.2,0.6-0.6,1.1-1,1.6c-0.4,0.5-0.9,0.8-1.5,1.1C64.4,84.9,63.8,85,63.1,85z M59.7,80.2
	c0,0.5,0.1,1,0.3,1.5c0.2,0.4,0.4,0.8,0.7,1.2c0.3,0.3,0.7,0.6,1.1,0.8c0.4,0.2,0.9,0.3,1.3,0.3c0.5,0,0.9-0.1,1.3-0.3
	c0.4-0.2,0.8-0.5,1.1-0.8c0.3-0.4,0.6-0.8,0.7-1.2c0.4-1,0.4-2,0-3c-0.2-0.4-0.4-0.9-0.7-1.2c-0.3-0.3-0.7-0.6-1.1-0.8
	c-0.4-0.2-0.9-0.3-1.3-0.3c-0.5,0-0.9,0.1-1.3,0.3c-0.4,0.2-0.8,0.5-1.1,0.8c-0.3,0.4-0.6,0.8-0.7,1.2
	C59.8,79.2,59.7,79.7,59.7,80.2z"/>
<path d="M77.8,84.8h-1.2v-5.3c0.1-0.8-0.1-1.7-0.5-2.4c-0.3-0.5-0.9-0.8-1.5-0.8c-0.4,0-0.7,0.1-1.1,0.2c-0.4,0.1-0.7,0.3-1,0.6
	c-0.3,0.2-0.6,0.5-0.8,0.9c-0.2,0.3-0.4,0.7-0.5,1.1v5.8h-1.2v-9.4H71v2.1c0.4-0.7,1-1.2,1.7-1.6c0.7-0.4,1.5-0.6,2.3-0.6
	c0.5,0,0.9,0.1,1.3,0.3c0.4,0.2,0.7,0.5,0.9,0.8c0.2,0.4,0.4,0.8,0.5,1.3c0.1,0.6,0.1,1.1,0.1,1.7V84.8z"/>
<path d="M88.8,72h1.1l5.3,12.9h-1.3l-1.7-4h-5.8l-1.7,4h-1.3L88.8,72z M91.9,79.8l-2.6-6.4l-2.6,6.4H91.9z"/>
<path d="M110.8,84.8h-1.2v-5.3c0.1-0.8-0.1-1.7-0.5-2.4c-0.3-0.5-0.9-0.8-1.6-0.8c-0.3,0-0.7,0.1-1,0.2c-0.3,0.1-0.6,0.3-0.9,0.6
	c-0.3,0.2-0.5,0.5-0.7,0.9c-0.2,0.3-0.4,0.7-0.5,1.1v5.8h-1.3v-5.3c0.1-0.8-0.1-1.7-0.5-2.4c-0.3-0.5-0.9-0.8-1.6-0.8
	c-0.7,0-1.4,0.3-1.9,0.7c-0.6,0.5-1,1.2-1.2,2v5.8h-1.2v-9.5h1.1v2.1c0.3-0.7,0.9-1.3,1.5-1.7c0.6-0.4,1.3-0.6,2.1-0.6
	c0.7,0,1.4,0.2,1.9,0.7c0.5,0.5,0.8,1.1,0.9,1.8c0.6-1.5,2.1-2.4,3.6-2.4c0.5,0,0.9,0.1,1.3,0.3c0.4,0.2,0.7,0.5,0.9,0.8
	c0.2,0.4,0.4,0.8,0.5,1.3c0.1,0.5,0.2,1.1,0.2,1.7L110.8,84.8z"/>
<path d="M117.4,85c-1.3,0-2.5-0.5-3.4-1.4c-0.4-0.4-0.8-1-1-1.6c-0.2-0.6-0.3-1.2-0.3-1.9c0-0.6,0.1-1.3,0.3-1.9
	c0.2-0.6,0.6-1.1,1-1.6c0.4-0.4,0.9-0.8,1.5-1.1c0.6-0.3,1.2-0.4,1.9-0.4c0.6,0,1.3,0.1,1.9,0.4c0.6,0.3,1.1,0.6,1.5,1.1
	c0.4,0.5,0.8,1,1,1.6c0.5,1.2,0.5,2.5,0,3.8c-0.2,0.6-0.6,1.1-1,1.6c-0.4,0.5-0.9,0.8-1.5,1.1C118.7,84.9,118.1,85,117.4,85z
	 M114,80.2c0,0.5,0.1,1,0.3,1.5c0.2,0.4,0.4,0.8,0.7,1.2c0.3,0.3,0.7,0.6,1.1,0.8c0.4,0.2,0.9,0.3,1.3,0.3c0.5,0,0.9-0.1,1.3-0.3
	c0.4-0.2,0.8-0.5,1.1-0.8c0.3-0.3,0.6-0.8,0.8-1.2c0.4-1,0.4-2,0-3c-0.2-0.4-0.4-0.9-0.8-1.2c-0.3-0.3-0.7-0.6-1.1-0.8
	c-0.4-0.2-0.9-0.3-1.3-0.3c-0.5,0-0.9,0.1-1.3,0.3c-0.4,0.2-0.8,0.5-1.1,0.8c-0.3,0.4-0.6,0.8-0.7,1.2C114.1,79.1,114,79.6,114,80.2
	L114,80.2z"/>
<path d="M127.2,85c-0.9,0.1-1.7-0.3-2.3-1c-0.6-0.9-0.8-1.9-0.8-3v-5.6h1.3v5.3c0,2.1,0.7,3.2,2.1,3.2c0.7,0,1.4-0.3,2-0.7
	c0.3-0.2,0.6-0.5,0.8-0.8c0.2-0.3,0.4-0.7,0.6-1.1v-5.9h1.2v7.8c0,0.3,0.1,0.5,0.4,0.5v1.1c-0.1,0-0.2,0-0.4,0h-0.2
	c-0.3,0-0.5-0.1-0.7-0.3c-0.2-0.2-0.3-0.5-0.3-0.8v-1.1c-0.4,0.7-1,1.3-1.7,1.7C128.7,84.8,128,85,127.2,85z"/>
<path d="M142.9,84.8h-1.2v-5.3c0.1-0.8-0.1-1.7-0.5-2.4c-0.3-0.5-0.9-0.8-1.5-0.8c-0.4,0-0.7,0.1-1.1,0.2c-0.4,0.1-0.7,0.3-1,0.6
	c-0.3,0.2-0.6,0.5-0.8,0.9c-0.2,0.3-0.4,0.7-0.5,1.1v5.8H135v-9.4h1.1v2.1c0.4-0.7,1-1.2,1.6-1.6c0.7-0.4,1.5-0.6,2.4-0.6
	c0.5,0,0.9,0.1,1.3,0.3c0.4,0.2,0.7,0.5,0.9,0.8c0.2,0.4,0.4,0.8,0.5,1.3c0.1,0.6,0.1,1.1,0.1,1.7L142.9,84.8z"/>
<path d="M150,84.4l-0.3,0.2l-0.5,0.2c-0.2,0.1-0.4,0.1-0.6,0.2c-0.2,0-0.5,0.1-0.7,0.1c-0.3,0-0.5,0-0.8-0.1
	c-0.2-0.1-0.4-0.2-0.6-0.3c-0.2-0.2-0.3-0.4-0.4-0.6c-0.1-0.3-0.2-0.5-0.2-0.8v-6.8h-1.3v-1h1.3v-3.2h1.2v3.2h2.2v1h-2.2v6.4
	c0,0.3,0.1,0.6,0.4,0.8c0.2,0.2,0.5,0.2,0.8,0.2c0.3,0,0.6-0.1,0.9-0.2c0.2-0.1,0.3-0.2,0.5-0.3L150,84.4z"/>
<path d="M49.1,50.5V37.6h4.4c0.9,0,1.8,0.2,2.7,0.5c0.7,0.3,1.4,0.8,1.9,1.4c0.5,0.6,0.9,1.3,1.2,2c0.3,0.8,0.4,1.7,0.4,2.5
	c0,0.9-0.1,1.8-0.4,2.7c-0.3,0.7-0.7,1.4-1.2,2c-0.5,0.6-1.2,1-1.9,1.3c-0.8,0.3-1.7,0.5-2.5,0.5L49.1,50.5z M58.3,44
	c0-0.7-0.1-1.4-0.3-2.1c-0.2-0.6-0.5-1.2-1-1.7c-0.4-0.5-0.9-0.8-1.5-1.1c-0.7-0.3-1.4-0.4-2.1-0.4h-3.1v10.6h3.1
	c0.7,0,1.4-0.1,2.1-0.4c0.6-0.3,1.1-0.6,1.5-1.1c0.4-0.5,0.7-1.1,0.9-1.7C58.2,45.5,58.3,44.8,58.3,44z"/>
<path d="M64.2,50.7c-0.4,0-0.8-0.1-1.2-0.2c-0.4-0.1-0.7-0.4-1-0.6c-0.6-0.5-0.9-1.3-0.9-2.1c0-0.4,0.1-0.8,0.3-1.2
	c0.2-0.4,0.5-0.7,0.8-0.9c0.4-0.3,0.8-0.5,1.3-0.6c0.5-0.1,1.1-0.2,1.6-0.2c0.5,0,1,0,1.5,0.1c0.5,0.1,0.9,0.2,1.3,0.4v-0.8
	c0-0.7-0.2-1.5-0.7-2c-0.5-0.5-1.3-0.8-2-0.7c-0.5,0-1,0.1-1.5,0.3c-0.5,0.2-1.1,0.5-1.5,0.8l-0.4-0.8c1-0.7,2.3-1.2,3.5-1.2
	c1-0.1,2,0.3,2.8,1c0.7,0.7,1.1,1.7,1,2.8v4.2c0,0.3,0.2,0.5,0.5,0.5v1.1c-0.2,0-0.3,0.1-0.5,0.1c-0.3,0-0.5-0.1-0.7-0.2
	c-0.2-0.2-0.3-0.4-0.3-0.7v-0.7c-0.4,0.6-1,1-1.6,1.3C65.6,50.5,64.9,50.7,64.2,50.7z M64.4,49.7c0.6,0,1.2-0.1,1.8-0.4
	c0.5-0.2,0.9-0.6,1.2-1c0.1-0.1,0.2-0.2,0.3-0.4c0-0.1,0.1-0.2,0.1-0.3v-1.5c-0.4-0.2-0.8-0.3-1.3-0.4c-0.4-0.1-0.9-0.1-1.3-0.1
	c-0.7,0-1.5,0.2-2.1,0.5c-0.5,0.3-0.8,0.8-0.8,1.4c0,0.6,0.2,1.1,0.7,1.5c0.2,0.2,0.4,0.3,0.7,0.5C63.8,49.7,64.1,49.7,64.4,49.7
	L64.4,49.7z"/>
<path d="M76.1,50l-0.3,0.2l-0.5,0.2c-0.2,0.1-0.4,0.1-0.6,0.2c-0.2,0-0.5,0.1-0.7,0.1c-0.3,0-0.5,0-0.8-0.1
	c-0.2-0.1-0.5-0.2-0.6-0.3c-0.2-0.2-0.3-0.4-0.4-0.6C72,49.3,72,49.1,72,48.8V42h-1.3v-1H72v-3.2h1.2V41h2.2v1h-2.2v6.4
	c0,0.3,0.1,0.6,0.4,0.8c0.2,0.2,0.5,0.3,0.8,0.3c0.3,0,0.6-0.1,0.9-0.2c0.2-0.1,0.3-0.2,0.5-0.3L76.1,50z"/>
<path d="M80.1,50.7c-0.4,0-0.9-0.1-1.3-0.2c-0.4-0.1-0.7-0.4-1-0.6c-0.3-0.3-0.5-0.6-0.7-0.9c-0.2-0.4-0.2-0.8-0.2-1.2
	c0-0.4,0.1-0.8,0.3-1.2c0.2-0.4,0.5-0.7,0.8-0.9c0.4-0.3,0.8-0.5,1.3-0.6c0.5-0.1,1.1-0.2,1.6-0.2c0.5,0,1,0,1.5,0.1
	c0.5,0.1,0.9,0.2,1.3,0.4v-0.8c0-0.7-0.2-1.5-0.7-2c-0.5-0.5-1.3-0.8-2-0.7c-0.5,0-1,0.1-1.5,0.3c-0.5,0.2-1.1,0.5-1.5,0.8l-0.4-0.8
	c1-0.8,2.3-1.2,3.6-1.2c1-0.1,2,0.3,2.8,1c0.7,0.7,1.1,1.7,1,2.8v4.2c0,0.3,0.2,0.5,0.4,0.5v1.1c-0.2,0-0.3,0.1-0.5,0.1
	c-0.3,0-0.5-0.1-0.7-0.2c-0.2-0.2-0.3-0.4-0.3-0.7v-0.7c-0.4,0.6-1,1-1.6,1.3C81.5,50.5,80.8,50.7,80.1,50.7z M80.3,49.7
	c0.6,0,1.2-0.1,1.8-0.4c0.5-0.2,0.9-0.6,1.2-1c0.1-0.1,0.2-0.2,0.2-0.4c0.1-0.1,0.1-0.2,0.1-0.3v-1.5c-0.8-0.3-1.7-0.5-2.6-0.5
	c-0.7,0-1.5,0.2-2.1,0.5c-0.5,0.3-0.8,0.9-0.8,1.4c0,0.3,0.1,0.6,0.2,0.8c0.1,0.3,0.3,0.5,0.5,0.7c0.2,0.2,0.5,0.3,0.7,0.5
	C79.7,49.7,80,49.7,80.3,49.7L80.3,49.7z"/>
<path d="M90.7,50.7c-0.7,0-1.5-0.1-2.2-0.4c-0.7-0.2-1.3-0.5-1.8-1l0.6-0.8c0.5,0.4,1,0.8,1.6,1c0.6,0.2,1.2,0.3,1.8,0.3
	c0.6,0,1.3-0.1,1.8-0.5c0.4-0.3,0.7-0.8,0.7-1.3c0-0.2-0.1-0.5-0.2-0.7c-0.1-0.2-0.3-0.4-0.5-0.5c-0.3-0.1-0.6-0.3-0.9-0.3
	c-0.4-0.1-0.8-0.2-1.2-0.3s-1-0.3-1.4-0.4c-0.4-0.1-0.7-0.3-1-0.5c-0.2-0.2-0.4-0.4-0.6-0.6c-0.1-0.3-0.2-0.6-0.2-0.9
	c0-0.5,0.1-0.9,0.3-1.3c0.2-0.4,0.4-0.7,0.8-0.9c0.3-0.2,0.7-0.4,1.1-0.5c0.5-0.1,0.9-0.2,1.4-0.1c0.7,0,1.4,0.1,2,0.4
	c0.5,0.2,1,0.5,1.4,0.9l-0.6,0.7c-0.4-0.4-0.8-0.7-1.3-0.8c-0.5-0.2-1-0.3-1.6-0.3c-0.3,0-0.6,0-0.9,0.1c-0.3,0.1-0.5,0.2-0.7,0.3
	c-0.2,0.1-0.4,0.3-0.5,0.6c-0.1,0.2-0.2,0.5-0.2,0.8c0,0.2,0,0.4,0.1,0.6c0.1,0.2,0.2,0.3,0.4,0.4c0.2,0.1,0.5,0.2,0.7,0.3
	c0.3,0.1,0.7,0.2,1.1,0.3c0.6,0.2,1.1,0.3,1.6,0.4c0.4,0.1,0.8,0.3,1.2,0.5c0.3,0.2,0.5,0.4,0.7,0.7c0.2,0.3,0.2,0.7,0.2,1
	c0,0.8-0.3,1.6-1,2C92.6,50.5,91.7,50.8,90.7,50.7z"/>
<path d="M100.4,50.7c-0.7,0-1.3-0.1-1.9-0.4C98,50,97.5,49.7,97,49.2c-0.4-0.5-0.8-1-1-1.6c-0.2-0.6-0.4-1.3-0.4-1.9
	c0-0.6,0.2-1.3,0.4-1.8c0.2-0.6,0.6-1.1,1-1.5c0.9-0.9,2.1-1.4,3.3-1.5c0.7,0,1.3,0.1,1.9,0.4c0.6,0.3,1.1,0.6,1.5,1.1
	c0.8,0.9,1.3,2.1,1.3,3.4V46c0,0.1,0,0.1,0,0.2H97c0,0.5,0.1,1,0.3,1.4c0.2,0.4,0.5,0.8,0.8,1.1c0.3,0.3,0.7,0.6,1.1,0.7
	c0.4,0.2,0.9,0.3,1.3,0.3c0.6,0,1.2-0.2,1.7-0.5c0.3-0.1,0.5-0.3,0.7-0.5c0.2-0.2,0.4-0.4,0.5-0.7l1.1,0.3c-0.1,0.4-0.3,0.7-0.6,1
	c-0.3,0.3-0.6,0.5-0.9,0.7c-0.4,0.2-0.8,0.4-1.2,0.5C101.3,50.7,100.9,50.7,100.4,50.7z M103.9,45.3c0-0.5-0.2-1-0.4-1.4
	c-0.2-0.4-0.4-0.8-0.8-1.1c-0.3-0.3-0.7-0.5-1.1-0.7c-0.4-0.2-0.8-0.3-1.3-0.3c-0.4,0-0.9,0.1-1.3,0.3c-0.8,0.3-1.4,1-1.8,1.8
	c-0.2,0.4-0.3,0.9-0.3,1.4L103.9,45.3z"/>
<path d="M111.5,50l-0.3,0.2l-0.5,0.2c-0.2,0.1-0.4,0.1-0.6,0.2c-0.2,0-0.5,0.1-0.7,0.1c-0.3,0-0.5,0-0.8-0.1
	c-0.2-0.1-0.5-0.2-0.6-0.3c-0.2-0.2-0.3-0.4-0.4-0.6c-0.1-0.3-0.2-0.5-0.2-0.8V42H106v-1h1.3v-3.2h1.2V41h2.2v1h-2.2v6.4
	c0,0.3,0.1,0.6,0.4,0.8c0.2,0.2,0.5,0.3,0.8,0.3c0.3,0,0.6-0.1,0.9-0.2c0.2-0.1,0.3-0.2,0.5-0.3L111.5,50z"/>
<path d="M125.4,40c-0.4-0.4-0.9-0.8-1.5-1c-0.7-0.3-1.4-0.4-2.1-0.4c-0.9-0.1-1.8,0.2-2.5,0.7c-0.5,0.4-0.8,1.1-0.8,1.8
	c0,0.3,0.1,0.7,0.2,1c0.2,0.3,0.4,0.5,0.7,0.6c0.3,0.2,0.7,0.4,1.1,0.5c0.4,0.1,1,0.3,1.6,0.4s1.3,0.3,1.8,0.5
	c0.5,0.2,1,0.4,1.4,0.7c0.4,0.3,0.7,0.6,0.9,1c0.2,0.5,0.3,0.9,0.3,1.5c0,0.5-0.1,1.1-0.3,1.5c-0.2,0.4-0.6,0.8-1,1.1
	c-0.4,0.3-0.9,0.5-1.5,0.6c-0.6,0.1-1.2,0.2-1.9,0.2c-1.9,0-3.7-0.6-5.2-1.9l0.6-1c0.3,0.3,0.5,0.5,0.8,0.7c0.3,0.2,0.7,0.4,1.1,0.6
	c0.4,0.2,0.8,0.3,1.3,0.4c0.5,0.1,0.9,0.1,1.4,0.1c0.8,0,1.7-0.1,2.4-0.5c0.6-0.4,0.9-1,0.9-1.7c0-0.3-0.1-0.7-0.2-1
	c-0.2-0.3-0.4-0.5-0.7-0.7c-0.4-0.2-0.8-0.4-1.2-0.5c-0.5-0.2-1-0.3-1.7-0.4c-0.6-0.1-1.2-0.3-1.8-0.5c-0.5-0.1-0.9-0.4-1.3-0.6
	c-0.3-0.2-0.6-0.6-0.8-0.9c-0.2-0.4-0.3-0.9-0.3-1.3c0-0.5,0.1-1.1,0.3-1.6c0.2-0.5,0.6-0.9,1-1.2c0.4-0.3,0.9-0.6,1.4-0.7
	c0.6-0.2,1.2-0.2,1.8-0.2c0.8,0,1.6,0.1,2.3,0.4c0.7,0.3,1.3,0.6,1.8,1.1L125.4,40z"/>
<path d="M128.7,39.1v-1.8h1.2v1.8H128.7z M128.7,50.5v-9.4h1.2v9.4L128.7,50.5z"/>
<path d="M131.8,49.7l6.4-7.7H132v-0.9h7.6v0.9l-6.4,7.7h6.4v0.9h-7.7V49.7z"/>
<path d="M145.4,50.7c-0.7,0-1.3-0.1-1.9-0.4c-0.6-0.3-1.1-0.6-1.5-1.1c-0.4-0.5-0.8-1-1-1.6c-0.2-0.6-0.4-1.3-0.4-1.9
	c0-0.6,0.1-1.3,0.4-1.9c0.2-0.6,0.6-1.1,1-1.5c0.4-0.4,0.9-0.8,1.5-1c0.6-0.3,1.2-0.4,1.9-0.4c0.7,0,1.3,0.1,1.9,0.4
	c0.6,0.3,1.1,0.6,1.5,1.1c0.8,0.9,1.3,2.1,1.3,3.4v0.3c0,0.1,0,0.1,0,0.2h-8.1c0,0.5,0.1,1,0.4,1.4c0.2,0.4,0.5,0.8,0.8,1.1
	c0.3,0.3,0.7,0.6,1.1,0.7c0.4,0.2,0.9,0.3,1.3,0.3c0.6,0,1.2-0.2,1.7-0.5c0.3-0.1,0.5-0.3,0.7-0.5c0.2-0.2,0.4-0.4,0.5-0.7l1.1,0.3
	c-0.1,0.4-0.4,0.7-0.6,1c-0.3,0.3-0.6,0.5-0.9,0.7c-0.4,0.2-0.8,0.4-1.2,0.5C146.3,50.7,145.8,50.7,145.4,50.7z M148.8,45.3
	c0-0.5-0.2-1-0.4-1.4c-0.2-0.4-0.4-0.8-0.8-1.1c-0.3-0.3-0.7-0.5-1.1-0.7c-0.4-0.2-0.9-0.3-1.3-0.3c-0.4,0-0.9,0.1-1.3,0.3
	c-0.8,0.3-1.5,1-1.8,1.8c-0.2,0.4-0.3,0.9-0.3,1.4L148.8,45.3z"/>
<path d="M74.1,1.4h1.1l5.3,12.9h-1.3l-1.7-4h-5.8l-1.7,4h-1.4L74.1,1.4z M77.2,9.2l-2.6-6.4L72,9.2H77.2z"/>
<path d="M82.1,1h1.2v11.1c0,0.3,0.1,0.6,0.3,0.8c0.2,0.2,0.5,0.3,0.8,0.3c0.2,0,0.3,0,0.5-0.1c0.2,0,0.3-0.1,0.5-0.1l0.2,1
	c-0.3,0.1-0.6,0.2-0.8,0.2c-0.3,0.1-0.6,0.1-0.9,0.1c-0.5,0-1-0.1-1.3-0.5c-0.3-0.4-0.5-0.9-0.5-1.4L82.1,1z"/>
<path d="M90.8,14.4c-0.6,0-1.2-0.2-1.8-0.4c-0.5-0.2-1-0.6-1.4-1c-0.4-0.5-0.7-1-0.9-1.5c-0.2-0.6-0.3-1.2-0.3-1.8
	c0-0.6,0.1-1.3,0.3-1.9c0.2-0.6,0.5-1.1,0.9-1.6C88,5.6,88.5,5.3,89,5c0.6-0.3,1.2-0.4,1.8-0.4c0.7,0,1.5,0.2,2.1,0.6
	c0.6,0.4,1.1,0.9,1.6,1.5v-2h1.1v9.5c0,0.6-0.1,1.2-0.4,1.7c-0.2,0.5-0.6,0.9-1,1.3c-0.4,0.3-0.9,0.6-1.5,0.8
	c-0.6,0.2-1.2,0.3-1.8,0.3c-0.9,0-1.8-0.2-2.6-0.6c-0.7-0.4-1.2-0.9-1.6-1.6l0.8-0.6c0.3,0.6,0.8,1.1,1.5,1.4c0.6,0.3,1.3,0.4,2,0.4
	c0.4,0,0.9-0.1,1.3-0.2c0.4-0.1,0.8-0.3,1.1-0.6c0.3-0.3,0.6-0.6,0.7-1c0.2-0.4,0.3-0.9,0.3-1.3v-1.9C93.5,13.6,92.2,14.4,90.8,14.4
	L90.8,14.4z M91.1,13.4c0.4,0,0.7-0.1,1.1-0.2c0.4-0.1,0.7-0.3,1-0.5c0.3-0.2,0.5-0.5,0.7-0.8c0.2-0.3,0.3-0.5,0.4-0.9V8.1
	c-0.1-0.4-0.3-0.7-0.5-1c-0.2-0.3-0.5-0.5-0.8-0.7c-0.3-0.2-0.6-0.3-1-0.4c-0.3-0.1-0.7-0.2-1-0.2c-0.5,0-1,0.1-1.4,0.3
	c-0.4,0.2-0.8,0.5-1.1,0.8c-0.3,0.4-0.5,0.8-0.7,1.2c-0.1,0.4-0.2,0.9-0.2,1.4c0,0.5,0.1,1,0.3,1.5c0.2,0.4,0.4,0.9,0.8,1.2
	c0.3,0.3,0.7,0.6,1.1,0.8C90.2,13.2,90.7,13.3,91.1,13.4L91.1,13.4z"/>
<path d="M102.2,14.4c-0.6,0-1.3-0.1-1.9-0.4c-1.1-0.5-2-1.5-2.4-2.6c-0.2-0.6-0.4-1.2-0.3-1.9c0-0.6,0.1-1.3,0.4-1.9
	c0.2-0.6,0.6-1.1,1-1.6c0.4-0.4,0.9-0.8,1.4-1.1c0.6-0.3,1.2-0.4,1.9-0.4c0.6,0,1.3,0.1,1.9,0.4c0.6,0.3,1.1,0.6,1.5,1.1
	c0.4,0.5,0.8,1,1,1.6c0.2,0.6,0.4,1.2,0.3,1.9c0,0.6-0.1,1.3-0.3,1.9c-0.2,0.6-0.6,1.1-1,1.6c-0.4,0.5-0.9,0.8-1.5,1.1
	C103.5,14.3,102.9,14.4,102.2,14.4z M98.8,9.5c0,1,0.4,1.9,1,2.7c0.3,0.3,0.7,0.6,1.1,0.8c0.4,0.2,0.9,0.3,1.3,0.3
	c0.5,0,0.9-0.1,1.3-0.3c0.4-0.2,0.8-0.5,1.1-0.8c0.3-0.4,0.6-0.8,0.8-1.2c0.4-1,0.4-2,0-3c-0.2-0.4-0.4-0.9-0.8-1.2
	c-0.3-0.3-0.7-0.6-1.1-0.8c-0.4-0.2-0.9-0.3-1.3-0.3c-0.5,0-0.9,0.1-1.3,0.3c-0.4,0.2-0.8,0.5-1.1,0.8c-0.3,0.4-0.6,0.8-0.7,1.2
	C98.9,8.5,98.8,9,98.8,9.5z"/>
<path d="M113.7,5.9c-0.8,0-1.5,0.3-2.2,0.7c-0.6,0.4-1.1,1.1-1.3,1.8v5.9H109V4.8h1.2v2.3c0.3-0.7,0.8-1.3,1.4-1.7
	c0.6-0.4,1.2-0.6,1.9-0.6h0.2L113.7,5.9z"/>
<path d="M115.4,2.8V1h1.2v1.8H115.4z M115.4,14.2V4.8h1.2v9.4L115.4,14.2z"/>
<path d="M123.9,13.8l-0.3,0.1c-0.2,0.1-0.3,0.1-0.5,0.2c-0.2,0.1-0.4,0.1-0.6,0.2c-0.2,0-0.5,0.1-0.7,0.1c-0.3,0-0.5,0-0.8-0.1
	c-0.2-0.1-0.5-0.2-0.6-0.3c-0.2-0.2-0.3-0.4-0.4-0.6c-0.1-0.3-0.2-0.5-0.2-0.8V5.8h-1.3v-1h1.3V1.6h1.2v3.2h2.2v1H121v6.4
	c0,0.3,0.1,0.6,0.4,0.8c0.2,0.2,0.5,0.3,0.8,0.3c0.3,0,0.6-0.1,0.9-0.2c0.2-0.1,0.3-0.2,0.5-0.3L123.9,13.8z"/>
<path d="M133.3,14.2h-1.2V8.9c0.1-0.8-0.1-1.7-0.6-2.4c-0.4-0.5-1-0.8-1.6-0.8c-0.3,0-0.7,0.1-1,0.2c-0.4,0.1-0.7,0.3-1,0.6
	c-0.3,0.2-0.6,0.5-0.8,0.9c-0.2,0.3-0.4,0.7-0.5,1.1v5.8h-1.2V1h1.2v5.9c0.4-0.7,0.9-1.3,1.6-1.7c0.6-0.4,1.4-0.6,2.2-0.6
	c0.5,0,1,0.1,1.4,0.3c0.4,0.2,0.7,0.5,0.9,0.8c0.3,0.4,0.4,0.8,0.5,1.3c0.1,0.5,0.2,1.1,0.2,1.7L133.3,14.2z"/>
<path d="M150,14.2h-1.2V8.9c0.1-0.8-0.1-1.7-0.5-2.4c-0.3-0.5-0.9-0.8-1.6-0.8c-0.3,0-0.7,0.1-1,0.2c-0.3,0.1-0.6,0.3-0.9,0.6
	c-0.6,0.5-1,1.2-1.2,2v5.8h-1.2V8.9c0.1-0.8-0.1-1.7-0.5-2.4c-0.3-0.5-0.9-0.8-1.6-0.8c-0.7,0-1.4,0.3-1.9,0.7c-0.6,0.5-1,1.2-1.2,2
	v5.8H136V4.8h1.1v2.1c0.3-0.7,0.9-1.3,1.5-1.7c0.6-0.4,1.3-0.6,2.1-0.6c0.7,0,1.4,0.2,1.9,0.7c0.5,0.5,0.8,1.1,0.9,1.8
	c0.6-1.5,2.1-2.4,3.6-2.4c0.5,0,0.9,0.1,1.4,0.3c0.4,0.2,0.7,0.5,0.9,0.8c0.2,0.4,0.4,0.8,0.5,1.3c0.1,0.6,0.2,1.1,0.2,1.7L150,14.2
	z"/>
<rect x="157.5" y="140.9" class="st1" width="124" height="12.1"/>
<rect x="157.5" y="140.9" class="st2" width="94.4" height="12.1"/>
<rect x="157.5" y="106.6" class="st2" width="124" height="12.1"/>
<rect x="157.5" y="72.3" class="st1" width="124" height="12.1"/>
<rect x="157.5" y="72.3" class="st2" width="92.5" height="12.1"/>
<rect x="157.5" y="37.9" class="st1" width="124" height="12.1"/>
<rect x="157.5" y="37.9" class="st2" width="46.5" height="12.1"/>
<polyline class="st3" points="281.8,159.9 281.8,22.1 399.5,22.1 "/>
<path d="M288.9,12.8V1h4.9c0.5,0,1,0.1,1.4,0.3c0.4,0.2,0.8,0.5,1.1,0.9c0.3,0.3,0.6,0.7,0.7,1.2c0.2,0.4,0.3,0.9,0.3,1.3
	c0,0.5-0.1,1-0.3,1.4c-0.2,0.4-0.4,0.8-0.7,1.2c-0.3,0.3-0.7,0.6-1.1,0.8c-0.4,0.2-0.9,0.3-1.4,0.3h-3.8v4.3H288.9z M290.1,7.4h3.8
	c0.3,0,0.6-0.1,0.9-0.2c0.3-0.1,0.5-0.3,0.7-0.6c0.2-0.3,0.4-0.5,0.5-0.9c0.1-0.3,0.2-0.7,0.2-1c0-0.3-0.1-0.7-0.2-1
	c-0.1-0.3-0.3-0.6-0.5-0.9c-0.2-0.2-0.5-0.4-0.8-0.6c-0.3-0.1-0.6-0.2-0.9-0.2h-3.6L290.1,7.4z"/>
<path d="M303.3,5.1c-0.7,0-1.4,0.2-2,0.6c-0.6,0.4-1,1-1.2,1.6v5.4H299V4.1h1.1v2.1c0.3-0.6,0.7-1.2,1.3-1.5
	c0.5-0.4,1.1-0.6,1.7-0.6h0.2L303.3,5.1z"/>
<path d="M308,12.9c-0.6,0-1.2-0.1-1.7-0.4c-0.5-0.2-1-0.6-1.4-1c-0.4-0.4-0.7-0.9-0.9-1.4c-0.7-1.7-0.3-3.5,0.9-4.8
	c0.4-0.4,0.8-0.8,1.3-1c1.1-0.5,2.3-0.5,3.4,0c0.5,0.2,1,0.6,1.4,1c0.4,0.4,0.7,0.9,0.9,1.4c0.2,0.5,0.3,1.1,0.3,1.7
	c0,0.6-0.1,1.2-0.3,1.7c-0.2,0.5-0.5,1-0.9,1.4c-0.4,0.4-0.8,0.8-1.4,1C309.2,12.8,308.6,12.9,308,12.9z M304.9,8.5
	c0,0.5,0.1,0.9,0.3,1.3c0.2,0.4,0.4,0.8,0.7,1.1c0.3,0.3,0.6,0.6,1,0.7c0.4,0.2,0.8,0.3,1.2,0.3c0.4,0,0.8-0.1,1.2-0.3
	c0.4-0.2,0.7-0.4,1-0.7c0.3-0.3,0.5-0.7,0.7-1.1c0.2-0.4,0.3-0.9,0.3-1.4c0-0.5-0.1-0.9-0.3-1.4c-0.2-0.4-0.4-0.8-0.7-1.1
	c-0.3-0.3-0.6-0.6-1-0.8c-0.8-0.4-1.7-0.4-2.4,0c-0.4,0.2-0.7,0.4-1,0.8c-0.3,0.3-0.5,0.7-0.7,1.1C305,7.6,304.9,8,304.9,8.5z"/>
<path d="M312.9,15.7c-0.3,0-0.7,0-1-0.1c-0.3-0.1-0.6-0.3-0.9-0.5l0.5-0.8c0.2,0.1,0.4,0.3,0.6,0.3c0.2,0.1,0.4,0.1,0.6,0.1
	c0.2,0,0.4,0,0.6-0.1c0.2-0.1,0.3-0.2,0.5-0.3c0.1-0.1,0.3-0.3,0.4-0.5c0.1-0.2,0.1-0.4,0.1-0.6V4.1h1.1v9c0,0.4-0.1,0.7-0.2,1.1
	c-0.1,0.3-0.3,0.6-0.6,0.8c-0.2,0.2-0.5,0.4-0.8,0.5C313.5,15.7,313.2,15.7,312.9,15.7z M314.3,2.3V0.7h1.1v1.6H314.3z"/>
<path d="M321.6,12.9c-0.6,0-1.2-0.1-1.7-0.4c-0.5-0.2-1-0.6-1.4-1c-0.4-0.4-0.7-0.9-0.9-1.4c-0.2-0.6-0.3-1.1-0.3-1.7
	c0-1.2,0.4-2.3,1.2-3.1c0.4-0.4,0.9-0.8,1.4-1c1.1-0.5,2.3-0.5,3.5,0c0.5,0.2,1,0.6,1.3,1c0.8,0.8,1.2,1.9,1.2,3.1v0.3
	c0,0.1,0,0.1,0,0.2h-7.4c0,0.4,0.1,0.9,0.3,1.3c0.2,0.4,0.4,0.7,0.7,1c0.3,0.3,0.6,0.5,1,0.7c0.4,0.2,0.8,0.2,1.2,0.2
	c0.3,0,0.6,0,0.8-0.1c0.3-0.1,0.5-0.2,0.8-0.3c0.2-0.1,0.4-0.3,0.6-0.5c0.2-0.2,0.3-0.4,0.4-0.6l1,0.3c-0.1,0.3-0.3,0.6-0.6,0.9
	c-0.5,0.5-1.2,0.9-1.9,1.1C322.5,12.8,322.1,12.9,321.6,12.9z M324.8,8c0-0.4-0.1-0.9-0.3-1.3c-0.2-0.4-0.4-0.7-0.7-1
	c-0.3-0.3-0.6-0.5-1-0.6c-0.4-0.2-0.8-0.2-1.2-0.2c-0.8,0-1.6,0.3-2.2,0.9c-0.3,0.3-0.5,0.6-0.7,1c-0.2,0.4-0.3,0.8-0.3,1.3L324.8,8
	z"/>
<path d="M327,8.4c0-0.6,0.1-1.2,0.3-1.7c0.2-0.5,0.5-1,0.9-1.4c0.4-0.4,0.8-0.8,1.4-1c0.6-0.2,1.1-0.4,1.8-0.3
	c0.7,0,1.5,0.2,2.1,0.6c0.6,0.4,1.1,0.9,1.4,1.5l-1.1,0.3c-0.2-0.4-0.6-0.8-1-1c-0.4-0.2-0.9-0.4-1.5-0.4c-0.4,0-0.8,0.1-1.2,0.3
	c-0.8,0.4-1.4,1-1.6,1.8c-0.2,0.4-0.2,0.9-0.2,1.4c0,0.5,0.1,0.9,0.2,1.4c0.2,0.4,0.4,0.8,0.7,1.1c0.3,0.3,0.6,0.6,1,0.7
	c0.4,0.2,0.8,0.3,1.2,0.3c0.3,0,0.6,0,0.8-0.1c0.3-0.1,0.5-0.2,0.8-0.3c0.2-0.1,0.4-0.3,0.6-0.5c0.2-0.2,0.3-0.4,0.4-0.6l1.1,0.3
	c-0.1,0.3-0.3,0.6-0.5,0.9c-0.5,0.5-1.1,0.9-1.9,1.1c-0.4,0.1-0.8,0.2-1.2,0.2c-1.2,0-2.3-0.5-3.1-1.3c-0.4-0.4-0.7-0.9-0.9-1.4
	C327.1,9.6,327,9,327,8.4z"/>
<path d="M340.8,12.3l-0.3,0.1l-0.4,0.2c-0.2,0.1-0.4,0.1-0.6,0.1c-0.2,0-0.4,0.1-0.7,0.1c-0.2,0-0.5,0-0.7-0.1
	c-0.4-0.1-0.8-0.4-1-0.8c-0.1-0.2-0.2-0.5-0.1-0.7V5h-1.2V4.1h1.2V1.2h1.1v2.9h2V5h-2v5.9c0,0.3,0.1,0.5,0.3,0.7
	c0.2,0.1,0.5,0.2,0.7,0.2c0.3,0,0.6,0,0.8-0.2c0.2-0.1,0.3-0.1,0.5-0.2L340.8,12.3z"/>
<path d="M346.7,12.8V1h5c0.5,0,1,0.1,1.4,0.3c0.4,0.2,0.8,0.5,1.1,0.9c0.6,0.7,1,1.6,1,2.5c0,0.4-0.1,0.8-0.3,1.2
	c-0.1,0.4-0.3,0.7-0.5,1.1c-0.2,0.3-0.5,0.6-0.8,0.8c-0.3,0.2-0.7,0.4-1.1,0.4l2.9,4.5h-1.3l-2.8-4.3h-3.5v4.3H346.7z M347.8,7.4
	h3.8c0.3,0,0.6-0.1,0.9-0.2c0.3-0.1,0.5-0.4,0.7-0.6c0.2-0.3,0.4-0.6,0.5-0.9c0.1-0.3,0.2-0.7,0.2-1c0-0.3-0.1-0.7-0.2-1
	c-0.1-0.3-0.3-0.6-0.5-0.8c-0.2-0.2-0.5-0.4-0.8-0.6c-0.3-0.1-0.6-0.2-0.9-0.2h-3.7V7.4z"/>
<path d="M360.7,12.9c-0.6,0-1.2-0.1-1.7-0.4c-0.5-0.2-1-0.6-1.4-1c-0.4-0.4-0.7-0.9-0.9-1.4c-0.2-0.5-0.3-1.1-0.3-1.7
	c0-1.8,1-3.4,2.6-4.1c0.5-0.2,1.1-0.4,1.7-0.3c0.6,0,1.2,0.1,1.7,0.3c0.5,0.2,1,0.6,1.4,1c0.4,0.4,0.7,0.9,0.9,1.4
	c0.2,0.5,0.3,1.1,0.3,1.7v0.3c0,0.1,0,0.1,0,0.2h-7.4c0,0.4,0.1,0.9,0.3,1.3c0.2,0.4,0.4,0.7,0.7,1c0.3,0.3,0.6,0.5,1,0.7
	c0.4,0.2,0.8,0.2,1.2,0.2c0.3,0,0.6,0,0.8-0.1c0.3-0.1,0.5-0.2,0.8-0.3c0.2-0.1,0.4-0.3,0.6-0.5c0.2-0.2,0.3-0.4,0.4-0.6l1,0.3
	c-0.1,0.3-0.3,0.6-0.6,0.9c-0.2,0.3-0.5,0.5-0.8,0.7c-0.3,0.2-0.7,0.3-1.1,0.4C361.6,12.9,361.2,12.9,360.7,12.9z M363.9,8
	c0-0.4-0.1-0.9-0.3-1.3c-0.2-0.4-0.4-0.7-0.7-1c-0.3-0.3-0.6-0.5-1-0.6c-0.4-0.2-0.8-0.2-1.2-0.2c-0.4,0-0.8,0.1-1.2,0.2
	c-0.4,0.1-0.7,0.4-1,0.6c-0.3,0.3-0.5,0.6-0.7,1c-0.2,0.4-0.3,0.8-0.3,1.3L363.9,8z"/>
<path d="M368.9,12.9c-0.4,0-0.8-0.1-1.1-0.2c-0.3-0.1-0.6-0.3-0.9-0.6c-0.3-0.2-0.5-0.5-0.6-0.9c-0.1-0.3-0.2-0.7-0.2-1
	c0-0.4,0.1-0.7,0.3-1c0.2-0.3,0.4-0.6,0.7-0.8c0.3-0.2,0.7-0.4,1.1-0.5c0.5-0.1,1-0.2,1.5-0.2c0.4,0,0.9,0,1.3,0.1
	c0.4,0.1,0.8,0.2,1.2,0.3V7.3c0-0.7-0.2-1.3-0.6-1.8c-0.5-0.5-1.1-0.7-1.8-0.7c-0.5,0-0.9,0.1-1.4,0.3c-0.5,0.2-1,0.4-1.4,0.8
	l-0.4-0.8c0.9-0.7,2.1-1.1,3.2-1.1c0.9-0.1,1.9,0.3,2.5,0.9c0.6,0.7,1,1.6,0.9,2.5v3.9c0,0.3,0.1,0.5,0.4,0.5v1
	c-0.1,0-0.3,0-0.4,0.1c-0.2,0-0.5-0.1-0.7-0.2c-0.2-0.2-0.3-0.4-0.3-0.6v-0.7c-0.4,0.5-0.9,0.9-1.5,1.2
	C370.2,12.8,369.5,12.9,368.9,12.9z M369.1,12.1c0.6,0,1.1-0.1,1.6-0.3c0.4-0.2,0.8-0.5,1.1-0.9c0.1-0.1,0.2-0.2,0.2-0.3
	c0-0.1,0.1-0.2,0.1-0.3V8.8c-0.4-0.1-0.8-0.3-1.2-0.3c-0.4-0.1-0.8-0.1-1.2-0.1c-0.7,0-1.4,0.1-1.9,0.5c-0.5,0.3-0.7,0.8-0.7,1.3
	c0,0.3,0,0.5,0.1,0.7c0.1,0.2,0.3,0.4,0.4,0.6c0.2,0.2,0.4,0.3,0.7,0.4C368.6,12,368.9,12.1,369.1,12.1z"/>
<path d="M375.1,8.4c0-0.6,0.1-1.2,0.3-1.7c0.2-0.5,0.5-1,0.9-1.4c0.4-0.4,0.8-0.8,1.4-1c0.6-0.2,1.2-0.3,1.8-0.3
	c0.7,0,1.5,0.2,2.1,0.6c0.6,0.4,1.1,0.9,1.4,1.5l-1.1,0.3c-0.2-0.4-0.6-0.8-1-1c-0.4-0.3-0.9-0.4-1.4-0.4c-0.4,0-0.8,0.1-1.2,0.3
	c-0.4,0.2-0.7,0.4-1,0.7c-0.3,0.3-0.5,0.7-0.7,1.1c-0.2,0.4-0.2,0.9-0.2,1.4c0,0.5,0.1,0.9,0.3,1.4c0.2,0.4,0.4,0.8,0.7,1.1
	c0.3,0.3,0.6,0.6,1,0.7c0.4,0.2,0.8,0.3,1.2,0.3c0.3,0,0.6,0,0.8-0.1c0.3-0.1,0.5-0.2,0.8-0.3c0.2-0.1,0.4-0.3,0.6-0.5
	c0.2-0.2,0.3-0.4,0.4-0.6l1.1,0.3c-0.1,0.3-0.3,0.6-0.5,0.9c-0.2,0.3-0.5,0.5-0.8,0.7c-0.3,0.2-0.6,0.3-1,0.4
	c-0.4,0.1-0.8,0.2-1.3,0.2c-0.6,0-1.2-0.1-1.7-0.4c-0.5-0.2-1-0.6-1.4-1c-0.4-0.4-0.7-0.9-0.9-1.4C375.2,9.6,375.1,9,375.1,8.4z"/>
<path d="M392,12.8h-1.1V7.9c0-0.8-0.1-1.5-0.5-2.2c-0.3-0.5-0.9-0.8-1.5-0.7c-0.3,0-0.6,0.1-1,0.2c-0.3,0.1-0.6,0.3-0.9,0.5
	c-0.3,0.2-0.5,0.5-0.7,0.8c-0.2,0.3-0.4,0.6-0.5,1v5.3h-1.1V0.7h1.1v5.4c0.3-0.6,0.8-1.2,1.4-1.5c0.6-0.4,1.3-0.6,2-0.6
	c0.4,0,0.9,0.1,1.3,0.3c0.3,0.2,0.6,0.4,0.9,0.8c0.2,0.4,0.4,0.8,0.5,1.2c0.1,0.5,0.2,1,0.1,1.5L392,12.8z"/>
</svg>
