<?xml version="1.0" encoding="utf-8"?>
<!-- Generator: Adobe Illustrator 24.1.0, SVG Export Plug-In . SVG Version: 6.00 Build 0)  -->
<svg version="1.1" id="图层_1" xmlns="http://www.w3.org/2000/svg" xmlns:xlink="http://www.w3.org/1999/xlink" x="0px" y="0px"
	 viewBox="0 0 408.6 159.8" style="enable-background:new 0 0 408.6 159.8;" xml:space="preserve">
<style type="text/css">
	.st0{fill:#333333;}
	.st1{fill:#E2282B;}
	.st2{fill:#939393;}
	.st3{fill:none;stroke:#E2282B;stroke-width:0.99;stroke-miterlimit:10;}
	.st4{fill:#E6E6E6;}
	.st5{fill:none;stroke:#939393;stroke-width:0.65;stroke-miterlimit:10;}
</style>
<path class="st0" d="M27.9,139.8h6.9v1.2H32v9.6h-1.3V141h-2.8V139.8z"/>
<path class="st0" d="M37.3,144.5c-0.9,0-1.2,0.8-1.2,1.8v4.3h-1.2v-7.1h1.2v0.8c0.3-0.6,0.9-0.9,1.5-1c0.5,0,1,0.1,1.3,0.5l-0.7,1
	C38,144.6,37.7,144.5,37.3,144.5z"/>
<path class="st0" d="M40,144.2c0.8-0.6,1.8-0.9,2.8-0.9c1.7,0,2.8,0.8,2.8,2.2v5.1h-1.2v-1c-0.6,0.7-1.4,1.2-2.4,1.1
	c-1.3,0.1-2.3-0.9-2.4-2.1c0,0,0-0.1,0-0.1c0-1.4,1-2.3,2.8-2.3c0.7,0,1.4,0.2,2,0.5v-1c0-1-0.7-1.2-1.6-1.2c-0.8,0-1.5,0.2-2.1,0.7
	L40,144.2z M42.3,149.7c1,0.1,1.9-0.7,2-1.8c0,0,0-0.1,0-0.1v-0.3c-0.6-0.3-1.2-0.4-1.8-0.4c-1.2,0-1.7,0.5-1.7,1.3
	S41.4,149.7,42.3,149.7z"/>
<path class="st0" d="M48.5,139.7c0.5,0,0.9,0.4,0.9,0.8c0,0.5-0.4,0.9-0.8,0.9c0,0,0,0,0,0c-0.5,0-0.8-0.4-0.8-0.9
	C47.7,140.1,48.1,139.7,48.5,139.7z M49.2,143.5v7.1h-1.3v-7.1H49.2z"/>
<path class="st0" d="M54.7,144.5c-0.9-0.1-1.8,0.7-1.8,1.6c0,0.1,0,0.1,0,0.2v4.3h-1.2v-7.1h1.2v1.1c0.4-0.8,1.2-1.3,2.1-1.3
	c1.5,0,2.4,1.1,2.4,2.8v4.5h-1.2v-4.3C56.3,145.1,55.7,144.5,54.7,144.5z"/>
<path class="st0" d="M60.7,139.7c0.5,0,0.8,0.4,0.8,0.9c0,0.5-0.4,0.8-0.8,0.8c-0.5,0-0.8-0.4-0.8-0.8
	C59.8,140.1,60.2,139.7,60.7,139.7z M61.3,143.5v7.1h-1.2v-7.1H61.3z"/>
<path class="st0" d="M66.9,144.5c-0.9-0.1-1.8,0.7-1.8,1.6c0,0.1,0,0.1,0,0.2v4.3h-1.2v-7.1h1.2v1.1c0.4-0.8,1.2-1.3,2.1-1.3
	c1.5,0,2.4,1.1,2.4,2.8v4.5h-1.2v-4.3C68.4,145.1,67.9,144.5,66.9,144.5z"/>
<path class="st0" d="M72.8,151.1c0.1,1.1,1,2,2.2,1.9c0,0,0.1,0,0.1,0c1.3,0,2.3-1,2.3-2.3c0-0.1,0-0.2,0-0.2v-1.1
	c-0.5,0.9-1.4,1.4-2.4,1.4c-2.1-0.2-3.6-1.9-3.4-4c0.1-1.8,1.6-3.3,3.4-3.4c1,0,1.9,0.5,2.4,1.4v-1.2h1.2v7c0.1,1.9-1.3,3.6-3.2,3.7
	c-0.1,0-0.2,0-0.3,0c-2.1,0-3.5-1.2-3.5-3.1L72.8,151.1z M75.1,149.6c1.4,0.1,2.6-1,2.7-2.4c0.1-1.4-1-2.6-2.4-2.7
	c-1.4-0.1-2.6,1-2.7,2.4c0,0,0,0.1,0,0.1c-0.1,1.3,0.9,2.5,2.2,2.6C74.9,149.6,75,149.6,75.1,149.6z"/>
<path class="st0" d="M84.5,139.8h6.9v1.2h-2.8v9.6h-1.3V141h-2.8L84.5,139.8z"/>
<path class="st0" d="M93.5,139.7c0.5,0,0.8,0.4,0.8,0.9c0,0.5-0.4,0.8-0.8,0.8c-0.5,0-0.8-0.4-0.8-0.8
	C92.7,140.1,93.1,139.7,93.5,139.7z M94.2,143.5v7.1h-1.2v-7.1H94.2z"/>
<path class="st0" d="M106.5,150.6h-1.2v-4.3c0-1.2-0.4-1.8-1.4-1.8c-0.9,0-1.6,0.6-1.7,1.5c0,0.1,0,0.2,0,0.3v4.3H101v-4.3
	c0-1.2-0.4-1.8-1.4-1.8c-0.9,0-1.6,0.6-1.7,1.5c0,0.1,0,0.2,0,0.3v4.3h-1.2v-7.1H98v1c0.6-1.1,2-1.5,3-0.9c0.4,0.2,0.8,0.6,1,1
	c0.4-0.8,1.3-1.3,2.2-1.3c1.5,0,2.3,1,2.3,2.8L106.5,150.6z"/>
<path class="st0" d="M108.2,147.1c-0.2-1.9,1.3-3.6,3.1-3.7c0.1,0,0.3,0,0.4,0c2.1,0,3.4,1.4,3.4,3.7c0,0.1,0,0.3,0,0.4h-5.6
	c-0.1,1.2,0.9,2.2,2,2.3c0.1,0,0.1,0,0.2,0c0.9,0,1.8-0.5,2.2-1.3l1,0.6c-0.7,1.2-2,1.9-3.4,1.8c-1.9,0-3.4-1.5-3.4-3.4
	C108.2,147.3,108.2,147.2,108.2,147.1z M109.5,146.3h4.2c0-1.1-0.9-1.9-2-1.9c0,0,0,0,0,0C110.6,144.4,109.6,145.2,109.5,146.3
	L109.5,146.3z"/>
<path class="st0" d="M5.5,105.9c3.1,0,5.6,2.4,5.7,5.5c0,3.1-2.4,5.6-5.5,5.7s-5.6-2.4-5.7-5.5c0,0,0-0.1,0-0.1
	c-0.1-3,2.3-5.5,5.3-5.6C5.4,105.9,5.5,105.9,5.5,105.9z M5.5,115.8c2.4,0.1,4.3-1.8,4.4-4.1s-1.8-4.3-4.1-4.4s-4.3,1.8-4.4,4.1
	c0,0,0,0.1,0,0.1c-0.1,2.2,1.6,4.2,3.9,4.3C5.4,115.8,5.5,115.8,5.5,115.8z"/>
<path class="st0" d="M15.5,115.9c0.9,0.1,1.8-0.7,1.8-1.6c0-0.1,0-0.1,0-0.2v-4.3h1.2v7.1h-1.2v-1.1c-0.4,0.8-1.2,1.3-2.1,1.3
	c-1.5,0-2.5-1.1-2.5-2.8v-4.5H14v4.3C14,115.3,14.5,115.9,15.5,115.9z"/>
<path class="st0" d="M21,109.8v-2.5h1.2v2.5h1.2v1.2h-1.2v6H21v-6h-1.2v-1.2H21z"/>
<path class="st0" d="M24.5,120.4v-10.5h1.2v1.2c0.5-0.9,1.4-1.4,2.4-1.4c2.1,0,3.7,1.7,3.7,3.7s-1.7,3.7-3.7,3.7
	c-1,0-1.9-0.5-2.4-1.4v4.6L24.5,120.4z M28.1,110.8c-1.4,0-2.6,1.1-2.6,2.5c0,1.4,1.1,2.6,2.5,2.6s2.6-1.1,2.6-2.5c0,0,0-0.1,0-0.1
	c0.1-1.3-0.9-2.5-2.2-2.6C28.2,110.8,28.2,110.8,28.1,110.8L28.1,110.8z"/>
<path class="st0" d="M36.2,115.9c0.9,0.1,1.8-0.7,1.8-1.6c0-0.1,0-0.1,0-0.2v-4.3h1.2v7.1H38v-1.1c-0.4,0.8-1.2,1.3-2.1,1.3
	c-1.5,0-2.5-1.1-2.5-2.8v-4.5h1.2v4.3C34.7,115.3,35.2,115.9,36.2,115.9z"/>
<path class="st0" d="M41.7,109.8v-2.5h1.2v2.5h1.2v1.2h-1.2v6h-1.2v-6h-1.2v-1.2H41.7z"/>
<path class="st0" d="M53,106.1c2.1,0,3.7,1.3,3.7,3.3c0,1.5-1.1,2.9-2.6,3.1l3.2,4.5h-1.6l-3-4.3h-1.3v4.3h-1.3v-10.9H53z
	 M51.4,107.3v4.2H53c1.2,0.2,2.2-0.6,2.4-1.8c0.2-1.2-0.6-2.2-1.8-2.4c-0.2,0-0.4,0-0.6,0H51.4z"/>
<path class="st0" d="M58.1,113.4c-0.2-1.9,1.3-3.6,3.1-3.7c0.1,0,0.2,0,0.3,0c2.1,0,3.4,1.4,3.4,3.7c0,0.2,0,0.3,0,0.4h-5.6
	c-0.1,1.2,0.9,2.2,2,2.2c0.1,0,0.1,0,0.2,0c0.9,0,1.8-0.5,2.2-1.3l1,0.6c-0.7,1.2-2,1.9-3.4,1.8c-1.9,0-3.4-1.6-3.3-3.5
	C58,113.6,58,113.5,58.1,113.4z M59.4,112.6h4.2c0-1.1-0.9-1.9-2-1.9c0,0,0,0,0,0C60.5,110.7,59.5,111.5,59.4,112.6z"/>
<path class="st0" d="M68.9,116c0.7,0,1.1-0.3,1.1-0.9c0-0.7-0.8-1.1-1.6-1.4s-2-0.9-2-2.1s1.2-1.9,2.3-1.9c1,0,2,0.5,2.6,1.4l-1,0.6
	c-0.4-0.6-1-0.9-1.7-0.9c-0.5,0-1,0.2-1,0.7s0.7,0.9,1.5,1.2c1.2,0.5,2.2,1,2.2,2.3c0,1.2-1,2.2-2.3,2.2c-0.1,0-0.1,0-0.2,0
	c-1.2,0-2.3-0.7-2.8-1.7l1-0.6C67.4,115.5,68.1,115.9,68.9,116z"/>
<path class="st0" d="M76,109.7c2.1,0,3.7,1.6,3.7,3.7c0,2.1-1.6,3.7-3.7,3.7c-2.1,0-3.7-1.6-3.7-3.7c0,0,0,0,0,0
	c-0.1-2,1.5-3.7,3.5-3.7C75.8,109.7,75.9,109.7,76,109.7z M76,115.9c1.4,0.1,2.6-1,2.7-2.4c0.1-1.4-1-2.6-2.4-2.7
	c-1.4-0.1-2.6,1-2.7,2.4c0,0,0,0.1,0,0.1c-0.1,1.3,0.9,2.5,2.3,2.6C75.9,115.9,75.9,116,76,115.9z"/>
<path class="st0" d="M82.6,104.9V117h-1.2v-12.1H82.6z"/>
<path class="st0" d="M87.7,115.9c0.9,0.1,1.8-0.7,1.8-1.6c0-0.1,0-0.1,0-0.2v-4.3h1.2v7.1h-1.2v-1.1c-0.4,0.8-1.2,1.3-2.1,1.3
	c-1.5,0-2.4-1.1-2.4-2.8v-4.5h1.2v4.3C86.2,115.3,86.7,115.9,87.7,115.9z"/>
<path class="st0" d="M93.1,109.8v-2.5h1.2v2.5h1.2v1.2h-1.2v6h-1.2v-6H92v-1.2H93.1z"/>
<path class="st0" d="M97.6,106c0.5,0,0.8,0.4,0.8,0.8c0,0.5-0.4,0.8-0.8,0.8c-0.5,0-0.8-0.4-0.8-0.8l0,0
	C96.8,106.4,97.2,106,97.6,106z M98.2,109.8v7.1H97v-7.1H98.2z"/>
<path class="st0" d="M103.9,109.7c2.1,0,3.7,1.6,3.7,3.7c0,2.1-1.6,3.7-3.7,3.7c-2.1,0-3.7-1.6-3.7-3.7c0,0,0,0,0,0
	c-0.1-2,1.5-3.7,3.5-3.7C103.8,109.7,103.8,109.7,103.9,109.7z M103.9,115.9c1.4,0.1,2.6-1,2.7-2.4c0.1-1.4-1-2.6-2.4-2.7
	c-1.4-0.1-2.6,1-2.7,2.4c0,0,0,0.1,0,0.1c-0.1,1.3,0.9,2.5,2.3,2.6C103.8,115.9,103.8,116,103.9,115.9z"/>
<path class="st0" d="M112.3,110.8c-0.9-0.1-1.8,0.7-1.8,1.6c0,0.1,0,0.1,0,0.2v4.3h-1.2v-7.1h1.3v1.1c0.4-0.8,1.2-1.3,2.1-1.3
	c1.5,0,2.4,1.1,2.4,2.8v4.5h-1.2v-4.3C113.8,111.4,113.3,110.8,112.3,110.8z"/>
<path class="st0" d="M9.7,73v10.9H8.4V73H9.7z"/>
<path class="st0" d="M12.2,76.8v-2.5h1.2v2.5h1.1v1.1h-1.1v6h-1.2v-6H11v-1.1H12.2z"/>
<path class="st0" d="M15.2,80.3c-0.1-1.9,1.3-3.6,3.2-3.7c0.1,0,0.2,0,0.4,0c2.1,0,3.4,1.4,3.4,3.7c0,0.2,0,0.3,0,0.4h-5.6
	c-0.1,1.2,0.8,2.2,2,2.3c0.1,0,0.2,0,0.2,0c0.9,0,1.8-0.5,2.2-1.3l1,0.6c-0.7,1.2-2,1.9-3.4,1.8c-1.9,0-3.4-1.5-3.4-3.4
	C15.2,80.5,15.2,80.4,15.2,80.3z M16.5,79.6h4.2c0-1.1-0.9-1.9-1.9-1.9c0,0,0,0-0.1,0C17.6,77.6,16.6,78.5,16.5,79.6z"/>
<path class="st0" d="M26.2,77.8c-0.9,0-1.2,0.8-1.2,1.8v4.3h-1.2v-7.1H25v0.8c0.3-0.6,0.9-0.9,1.5-1c0.5,0,1,0.1,1.3,0.5l-0.7,1
	C26.9,77.9,26.6,77.8,26.2,77.8z"/>
<path class="st0" d="M28.9,77.5c0.8-0.6,1.8-0.9,2.8-0.9c1.7,0,2.8,0.8,2.8,2.2v5.1h-1.2v-1c-0.6,0.7-1.4,1.2-2.4,1.1
	c-1.3,0.1-2.4-0.9-2.5-2.1c0-0.1,0-0.1,0-0.2c0-1.4,1-2.3,2.8-2.3c0.7,0,1.4,0.2,2,0.5v-1c0-1-0.7-1.3-1.6-1.3
	c-0.8,0-1.5,0.3-2.1,0.7L28.9,77.5z M31.2,83c1,0.1,1.9-0.7,2-1.8c0,0,0-0.1,0-0.1v-0.3c-0.6-0.3-1.2-0.4-1.8-0.4
	c-1.2,0-1.7,0.5-1.7,1.2S30.3,83,31.2,83z"/>
<path class="st0" d="M36.6,76.8v-2.5h1.2v2.5H39v1.1h-1.2v6h-1.2v-6h-1.2v-1.1H36.6z"/>
<path class="st0" d="M41.1,73c0.5,0,0.8,0.4,0.8,0.9c0,0.5-0.4,0.8-0.8,0.8c-0.5,0-0.8-0.4-0.8-0.9C40.3,73.4,40.7,73,41.1,73z
	 M41.7,76.8v7.1h-1.2v-7.1H41.7z"/>
<path class="st0" d="M47.4,76.6c2.1,0,3.7,1.6,3.7,3.7c0,2.1-1.6,3.7-3.7,3.7c-2.1,0-3.7-1.6-3.7-3.7c0,0,0,0,0,0
	c-0.1-2,1.5-3.7,3.5-3.7C47.2,76.6,47.3,76.6,47.4,76.6z M47.4,82.9c1.4,0.1,2.6-1,2.7-2.4s-1-2.6-2.4-2.7c-1.4-0.1-2.6,1-2.7,2.4
	c0,0,0,0.1,0,0.1c-0.1,1.3,0.9,2.5,2.3,2.6C47.3,82.9,47.3,82.9,47.4,82.9L47.4,82.9z"/>
<path class="st0" d="M55.8,77.8c-0.9-0.1-1.8,0.7-1.8,1.6c0,0.1,0,0.1,0,0.2v4.3h-1.2v-7.1H54v1.1c0.4-0.8,1.2-1.3,2.1-1.3
	c1.5,0,2.4,1.1,2.4,2.8v4.5h-1.2v-4.3C57.3,78.4,56.8,77.8,55.8,77.8z"/>
<path class="st0" d="M71.7,80.6h-4.4l-1.4,3.3h-1.5l5-11.4l5.1,11.4h-1.5L71.7,80.6z M67.8,79.4h3.3l-1.6-3.9L67.8,79.4z"/>
<path class="st0" d="M85.5,83.9h-1.2v-4.3c0-1.2-0.4-1.8-1.4-1.8c-0.9,0-1.6,0.6-1.7,1.5c0,0.1,0,0.2,0,0.3v4.3H80v-4.3
	c0-1.2-0.4-1.8-1.4-1.8c-0.9,0-1.6,0.6-1.7,1.5c0,0.1,0,0.2,0,0.3v4.3h-1.2v-7.1H77v1c0.6-1.1,2-1.5,3-0.9c0.4,0.2,0.8,0.6,1,1
	c0.4-0.8,1.3-1.3,2.2-1.3c1.5,0,2.3,1,2.3,2.8L85.5,83.9z"/>
<path class="st0" d="M90.9,76.6c2.1,0,3.7,1.6,3.7,3.7c0,2.1-1.6,3.7-3.7,3.7c-2.1,0-3.7-1.6-3.7-3.7c0,0,0,0,0,0
	c-0.1-2,1.5-3.7,3.5-3.7C90.8,76.6,90.9,76.6,90.9,76.6z M90.9,82.9c1.4,0.1,2.6-1,2.7-2.4c0.1-1.4-1-2.6-2.4-2.7
	c-1.4-0.1-2.6,1-2.7,2.4c0,0.1,0,0.1,0,0.2c-0.1,1.3,0.9,2.5,2.3,2.6C90.9,82.9,90.9,82.9,90.9,82.9L90.9,82.9z"/>
<path class="st0" d="M99.1,82.9c0.9,0.1,1.7-0.6,1.8-1.6c0-0.1,0-0.1,0-0.2v-4.4h1.2v7.1h-1.2v-1.1c-0.4,0.8-1.2,1.3-2.1,1.3
	c-1.5,0-2.4-1.1-2.4-2.8v-4.5h1.2v4.3C97.5,82.2,98.1,82.9,99.1,82.9z"/>
<path class="st0" d="M107.5,77.8c-0.9-0.1-1.8,0.7-1.8,1.6c0,0.1,0,0.1,0,0.2v4.3h-1.2v-7.1h1.2v1.1c0.4-0.8,1.2-1.3,2.1-1.3
	c1.5,0,2.5,1.1,2.5,2.8v4.5H109v-4.3C109,78.4,108.5,77.8,107.5,77.8z"/>
<path class="st0" d="M112.7,76.8v-2.5h1.2v2.5h1.2v1.1h-1.2v6h-1.2v-6h-1.1v-1.1H112.7z"/>
<path class="st0" d="M37.7,49.4V38.5H41c2.9-0.1,5.3,2.1,5.4,4.9c0,0.1,0,0.3,0,0.4c0.1,2.9-2.1,5.3-4.9,5.4c-0.2,0-0.3,0-0.5,0
	L37.7,49.4z M39,39.8V48H41c2.1,0.1,4-1.5,4.1-3.6c0-0.2,0-0.4,0-0.5c0.1-2.1-1.5-4-3.6-4.1c-0.2,0-0.3,0-0.5,0L39,39.8z"/>
<path class="st0" d="M47.9,43c0.8-0.6,1.8-0.9,2.8-0.9c1.7,0,2.8,0.8,2.8,2.2v5.1h-1.2v-1c-0.6,0.7-1.4,1.2-2.3,1.1
	c-1.3,0.1-2.4-0.9-2.5-2.1c0-0.1,0-0.1,0-0.2c0-1.4,1-2.3,2.8-2.3c0.7,0,1.4,0.2,2,0.5v-1c0-1-0.7-1.3-1.6-1.3
	c-0.8,0-1.5,0.3-2.1,0.7L47.9,43z M50.2,48.4c1,0.1,1.9-0.7,2-1.8c0,0,0-0.1,0-0.1v-0.3c-0.6-0.3-1.2-0.4-1.8-0.4
	c-1.2,0-1.7,0.5-1.7,1.2S49.3,48.4,50.2,48.4z"/>
<path class="st0" d="M55.7,42.2v-2.5h1.2v2.5h1.2v1.2h-1.2v6h-1.2v-6h-1.2v-1.2H55.7z"/>
<path class="st0" d="M59.1,43c0.8-0.6,1.8-0.9,2.8-0.9c1.7,0,2.8,0.8,2.8,2.2v5.1h-1.2v-1c-0.6,0.7-1.4,1.2-2.4,1.1
	c-1.3,0.1-2.4-0.9-2.5-2.1c0-0.1,0-0.1,0-0.2c0-1.4,1-2.3,2.8-2.3c0.7,0,1.4,0.2,2,0.5v-1c0-1-0.7-1.3-1.6-1.3
	c-0.8,0-1.5,0.3-2.1,0.7L59.1,43z M61.4,48.4c1,0.1,1.9-0.7,2-1.8c0,0,0-0.1,0-0.1v-0.3c-0.6-0.3-1.2-0.4-1.8-0.4
	c-1.2,0-1.7,0.5-1.7,1.2S60.5,48.4,61.4,48.4z"/>
<path class="st0" d="M69,48.4c0.7,0,1.1-0.3,1.1-0.9c0-0.8-0.8-1.1-1.6-1.4s-2-0.9-2-2.1s1.2-1.9,2.3-1.9c1,0,2,0.5,2.6,1.4l-1,0.6
	c-0.4-0.6-1-0.9-1.7-0.9c-0.5,0-1,0.2-1,0.7s0.7,0.9,1.5,1.2c1.2,0.5,2.2,1,2.2,2.3c0,1.2-1,2.2-2.3,2.2c-0.1,0-0.1,0-0.2,0
	c-1.2,0-2.3-0.7-2.8-1.7l1-0.6C67.5,47.9,68.2,48.3,69,48.4z"/>
<path class="st0" d="M72.4,45.8c-0.1-1.9,1.3-3.6,3.2-3.7c0.1,0,0.2,0,0.4,0c2.1,0,3.4,1.4,3.4,3.7c0,0.2,0,0.3,0,0.4h-5.6
	c-0.1,1.2,0.9,2.2,2,2.2c0.1,0,0.2,0,0.2,0c0.9,0,1.8-0.5,2.2-1.3l1,0.6c-0.7,1.2-2,1.9-3.4,1.8c-1.9,0-3.4-1.5-3.4-3.4
	C72.4,46,72.4,45.9,72.4,45.8z M73.7,45H78c0-1.1-0.9-1.9-2-1.9c0,0,0,0,0,0C74.8,43.1,73.8,43.9,73.7,45z"/>
<path class="st0" d="M81.1,42.2v-2.5h1.2v2.5h1.2v1.2h-1.2v6h-1.2v-6h-1.2v-1.2H81.1z"/>
<path class="st0" d="M92.7,48.3c1,0.1,1.8-0.6,1.9-1.6c0-0.1,0-0.1,0-0.2c0-1.5-1.2-1.9-2.4-2.3s-2.9-1.1-2.9-3.1
	c0-1.6,1.4-2.8,2.9-2.8c0.1,0,0.1,0,0.2,0c1.5,0,2.8,0.9,3.4,2.3l-1.1,0.7c-0.4-1-1.3-1.6-2.3-1.7c-1.2,0-1.7,0.7-1.7,1.4
	c0,0.9,0.6,1.5,2.5,2.2c1.2,0.4,2.7,1.3,2.7,3.2c0,1.8-1.5,3.1-3.3,3.1c0,0,0,0-0.1,0c-1.7-0.1-3.2-1.2-3.9-2.7l1.1-0.7
	C90.6,47.4,91.4,48.3,92.7,48.3z"/>
<path class="st0" d="M98.7,38.4c0.5,0,0.9,0.4,0.9,0.8s-0.4,0.9-0.8,0.9c-0.5,0-0.9-0.4-0.9-0.8c0,0,0,0,0,0
	C97.9,38.8,98.3,38.4,98.7,38.4z M99.4,42.2v7.1h-1.2v-7.1L99.4,42.2z"/>
<path class="st0" d="M101.5,43.4v-1.2h6.2l-4.4,6h4.1v1.2H101l4.4-6H101.5z"/>
<path class="st0" d="M108.2,45.8c-0.2-1.9,1.3-3.6,3.1-3.7c0.1,0,0.3,0,0.4,0c2.1,0,3.4,1.4,3.4,3.7c0,0.2,0,0.3,0,0.4h-5.6
	c-0.1,1.2,0.9,2.2,2.1,2.2c0.1,0,0.1,0,0.2,0c0.9,0,1.8-0.5,2.2-1.3l1,0.6c-0.7,1.2-2,1.9-3.4,1.8c-1.9,0-3.4-1.6-3.4-3.4
	C108.2,46,108.2,45.9,108.2,45.8z M109.5,45h4.2c0-1.1-0.9-1.9-2-1.9c0,0,0,0,0,0C110.6,43.1,109.6,43.9,109.5,45L109.5,45z"/>
<path class="st0" d="M59.2,10.6h-4.4l-1.4,3.3h-1.5l5-11.4l5,11.4h-1.4L59.2,10.6z M55.3,9.4h3.3L57,5.5L55.3,9.4z"/>
<path class="st0" d="M64.5,1.8v12.1h-1.3V1.8H64.5z"/>
<path class="st0" d="M67.6,14.3c0.1,1.1,1.1,2,2.2,1.9c0,0,0,0,0.1,0c1.3,0,2.3-1,2.3-2.3c0-0.1,0-0.2,0-0.3v-1.1
	c-0.5,0.9-1.4,1.4-2.4,1.4c-1.9,0-3.5-1.5-3.5-3.5c0-0.1,0-0.2,0-0.3c-0.1-1.9,1.3-3.6,3.3-3.7c0.1,0,0.2,0,0.3,0
	c1,0,1.9,0.5,2.4,1.4V6.7h1.2v7c0.1,1.9-1.3,3.6-3.2,3.7c-0.1,0-0.2,0-0.3,0c-2.1,0-3.5-1.3-3.5-3.1L67.6,14.3z M69.9,12.9
	c1.3-0.1,2.3-1.2,2.3-2.5c0,0,0,0,0,0C72.3,9,71.3,7.9,70,7.8s-2.5,0.8-2.6,2.1c0,0.1,0,0.3,0,0.4c-0.1,1.3,0.9,2.5,2.2,2.6
	C69.7,12.9,69.8,12.9,69.9,12.9z"/>
<path class="st0" d="M78.7,6.6c2,0,3.6,1.5,3.7,3.5c0,0.1,0,0.1,0,0.2c0,2-1.6,3.7-3.7,3.7c-2,0-3.7-1.6-3.7-3.7c0,0,0,0,0,0
	c-0.1-2,1.5-3.7,3.5-3.7C78.6,6.6,78.7,6.6,78.7,6.6z M78.7,12.8c1.3,0,2.4-1.1,2.4-2.4c0-0.1,0-0.1,0-0.2c0.1-1.3-0.9-2.5-2.3-2.6
	c-1.3-0.1-2.5,0.9-2.6,2.3c0,0.1,0,0.2,0,0.3c-0.1,1.3,0.9,2.5,2.2,2.6C78.6,12.9,78.7,12.9,78.7,12.8L78.7,12.8z"/>
<path class="st0" d="M86.5,7.7c-0.9,0-1.2,0.8-1.2,1.8v4.4h-1.2V6.7h1.2v0.8c0.3-0.6,0.9-0.9,1.5-1c0.5,0,1,0.1,1.3,0.5l-0.7,1
	C87.2,7.8,86.9,7.7,86.5,7.7z"/>
<path class="st0" d="M90.3,2.9c0.5,0,0.9,0.4,0.9,0.8s-0.4,0.9-0.8,0.9c-0.5,0-0.9-0.4-0.9-0.8c0,0,0,0,0,0
	C89.4,3.3,89.8,2.9,90.3,2.9z M90.9,6.7v7.2h-1.2V6.7L90.9,6.7z"/>
<path class="st0" d="M93.5,6.7V4.2h1.2v2.5h1.2v1.2h-1.2v6h-1.2v-6h-1.2V6.7H93.5z"/>
<path class="st0" d="M100.2,7.7c-1-0.1-1.8,0.7-1.8,1.6c0,0,0,0.1,0,0.1v4.4h-1.2V1.8h1.2v6.1c0.4-0.8,1.2-1.3,2.1-1.3
	c1.5,0,2.4,0.9,2.4,2.8v4.5h-1.2V9.5C101.8,8.3,101.2,7.7,100.2,7.7z"/>
<path class="st0" d="M115.1,13.9h-1.2V9.5c0-1.2-0.4-1.8-1.4-1.8c-0.9,0-1.6,0.6-1.7,1.5c0,0.1,0,0.2,0,0.3v4.4h-1.3V9.5
	c0-1.2-0.4-1.8-1.4-1.8c-0.9,0-1.6,0.6-1.7,1.5c0,0.1,0,0.2,0,0.3v4.4h-1.2V6.7h1.2v1c0.6-1.1,2-1.5,3-0.9c0.4,0.2,0.8,0.6,1,1
	c0.4-0.8,1.3-1.4,2.2-1.3c1.5,0,2.3,1,2.3,2.8L115.1,13.9z"/>
<path class="st1" d="M259.2,141h0.5v7.5h1.8v1.2h-1.7v2.2h-1.3v-2.2h-5.2L259.2,141z M258.5,148.5v-4.6l-3.1,4.6L258.5,148.5z"/>
<path class="st1" d="M264.7,146.1c-1-0.4-1.6-1.4-1.5-2.4c0-1.7,1.3-3,3-3s3,1.3,3,3c0,1.1-0.6,2-1.5,2.4c1.2,0.4,1.9,1.6,1.9,2.8
	c-0.1,1.9-1.8,3.3-3.6,3.1c-1.7-0.1-3-1.5-3.1-3.1C262.7,147.6,263.5,146.5,264.7,146.1z M266.2,150.8c1.1,0,2.1-0.8,2.1-2
	c0,0,0-0.1,0-0.1c-0.1-1.2-1.1-2.1-2.3-2c-1.1,0.1-1.9,0.9-2,2c0,1.1,0.9,2.1,2,2.1C266.1,150.8,266.1,150.8,266.2,150.8
	L266.2,150.8z M266.2,145.5c1,0,1.8-0.8,1.8-1.7c0-1-0.8-1.8-1.7-1.8c-1,0-1.8,0.8-1.8,1.7c0,0,0,0,0,0
	C264.4,144.7,265.2,145.5,266.2,145.5C266.2,145.5,266.2,145.5,266.2,145.5z"/>
<path class="st2" d="M277.9,141l-6.3,13.2h-1.2l6.3-13.2H277.9z"/>
<path class="st2" d="M284.9,141l-3,4c0.4-0.2,0.8-0.3,1.2-0.3c1.8,0.1,3.3,1.6,3.2,3.5c0,0,0,0,0,0.1c0,2-1.7,3.7-3.7,3.7
	s-3.7-1.7-3.7-3.7c0-0.8,0.2-1.6,0.7-2.2l3.7-5L284.9,141z M282.6,150.8c1.4,0.1,2.6-1,2.6-2.4c0.1-1.4-1-2.6-2.4-2.6
	c-1.4-0.1-2.6,1-2.6,2.4c0,0,0,0.1,0,0.1c-0.1,1.3,0.9,2.5,2.3,2.5C282.5,150.8,282.6,150.8,282.6,150.8z"/>
<path class="st2" d="M288,149h1.3c0.1,1.1,1,1.9,2,1.8c0,0,0.1,0,0.1,0c1,0.1,1.9-0.7,2-1.7c0-0.1,0-0.2,0-0.2c0-1.3-1.1-2-2.5-2
	v-1.2c1.1,0.1,2.1-0.7,2.2-1.8c0,0,0,0,0-0.1c0.1-0.9-0.5-1.6-1.4-1.7c-0.1,0-0.2,0-0.3,0c-0.9-0.1-1.8,0.7-1.8,1.6c0,0,0,0,0,0
	h-1.2c0-1.6,1.2-2.8,2.8-2.9c0.1,0,0.2,0,0.2,0c1.6-0.1,2.9,1.2,3,2.7c0,0.1,0,0.1,0,0.2c0,1.1-0.8,2.1-1.8,2.5
	c1.3,0.3,2.2,1.5,2.1,2.8c0,1.9-1.4,3-3.4,3S288,150.7,288,149z"/>
<path class="st2" d="M304.4,145.7c-0.9-0.1-1.8,0.7-1.8,1.6c0,0.1,0,0.1,0,0.2v4.3h-1.2v-12.1h1.2v6.1c0.4-0.8,1.2-1.3,2.1-1.3
	c1.5,0,2.5,0.9,2.5,2.8v4.5h-1.2v-4.3C305.9,146.3,305.4,145.7,304.4,145.7z"/>
<path class="st2" d="M312.5,144.5c2.1,0,3.7,1.6,3.7,3.7s-1.6,3.7-3.7,3.7s-3.7-1.6-3.7-3.7c0,0,0,0,0,0c-0.1-2,1.5-3.7,3.5-3.7
	C312.4,144.5,312.5,144.5,312.5,144.5z M312.5,150.8c1.4,0.1,2.6-1,2.7-2.4s-1-2.6-2.4-2.7c-1.4-0.1-2.6,1-2.7,2.4c0,0,0,0.1,0,0.1
	c-0.1,1.3,0.9,2.5,2.3,2.6C312.4,150.8,312.5,150.8,312.5,150.8z"/>
<path class="st2" d="M320.7,150.8c0.9,0.1,1.8-0.7,1.8-1.6c0-0.1,0-0.1,0-0.2v-4.3h1.2v7.1h-1.2v-1.1c-0.4,0.8-1.2,1.3-2.1,1.3
	c-1.5,0-2.5-1.1-2.5-2.8v-4.5h1.2v4.3C319.2,150.2,319.7,150.8,320.7,150.8z"/>
<path class="st2" d="M328.5,145.7c-0.9,0-1.2,0.8-1.2,1.8v4.3h-1.2v-7.1h1.2v0.8c0.3-0.6,0.9-0.9,1.5-1c0.5,0,1,0.1,1.3,0.5l-0.7,1
	C329.2,145.8,328.9,145.7,328.5,145.7z"/>
<path class="st2" d="M333.6,150.9c0.7,0,1.1-0.3,1.1-0.9c0-0.7-0.8-1.1-1.6-1.4s-2-0.9-2-2.1s1.1-1.9,2.3-1.9c1,0,2,0.5,2.6,1.4
	l-1,0.6c-0.4-0.6-1-0.9-1.7-0.9c-0.5,0-0.9,0.2-0.9,0.7s0.7,0.9,1.5,1.2c1.2,0.5,2.2,1,2.2,2.3c0,1.2-1,2.2-2.3,2.2
	c-0.1,0-0.1,0-0.2,0c-1.2,0-2.3-0.7-2.9-1.7l1-0.6C332.1,150.4,332.9,150.8,333.6,150.9z"/>
<path class="st1" d="M253.2,106.3l3.7-0.9v11h-1.3V107l-2.4,0.7V106.3z"/>
<path class="st1" d="M264.4,110.9c0.7-0.6,1.1-1.5,1.1-2.4c0-1.1-1-2-2.1-1.9c0,0,0,0,0,0c-1.4,0-2.2,1-2.2,2.7h-1.3
	c0-2.3,1.3-3.9,3.5-3.9c1.8-0.1,3.3,1.3,3.4,3.1c0,0,0,0.1,0,0.1c-0.1,1.2-0.6,2.3-1.4,3.1l-3.5,3.5h5v1.2h-7.7L264.4,110.9z"/>
<path class="st1" d="M270.5,110.6c-1-0.4-1.6-1.4-1.5-2.4c0-1.7,1.3-3,3-3s3,1.3,3,3c0.1,1.1-0.6,2-1.5,2.4c1.2,0.4,2,1.6,1.9,2.8
	c-0.1,1.9-1.8,3.3-3.6,3.1c-1.7-0.1-3-1.5-3.1-3.1C268.6,112.2,269.4,111.1,270.5,110.6z M272,115.4c1.1,0,2.1-0.8,2.1-2
	c0,0,0-0.1,0-0.1c-0.1-1.2-1.1-2.1-2.3-2c-1.1,0.1-1.9,0.9-2,2c0,1.1,0.9,2.1,2,2.1C271.9,115.4,272,115.4,272,115.4L272,115.4z
	 M272,110.1c1,0,1.7-0.8,1.7-1.7s-0.8-1.7-1.7-1.7s-1.7,0.8-1.7,1.7c0,0,0,0,0,0C270.3,109.3,271,110,272,110.1
	C272,110.1,272,110.1,272,110.1L272,110.1z"/>
<path class="st2" d="M283.8,105.6l-6.3,13.2h-1.2l6.3-13.2H283.8z"/>
<path class="st2" d="M285.2,106.3l3.7-0.9v11h-1.3V107l-2.4,0.7V106.3z"/>
<path class="st2" d="M296.4,110.9c0.7-0.6,1.1-1.5,1.1-2.4c0-1.1-1-2-2.1-1.9c0,0,0,0,0,0c-1.4,0-2.2,1-2.2,2.7h-1.3
	c0-2.3,1.3-3.9,3.5-3.9c1.8-0.1,3.3,1.3,3.4,3.1c0,0,0,0.1,0,0.1c-0.1,1.2-0.6,2.3-1.4,3.1l-3.5,3.5h5v1.2h-7.7L296.4,110.9z"/>
<path class="st2" d="M302.5,110.6c-1-0.4-1.6-1.4-1.5-2.4c0-1.7,1.3-3,3-3s3,1.3,3,3c0,1.1-0.6,2-1.5,2.4c1.2,0.4,2,1.6,1.9,2.8
	c-0.1,1.9-1.8,3.3-3.6,3.1c-1.7-0.1-3-1.5-3.1-3.1C300.6,112.2,301.4,111.1,302.5,110.6z M304,115.4c1.1,0,2.1-0.8,2.1-2
	c0,0,0-0.1,0-0.1c0-1.2-1-2.1-2.1-2.1c-1.2,0-2.1,0.9-2.1,2.1c-0.1,1.1,0.8,2,1.9,2.1C303.9,115.4,303.9,115.4,304,115.4L304,115.4z
	 M304,110.1c1,0,1.7-0.8,1.7-1.7s-0.8-1.7-1.7-1.7c-1,0-1.7,0.8-1.7,1.7c0,0,0,0,0,0C302.2,109.3,303,110,304,110.1
	C304,110.1,304,110.1,304,110.1L304,110.1z"/>
<path class="st2" d="M314,119.8v-10.5h1.2v1.2c0.5-0.9,1.4-1.4,2.4-1.4c2.1,0.2,3.6,1.9,3.4,4c-0.1,1.8-1.6,3.3-3.4,3.4
	c-1,0-1.9-0.5-2.4-1.4v4.6L314,119.8z M317.5,110.3c-1.4-0.1-2.6,1-2.7,2.4s1,2.6,2.4,2.7s2.6-1,2.7-2.4c0,0,0-0.1,0-0.1
	c0.1-1.3-0.9-2.5-2.2-2.6C317.7,110.3,317.6,110.3,317.5,110.3z"/>
<path class="st2" d="M327.9,109.3l-2.4,3.5l2.6,3.7h-1.4l-1.9-2.7l-1.9,2.7h-1.4l2.6-3.7l-2.4-3.5h1.4l1.7,2.5l1.7-2.5H327.9z"/>
<path class="st1" d="M253.2,36.8h7.6l-5.2,10.9h-1.4l4.6-9.6h-5.6V36.8z"/>
<path class="st1" d="M265.2,47.8c-1.6,0-3.1-0.8-3.9-2.3l1.1-0.8c0.5,1,1.6,1.7,2.7,1.8c1.3,0.1,2.3-0.8,2.4-2.1c0-0.1,0-0.3,0-0.4
	c0.1-1.3-0.9-2.4-2.2-2.5c-0.1,0-0.1,0-0.2,0c-1,0-2,0.3-2.8,1l1.4-5.8h5.1V38h-4.1l-0.7,2.9c0.5-0.3,1-0.4,1.6-0.4
	c1.9,0,3.2,1.5,3.2,3.7c0.1,1.9-1.4,3.6-3.3,3.7C265.5,47.8,265.4,47.8,265.2,47.8z"/>
<path class="st1" d="M274.3,36.7c2.4,0,4,2.3,4,5.6s-1.6,5.6-4,5.6s-4-2.3-4-5.6S271.9,36.7,274.3,36.7z M274.3,46.6
	c1.7,0,2.7-1.8,2.7-4.3s-1-4.3-2.7-4.3s-2.8,1.8-2.8,4.3S272.6,46.6,274.3,46.6z"/>
<path class="st2" d="M286.7,36.8L280.4,50h-1.2l6.3-13.2H286.7z"/>
<path class="st2" d="M292.4,42.2c0.7-0.6,1.1-1.5,1.2-2.4c0-1.1-1-2-2.1-1.9c0,0,0,0,0,0c-1.4,0-2.2,1-2.2,2.7h-1.3
	c0-2.3,1.3-3.9,3.5-3.9c1.8-0.1,3.3,1.3,3.4,3.1c0,0,0,0.1,0,0.1c-0.1,1.2-0.6,2.3-1.5,3.1l-3.5,3.5h5v1.2h-7.7L292.4,42.2z"/>
<path class="st2" d="M300.4,36.7c2.4,0,4,2.3,4,5.6s-1.6,5.6-4,5.6s-4-2.3-4-5.6S298,36.7,300.4,36.7z M300.4,46.6
	c1.7,0,2.7-1.8,2.7-4.3s-1-4.3-2.7-4.3s-2.7,1.8-2.7,4.3S298.7,46.6,300.4,46.6z"/>
<path class="st2" d="M309.7,36.7c2.4,0,4,2.3,4,5.6s-1.6,5.6-4,5.6s-4-2.3-4-5.6S307.3,36.7,309.7,36.7z M309.7,46.6
	c1.7,0,2.7-1.8,2.7-4.3s-1-4.3-2.7-4.3s-2.7,1.8-2.7,4.3S308,46.6,309.7,46.6z"/>
<path class="st2" d="M319,36.7c2.4,0,4,2.3,4,5.6s-1.6,5.6-4,5.6s-4-2.3-4-5.6S316.6,36.7,319,36.7z M319,46.6
	c1.7,0,2.7-1.8,2.7-4.3s-1-4.3-2.7-4.3s-2.7,1.8-2.7,4.3S317.3,46.6,319,46.6z"/>
<path class="st2" d="M330.3,36.7c0.5,0,0.9,0.4,0.9,0.9c0,0.5-0.4,0.8-0.9,0.8s-0.9-0.4-0.9-0.8C329.5,37.1,329.8,36.7,330.3,36.7z
	 M330.9,40.5v7.1h-1.2v-7.1H330.9z"/>
<path class="st2" d="M343.2,47.7H342v-4.3c0-1.2-0.4-1.8-1.4-1.8c-0.9,0-1.6,0.6-1.7,1.5c0,0.1,0,0.2,0,0.3v4.3h-1.2v-4.3
	c0-1.2-0.4-1.8-1.4-1.8c-0.9,0-1.6,0.6-1.7,1.5c0,0.1,0,0.2,0,0.3v4.3h-1.2v-7.1h1.2v1c0.4-0.8,1.2-1.2,2-1.2
	c0.9-0.1,1.7,0.5,2.1,1.3c0.4-0.8,1.3-1.4,2.2-1.3c1.5,0,2.3,1,2.3,2.8L343.2,47.7z"/>
<path class="st2" d="M345.3,41.3c0.8-0.6,1.8-0.9,2.8-0.9c1.7,0,2.8,0.8,2.8,2.2v5.1h-1.2v-1c-0.6,0.7-1.4,1.2-2.4,1.1
	c-1.3,0.1-2.4-0.9-2.5-2.1c0-0.1,0-0.1,0-0.2c0-1.4,1-2.3,2.8-2.3c0.7,0,1.4,0.2,2,0.5v-1c0-1-0.7-1.3-1.6-1.3
	c-0.8,0-1.5,0.3-2.1,0.7L345.3,41.3z M347.7,46.7c1,0.1,1.9-0.7,2-1.8c0,0,0-0.1,0-0.1v-0.3c-0.6-0.3-1.2-0.4-1.8-0.4
	c-1.2,0-1.7,0.5-1.7,1.2S346.8,46.7,347.7,46.7L347.7,46.7z"/>
<path class="st2" d="M353.8,48.1c0.1,1.1,1.1,2,2.2,1.9c0,0,0,0,0.1,0c1.3,0,2.3-1,2.3-2.3c0-0.1,0-0.2,0-0.3v-1.1
	c-0.5,0.9-1.4,1.4-2.4,1.4c-1.9,0-3.5-1.5-3.5-3.4c0-0.1,0-0.2,0-0.3c-0.1-1.9,1.3-3.6,3.2-3.7c0.1,0,0.2,0,0.3,0
	c1,0,1.9,0.5,2.4,1.4v-1.2h1.2v7c0.1,1.9-1.3,3.6-3.3,3.7c-0.1,0-0.2,0-0.3,0c-2.1,0-3.5-1.3-3.5-3.1L353.8,48.1z M356.1,46.7
	c1.4,0.1,2.6-1,2.7-2.4c0.1-1.4-1-2.6-2.4-2.7s-2.6,1-2.7,2.4c0,0,0,0.1,0,0.1c-0.1,1.3,0.9,2.5,2.2,2.6
	C356,46.7,356,46.7,356.1,46.7z"/>
<path class="st2" d="M361.2,44.1c-0.1-1.9,1.3-3.6,3.2-3.7c0.1,0,0.2,0,0.4,0c2.1,0,3.4,1.4,3.4,3.7c0,0.2,0,0.3,0,0.4h-5.6
	c-0.1,1.2,0.9,2.2,2.1,2.3c0.1,0,0.1,0,0.2,0c0.9,0,1.8-0.5,2.2-1.3l1,0.6c-0.7,1.2-2,1.9-3.4,1.8c-1.9,0-3.4-1.5-3.4-3.4
	C361.2,44.3,361.2,44.2,361.2,44.1z M362.6,43.4h4.2c0-1.1-0.9-1.9-1.9-1.9c0,0,0,0-0.1,0C363.6,41.4,362.6,42.2,362.6,43.4
	L362.6,43.4z"/>
<path class="st2" d="M372.1,46.7c0.7,0,1.1-0.3,1.1-0.9c0-0.8-0.8-1.1-1.6-1.4s-2-0.9-2-2.1s1.1-1.9,2.3-1.9c1,0,2,0.5,2.6,1.4
	l-1,0.6c-0.4-0.6-1-0.9-1.7-0.9c-0.5,0-1,0.2-1,0.7s0.7,0.9,1.5,1.2c1.2,0.5,2.2,1,2.2,2.3c0,1.2-1.1,2.2-2.3,2.2
	c-0.1,0-0.1,0-0.2,0c-1.2,0-2.3-0.7-2.9-1.7l1-0.6C370.6,46.2,371.3,46.6,372.1,46.7z"/>
<path class="st1" d="M258.4,77.1c0.7-0.6,1.1-1.5,1.2-2.4c0-1.1-1-2-2.1-1.9c0,0,0,0,0,0c-1.4,0-2.2,1-2.2,2.7h-1.3
	c0-2.3,1.3-3.9,3.5-3.9c1.8-0.1,3.3,1.3,3.4,3.1c0,0,0,0.1,0,0.1c-0.1,1.2-0.6,2.3-1.5,3.2l-3.5,3.5h4.9v1.2h-7.6L258.4,77.1z"/>
<path class="st1" d="M266.4,71.6c2.4,0,4,2.3,4,5.6s-1.6,5.6-4,5.6s-4-2.3-4-5.6S264,71.6,266.4,71.6z M266.4,81.5
	c1.7,0,2.7-1.8,2.7-4.3s-1-4.3-2.7-4.3s-2.7,1.8-2.7,4.3S264.7,81.5,266.4,81.5z"/>
<path class="st1" d="M275.7,71.6c2.4,0,4,2.3,4,5.6s-1.6,5.6-4,5.6s-4-2.3-4-5.6S273.3,71.6,275.7,71.6z M275.7,81.5
	c1.7,0,2.7-1.8,2.7-4.3s-1-4.3-2.7-4.3s-2.7,1.8-2.7,4.3S274,81.5,275.7,81.5z"/>
<path class="st1" d="M285,71.6c2.4,0,4,2.3,4,5.6s-1.6,5.6-4,5.6s-4-2.3-4-5.6S282.6,71.6,285,71.6z M285,81.5
	c1.7,0,2.7-1.8,2.7-4.3s-1-4.3-2.7-4.3s-2.7,1.8-2.7,4.3S283.3,81.5,285,81.5z"/>
<path class="st1" d="M294.3,71.6c2.4,0,4,2.3,4,5.6s-1.6,5.6-4,5.6s-4-2.3-4-5.6S291.9,71.6,294.3,71.6z M294.3,81.5
	c1.7,0,2.7-1.8,2.7-4.3s-1-4.3-2.7-4.3s-2.8,1.8-2.8,4.3S292.6,81.5,294.3,81.5z"/>
<path class="st1" d="M303.6,71.6c2.4,0,4,2.3,4,5.6s-1.6,5.6-4,5.6s-4-2.3-4-5.6S301.2,71.6,303.6,71.6z M303.6,81.5
	c1.7,0,2.7-1.8,2.7-4.3s-1-4.3-2.7-4.3s-2.7,1.8-2.7,4.3S301.9,81.5,303.6,81.5z"/>
<path class="st2" d="M316,71.8l-6.3,13.2h-1.2l6.3-13.2H316z"/>
<path class="st2" d="M321.7,77.1c0.7-0.6,1.1-1.5,1.1-2.4c0-1.1-1-2-2.1-1.9c0,0,0,0,0,0c-1.4,0-2.2,1-2.2,2.7h-1.3
	c0-2.3,1.3-3.9,3.5-3.9c1.8-0.1,3.3,1.3,3.4,3.1c0,0,0,0.1,0,0.1c-0.1,1.2-0.6,2.3-1.4,3.2l-3.5,3.5h5v1.2h-7.7L321.7,77.1z"/>
<path class="st2" d="M331.8,71.8l-3,4c0.4-0.2,0.8-0.3,1.2-0.3c1.8,0.1,3.3,1.6,3.2,3.5c0,0,0,0,0,0.1c0,2-1.7,3.7-3.7,3.7
	s-3.7-1.7-3.7-3.7c0-0.8,0.2-1.6,0.7-2.2l3.7-5L331.8,71.8z M329.5,81.6c1.3,0,2.4-1,2.4-2.3c0-0.1,0-0.1,0-0.2
	c-0.1-1.3-1.2-2.4-2.5-2.3c-1.3,0.1-2.4,1.2-2.3,2.5C327.2,80.6,328.2,81.6,329.5,81.6z"/>
<path class="st2" d="M336.7,76.8c-1-0.4-1.6-1.4-1.5-2.4c0-1.7,1.3-3,3-3s3,1.3,3,3c0.1,1.1-0.6,2-1.5,2.4c1.2,0.5,1.9,1.6,1.9,2.8
	c-0.1,1.9-1.8,3.3-3.6,3.1c-1.7-0.1-3-1.5-3.1-3.1C334.8,78.4,335.5,77.3,336.7,76.8z M338.2,81.6c1.1,0,2.1-0.8,2.1-2
	c0,0,0-0.1,0-0.1c-0.1-1.2-1.1-2.1-2.3-2c-1.1,0.1-1.9,0.9-2,2c0,1.1,0.9,2.1,2,2.1C338.1,81.6,338.2,81.6,338.2,81.6z M338.2,76.3
	c1,0,1.8-0.8,1.8-1.7c0-1-0.8-1.8-1.7-1.8s-1.8,0.8-1.8,1.7c0,0,0,0,0,0C336.4,75.5,337.2,76.3,338.2,76.3
	C338.2,76.3,338.2,76.3,338.2,76.3z"/>
<path class="st2" d="M347.1,71.6c2.4,0,4,2.3,4,5.6s-1.6,5.6-4,5.6s-4-2.3-4-5.6S344.7,71.6,347.1,71.6z M347.1,81.5
	c1.7,0,2.7-1.8,2.7-4.3s-1-4.3-2.7-4.3s-2.7,1.8-2.7,4.3S345.4,81.5,347.1,81.5z"/>
<path class="st2" d="M356.4,71.6c2.4,0,4,2.3,4,5.6s-1.6,5.6-4,5.6s-4-2.3-4-5.6S354,71.6,356.4,71.6z M356.4,81.5
	c1.7,0,2.7-1.8,2.7-4.3s-1-4.3-2.7-4.3s-2.7,1.8-2.7,4.3S354.7,81.5,356.4,81.5z"/>
<path class="st2" d="M365.7,71.6c2.4,0,4,2.3,4,5.6s-1.6,5.6-4,5.6s-4-2.3-4-5.6S363.3,71.6,365.7,71.6z M365.7,81.5
	c1.7,0,2.7-1.8,2.7-4.3s-1-4.3-2.7-4.3s-2.7,1.8-2.7,4.3S364,81.5,365.7,81.5z"/>
<path class="st2" d="M376.2,75.5V73h1.2v2.5h1.2v1.2h-1.2v6h-1.2v-6H375v-1.2H376.2z"/>
<path class="st2" d="M380.7,71.7c0.5,0,0.9,0.4,0.9,0.8c0,0.5-0.4,0.9-0.8,0.9c-0.5,0-0.9-0.4-0.9-0.8c0,0,0,0,0,0
	C379.9,72.1,380.2,71.7,380.7,71.7z M381.3,75.5v7.1h-1.2v-7.1L381.3,75.5z"/>
<path class="st2" d="M393.7,82.6h-1.2v-4.3c0-1.2-0.4-1.8-1.4-1.8c-0.9,0-1.6,0.6-1.7,1.5c0,0.1,0,0.2,0,0.3v4.3h-1.2v-4.3
	c0-1.2-0.4-1.8-1.4-1.8c-0.9,0-1.6,0.6-1.7,1.5c0,0.1,0,0.2,0,0.3v4.3h-1.2v-7.1h1.2v1c0.6-1.1,2-1.5,3-0.9c0.4,0.2,0.8,0.6,1,1
	c0.4-0.8,1.3-1.3,2.2-1.3c1.5,0,2.3,1,2.3,2.8L393.7,82.6z"/>
<path class="st2" d="M395.4,79.1c-0.2-1.9,1.3-3.6,3.1-3.7c0.1,0,0.3,0,0.4,0c2.1,0,3.4,1.4,3.4,3.7c0,0.2,0,0.3,0,0.4h-5.6
	c-0.1,1.2,0.9,2.2,2,2.3c0.1,0,0.1,0,0.2,0c0.9,0,1.8-0.5,2.2-1.3l1,0.6c-0.7,1.2-2,1.9-3.4,1.8c-1.9,0-3.4-1.5-3.4-3.4
	C395.3,79.3,395.3,79.2,395.4,79.1z M396.7,78.3h4.2c0-1.1-0.9-1.9-2-1.9c0,0,0,0,0,0C397.8,76.3,396.8,77.2,396.7,78.3z"/>
<path class="st2" d="M406.2,81.6c0.7,0,1.1-0.3,1.1-0.9c0-0.8-0.8-1.1-1.6-1.4s-2-0.9-2-2.1s1.1-1.9,2.3-1.9c1,0,2,0.5,2.6,1.4
	l-1,0.6c-0.4-0.6-1-0.9-1.7-0.9c-0.5,0-1,0.2-1,0.7s0.7,0.9,1.5,1.2c1.2,0.5,2.2,1,2.2,2.3c0,1.2-1,2.2-2.3,2.2c-0.1,0-0.1,0-0.2,0
	c-1.2,0-2.3-0.7-2.9-1.7l1-0.6C404.7,81.1,405.4,81.6,406.2,81.6z"/>
<path class="st0" d="M129.7,13.2c0.8,0.1,1.5-0.5,1.5-1.2c0,0,0-0.1,0-0.1c0-1.2-0.9-1.5-1.9-1.9S127,9.1,127,7.5
	c0-1.3,1.1-2.3,2.4-2.3c0.1,0,0.1,0,0.2,0c1.2,0,2.3,0.7,2.7,1.8l-0.9,0.5c-0.3-0.8-1-1.3-1.9-1.3c-1,0-1.4,0.6-1.4,1.1
	c0,0.7,0.5,1.2,2,1.8c1.2,0.3,2.1,1.3,2.2,2.6c0,1.4-1.2,2.5-2.6,2.5c0,0,0,0-0.1,0c-1.4-0.1-2.6-0.9-3.1-2.2l0.9-0.6
	C127.9,12.5,128.6,13.2,129.7,13.2z"/>
<path class="st0" d="M138.8,11.5h-3.5l-1.1,2.6h-1.2l4.1-9.2l4.1,9.2h-1.2L138.8,11.5z M135.7,10.5h2.7L137,7.3L135.7,10.5z"/>
<path class="st0" d="M147.1,5.4v1h-3.9v2.5h3.7v1h-3.7v3.2h3.9v1h-5V5.4H147.1z"/>
<path class="st0" d="M150.1,5.4v3.5h4.8V5.4h1.1v8.7h-1.1V9.9h-4.8v4.2H149V5.4H150.1z"/>
<path class="st0" d="M157.9,14.1V5.4h2.6c2.3-0.1,4.3,1.7,4.4,4c0,0.1,0,0.3,0,0.4c0.1,2.3-1.7,4.3-4,4.4c-0.1,0-0.3,0-0.4,0H157.9z
	 M159,6.4v6.6h1.6c1.7,0.1,3.2-1.2,3.3-2.9c0-0.1,0-0.3,0-0.4c0.1-1.7-1.2-3.2-2.9-3.3c-0.1,0-0.3,0-0.4,0L159,6.4z"/>
<rect x="122.7" y="0.5" class="st3" width="46.1" height="18.2"/>
<rect x="122.2" y="140.9" class="st4" width="124" height="12.1"/>
<rect x="122.2" y="140.9" class="st1" width="94.4" height="12.1"/>
<rect x="122.2" y="106.6" class="st1" width="124" height="12.1"/>
<rect x="122.2" y="72.2" class="st4" width="124" height="12.1"/>
<rect x="122.2" y="72.2" class="st1" width="92.5" height="12.1"/>
<rect x="122.2" y="37.9" class="st4" width="124" height="12.1"/>
<rect x="122.2" y="37.9" class="st1" width="46.5" height="12.1"/>
<polyline class="st5" points="246.5,159.8 246.5,22.1 364.1,22.1 "/>
<path class="st2" d="M256.2,3.1c2.1,0,3.7,1.3,3.7,3.3s-1.6,3.3-3.7,3.3h-1.6v4.3h-1.3V3.1H256.2z M254.5,4.3v4h1.6
	c1.4,0,2.4-0.7,2.4-2s-1-2-2.4-2L254.5,4.3z"/>
<path class="st2" d="M263.8,7.8c-0.9,0-1.2,0.8-1.2,1.8v4.3h-1.2V6.8h1.2v0.8c0.3-0.6,0.9-0.9,1.5-1c0.5,0,1,0.1,1.3,0.5l-0.7,1
	C264.4,7.9,264.1,7.8,263.8,7.8z"/>
<path class="st2" d="M269.5,6.6c2,0,3.6,1.5,3.7,3.5c0,0.1,0,0.1,0,0.2c0.1,2-1.5,3.8-3.5,3.9c-2,0.1-3.8-1.5-3.9-3.5
	c0-0.1,0-0.3,0-0.4c-0.1-2,1.5-3.7,3.5-3.7C269.4,6.6,269.5,6.6,269.5,6.6z M269.5,12.9c1.3,0,2.4-1.1,2.4-2.4c0-0.1,0-0.1,0-0.2
	c0.1-1.3-0.9-2.5-2.3-2.6s-2.5,0.9-2.6,2.3c0,0.1,0,0.2,0,0.3c-0.1,1.3,0.9,2.5,2.3,2.6C269.4,12.9,269.5,12.9,269.5,12.9z"/>
<path class="st2" d="M274.2,16.1c0.5,0,0.8-0.4,0.8-1.4V6.8h1.2v8.1c0,1.6-0.8,2.5-2.1,2.5c-0.5,0-1-0.2-1.4-0.6l0.7-1
	C273.6,16,273.9,16.1,274.2,16.1z M275.5,3c0.5,0,0.8,0.4,0.8,0.8s-0.4,0.8-0.8,0.8c0,0,0,0,0,0c-0.5,0-0.8-0.4-0.8-0.8
	C274.7,3.4,275.1,3,275.5,3z"/>
<path class="st2" d="M278.1,10.4c-0.1-1.9,1.3-3.6,3.2-3.7c0.1,0,0.2,0,0.4,0c2.1,0,3.4,1.4,3.4,3.7c0,0.1,0,0.3,0,0.4h-5.6
	c0,1.2,0.9,2.2,2.1,2.2c0.1,0,0.1,0,0.2,0c0.9,0,1.8-0.5,2.2-1.3l1,0.6c-0.7,1.2-2,1.9-3.4,1.8c-1.9,0-3.4-1.5-3.4-3.4
	C278.1,10.6,278.1,10.5,278.1,10.4z M279.5,9.6h4.2c0-1.1-0.9-1.9-1.9-1.9c0,0,0,0-0.1,0C280.5,7.7,279.6,8.5,279.5,9.6z"/>
<path class="st2" d="M289.7,12.9c1,0,1.9-0.4,2.5-1.3v1.6c-0.7,0.6-1.6,1-2.5,0.9c-2,0-3.6-1.5-3.7-3.5c0-0.1,0-0.1,0-0.2
	c-0.1-2,1.5-3.7,3.5-3.7c0.1,0,0.1,0,0.2,0c0.9,0,1.8,0.3,2.5,0.9v1.5c-0.5-0.9-1.5-1.4-2.5-1.3c-1.3,0-2.4,1.1-2.4,2.4
	c0,0.1,0,0.1,0,0.2c-0.1,1.3,0.9,2.5,2.3,2.6C289.6,12.9,289.7,12.9,289.7,12.9z"/>
<path class="st2" d="M294.2,6.8V4.3h1.2v2.5h1.2V8h-1.2v6h-1.2V8h-1.2V6.8H294.2z"/>
<path class="st2" d="M305.5,3.1c2.1,0,3.7,1.3,3.7,3.3c0,1.5-1.1,2.9-2.6,3.1l3.2,4.4h-1.6l-3-4.3h-1.3v4.3h-1.3V3.1H305.5z
	 M303.9,4.2v4.2h1.6c1.2,0.2,2.2-0.6,2.4-1.8s-0.6-2.2-1.8-2.4c-0.2,0-0.4,0-0.6,0H303.9z"/>
<path class="st2" d="M310.5,10.4c-0.1-1.9,1.3-3.6,3.2-3.7c0.1,0,0.2,0,0.4,0c2.1,0,3.4,1.4,3.4,3.7c0,0.1,0,0.3,0,0.4h-5.6
	c0,1.2,0.9,2.2,2.1,2.2c0.1,0,0.1,0,0.2,0c0.9,0,1.8-0.5,2.2-1.3l1,0.6c-0.7,1.2-2,1.9-3.4,1.8c-1.9,0-3.4-1.5-3.4-3.4
	C310.5,10.6,310.5,10.5,310.5,10.4z M311.9,9.6h4.2c0-1.1-0.9-1.9-2-1.9c0,0,0,0,0,0C313,7.7,312,8.5,311.9,9.6L311.9,9.6z"/>
<path class="st2" d="M318.9,7.5c0.8-0.6,1.8-0.9,2.8-0.9c1.7,0,2.8,0.8,2.8,2.2v5.1h-1.2v-1c-0.6,0.7-1.4,1.2-2.4,1.1
	c-1.3,0.1-2.4-0.9-2.5-2.1c0-0.1,0-0.1,0-0.2c0-1.4,1-2.3,2.8-2.3c0.7,0,1.4,0.2,2,0.5v-1c0-1-0.7-1.2-1.6-1.2
	c-0.8,0-1.5,0.2-2.1,0.7L318.9,7.5z M321.3,13c1,0.1,1.9-0.7,2-1.8c0,0,0-0.1,0-0.1v-0.2c-0.6-0.3-1.2-0.4-1.8-0.4
	c-1.2,0-1.7,0.5-1.7,1.3S320.4,13,321.3,13L321.3,13z"/>
<path class="st2" d="M329.6,12.9c1,0,1.9-0.5,2.5-1.3v1.6c-0.7,0.6-1.6,1-2.5,0.9c-2,0.1-3.6-1.5-3.7-3.5c0-0.1,0-0.1,0-0.2
	c-0.1-2,1.5-3.7,3.5-3.7c0.1,0,0.1,0,0.2,0c0.9,0,1.8,0.3,2.5,0.9v1.5c-0.5-0.9-1.5-1.4-2.5-1.3c-1.3,0-2.4,1.1-2.4,2.4
	c0,0.1,0,0.1,0,0.2c-0.1,1.3,0.9,2.5,2.3,2.6C329.5,12.9,329.6,12.9,329.6,12.9z"/>
<path class="st2" d="M337.1,7.8c-1-0.1-1.8,0.7-1.8,1.6c0,0.1,0,0.1,0,0.2v4.3H334v-12h1.2v6c0.4-0.8,1.2-1.3,2.1-1.3
	c1.5,0,2.5,0.9,2.5,2.8v4.5h-1.2V9.6C338.6,8.4,338.1,7.8,337.1,7.8z"/>
</svg>
