<svg id="图层_1" data-name="图层 1" xmlns="http://www.w3.org/2000/svg" viewBox="0 0 399.46 160.55"><defs><style>.cls-1{fill:#939393;}.cls-2{fill:#f2868c;}.cls-3{fill:#e2282b;}.cls-4,.cls-6{fill:none;stroke-miterlimit:10;}.cls-4{stroke:#939393;stroke-width:0.66px;}.cls-5{fill:#333;}.cls-6{stroke:#e2282b;stroke-width:0.99px;}</style></defs><rect class="cls-1" x="121.75" y="34.25" width="124.58" height="9.12"/><rect class="cls-1" x="121.75" y="43.37" width="124.58" height="9.12"/><rect class="cls-2" x="121.75" y="43.37" width="24.92" height="9.12"/><rect class="cls-3" x="121.75" y="34.25" width="24.92" height="9.12"/><rect class="cls-3" x="121.75" y="101.79" width="124.58" height="9.12"/><rect class="cls-2" x="121.75" y="110.9" width="124.58" height="9.12"/><rect class="cls-1" x="121.75" y="135.55" width="124.58" height="18.23"/><rect class="cls-3" x="121.75" y="135.55" width="7.91" height="9.12"/><rect class="cls-2" x="121.75" y="144.67" width="94.9" height="9.12"/><polyline class="cls-4" points="246.65 160.55 246.65 22.14 364.84 22.14"/><rect class="cls-1" x="121.75" y="68.02" width="124.58" height="9.12"/><rect class="cls-3" x="121.75" y="68.02" width="9.3" height="9.12"/><rect class="cls-2" x="121.75" y="77.14" width="124.58" height="9.12"/><path class="cls-5" d="M50.93,140.23h6.9v1.24H55v9.61H53.72v-9.61H50.93Z" transform="translate(-23.02 -2.73)"/><path class="cls-5" d="M60.34,145c-.93,0-1.19.76-1.19,1.79v4.34H57.91V144h1.24v.82a1.92,1.92,0,0,1,1.5-1,1.74,1.74,0,0,1,1.34.5l-.69,1A1.4,1.4,0,0,0,60.34,145Z" transform="translate(-23.02 -2.73)"/><path class="cls-5" d="M63,144.68a4.79,4.79,0,0,1,2.81-.89c1.66,0,2.79.79,2.79,2.17v5.12H67.35v-1A2.8,2.8,0,0,1,65,151.23a2.28,2.28,0,0,1-2.46-2.29c0-1.38,1-2.3,2.79-2.3a3.81,3.81,0,0,1,2,.53v-1c0-1-.73-1.25-1.61-1.25a3.52,3.52,0,0,0-2.14.71Zm2.33,5.48a1.89,1.89,0,0,0,2-1.87V148a4,4,0,0,0-1.83-.4c-1.21,0-1.74.48-1.74,1.26S64.4,150.16,65.32,150.16Z" transform="translate(-23.02 -2.73)"/><path class="cls-5" d="M71.53,140.15a.85.85,0,1,1,0,1.7.85.85,0,0,1,0-1.7Zm.62,3.8v7.13H70.91V144Z" transform="translate(-23.02 -2.73)"/><path class="cls-5" d="M77.76,145A1.71,1.71,0,0,0,76,146.74v4.34H74.71V144H76v1.11a2.27,2.27,0,0,1,2.12-1.27c1.51,0,2.45,1.07,2.45,2.79v4.5H79.28v-4.34C79.28,145.56,78.76,145,77.76,145Z" transform="translate(-23.02 -2.73)"/><path class="cls-5" d="M83.7,140.15a.85.85,0,1,1-.85.85A.86.86,0,0,1,83.7,140.15Zm.62,3.8v7.13H83.08V144Z" transform="translate(-23.02 -2.73)"/><path class="cls-5" d="M89.93,145a1.71,1.71,0,0,0-1.81,1.79v4.34H86.88V144h1.24v1.11a2.27,2.27,0,0,1,2.12-1.27c1.51,0,2.45,1.07,2.45,2.79v4.5H91.45v-4.34C91.45,145.56,90.92,145,89.93,145Z" transform="translate(-23.02 -2.73)"/><path class="cls-5" d="M95.79,151.54a2.07,2.07,0,0,0,2.28,1.94,2.31,2.31,0,0,0,2.29-2.56v-1.07a2.71,2.71,0,0,1-2.43,1.38,3.72,3.72,0,0,1,0-7.44,2.73,2.73,0,0,1,2.43,1.38V144h1.24v7a3.48,3.48,0,0,1-3.53,3.72c-2.09,0-3.54-1.25-3.54-3.1Zm2.29-1.47a2.56,2.56,0,1,0-2.43-2.56A2.39,2.39,0,0,0,98.08,150.07Z" transform="translate(-23.02 -2.73)"/><path class="cls-5" d="M107.49,140.23h6.9v1.24H111.6v9.61h-1.32v-9.61h-2.79Z" transform="translate(-23.02 -2.73)"/><path class="cls-5" d="M116.56,140.15a.85.85,0,0,1,0,1.7.85.85,0,0,1,0-1.7Zm.62,3.8v7.13h-1.24V144Z" transform="translate(-23.02 -2.73)"/><path class="cls-5" d="M129.5,151.08h-1.24v-4.34c0-1.23-.43-1.79-1.36-1.79a1.6,1.6,0,0,0-1.66,1.79v4.34H124v-4.34c0-1.23-.43-1.79-1.36-1.79a1.59,1.59,0,0,0-1.66,1.79v4.34h-1.24V144H121v1a2.24,2.24,0,0,1,4,.13,2.4,2.4,0,0,1,2.2-1.33c1.46,0,2.29,1,2.29,2.79Z" transform="translate(-23.02 -2.73)"/><path class="cls-5" d="M131.21,147.51a3.44,3.44,0,0,1,3.53-3.72c2.09,0,3.37,1.4,3.37,3.66,0,.16,0,.34,0,.37h-5.61a2.15,2.15,0,0,0,2.26,2.25,2.45,2.45,0,0,0,2.23-1.29l1,.64a3.7,3.7,0,0,1-3.39,1.81A3.4,3.4,0,0,1,131.21,147.51Zm1.31-.74h4.24a1.93,1.93,0,0,0-2-1.89A2.1,2.1,0,0,0,132.52,146.77Z" transform="translate(-23.02 -2.73)"/><path class="cls-5" d="M28.52,107a5.58,5.58,0,1,1-5.5,5.58A5.42,5.42,0,0,1,28.52,107Zm0,9.85a4.27,4.27,0,1,0-4.11-4.27A4.08,4.08,0,0,0,28.52,116.81Z" transform="translate(-23.02 -2.73)"/><path class="cls-5" d="M38.57,117a1.71,1.71,0,0,0,1.81-1.78v-4.34h1.24V118H40.38v-1.12a2.27,2.27,0,0,1-2.12,1.27c-1.49,0-2.45-1.08-2.45-2.79v-4.49h1.24v4.34C37.05,116.33,37.57,117,38.57,117Z" transform="translate(-23.02 -2.73)"/><path class="cls-5" d="M44,110.84v-2.48h1.24v2.48h1.16V112H45.26v6H44v-6H42.86v-1.16Z" transform="translate(-23.02 -2.73)"/><path class="cls-5" d="M47.59,121.38V110.84h1.24v1.22a2.73,2.73,0,0,1,2.43-1.38,3.73,3.73,0,0,1,0,7.44,2.71,2.71,0,0,1-2.43-1.38v4.64Zm3.52-9.53a2.56,2.56,0,1,0,2.43,2.55A2.39,2.39,0,0,0,51.11,111.85Z" transform="translate(-23.02 -2.73)"/><path class="cls-5" d="M59.26,117a1.71,1.71,0,0,0,1.81-1.78v-4.34h1.24V118H61.07v-1.12A2.27,2.27,0,0,1,59,118.12c-1.49,0-2.45-1.08-2.45-2.79v-4.49h1.24v4.34C57.74,116.33,58.27,117,59.26,117Z" transform="translate(-23.02 -2.73)"/><path class="cls-5" d="M64.71,110.84v-2.48H66v2.48h1.17V112H66v6H64.71v-6H63.55v-1.16Z" transform="translate(-23.02 -2.73)"/><path class="cls-5" d="M76,107.12c2.09,0,3.69,1.25,3.69,3.25a3.15,3.15,0,0,1-2.59,3.13L80.37,118H78.74l-3-4.34H74.4V118H73.08V107.12Zm-1.63,1.16v4.19H76a2.11,2.11,0,1,0,0-4.19Z" transform="translate(-23.02 -2.73)"/><path class="cls-5" d="M81.06,114.4a3.45,3.45,0,0,1,3.54-3.72c2.09,0,3.36,1.4,3.36,3.66,0,.16,0,.34,0,.37H82.34A2.14,2.14,0,0,0,84.6,117a2.46,2.46,0,0,0,2.23-1.28l1,.63a3.71,3.71,0,0,1-3.4,1.81C82.44,118.12,81.06,116.61,81.06,114.4Zm1.32-.74h4.24a1.93,1.93,0,0,0-2-1.89A2.1,2.1,0,0,0,82.38,113.66Z" transform="translate(-23.02 -2.73)"/><path class="cls-5" d="M91.9,117c.7,0,1.13-.34,1.13-.9,0-.74-.82-1.08-1.64-1.39s-2-.89-2-2.14,1.15-1.88,2.31-1.88a3,3,0,0,1,2.58,1.4l-1,.63a2.16,2.16,0,0,0-1.73-.93c-.51,0-1,.22-1,.7s.73.9,1.49,1.21c1.24.51,2.25,1,2.25,2.26a2.23,2.23,0,0,1-2.45,2.17A3.13,3.13,0,0,1,89,116.39l1-.61A2.32,2.32,0,0,0,91.9,117Z" transform="translate(-23.02 -2.73)"/><path class="cls-5" d="M99,110.68a3.72,3.72,0,1,1-3.69,3.72A3.61,3.61,0,0,1,99,110.68ZM99,117a2.56,2.56,0,1,0-2.43-2.56A2.42,2.42,0,0,0,99,117Z" transform="translate(-23.02 -2.73)"/><path class="cls-5" d="M105.62,105.88V118h-1.24V105.88Z" transform="translate(-23.02 -2.73)"/><path class="cls-5" d="M110.7,117a1.71,1.71,0,0,0,1.82-1.78v-4.34h1.24V118h-1.24v-1.12a2.29,2.29,0,0,1-2.13,1.27c-1.49,0-2.45-1.08-2.45-2.79v-4.49h1.24v4.34C109.18,116.33,109.71,117,110.7,117Z" transform="translate(-23.02 -2.73)"/><path class="cls-5" d="M116.16,110.84v-2.48h1.24v2.48h1.16V112H117.4v6h-1.24v-6H115v-1.16Z" transform="translate(-23.02 -2.73)"/><path class="cls-5" d="M120.65,107a.86.86,0,0,1,0,1.71.86.86,0,0,1,0-1.71Zm.62,3.8V118H120v-7.13Z" transform="translate(-23.02 -2.73)"/><path class="cls-5" d="M126.9,110.68a3.72,3.72,0,1,1-3.69,3.72A3.61,3.61,0,0,1,126.9,110.68Zm0,6.28a2.56,2.56,0,1,0-2.44-2.56A2.42,2.42,0,0,0,126.9,117Z" transform="translate(-23.02 -2.73)"/><path class="cls-5" d="M135.35,111.85a1.71,1.71,0,0,0-1.82,1.78V118h-1.24v-7.13h1.24V112a2.3,2.3,0,0,1,2.13-1.27c1.5,0,2.45,1.07,2.45,2.79V118h-1.24v-4.34C136.87,112.45,136.34,111.85,135.35,111.85Z" transform="translate(-23.02 -2.73)"/><path class="cls-5" d="M32.69,74.63V85.48H31.37V74.63Z" transform="translate(-23.02 -2.73)"/><path class="cls-5" d="M35.17,78.35V75.87h1.24v2.48h1.16v1.16H36.41v6H35.17v-6H34V78.35Z" transform="translate(-23.02 -2.73)"/><path class="cls-5" d="M38.19,81.92a3.45,3.45,0,0,1,3.54-3.72c2.09,0,3.36,1.39,3.36,3.65,0,.16,0,.34,0,.38H39.46a2.15,2.15,0,0,0,2.27,2.24A2.48,2.48,0,0,0,44,83.19l1,.63a3.73,3.73,0,0,1-3.4,1.82A3.4,3.4,0,0,1,38.19,81.92Zm1.32-.75h4.23a1.92,1.92,0,0,0-2-1.89A2.09,2.09,0,0,0,39.51,81.17Z" transform="translate(-23.02 -2.73)"/><path class="cls-5" d="M49.23,79.36c-.93,0-1.19.76-1.19,1.78v4.34H46.8V78.35H48v.82a1.93,1.93,0,0,1,1.5-1,1.69,1.69,0,0,1,1.33.49l-.68,1A1.46,1.46,0,0,0,49.23,79.36Z" transform="translate(-23.02 -2.73)"/><path class="cls-5" d="M51.88,79.08a4.77,4.77,0,0,1,2.81-.88c1.65,0,2.79.79,2.79,2.17v5.11H56.24v-1a2.81,2.81,0,0,1-2.36,1.12,2.3,2.3,0,0,1-2.47-2.3c0-1.38,1-2.29,2.8-2.29a3.82,3.82,0,0,1,2,.52v-1c0-1-.73-1.26-1.62-1.26a3.54,3.54,0,0,0-2.14.71Zm2.33,5.49a1.9,1.9,0,0,0,2-1.88v-.26A4.09,4.09,0,0,0,54.41,82c-1.21,0-1.74.48-1.74,1.26S53.29,84.57,54.21,84.57Z" transform="translate(-23.02 -2.73)"/><path class="cls-5" d="M59.65,78.35V75.87h1.24v2.48h1.16v1.16H60.89v6H59.65v-6H58.48V78.35Z" transform="translate(-23.02 -2.73)"/><path class="cls-5" d="M64.14,74.55a.86.86,0,1,1-.85.85A.86.86,0,0,1,64.14,74.55Zm.62,3.8v7.13H63.52V78.35Z" transform="translate(-23.02 -2.73)"/><path class="cls-5" d="M70.39,78.2a3.72,3.72,0,1,1-3.69,3.72A3.61,3.61,0,0,1,70.39,78.2Zm0,6.27A2.56,2.56,0,1,0,68,81.92,2.42,2.42,0,0,0,70.39,84.47Z" transform="translate(-23.02 -2.73)"/><path class="cls-5" d="M78.83,79.36A1.71,1.71,0,0,0,77,81.14v4.34H75.78V78.35H77v1.12a2.27,2.27,0,0,1,2.12-1.27c1.51,0,2.45,1.06,2.45,2.79v4.49H80.35V81.14C80.35,80,79.83,79.36,78.83,79.36Z" transform="translate(-23.02 -2.73)"/><path class="cls-5" d="M94.71,82.23H90.33L89,85.48H87.48l5-11.39,5,11.39H96.09ZM90.86,81h3.32l-1.66-3.91Z" transform="translate(-23.02 -2.73)"/><path class="cls-5" d="M108.56,85.48h-1.24V81.14c0-1.22-.43-1.78-1.36-1.78a1.59,1.59,0,0,0-1.66,1.78v4.34h-1.24V81.14c0-1.22-.43-1.78-1.36-1.78A1.58,1.58,0,0,0,100,81.14v4.34H98.8V78.35H100v1a2.24,2.24,0,0,1,4,.14,2.38,2.38,0,0,1,2.2-1.33c1.46,0,2.29,1,2.29,2.79Z" transform="translate(-23.02 -2.73)"/><path class="cls-5" d="M114,78.2a3.72,3.72,0,1,1-3.69,3.72A3.61,3.61,0,0,1,114,78.2Zm0,6.27a2.56,2.56,0,1,0-2.44-2.55A2.42,2.42,0,0,0,114,84.47Z" transform="translate(-23.02 -2.73)"/><path class="cls-5" d="M122.11,84.47a1.71,1.71,0,0,0,1.81-1.78V78.35h1.24v7.13h-1.24V84.37a2.28,2.28,0,0,1-2.12,1.27c-1.49,0-2.45-1.09-2.45-2.79v-4.5h1.24v4.34C120.59,83.84,121.12,84.47,122.11,84.47Z" transform="translate(-23.02 -2.73)"/><path class="cls-5" d="M130.54,79.36a1.71,1.71,0,0,0-1.81,1.78v4.34h-1.24V78.35h1.24v1.12a2.27,2.27,0,0,1,2.12-1.27c1.51,0,2.45,1.06,2.45,2.79v4.49h-1.24V81.14C132.06,80,131.53,79.36,130.54,79.36Z" transform="translate(-23.02 -2.73)"/><path class="cls-5" d="M135.7,78.35V75.87h1.24v2.48h1.17v1.16h-1.17v6H135.7v-6h-1.16V78.35Z" transform="translate(-23.02 -2.73)"/><path class="cls-5" d="M60.71,51.52V40.67H64a5.18,5.18,0,0,1,5.43,5.42A5.19,5.19,0,0,1,64,51.52ZM62,42V50.2H64a3.86,3.86,0,0,0,4.11-4.11A3.86,3.86,0,0,0,64,42Z" transform="translate(-23.02 -2.73)"/><path class="cls-5" d="M70.94,45.12a4.79,4.79,0,0,1,2.81-.89c1.66,0,2.79.79,2.79,2.17v5.12H75.3v-1a2.8,2.8,0,0,1-2.36,1.12,2.3,2.3,0,0,1-2.46-2.3c0-1.38,1-2.29,2.79-2.29a3.8,3.8,0,0,1,2,.52v-1c0-1-.73-1.25-1.61-1.25a3.54,3.54,0,0,0-2.14.71Zm2.33,5.49a1.9,1.9,0,0,0,2-1.88v-.26a4,4,0,0,0-1.83-.41c-1.21,0-1.73.48-1.73,1.26S72.36,50.61,73.27,50.61Z" transform="translate(-23.02 -2.73)"/><path class="cls-5" d="M78.71,44.39V41.91H80v2.48h1.16v1.16H80v6H78.71v-6H77.55V44.39Z" transform="translate(-23.02 -2.73)"/><path class="cls-5" d="M82.12,45.12a4.77,4.77,0,0,1,2.81-.89c1.65,0,2.79.79,2.79,2.17v5.12H86.48v-1a2.81,2.81,0,0,1-2.36,1.12,2.3,2.3,0,0,1-2.47-2.3c0-1.38,1-2.29,2.79-2.29a3.84,3.84,0,0,1,2,.52v-1c0-1-.73-1.25-1.62-1.25a3.54,3.54,0,0,0-2.14.71Zm2.32,5.49a1.9,1.9,0,0,0,2-1.88v-.26a4.09,4.09,0,0,0-1.83-.41c-1.21,0-1.74.48-1.74,1.26S83.53,50.61,84.44,50.61Z" transform="translate(-23.02 -2.73)"/><path class="cls-5" d="M92,50.54c.7,0,1.13-.34,1.13-.9,0-.74-.82-1.08-1.64-1.39s-2-.88-2-2.14,1.15-1.88,2.31-1.88a3,3,0,0,1,2.58,1.4l-1,.63a2.16,2.16,0,0,0-1.73-.93c-.51,0-1,.22-1,.7s.73.9,1.49,1.21c1.24.51,2.25,1,2.25,2.26A2.24,2.24,0,0,1,92,51.68a3.13,3.13,0,0,1-2.85-1.74l1-.61A2.32,2.32,0,0,0,92,50.54Z" transform="translate(-23.02 -2.73)"/><path class="cls-5" d="M95.43,48A3.45,3.45,0,0,1,99,44.23c2.09,0,3.36,1.4,3.36,3.66,0,.16,0,.34,0,.37H96.71A2.14,2.14,0,0,0,99,50.51a2.48,2.48,0,0,0,2.23-1.28l1,.63a3.73,3.73,0,0,1-3.4,1.82C96.81,51.68,95.43,50.16,95.43,48Zm1.32-.74H101a1.92,1.92,0,0,0-2-1.89A2.09,2.09,0,0,0,96.75,47.21Z" transform="translate(-23.02 -2.73)"/><path class="cls-5" d="M104.11,44.39V41.91h1.24v2.48h1.17v1.16h-1.17v6h-1.24v-6H103V44.39Z" transform="translate(-23.02 -2.73)"/><path class="cls-5" d="M115.75,50.44a1.74,1.74,0,0,0,1.93-1.71c0-1.46-1.17-1.91-2.41-2.36-1.08-.38-2.86-1.08-2.86-3a2.89,2.89,0,0,1,3.14-2.81,3.75,3.75,0,0,1,3.4,2.28l-1.13.65a2.61,2.61,0,0,0-2.34-1.67c-1.18,0-1.69.68-1.69,1.38,0,.91.6,1.55,2.51,2.2A3.49,3.49,0,0,1,119,48.57a3.18,3.18,0,0,1-3.33,3.11A4.52,4.52,0,0,1,111.83,49l1.06-.72C113.62,49.55,114.45,50.44,115.75,50.44Z" transform="translate(-23.02 -2.73)"/><path class="cls-5" d="M121.75,40.59a.86.86,0,1,1-.85.85A.86.86,0,0,1,121.75,40.59Zm.62,3.8v7.13h-1.24V44.39Z" transform="translate(-23.02 -2.73)"/><path class="cls-5" d="M124.46,45.55V44.39h6.21l-4.42,6h4.11v1.16H124l4.42-6Z" transform="translate(-23.02 -2.73)"/><path class="cls-5" d="M131.21,48a3.44,3.44,0,0,1,3.53-3.72c2.09,0,3.37,1.4,3.37,3.66,0,.16,0,.34,0,.37h-5.61a2.15,2.15,0,0,0,2.26,2.25A2.46,2.46,0,0,0,137,49.23l1,.63a3.71,3.71,0,0,1-3.39,1.82C132.59,51.68,131.21,50.16,131.21,48Zm1.31-.74h4.24a1.93,1.93,0,0,0-2-1.89A2.1,2.1,0,0,0,132.52,47.21Z" transform="translate(-23.02 -2.73)"/><path class="cls-5" d="M82.18,13.33H77.81l-1.38,3.26H75L80,5.2l5,11.39H83.56Zm-3.84-1.24h3.32L80,8.19Z" transform="translate(-23.02 -2.73)"/><path class="cls-5" d="M87.51,4.5V16.59H86.27V4.5Z" transform="translate(-23.02 -2.73)"/><path class="cls-5" d="M90.61,17.06A2.08,2.08,0,0,0,92.89,19a2.31,2.31,0,0,0,2.3-2.55V15.37a2.74,2.74,0,0,1-2.44,1.38A3.49,3.49,0,0,1,89.22,13,3.49,3.49,0,0,1,92.75,9.3a2.74,2.74,0,0,1,2.44,1.38V9.46h1.24v7a3.49,3.49,0,0,1-3.54,3.72c-2.09,0-3.53-1.26-3.53-3.1Zm2.3-1.48A2.39,2.39,0,0,0,95.19,13a2.37,2.37,0,1,0-4.72,0A2.38,2.38,0,0,0,92.91,15.58Z" transform="translate(-23.02 -2.73)"/><path class="cls-5" d="M101.74,9.3A3.62,3.62,0,0,1,105.43,13a3.69,3.69,0,1,1-7.38,0A3.62,3.62,0,0,1,101.74,9.3Zm0,6.28A2.42,2.42,0,0,0,104.18,13a2.44,2.44,0,1,0-4.87,0A2.42,2.42,0,0,0,101.74,15.58Z" transform="translate(-23.02 -2.73)"/><path class="cls-5" d="M109.57,10.47c-.93,0-1.19.76-1.19,1.78v4.34h-1.25V9.46h1.25v.82a1.94,1.94,0,0,1,1.5-1,1.7,1.7,0,0,1,1.33.5l-.68,1A1.46,1.46,0,0,0,109.57,10.47Z" transform="translate(-23.02 -2.73)"/><path class="cls-5" d="M113.3,5.66a.86.86,0,1,1-.85.85A.86.86,0,0,1,113.3,5.66Zm.62,3.8v7.13h-1.24V9.46Z" transform="translate(-23.02 -2.73)"/><path class="cls-5" d="M116.56,9.46V7h1.24V9.46H119v1.16H117.8v6h-1.24v-6H115.4V9.46Z" transform="translate(-23.02 -2.73)"/><path class="cls-5" d="M123.26,10.47a1.73,1.73,0,0,0-1.82,1.78v4.34H120.2V4.5h1.24v6.09a2.4,2.4,0,0,1,2.13-1.29c1.47,0,2.44.95,2.44,2.79v4.5h-1.24V12.25C124.77,11.07,124.26,10.47,123.26,10.47Z" transform="translate(-23.02 -2.73)"/><path class="cls-5" d="M138.11,16.59h-1.24V12.25c0-1.22-.44-1.78-1.37-1.78a1.59,1.59,0,0,0-1.66,1.78v4.34H132.6V12.25c0-1.22-.43-1.78-1.36-1.78a1.58,1.58,0,0,0-1.66,1.78v4.34h-1.24V9.46h1.24v1a2.24,2.24,0,0,1,4,.14,2.4,2.4,0,0,1,2.2-1.34c1.46,0,2.3,1,2.3,2.79Z" transform="translate(-23.02 -2.73)"/><path class="cls-5" d="M152.68,16a1.4,1.4,0,0,0,1.55-1.37c0-1.18-.94-1.54-1.94-1.9S150,11.83,150,10.25A2.33,2.33,0,0,1,152.51,8a3,3,0,0,1,2.74,1.84l-.91.53A2.1,2.1,0,0,0,152.45,9c-.95,0-1.36.55-1.36,1.11,0,.74.49,1.25,2,1.77a2.83,2.83,0,0,1,2.22,2.6,2.56,2.56,0,0,1-2.69,2.5,3.61,3.61,0,0,1-3.12-2.2l.84-.57C151,15.27,151.63,16,152.68,16Z" transform="translate(-23.02 -2.73)"/><path class="cls-5" d="M161.78,14.23h-3.53l-1.11,2.63H156L160,7.67l4.07,9.19h-1.19Zm-3.1-1h2.67L160,10.08Z" transform="translate(-23.02 -2.73)"/><path class="cls-5" d="M170.14,8.11v1H166.2v2.5h3.69v1H166.2v3.25h3.94v1h-5V8.11Z" transform="translate(-23.02 -2.73)"/><path class="cls-5" d="M173.08,8.11v3.5h4.81V8.11H179v8.75h-1.06V12.61h-4.81v4.25H172V8.11Z" transform="translate(-23.02 -2.73)"/><path class="cls-5" d="M181,16.86V8.11h2.63A4.17,4.17,0,0,1,188,12.48a4.18,4.18,0,0,1-4.37,4.38ZM182,9.17V15.8h1.57a3.12,3.12,0,0,0,3.31-3.32,3.11,3.11,0,0,0-3.31-3.31Z" transform="translate(-23.02 -2.73)"/><rect class="cls-6" x="122.67" y="0.5" width="46.09" height="18.21"/><path class="cls-1" d="M279.37,5.82c2.09,0,3.69,1.25,3.69,3.25s-1.6,3.26-3.69,3.26h-1.63v4.34h-1.31V5.82Zm-1.63,1.24v4h1.63c1.4,0,2.37-.69,2.37-2s-1-2-2.37-2Z" transform="translate(-23.02 -2.73)"/><path class="cls-1" d="M287,10.54c-.93,0-1.2.76-1.2,1.79v4.34h-1.24V9.54h1.24v.82a1.93,1.93,0,0,1,1.51-1,1.7,1.7,0,0,1,1.33.5l-.68,1A1.42,1.42,0,0,0,287,10.54Z" transform="translate(-23.02 -2.73)"/><path class="cls-1" d="M292.69,9.38a3.61,3.61,0,0,1,3.69,3.72,3.69,3.69,0,1,1-7.38,0A3.61,3.61,0,0,1,292.69,9.38Zm0,6.28a2.42,2.42,0,0,0,2.43-2.56,2.44,2.44,0,1,0-4.87,0A2.42,2.42,0,0,0,292.69,15.66Z" transform="translate(-23.02 -2.73)"/><path class="cls-1" d="M297.41,18.84c.53,0,.75-.4.75-1.4V9.54h1.24V17.6c0,1.56-.76,2.48-2.07,2.48a1.55,1.55,0,0,1-1.36-.62l.68-1A.91.91,0,0,0,297.41,18.84Zm1.3-13.09a.84.84,0,0,1,0,1.68.84.84,0,0,1,0-1.68Z" transform="translate(-23.02 -2.73)"/><path class="cls-1" d="M301.33,13.1a3.45,3.45,0,0,1,3.54-3.72c2.09,0,3.36,1.4,3.36,3.66,0,.16,0,.34,0,.37h-5.61a2.15,2.15,0,0,0,2.26,2.25,2.47,2.47,0,0,0,2.23-1.29l1,.64a3.73,3.73,0,0,1-3.4,1.81A3.4,3.4,0,0,1,301.33,13.1Zm1.32-.74h4.23a1.92,1.92,0,0,0-2-1.89A2.09,2.09,0,0,0,302.65,12.36Z" transform="translate(-23.02 -2.73)"/><path class="cls-1" d="M312.93,15.66a2.77,2.77,0,0,0,2.48-1.3v1.55a3.35,3.35,0,0,1-2.48.91,3.61,3.61,0,0,1-3.69-3.72,3.61,3.61,0,0,1,3.69-3.72,3.4,3.4,0,0,1,2.48.92v1.55a2.78,2.78,0,0,0-2.48-1.31,2.42,2.42,0,0,0-2.44,2.56A2.42,2.42,0,0,0,312.93,15.66Z" transform="translate(-23.02 -2.73)"/><path class="cls-1" d="M317.42,9.54V7.06h1.24V9.54h1.17V10.7h-1.17v6h-1.24v-6h-1.16V9.54Z" transform="translate(-23.02 -2.73)"/><path class="cls-1" d="M328.74,5.82c2.09,0,3.69,1.25,3.69,3.25a3.15,3.15,0,0,1-2.59,3.13l3.24,4.47h-1.63l-3-4.34h-1.32v4.34h-1.32V5.82ZM327.11,7v4.18h1.63a2.11,2.11,0,1,0,0-4.18Z" transform="translate(-23.02 -2.73)"/><path class="cls-1" d="M333.78,13.1a3.44,3.44,0,0,1,3.53-3.72c2.09,0,3.36,1.4,3.36,3.66,0,.16,0,.34,0,.37h-5.61a2.15,2.15,0,0,0,2.26,2.25,2.45,2.45,0,0,0,2.23-1.29l1,.64a3.71,3.71,0,0,1-3.39,1.81A3.4,3.4,0,0,1,333.78,13.1Zm1.31-.74h4.24a1.93,1.93,0,0,0-2-1.89A2.1,2.1,0,0,0,335.09,12.36Z" transform="translate(-23.02 -2.73)"/><path class="cls-1" d="M342.15,10.27a4.73,4.73,0,0,1,2.8-.89c1.66,0,2.79.79,2.79,2.17v5.12H346.5v-1a2.78,2.78,0,0,1-2.35,1.11,2.29,2.29,0,0,1-2.47-2.29c0-1.38,1-2.3,2.79-2.3a3.79,3.79,0,0,1,2,.53v-1c0-1-.73-1.25-1.61-1.25a3.54,3.54,0,0,0-2.14.71Zm2.32,5.48a1.89,1.89,0,0,0,2-1.87v-.27a4.15,4.15,0,0,0-1.83-.4c-1.21,0-1.73.48-1.73,1.26S343.56,15.75,344.47,15.75Z" transform="translate(-23.02 -2.73)"/><path class="cls-1" d="M352.83,15.66a2.79,2.79,0,0,0,2.48-1.3v1.55a3.37,3.37,0,0,1-2.48.91,3.6,3.6,0,0,1-3.69-3.72,3.61,3.61,0,0,1,3.69-3.72,3.42,3.42,0,0,1,2.48.92v1.55a2.79,2.79,0,0,0-2.48-1.31,2.42,2.42,0,0,0-2.44,2.56A2.42,2.42,0,0,0,352.83,15.66Z" transform="translate(-23.02 -2.73)"/><path class="cls-1" d="M360.3,10.54a1.73,1.73,0,0,0-1.82,1.79v4.34h-1.24V4.58h1.24v6.09a2.4,2.4,0,0,1,2.13-1.29c1.47,0,2.45.95,2.45,2.79v4.5h-1.24V12.33C361.82,11.15,361.3,10.54,360.3,10.54Z" transform="translate(-23.02 -2.73)"/><path class="cls-3" d="M282.44,141.43H283V149h1.71v1.16H283v2.17h-1.31v-2.17h-5.24Zm-.77,7.52v-4.59L278.6,149Z" transform="translate(-23.02 -2.73)"/><path class="cls-2" d="M292.9,141.43l-6.27,13.17h-1.24l6.27-13.17Z" transform="translate(-23.02 -2.73)"/><path class="cls-2" d="M299.46,141.43H300V149h1.71v1.16H300v2.17h-1.31v-2.17h-5.24Zm-.77,7.52v-4.59L295.62,149Z" transform="translate(-23.02 -2.73)"/><path class="cls-2" d="M305,146.5a2.53,2.53,0,0,1-1.54-2.45,3,3,0,0,1,6,0,2.53,2.53,0,0,1-1.54,2.45,2.93,2.93,0,0,1,1.92,2.83,3.39,3.39,0,0,1-6.76,0A2.94,2.94,0,0,1,305,146.5Zm1.45,4.77a2.05,2.05,0,0,0,2.13-2.09,2.13,2.13,0,0,0-4.25,0A2.05,2.05,0,0,0,306.4,151.27Zm0-5.35a1.74,1.74,0,1,0-1.73-1.72A1.7,1.7,0,0,0,306.4,145.92Z" transform="translate(-23.02 -2.73)"/><path class="cls-1" d="M318.15,141.43l-6.28,13.17h-1.24l6.28-13.17Z" transform="translate(-23.02 -2.73)"/><path class="cls-1" d="M325.16,141.43l-3.06,4a2.4,2.4,0,0,1,1.23-.27,3.34,3.34,0,0,1,3.21,3.52,3.69,3.69,0,1,1-7.38,0,3.79,3.79,0,0,1,.68-2.24l3.66-5Zm-2.31,9.81a2.54,2.54,0,1,0-2.43-2.53A2.4,2.4,0,0,0,322.85,151.24Z" transform="translate(-23.02 -2.73)"/><path class="cls-1" d="M328.24,149.41h1.34a1.91,1.91,0,0,0,2.12,1.78,1.85,1.85,0,0,0,2-1.93c0-1.34-1.1-2-2.5-2v-1.16a2,2,0,0,0,2.19-1.88,1.55,1.55,0,0,0-1.64-1.73,1.72,1.72,0,0,0-1.82,1.65h-1.25a2.83,2.83,0,0,1,3.05-2.85,2.87,2.87,0,0,1,3,2.89,2.69,2.69,0,0,1-1.85,2.46,2.73,2.73,0,0,1,2.16,2.79c0,1.85-1.44,3-3.38,3S328.24,151.1,328.24,149.41Z" transform="translate(-23.02 -2.73)"/><path class="cls-1" d="M344.64,146.16a1.72,1.72,0,0,0-1.81,1.78v4.34h-1.24V140.19h1.24v6.09A2.37,2.37,0,0,1,345,145c1.47,0,2.45.95,2.45,2.79v4.5h-1.24v-4.34C346.16,146.76,345.65,146.16,344.64,146.16Z" transform="translate(-23.02 -2.73)"/><path class="cls-1" d="M352.79,145a3.72,3.72,0,1,1-3.69,3.72A3.61,3.61,0,0,1,352.79,145Zm0,6.28a2.56,2.56,0,1,0-2.43-2.56A2.42,2.42,0,0,0,352.79,151.27Z" transform="translate(-23.02 -2.73)"/><path class="cls-1" d="M361,151.27a1.71,1.71,0,0,0,1.81-1.78v-4.34H364v7.13h-1.24v-1.12a2.27,2.27,0,0,1-2.12,1.27c-1.49,0-2.45-1.08-2.45-2.79v-4.49h1.24v4.34C359.43,150.64,360,151.27,361,151.27Z" transform="translate(-23.02 -2.73)"/><path class="cls-1" d="M368.76,146.16c-.93,0-1.19.75-1.19,1.78v4.34h-1.24v-7.13h1.24V146a1.94,1.94,0,0,1,1.5-1,1.7,1.7,0,0,1,1.33.5l-.68,1A1.41,1.41,0,0,0,368.76,146.16Z" transform="translate(-23.02 -2.73)"/><path class="cls-1" d="M373.87,151.3c.7,0,1.14-.34,1.14-.9,0-.74-.83-1.08-1.65-1.39s-2-.89-2-2.14,1.14-1.88,2.31-1.88a3,3,0,0,1,2.57,1.4l-1,.63a2.2,2.2,0,0,0-1.74-.93c-.51,0-1,.22-1,.7s.73.9,1.49,1.21c1.24.51,2.25,1,2.25,2.26a2.23,2.23,0,0,1-2.45,2.17A3.15,3.15,0,0,1,371,150.7l1-.61A2.3,2.3,0,0,0,373.87,151.3Z" transform="translate(-23.02 -2.73)"/><path class="cls-3" d="M276.43,107.36l3.72-.93v11h-1.32V108l-2.4.71Z" transform="translate(-23.02 -2.73)"/><path class="cls-3" d="M287.6,112a3.42,3.42,0,0,0,1.13-2.37,2,2,0,0,0-2.09-1.94c-1.39,0-2.23,1-2.23,2.65h-1.32c0-2.31,1.3-3.89,3.55-3.89a3.25,3.25,0,0,1,3.44,3.13,4.7,4.7,0,0,1-1.44,3.14l-3.46,3.51h4.95v1.24h-7.66Z" transform="translate(-23.02 -2.73)"/><path class="cls-3" d="M293.76,111.65a2.53,2.53,0,0,1-1.54-2.45,3,3,0,0,1,6,0,2.53,2.53,0,0,1-1.54,2.45,2.94,2.94,0,0,1,1.92,2.84,3.39,3.39,0,0,1-6.76,0A2.94,2.94,0,0,1,293.76,111.65Zm1.45,4.78a2.05,2.05,0,0,0,2.13-2.1,2.13,2.13,0,0,0-4.25,0A2.05,2.05,0,0,0,295.21,116.43Zm0-5.35a1.75,1.75,0,1,0-1.73-1.72A1.71,1.71,0,0,0,295.21,111.08Z" transform="translate(-23.02 -2.73)"/><path class="cls-2" d="M307,106.58l-6.28,13.18h-1.24l6.28-13.18Z" transform="translate(-23.02 -2.73)"/><path class="cls-2" d="M308.43,107.36l3.72-.93v11h-1.31V108l-2.41.71Z" transform="translate(-23.02 -2.73)"/><path class="cls-2" d="M319.61,112a3.46,3.46,0,0,0,1.13-2.37,2,2,0,0,0-2.09-1.94c-1.4,0-2.23,1-2.23,2.65H315.1c0-2.31,1.3-3.89,3.55-3.89a3.25,3.25,0,0,1,3.44,3.13,4.7,4.7,0,0,1-1.44,3.14l-3.46,3.51h4.95v1.24h-7.66Z" transform="translate(-23.02 -2.73)"/><path class="cls-2" d="M325.76,111.65a2.54,2.54,0,0,1-1.53-2.45,3,3,0,0,1,6,0,2.54,2.54,0,0,1-1.53,2.45,2.94,2.94,0,0,1,1.92,2.84,3.39,3.39,0,0,1-6.76,0A2.94,2.94,0,0,1,325.76,111.65Zm1.46,4.78a2.05,2.05,0,0,0,2.12-2.1,2.12,2.12,0,0,0-4.24,0A2,2,0,0,0,327.22,116.43Zm0-5.35a1.75,1.75,0,1,0-1.74-1.72A1.71,1.71,0,0,0,327.22,111.08Z" transform="translate(-23.02 -2.73)"/><path class="cls-2" d="M337.19,120.85V110.3h1.24v1.23a2.71,2.71,0,0,1,2.43-1.38,3.73,3.73,0,0,1,0,7.44,2.73,2.73,0,0,1-2.43-1.38v4.64Zm3.51-9.54a2.56,2.56,0,1,0,2.44,2.56A2.4,2.4,0,0,0,340.7,111.31Z" transform="translate(-23.02 -2.73)"/><path class="cls-2" d="M351.06,110.3l-2.44,3.46,2.59,3.67h-1.39L348,114.74l-1.86,2.69h-1.4l2.59-3.67-2.43-3.46h1.39l1.71,2.48,1.7-2.48Z" transform="translate(-23.02 -2.73)"/><path class="cls-3" d="M281.93,32.65h.49v6.79H284V40.5h-1.54v2h-1.19v-2H276.5Zm-.7,6.79V35.3l-2.77,4.14Z" transform="translate(-23.02 -2.73)"/><path class="cls-3" d="M288.58,32.51c2.16,0,3.64,2.12,3.64,5s-1.48,5.05-3.64,5.05-3.64-2.12-3.64-5.05S286.42,32.51,288.58,32.51Zm0,9c1.51,0,2.45-1.64,2.45-3.93s-.94-3.92-2.45-3.92-2.45,1.64-2.45,3.92S287.07,41.48,288.58,41.48Z" transform="translate(-23.02 -2.73)"/><path class="cls-3" d="M297,32.51c2.16,0,3.64,2.12,3.64,5S299.14,42.6,297,42.6s-3.64-2.12-3.64-5.05S294.82,32.51,297,32.51Zm0,9c1.51,0,2.45-1.64,2.45-3.93s-.94-3.92-2.45-3.92-2.45,1.64-2.45,3.92S295.47,41.48,297,41.48Z" transform="translate(-23.02 -2.73)"/><path class="cls-2" d="M308.18,32.65l-5.67,11.91h-1.12l5.67-11.91Z" transform="translate(-23.02 -2.73)"/><path class="cls-2" d="M314.1,32.65h.49v6.79h1.54V40.5h-1.54v2H313.4v-2h-4.73Zm-.7,6.79V35.3l-2.77,4.14Z" transform="translate(-23.02 -2.73)"/><path class="cls-2" d="M320.75,32.51c2.16,0,3.64,2.12,3.64,5s-1.48,5.05-3.64,5.05-3.64-2.12-3.64-5.05S318.59,32.51,320.75,32.51Zm0,9c1.51,0,2.45-1.64,2.45-3.93s-.94-3.92-2.45-3.92-2.45,1.64-2.45,3.92S319.24,41.48,320.75,41.48Z" transform="translate(-23.02 -2.73)"/><path class="cls-2" d="M329.15,32.51c2.16,0,3.64,2.12,3.64,5s-1.48,5.05-3.64,5.05-3.64-2.12-3.64-5.05S327,32.51,329.15,32.51Zm0,9c1.52,0,2.45-1.64,2.45-3.93s-.93-3.92-2.45-3.92-2.45,1.64-2.45,3.92S327.64,41.48,329.15,41.48Z" transform="translate(-23.02 -2.73)"/><path class="cls-1" d="M283.22,46.65l-5.67,11.91h-1.12l5.67-11.91Z" transform="translate(-23.02 -2.73)"/><path class="cls-1" d="M288.34,51.51a3.1,3.1,0,0,0,1-2.14,1.8,1.8,0,0,0-1.9-1.75c-1.26,0-2,.91-2,2.39h-1.19c0-2.08,1.17-3.51,3.2-3.51a2.93,2.93,0,0,1,3.11,2.83,4.23,4.23,0,0,1-1.3,2.83l-3.12,3.18h4.47v1.12h-6.92Z" transform="translate(-23.02 -2.73)"/><path class="cls-1" d="M295.59,46.51c2.16,0,3.65,2.12,3.65,5s-1.49,5.05-3.65,5.05S292,54.48,292,51.55,293.44,46.51,295.59,46.51Zm0,9c1.52,0,2.46-1.64,2.46-3.93s-.94-3.92-2.46-3.92-2.45,1.64-2.45,3.92S294.08,55.48,295.59,55.48Z" transform="translate(-23.02 -2.73)"/><path class="cls-1" d="M304,46.51c2.16,0,3.65,2.12,3.65,5S306.15,56.6,304,56.6s-3.64-2.12-3.64-5.05S301.84,46.51,304,46.51Zm0,9c1.52,0,2.46-1.64,2.46-3.93s-.94-3.92-2.46-3.92-2.45,1.64-2.45,3.92S302.48,55.48,304,55.48Z" transform="translate(-23.02 -2.73)"/><path class="cls-1" d="M312.39,46.51c2.16,0,3.65,2.12,3.65,5s-1.49,5.05-3.65,5.05-3.64-2.12-3.64-5.05S310.24,46.51,312.39,46.51Zm0,9c1.52,0,2.46-1.64,2.46-3.93s-.94-3.92-2.46-3.92-2.45,1.64-2.45,3.92S310.88,55.48,312.39,55.48Z" transform="translate(-23.02 -2.73)"/><path class="cls-1" d="M322.61,46.58a.77.77,0,1,1-.77.77A.78.78,0,0,1,322.61,46.58Zm.56,3.43v6.45h-1.12V50Z" transform="translate(-23.02 -2.73)"/><path class="cls-1" d="M334.31,56.46h-1.12V52.53c0-1.1-.4-1.61-1.24-1.61a1.44,1.44,0,0,0-1.49,1.61v3.93h-1.13V52.53c0-1.1-.39-1.61-1.23-1.61a1.44,1.44,0,0,0-1.5,1.61v3.93h-1.12V50h1.12V51a1.89,1.89,0,0,1,1.78-1.08,1.86,1.86,0,0,1,1.86,1.21,2.18,2.18,0,0,1,2-1.21c1.32,0,2.08.93,2.08,2.52Z" transform="translate(-23.02 -2.73)"/><path class="cls-1" d="M336.19,50.67a4.34,4.34,0,0,1,2.54-.8c1.5,0,2.52.72,2.52,2v4.63h-1.12v-.87a2.55,2.55,0,0,1-2.13,1,2.08,2.08,0,0,1-2.23-2.08c0-1.24.94-2.07,2.52-2.07a3.39,3.39,0,0,1,1.84.48V52c0-.89-.66-1.14-1.46-1.14a3.15,3.15,0,0,0-1.93.65Zm2.1,5a1.71,1.71,0,0,0,1.84-1.7V53.7a3.56,3.56,0,0,0-1.65-.37c-1.1,0-1.57.44-1.57,1.14S337.47,55.63,338.29,55.63Z" transform="translate(-23.02 -2.73)"/><path class="cls-1" d="M343.84,56.88a1.87,1.87,0,0,0,2.06,1.75A2.09,2.09,0,0,0,348,56.32v-1a2.47,2.47,0,0,1-2.2,1.25,3.37,3.37,0,0,1,0-6.73,2.47,2.47,0,0,1,2.2,1.25V50h1.12v6.31a3.15,3.15,0,0,1-3.19,3.36c-1.9,0-3.2-1.14-3.2-2.8Zm2.07-1.33a2.32,2.32,0,1,0-2.2-2.32A2.17,2.17,0,0,0,345.91,55.55Z" transform="translate(-23.02 -2.73)"/><path class="cls-1" d="M350.56,53.23a3.11,3.11,0,0,1,3.19-3.36c1.89,0,3,1.26,3,3.31,0,.14,0,.31,0,.33H351.7a2,2,0,0,0,2.05,2,2.23,2.23,0,0,0,2-1.17l.91.58a3.38,3.38,0,0,1-3.07,1.64A3.07,3.07,0,0,1,350.56,53.23Zm1.19-.67h3.82a1.74,1.74,0,0,0-1.82-1.71A1.89,1.89,0,0,0,351.75,52.56Z" transform="translate(-23.02 -2.73)"/><path class="cls-1" d="M360.34,55.57c.63,0,1-.3,1-.81,0-.67-.75-1-1.49-1.26S358,52.7,358,51.57s1-1.7,2.09-1.7a2.68,2.68,0,0,1,2.32,1.26l-.89.58a2,2,0,0,0-1.57-.84c-.46,0-.86.19-.86.63s.66.81,1.35,1.09c1.12.46,2,.9,2,2a2,2,0,0,1-2.21,2A2.84,2.84,0,0,1,357.71,55l.88-.55A2.09,2.09,0,0,0,360.34,55.57Z" transform="translate(-23.02 -2.73)"/><path class="cls-3" d="M281.56,78.74a3.48,3.48,0,0,0,1.13-2.37,2,2,0,0,0-2.09-1.94c-1.4,0-2.24,1-2.24,2.65h-1.31c0-2.31,1.3-3.89,3.55-3.89A3.25,3.25,0,0,1,284,76.32a4.67,4.67,0,0,1-1.44,3.13L279.14,83h4.94v1.24h-7.65Z" transform="translate(-23.02 -2.73)"/><path class="cls-3" d="M289.59,73.2c2.38,0,4,2.34,4,5.58s-1.65,5.59-4,5.59-4-2.35-4-5.59S287.2,73.2,289.59,73.2Zm0,9.92c1.67,0,2.71-1.81,2.71-4.34s-1-4.34-2.71-4.34-2.72,1.82-2.72,4.34S287.91,83.12,289.59,83.12Z" transform="translate(-23.02 -2.73)"/><path class="cls-3" d="M298.89,73.2c2.38,0,4,2.34,4,5.58s-1.65,5.59-4,5.59-4-2.35-4-5.59S296.5,73.2,298.89,73.2Zm0,9.92c1.67,0,2.71-1.81,2.71-4.34s-1-4.34-2.71-4.34-2.72,1.82-2.72,4.34S297.21,83.12,298.89,83.12Z" transform="translate(-23.02 -2.73)"/><path class="cls-3" d="M308.19,73.2c2.38,0,4,2.34,4,5.58s-1.65,5.59-4,5.59-4-2.35-4-5.59S305.8,73.2,308.19,73.2Zm0,9.92c1.67,0,2.71-1.81,2.71-4.34s-1-4.34-2.71-4.34-2.72,1.82-2.72,4.34S306.51,83.12,308.19,83.12Z" transform="translate(-23.02 -2.73)"/><path class="cls-3" d="M317.49,73.2c2.38,0,4,2.34,4,5.58s-1.65,5.59-4,5.59-4-2.35-4-5.59S315.1,73.2,317.49,73.2Zm0,9.92c1.67,0,2.71-1.81,2.71-4.34s-1-4.34-2.71-4.34-2.72,1.82-2.72,4.34S315.81,83.12,317.49,83.12Z" transform="translate(-23.02 -2.73)"/><path class="cls-2" d="M329.89,73.36l-6.28,13.18h-1.24l6.28-13.18Z" transform="translate(-23.02 -2.73)"/><path class="cls-2" d="M335.56,78.74a3.48,3.48,0,0,0,1.13-2.37,2,2,0,0,0-2.09-1.94c-1.4,0-2.23,1-2.23,2.65h-1.32c0-2.31,1.3-3.89,3.55-3.89A3.25,3.25,0,0,1,338,76.32a4.67,4.67,0,0,1-1.44,3.13L333.14,83h4.95v1.24h-7.66Z" transform="translate(-23.02 -2.73)"/><path class="cls-2" d="M345.71,73.36l-3,4a2.34,2.34,0,0,1,1.22-.27,3.34,3.34,0,0,1,3.21,3.52,3.69,3.69,0,1,1-7.38,0,3.87,3.87,0,0,1,.68-2.24l3.66-5Zm-2.31,9.81A2.54,2.54,0,1,0,341,80.64,2.4,2.4,0,0,0,343.4,83.17Z" transform="translate(-23.02 -2.73)"/><path class="cls-2" d="M350.64,78.43A2.53,2.53,0,0,1,349.1,76a3,3,0,0,1,6,0,2.53,2.53,0,0,1-1.54,2.45,2.94,2.94,0,0,1,1.93,2.83,3.39,3.39,0,0,1-6.76,0A2.93,2.93,0,0,1,350.64,78.43Zm1.46,4.77a2.05,2.05,0,0,0,2.12-2.09,2.13,2.13,0,0,0-4.25,0A2.05,2.05,0,0,0,352.1,83.2Zm0-5.35a1.74,1.74,0,1,0-1.74-1.72A1.69,1.69,0,0,0,352.1,77.85Z" transform="translate(-23.02 -2.73)"/><path class="cls-2" d="M361,73.2c2.39,0,4,2.34,4,5.58s-1.64,5.59-4,5.59-4-2.35-4-5.59S358.59,73.2,361,73.2Zm0,9.92c1.67,0,2.71-1.81,2.71-4.34s-1-4.34-2.71-4.34-2.71,1.82-2.71,4.34S359.3,83.12,361,83.12Z" transform="translate(-23.02 -2.73)"/><path class="cls-2" d="M370.28,73.2c2.39,0,4,2.34,4,5.58s-1.64,5.59-4,5.59-4-2.35-4-5.59S367.89,73.2,370.28,73.2Zm0,9.92c1.67,0,2.71-1.81,2.71-4.34s-1-4.34-2.71-4.34-2.72,1.82-2.72,4.34S368.6,83.12,370.28,83.12Z" transform="translate(-23.02 -2.73)"/><path class="cls-2" d="M379.58,73.2c2.38,0,4,2.34,4,5.58s-1.65,5.59-4,5.59-4-2.35-4-5.59S377.19,73.2,379.58,73.2Zm0,9.92c1.67,0,2.71-1.81,2.71-4.34s-1-4.34-2.71-4.34-2.72,1.82-2.72,4.34S377.9,83.12,379.58,83.12Z" transform="translate(-23.02 -2.73)"/><path class="cls-2" d="M390.12,77.08V74.6h1.24v2.48h1.16v1.16h-1.16v6h-1.24v-6H389V77.08Z" transform="translate(-23.02 -2.73)"/><path class="cls-2" d="M394.61,73.28a.86.86,0,0,1,0,1.71.86.86,0,0,1,0-1.71Zm.62,3.8v7.13H394V77.08Z" transform="translate(-23.02 -2.73)"/><path class="cls-2" d="M407.56,84.21h-1.24V79.87c0-1.23-.44-1.78-1.37-1.78a1.59,1.59,0,0,0-1.66,1.78v4.34h-1.24V79.87c0-1.23-.43-1.78-1.36-1.78A1.59,1.59,0,0,0,399,79.87v4.34h-1.24V77.08H399v1a2.24,2.24,0,0,1,4,.14,2.4,2.4,0,0,1,2.2-1.34c1.46,0,2.3,1,2.3,2.79Z" transform="translate(-23.02 -2.73)"/><path class="cls-2" d="M409.26,80.64a3.45,3.45,0,0,1,3.53-3.72c2.1,0,3.37,1.4,3.37,3.66,0,.16,0,.34,0,.37h-5.61a2.15,2.15,0,0,0,2.26,2.25A2.49,2.49,0,0,0,415,81.92l1,.63a3.71,3.71,0,0,1-3.39,1.82C410.64,84.37,409.26,82.85,409.26,80.64Zm1.32-.74h4.23a1.92,1.92,0,0,0-2-1.89A2.08,2.08,0,0,0,410.58,79.9Z" transform="translate(-23.02 -2.73)"/><path class="cls-2" d="M420.09,83.23c.7,0,1.14-.34,1.14-.9,0-.74-.83-1.08-1.65-1.39s-2-.88-2-2.14,1.14-1.88,2.31-1.88a3,3,0,0,1,2.57,1.4l-1,.63a2.18,2.18,0,0,0-1.74-.93c-.51,0-.94.22-.94.7s.72.9,1.48,1.21c1.24.51,2.25,1,2.25,2.27A2.23,2.23,0,0,1,420,84.37a3.16,3.16,0,0,1-2.85-1.74l1-.61A2.3,2.3,0,0,0,420.09,83.23Z" transform="translate(-23.02 -2.73)"/></svg>