<svg id="图层_1" data-name="图层 1" xmlns="http://www.w3.org/2000/svg" viewBox="0 0 408.58 159.81"><defs><style>.cls-1{fill:#333;}.cls-2{fill:#e2282b;}.cls-3{fill:#939393;}.cls-4,.cls-5{fill:none;stroke-miterlimit:10;}.cls-4{stroke:#e2282b;stroke-width:0.99px;}.cls-5{stroke:#939393;stroke-width:0.65px;}</style></defs><path class="cls-1" d="M46.37,140.89h6.9v1.24H50.48v9.61H49.16v-9.61H46.37Z" transform="translate(-18.46 -1.1)"/><path class="cls-1" d="M55.78,145.61c-.93,0-1.19.76-1.19,1.79v4.34H53.35v-7.13h1.24v.82a1.92,1.92,0,0,1,1.5-1,1.71,1.71,0,0,1,1.34.5l-.69,1A1.4,1.4,0,0,0,55.78,145.61Z" transform="translate(-18.46 -1.1)"/><path class="cls-1" d="M58.43,145.33a4.87,4.87,0,0,1,2.81-.88c1.66,0,2.79.79,2.79,2.17v5.12H62.79v-1a2.8,2.8,0,0,1-2.36,1.11A2.29,2.29,0,0,1,58,149.6c0-1.38,1-2.3,2.79-2.3a3.81,3.81,0,0,1,2,.53v-1c0-1-.73-1.25-1.61-1.25a3.52,3.52,0,0,0-2.14.71Zm2.33,5.49a1.89,1.89,0,0,0,2-1.87v-.27a4,4,0,0,0-1.83-.4c-1.21,0-1.74.48-1.74,1.26S59.84,150.82,60.76,150.82Z" transform="translate(-18.46 -1.1)"/><path class="cls-1" d="M67,140.81a.85.85,0,1,1,0,1.7.85.85,0,0,1,0-1.7Zm.62,3.8v7.13H66.35v-7.13Z" transform="translate(-18.46 -1.1)"/><path class="cls-1" d="M73.2,145.61a1.71,1.71,0,0,0-1.81,1.79v4.34H70.15v-7.13h1.24v1.11a2.27,2.27,0,0,1,2.13-1.27c1.5,0,2.44,1.07,2.44,2.79v4.5H74.72V147.4C74.72,146.22,74.2,145.61,73.2,145.61Z" transform="translate(-18.46 -1.1)"/><path class="cls-1" d="M79.14,140.81a.85.85,0,1,1-.85.85A.86.86,0,0,1,79.14,140.81Zm.62,3.8v7.13H78.52v-7.13Z" transform="translate(-18.46 -1.1)"/><path class="cls-1" d="M85.37,145.61a1.71,1.71,0,0,0-1.81,1.79v4.34H82.32v-7.13h1.24v1.11a2.27,2.27,0,0,1,2.12-1.27c1.51,0,2.45,1.07,2.45,2.79v4.5H86.89V147.4C86.89,146.22,86.36,145.61,85.37,145.61Z" transform="translate(-18.46 -1.1)"/><path class="cls-1" d="M91.23,152.2a2.07,2.07,0,0,0,2.28,1.94,2.31,2.31,0,0,0,2.29-2.56v-1.07a2.71,2.71,0,0,1-2.43,1.38,3.73,3.73,0,0,1,0-7.44,2.73,2.73,0,0,1,2.43,1.38v-1.22H97v7a3.48,3.48,0,0,1-3.53,3.72c-2.09,0-3.54-1.25-3.54-3.1Zm2.3-1.47a2.56,2.56,0,1,0-2.44-2.56A2.39,2.39,0,0,0,93.53,150.73Z" transform="translate(-18.46 -1.1)"/><path class="cls-1" d="M102.93,140.89h6.9v1.24H107v9.61h-1.32v-9.61h-2.79Z" transform="translate(-18.46 -1.1)"/><path class="cls-1" d="M112,140.81a.85.85,0,1,1-.85.85A.86.86,0,0,1,112,140.81Zm.62,3.8v7.13h-1.24v-7.13Z" transform="translate(-18.46 -1.1)"/><path class="cls-1" d="M124.94,151.74H123.7V147.4c0-1.23-.43-1.79-1.36-1.79a1.6,1.6,0,0,0-1.66,1.79v4.34h-1.24V147.4c0-1.23-.43-1.79-1.36-1.79a1.59,1.59,0,0,0-1.66,1.79v4.34h-1.24v-7.13h1.24v1a2.24,2.24,0,0,1,4,.14,2.4,2.4,0,0,1,2.2-1.33c1.46,0,2.29,1,2.29,2.79Z" transform="translate(-18.46 -1.1)"/><path class="cls-1" d="M126.65,148.17a3.44,3.44,0,0,1,3.53-3.72c2.09,0,3.37,1.4,3.37,3.66,0,.15,0,.34,0,.37h-5.61a2.15,2.15,0,0,0,2.26,2.25,2.45,2.45,0,0,0,2.23-1.29l1,.64a3.7,3.7,0,0,1-3.39,1.81A3.4,3.4,0,0,1,126.65,148.17Zm1.32-.74h4.23a1.93,1.93,0,0,0-2-1.89A2.08,2.08,0,0,0,128,147.43Z" transform="translate(-18.46 -1.1)"/><path class="cls-1" d="M24,107.05a5.58,5.58,0,1,1-5.5,5.58A5.42,5.42,0,0,1,24,107.05Zm0,9.84a4.26,4.26,0,1,0-4.11-4.26A4.07,4.07,0,0,0,24,116.89Z" transform="translate(-18.46 -1.1)"/><path class="cls-1" d="M34,117.05a1.71,1.71,0,0,0,1.81-1.78v-4.34h1.24v7.13H35.82v-1.12a2.29,2.29,0,0,1-2.12,1.27c-1.49,0-2.45-1.08-2.45-2.79v-4.49h1.24v4.34C32.49,116.41,33,117.05,34,117.05Z" transform="translate(-18.46 -1.1)"/><path class="cls-1" d="M39.46,110.93v-2.49H40.7v2.49h1.16v1.16H40.7v6H39.46v-6H38.3v-1.16Z" transform="translate(-18.46 -1.1)"/><path class="cls-1" d="M43,121.47V110.93h1.24v1.22a2.73,2.73,0,0,1,2.43-1.38,3.72,3.72,0,0,1,0,7.44,2.71,2.71,0,0,1-2.43-1.38v4.64Zm3.52-9.54A2.56,2.56,0,1,0,49,114.49,2.4,2.4,0,0,0,46.55,111.93Z" transform="translate(-18.46 -1.1)"/><path class="cls-1" d="M54.7,117.05a1.71,1.71,0,0,0,1.81-1.78v-4.34h1.24v7.13H56.51v-1.12a2.29,2.29,0,0,1-2.12,1.27c-1.49,0-2.45-1.08-2.45-2.79v-4.49h1.24v4.34C53.18,116.41,53.71,117.05,54.7,117.05Z" transform="translate(-18.46 -1.1)"/><path class="cls-1" d="M60.15,110.93v-2.49h1.24v2.49h1.17v1.16H61.39v6H60.15v-6H59v-1.16Z" transform="translate(-18.46 -1.1)"/><path class="cls-1" d="M71.47,107.2c2.09,0,3.69,1.26,3.69,3.26a3.15,3.15,0,0,1-2.59,3.13l3.24,4.47H74.18l-3-4.34H69.84v4.34H68.52V107.2Zm-1.63,1.17v4.18h1.63a2.11,2.11,0,1,0,0-4.18Z" transform="translate(-18.46 -1.1)"/><path class="cls-1" d="M76.51,114.49A3.44,3.44,0,0,1,80,110.77c2.09,0,3.36,1.4,3.36,3.66,0,.15,0,.34,0,.37H77.78A2.15,2.15,0,0,0,80,117.05a2.45,2.45,0,0,0,2.23-1.29l1,.64a3.71,3.71,0,0,1-3.39,1.81A3.4,3.4,0,0,1,76.51,114.49Zm1.31-.74h4.24a1.93,1.93,0,0,0-2-1.89A2.1,2.1,0,0,0,77.82,113.75Z" transform="translate(-18.46 -1.1)"/><path class="cls-1" d="M87.34,117.08c.7,0,1.13-.34,1.13-.9,0-.74-.82-1.08-1.64-1.39s-2-.89-2-2.14,1.15-1.88,2.31-1.88a3,3,0,0,1,2.58,1.4l-1,.63a2.14,2.14,0,0,0-1.73-.93c-.51,0-1,.22-1,.7s.73.9,1.49,1.21c1.24.51,2.25,1,2.25,2.26a2.23,2.23,0,0,1-2.45,2.17,3.13,3.13,0,0,1-2.85-1.73l1-.61A2.32,2.32,0,0,0,87.34,117.08Z" transform="translate(-18.46 -1.1)"/><path class="cls-1" d="M94.42,110.77a3.72,3.72,0,1,1-3.69,3.72A3.61,3.61,0,0,1,94.42,110.77Zm0,6.28A2.56,2.56,0,1,0,92,114.49,2.42,2.42,0,0,0,94.42,117.05Z" transform="translate(-18.46 -1.1)"/><path class="cls-1" d="M101.06,106v12.1H99.82V106Z" transform="translate(-18.46 -1.1)"/><path class="cls-1" d="M106.14,117.05a1.71,1.71,0,0,0,1.82-1.78v-4.34h1.24v7.13H108v-1.12a2.29,2.29,0,0,1-2.13,1.27c-1.49,0-2.45-1.08-2.45-2.79v-4.49h1.24v4.34C104.62,116.41,105.15,117.05,106.14,117.05Z" transform="translate(-18.46 -1.1)"/><path class="cls-1" d="M111.6,110.93v-2.49h1.24v2.49H114v1.16h-1.16v6H111.6v-6h-1.17v-1.16Z" transform="translate(-18.46 -1.1)"/><path class="cls-1" d="M116.09,107.13a.85.85,0,1,1-.85.85A.86.86,0,0,1,116.09,107.13Zm.62,3.8v7.13h-1.24v-7.13Z" transform="translate(-18.46 -1.1)"/><path class="cls-1" d="M122.34,110.77a3.72,3.72,0,1,1-3.69,3.72A3.61,3.61,0,0,1,122.34,110.77Zm0,6.28a2.56,2.56,0,1,0-2.43-2.56A2.42,2.42,0,0,0,122.34,117.05Z" transform="translate(-18.46 -1.1)"/><path class="cls-1" d="M130.79,111.93a1.71,1.71,0,0,0-1.82,1.79v4.34h-1.24v-7.13H129V112a2.28,2.28,0,0,1,2.13-1.27c1.5,0,2.45,1.07,2.45,2.79v4.5h-1.24v-4.34C132.31,112.54,131.78,111.93,130.79,111.93Z" transform="translate(-18.46 -1.1)"/><path class="cls-1" d="M28.13,74.14V85H26.81V74.14Z" transform="translate(-18.46 -1.1)"/><path class="cls-1" d="M30.61,77.86V75.38h1.24v2.48H33V79H31.85v6H30.61V79H29.45V77.86Z" transform="translate(-18.46 -1.1)"/><path class="cls-1" d="M33.63,81.43a3.45,3.45,0,0,1,3.54-3.72c2.09,0,3.36,1.39,3.36,3.66,0,.15,0,.34,0,.37H34.91A2.15,2.15,0,0,0,37.17,84,2.47,2.47,0,0,0,39.4,82.7l1,.64A3.73,3.73,0,0,1,37,85.15,3.4,3.4,0,0,1,33.63,81.43ZM35,80.69h4.23a1.92,1.92,0,0,0-2-1.9A2.1,2.1,0,0,0,35,80.69Z" transform="translate(-18.46 -1.1)"/><path class="cls-1" d="M44.67,78.87c-.93,0-1.19.76-1.19,1.78V85H42.24V77.86h1.24v.83a1.92,1.92,0,0,1,1.5-1,1.7,1.7,0,0,1,1.33.5l-.68,1A1.42,1.42,0,0,0,44.67,78.87Z" transform="translate(-18.46 -1.1)"/><path class="cls-1" d="M47.32,78.59a4.84,4.84,0,0,1,2.81-.88c1.66,0,2.79.79,2.79,2.17V85H51.68V84a2.81,2.81,0,0,1-2.36,1.12,2.3,2.3,0,0,1-2.47-2.29c0-1.38,1-2.3,2.8-2.3a3.81,3.81,0,0,1,2,.53v-1c0-1-.73-1.26-1.62-1.26a3.54,3.54,0,0,0-2.14.72Zm2.33,5.49a1.89,1.89,0,0,0,2-1.87v-.27a4.08,4.08,0,0,0-1.83-.4c-1.21,0-1.74.48-1.74,1.25S48.73,84.08,49.65,84.08Z" transform="translate(-18.46 -1.1)"/><path class="cls-1" d="M55.09,77.86V75.38h1.24v2.48h1.16V79H56.33v6H55.09V79H53.92V77.86Z" transform="translate(-18.46 -1.1)"/><path class="cls-1" d="M59.58,74.07a.85.85,0,0,1,0,1.7.85.85,0,0,1,0-1.7Zm.62,3.79V85H59V77.86Z" transform="translate(-18.46 -1.1)"/><path class="cls-1" d="M65.83,77.71a3.72,3.72,0,1,1-3.69,3.72A3.61,3.61,0,0,1,65.83,77.71Zm0,6.28a2.56,2.56,0,1,0-2.44-2.56A2.42,2.42,0,0,0,65.83,84Z" transform="translate(-18.46 -1.1)"/><path class="cls-1" d="M74.27,78.87a1.71,1.71,0,0,0-1.81,1.78V85H71.22V77.86h1.24V79a2.27,2.27,0,0,1,2.12-1.27c1.51,0,2.45,1.07,2.45,2.79V85H75.79V80.65C75.79,79.48,75.27,78.87,74.27,78.87Z" transform="translate(-18.46 -1.1)"/><path class="cls-1" d="M90.15,81.74H85.78L84.4,85H82.92l5-11.4L93,85H91.53ZM86.3,80.5h3.32L88,76.59Z" transform="translate(-18.46 -1.1)"/><path class="cls-1" d="M104,85h-1.24V80.65c0-1.22-.43-1.78-1.36-1.78a1.59,1.59,0,0,0-1.66,1.78V85H98.5V80.65c0-1.22-.43-1.78-1.36-1.78a1.59,1.59,0,0,0-1.66,1.78V85H94.24V77.86h1.24v1a2.24,2.24,0,0,1,4,.14,2.4,2.4,0,0,1,2.2-1.33c1.46,0,2.29,1,2.29,2.79Z" transform="translate(-18.46 -1.1)"/><path class="cls-1" d="M109.4,77.71a3.72,3.72,0,1,1-3.69,3.72A3.61,3.61,0,0,1,109.4,77.71Zm0,6.28A2.56,2.56,0,1,0,107,81.43,2.42,2.42,0,0,0,109.4,84Z" transform="translate(-18.46 -1.1)"/><path class="cls-1" d="M117.55,84a1.7,1.7,0,0,0,1.81-1.78V77.86h1.24V85h-1.24V83.88a2.28,2.28,0,0,1-2.12,1.27c-1.49,0-2.45-1.08-2.45-2.79v-4.5H116v4.35C116,83.35,116.56,84,117.55,84Z" transform="translate(-18.46 -1.1)"/><path class="cls-1" d="M126,78.87a1.71,1.71,0,0,0-1.81,1.78V85h-1.24V77.86h1.24V79a2.27,2.27,0,0,1,2.12-1.27c1.51,0,2.45,1.07,2.45,2.79V85H127.5V80.65C127.5,79.48,127,78.87,126,78.87Z" transform="translate(-18.46 -1.1)"/><path class="cls-1" d="M131.14,77.86V75.38h1.24v2.48h1.17V79h-1.17v6h-1.24V79H130V77.86Z" transform="translate(-18.46 -1.1)"/><path class="cls-1" d="M56.16,50.46V39.61h3.25A5.19,5.19,0,0,1,64.84,45a5.18,5.18,0,0,1-5.43,5.42Zm1.31-9.53v8.21h1.94A3.86,3.86,0,0,0,63.52,45a3.86,3.86,0,0,0-4.11-4.11Z" transform="translate(-18.46 -1.1)"/><path class="cls-1" d="M66.39,44.06a4.74,4.74,0,0,1,2.8-.88c1.66,0,2.79.79,2.79,2.17v5.11H70.74v-1a2.79,2.79,0,0,1-2.35,1.12,2.3,2.3,0,0,1-2.47-2.3c0-1.38,1-2.29,2.79-2.29a3.7,3.7,0,0,1,2,.53v-1c0-1-.73-1.26-1.61-1.26A3.61,3.61,0,0,0,67,45Zm2.32,5.49a1.9,1.9,0,0,0,2-1.88v-.26a4,4,0,0,0-1.83-.4c-1.21,0-1.73.48-1.73,1.25S67.8,49.55,68.71,49.55Z" transform="translate(-18.46 -1.1)"/><path class="cls-1" d="M74.15,43.33V40.85h1.24v2.48h1.16v1.16H75.39v6H74.15v-6H73V43.33Z" transform="translate(-18.46 -1.1)"/><path class="cls-1" d="M77.56,44.06a4.77,4.77,0,0,1,2.81-.88c1.65,0,2.79.79,2.79,2.17v5.11H81.92v-1a2.81,2.81,0,0,1-2.36,1.12,2.29,2.29,0,0,1-2.46-2.3c0-1.38,1-2.29,2.79-2.29a3.72,3.72,0,0,1,2,.53v-1c0-1-.73-1.26-1.62-1.26a3.61,3.61,0,0,0-2.14.71Zm2.33,5.49a1.9,1.9,0,0,0,2-1.88v-.26a4.08,4.08,0,0,0-1.83-.4c-1.21,0-1.74.48-1.74,1.25S79,49.55,79.89,49.55Z" transform="translate(-18.46 -1.1)"/><path class="cls-1" d="M87.48,49.49c.7,0,1.13-.35,1.13-.9,0-.75-.82-1.09-1.64-1.4s-2-.88-2-2.14,1.15-1.87,2.31-1.87a3,3,0,0,1,2.58,1.39l-1,.64a2.14,2.14,0,0,0-1.73-.93c-.51,0-1,.21-1,.69s.73.9,1.49,1.21c1.24.52,2.25,1,2.25,2.27a2.23,2.23,0,0,1-2.45,2.17,3.13,3.13,0,0,1-2.85-1.74l1-.6A2.35,2.35,0,0,0,87.48,49.49Z" transform="translate(-18.46 -1.1)"/><path class="cls-1" d="M90.87,46.9a3.45,3.45,0,0,1,3.54-3.72c2.09,0,3.36,1.39,3.36,3.65,0,.16,0,.35,0,.38H92.15a2.14,2.14,0,0,0,2.26,2.24,2.46,2.46,0,0,0,2.23-1.28l1,.63a3.72,3.72,0,0,1-3.4,1.82A3.4,3.4,0,0,1,90.87,46.9Zm1.32-.75h4.24a1.94,1.94,0,0,0-2-1.89A2.09,2.09,0,0,0,92.19,46.15Z" transform="translate(-18.46 -1.1)"/><path class="cls-1" d="M99.56,43.33V40.85h1.24v2.48H102v1.16H100.8v6H99.56v-6H98.39V43.33Z" transform="translate(-18.46 -1.1)"/><path class="cls-1" d="M111.2,49.38a1.74,1.74,0,0,0,1.92-1.71c0-1.46-1.16-1.91-2.4-2.35s-2.87-1.09-2.87-3.06a2.88,2.88,0,0,1,3.14-2.8,3.73,3.73,0,0,1,3.4,2.27l-1.13.65a2.61,2.61,0,0,0-2.34-1.67c-1.18,0-1.69.68-1.69,1.38,0,.92.6,1.55,2.51,2.2,1.16.41,2.74,1.26,2.74,3.23a3.18,3.18,0,0,1-3.33,3.1,4.52,4.52,0,0,1-3.88-2.73l1.06-.71C109.06,48.49,109.89,49.38,111.2,49.38Z" transform="translate(-18.46 -1.1)"/><path class="cls-1" d="M117.19,39.53a.86.86,0,1,1-.85.85A.86.86,0,0,1,117.19,39.53Zm.62,3.8v7.13h-1.24V43.33Z" transform="translate(-18.46 -1.1)"/><path class="cls-1" d="M119.91,44.49V43.33h6.2l-4.42,6h4.11v1.16h-6.36l4.42-6Z" transform="translate(-18.46 -1.1)"/><path class="cls-1" d="M126.65,46.9a3.44,3.44,0,0,1,3.53-3.72c2.09,0,3.37,1.39,3.37,3.65,0,.16,0,.35,0,.38h-5.61a2.15,2.15,0,0,0,2.26,2.24,2.45,2.45,0,0,0,2.23-1.28l1,.63A3.71,3.71,0,0,1,130,50.62,3.4,3.4,0,0,1,126.65,46.9Zm1.32-.75h4.23a1.94,1.94,0,0,0-2-1.89A2.08,2.08,0,0,0,128,46.15Z" transform="translate(-18.46 -1.1)"/><path class="cls-1" d="M77.62,11.7H73.25L71.87,15H70.4l5-11.39,5,11.39H79Zm-3.84-1.24H77.1l-1.66-3.9Z" transform="translate(-18.46 -1.1)"/><path class="cls-1" d="M83,2.87V15H81.71V2.87Z" transform="translate(-18.46 -1.1)"/><path class="cls-1" d="M86.05,15.42a2.08,2.08,0,0,0,2.28,1.94,2.31,2.31,0,0,0,2.3-2.56V13.74a2.74,2.74,0,0,1-2.44,1.38,3.5,3.5,0,0,1-3.53-3.73,3.49,3.49,0,0,1,3.53-3.72,2.74,2.74,0,0,1,2.44,1.38V7.83h1.24v7a3.49,3.49,0,0,1-3.54,3.73c-2.09,0-3.53-1.26-3.53-3.11ZM88.35,14a2.4,2.4,0,0,0,2.28-2.56,2.37,2.37,0,1,0-4.72,0A2.38,2.38,0,0,0,88.35,14Z" transform="translate(-18.46 -1.1)"/><path class="cls-1" d="M97.18,7.67a3.61,3.61,0,0,1,3.69,3.72,3.69,3.69,0,1,1-7.38,0A3.61,3.61,0,0,1,97.18,7.67Zm0,6.28a2.42,2.42,0,0,0,2.44-2.56,2.44,2.44,0,1,0-4.87,0A2.42,2.42,0,0,0,97.18,14Z" transform="translate(-18.46 -1.1)"/><path class="cls-1" d="M105,8.84c-.93,0-1.19.76-1.19,1.78V15h-1.24V7.83h1.24v.82a1.94,1.94,0,0,1,1.5-1,1.7,1.7,0,0,1,1.33.5l-.68,1A1.41,1.41,0,0,0,105,8.84Z" transform="translate(-18.46 -1.1)"/><path class="cls-1" d="M108.74,4a.86.86,0,1,1-.85.85A.86.86,0,0,1,108.74,4Zm.62,3.8V15h-1.24V7.83Z" transform="translate(-18.46 -1.1)"/><path class="cls-1" d="M112,7.83V5.35h1.24V7.83h1.16V9h-1.16v6H112V9h-1.16V7.83Z" transform="translate(-18.46 -1.1)"/><path class="cls-1" d="M118.7,8.84a1.73,1.73,0,0,0-1.82,1.78V15h-1.24V2.87h1.24V9A2.4,2.4,0,0,1,119,7.67c1.47,0,2.45.95,2.45,2.79V15h-1.24V10.62C120.22,9.44,119.7,8.84,118.7,8.84Z" transform="translate(-18.46 -1.1)"/><path class="cls-1" d="M133.55,15h-1.24V10.62c0-1.23-.44-1.78-1.37-1.78a1.59,1.59,0,0,0-1.66,1.78V15H128V10.62c0-1.23-.43-1.78-1.36-1.78A1.59,1.59,0,0,0,125,10.62V15h-1.24V7.83H125v1a2.24,2.24,0,0,1,4,.14,2.4,2.4,0,0,1,2.2-1.34c1.46,0,2.3,1,2.3,2.79Z" transform="translate(-18.46 -1.1)"/><path class="cls-2" d="M277.7,142.09h.54v7.52H280v1.16h-1.71v2.17h-1.31v-2.17h-5.24Zm-.77,7.52V145l-3.07,4.59Z" transform="translate(-18.46 -1.1)"/><path class="cls-2" d="M283.19,147.16a2.54,2.54,0,0,1-1.54-2.45,3,3,0,0,1,6,0,2.54,2.54,0,0,1-1.54,2.45A2.93,2.93,0,0,1,288,150a3.39,3.39,0,0,1-6.76,0A2.94,2.94,0,0,1,283.19,147.16Zm1.45,4.77a2.05,2.05,0,0,0,2.13-2.09,2.13,2.13,0,0,0-4.25,0A2.05,2.05,0,0,0,284.64,151.93Zm0-5.35a1.75,1.75,0,1,0-1.73-1.72A1.71,1.71,0,0,0,284.64,146.58Z" transform="translate(-18.46 -1.1)"/><path class="cls-3" d="M296.39,142.09l-6.28,13.17h-1.24l6.28-13.17Z" transform="translate(-18.46 -1.1)"/><path class="cls-3" d="M303.4,142.09l-3,4a2.34,2.34,0,0,1,1.22-.27,3.34,3.34,0,0,1,3.21,3.52,3.69,3.69,0,1,1-7.38,0,3.79,3.79,0,0,1,.68-2.24l3.66-5Zm-2.31,9.81a2.54,2.54,0,1,0-2.43-2.53A2.4,2.4,0,0,0,301.09,151.9Z" transform="translate(-18.46 -1.1)"/><path class="cls-3" d="M306.48,150.07h1.34a1.91,1.91,0,0,0,2.12,1.78,1.85,1.85,0,0,0,2-1.93c0-1.34-1.1-2-2.49-2v-1.16a2,2,0,0,0,2.18-1.88,1.55,1.55,0,0,0-1.64-1.73,1.72,1.72,0,0,0-1.82,1.65H307a2.83,2.83,0,0,1,3.05-2.85,2.87,2.87,0,0,1,3,2.89,2.71,2.71,0,0,1-1.84,2.46,2.73,2.73,0,0,1,2.15,2.79c0,1.85-1.44,3-3.38,3S306.48,151.76,306.48,150.07Z" transform="translate(-18.46 -1.1)"/><path class="cls-3" d="M322.88,146.82a1.72,1.72,0,0,0-1.81,1.78v4.34h-1.24V140.85h1.24v6.09a2.37,2.37,0,0,1,2.12-1.29c1.47,0,2.45.95,2.45,2.79v4.5H324.4V148.6C324.4,147.42,323.89,146.82,322.88,146.82Z" transform="translate(-18.46 -1.1)"/><path class="cls-3" d="M331,145.65a3.72,3.72,0,1,1-3.69,3.72A3.61,3.61,0,0,1,331,145.65Zm0,6.28a2.56,2.56,0,1,0-2.44-2.56A2.42,2.42,0,0,0,331,151.93Z" transform="translate(-18.46 -1.1)"/><path class="cls-3" d="M339.19,151.93a1.71,1.71,0,0,0,1.81-1.78v-4.34h1.24v7.13H341v-1.12a2.27,2.27,0,0,1-2.12,1.27c-1.49,0-2.45-1.08-2.45-2.79v-4.49h1.24v4.34C337.67,151.3,338.2,151.93,339.19,151.93Z" transform="translate(-18.46 -1.1)"/><path class="cls-3" d="M347,146.82c-.93,0-1.19.75-1.19,1.78v4.34h-1.24v-7.13h1.24v.82a1.92,1.92,0,0,1,1.5-1,1.7,1.7,0,0,1,1.33.5l-.68,1A1.41,1.41,0,0,0,347,146.82Z" transform="translate(-18.46 -1.1)"/><path class="cls-3" d="M352.11,152c.7,0,1.14-.34,1.14-.9,0-.74-.83-1.08-1.65-1.39s-2-.89-2-2.14,1.14-1.88,2.31-1.88a3,3,0,0,1,2.57,1.4l-1,.63a2.18,2.18,0,0,0-1.74-.93c-.51,0-.94.22-.94.7s.72.9,1.48,1.21c1.24.51,2.25,1,2.25,2.26a2.23,2.23,0,0,1-2.45,2.17,3.15,3.15,0,0,1-2.85-1.73l1-.61A2.3,2.3,0,0,0,352.11,152Z" transform="translate(-18.46 -1.1)"/><path class="cls-2" d="M271.69,107.44l3.72-.93v11h-1.32V108.1l-2.4.71Z" transform="translate(-18.46 -1.1)"/><path class="cls-2" d="M282.86,112.05a3.43,3.43,0,0,0,1.13-2.37,2,2,0,0,0-2.09-1.94c-1.39,0-2.23,1-2.23,2.65h-1.32c0-2.31,1.3-3.89,3.55-3.89a3.25,3.25,0,0,1,3.44,3.13,4.67,4.67,0,0,1-1.44,3.13l-3.46,3.52h4.95v1.24h-7.66Z" transform="translate(-18.46 -1.1)"/><path class="cls-2" d="M289,111.74a2.54,2.54,0,0,1-1.53-2.45,3,3,0,0,1,6,0,2.53,2.53,0,0,1-1.53,2.45,2.93,2.93,0,0,1,1.92,2.84,3.39,3.39,0,0,1-6.76,0A2.93,2.93,0,0,1,289,111.74Zm1.46,4.77a2.05,2.05,0,0,0,2.13-2.09,2.13,2.13,0,0,0-4.25,0A2.05,2.05,0,0,0,290.47,116.51Zm0-5.35a1.74,1.74,0,1,0-1.73-1.72A1.7,1.7,0,0,0,290.47,111.16Z" transform="translate(-18.46 -1.1)"/><path class="cls-3" d="M302.22,106.67l-6.28,13.18H294.7L301,106.67Z" transform="translate(-18.46 -1.1)"/><path class="cls-3" d="M303.69,107.44l3.72-.93v11H306.1V108.1l-2.41.71Z" transform="translate(-18.46 -1.1)"/><path class="cls-3" d="M314.87,112.05a3.48,3.48,0,0,0,1.13-2.37,2,2,0,0,0-2.09-1.94c-1.4,0-2.23,1-2.23,2.65h-1.32c0-2.31,1.3-3.89,3.55-3.89a3.25,3.25,0,0,1,3.44,3.13,4.67,4.67,0,0,1-1.44,3.13l-3.46,3.52h4.95v1.24h-7.66Z" transform="translate(-18.46 -1.1)"/><path class="cls-3" d="M321,111.74a2.54,2.54,0,0,1-1.53-2.45,3,3,0,0,1,6,0,2.54,2.54,0,0,1-1.53,2.45,2.93,2.93,0,0,1,1.92,2.84,3.39,3.39,0,0,1-6.76,0A2.93,2.93,0,0,1,321,111.74Zm1.46,4.77a2.05,2.05,0,0,0,2.12-2.09,2.12,2.12,0,0,0-4.24,0A2,2,0,0,0,322.48,116.51Zm0-5.35a1.74,1.74,0,1,0-1.74-1.72A1.7,1.7,0,0,0,322.48,111.16Z" transform="translate(-18.46 -1.1)"/><path class="cls-3" d="M332.44,120.93V110.39h1.25v1.23a2.7,2.7,0,0,1,2.43-1.38,3.73,3.73,0,0,1,0,7.44,2.72,2.72,0,0,1-2.43-1.38v4.63ZM336,111.4A2.56,2.56,0,1,0,338.4,114,2.39,2.39,0,0,0,336,111.4Z" transform="translate(-18.46 -1.1)"/><path class="cls-3" d="M346.32,110.39l-2.44,3.46,2.59,3.67h-1.39l-1.86-2.7-1.86,2.7H340l2.59-3.67-2.43-3.46h1.39l1.71,2.48,1.7-2.48Z" transform="translate(-18.46 -1.1)"/><path class="cls-2" d="M271.69,37.91h7.59l-5.19,10.85h-1.38l4.6-9.61h-5.62Z" transform="translate(-18.46 -1.1)"/><path class="cls-2" d="M283.68,48.92a4.2,4.2,0,0,1-3.86-2.28l1.12-.76a3.29,3.29,0,0,0,2.74,1.8,2.28,2.28,0,0,0,2.44-2.48,2.36,2.36,0,0,0-2.44-2.48,4.13,4.13,0,0,0-2.77,1l1.42-5.79h5.12v1.17h-4.09l-.73,2.86a3.58,3.58,0,0,1,1.61-.4c1.86,0,3.24,1.5,3.24,3.66A3.52,3.52,0,0,1,283.68,48.92Z" transform="translate(-18.46 -1.1)"/><path class="cls-2" d="M292.75,37.76c2.39,0,4,2.34,4,5.58s-1.64,5.58-4,5.58-4-2.34-4-5.58S290.36,37.76,292.75,37.76Zm0,9.92c1.67,0,2.71-1.81,2.71-4.34s-1-4.34-2.71-4.34S290,40.81,290,43.34,291.08,47.68,292.75,47.68Z" transform="translate(-18.46 -1.1)"/><path class="cls-3" d="M305.15,37.91l-6.28,13.18h-1.24l6.28-13.18Z" transform="translate(-18.46 -1.1)"/><path class="cls-3" d="M310.82,43.29A3.43,3.43,0,0,0,312,40.92a2,2,0,0,0-2.1-1.94c-1.39,0-2.23,1-2.23,2.65h-1.32c0-2.31,1.3-3.89,3.55-3.89a3.25,3.25,0,0,1,3.44,3.13A4.7,4.7,0,0,1,311.86,44l-3.46,3.51h5v1.24h-7.66Z" transform="translate(-18.46 -1.1)"/><path class="cls-3" d="M318.85,37.76c2.39,0,4,2.34,4,5.58s-1.64,5.58-4,5.58-4-2.34-4-5.58S316.46,37.76,318.85,37.76Zm0,9.92c1.68,0,2.72-1.81,2.72-4.34s-1-4.34-2.72-4.34-2.71,1.81-2.71,4.34S317.18,47.68,318.85,47.68Z" transform="translate(-18.46 -1.1)"/><path class="cls-3" d="M328.15,37.76c2.39,0,4,2.34,4,5.58s-1.64,5.58-4,5.58-4-2.34-4-5.58S325.76,37.76,328.15,37.76Zm0,9.92c1.68,0,2.71-1.81,2.71-4.34s-1-4.34-2.71-4.34-2.71,1.81-2.71,4.34S326.48,47.68,328.15,47.68Z" transform="translate(-18.46 -1.1)"/><path class="cls-3" d="M337.45,37.76c2.39,0,4,2.34,4,5.58s-1.64,5.58-4,5.58-4-2.34-4-5.58S335.06,37.76,337.45,37.76Zm0,9.92c1.68,0,2.71-1.81,2.71-4.34s-1-4.34-2.71-4.34-2.71,1.81-2.71,4.34S335.78,47.68,337.45,47.68Z" transform="translate(-18.46 -1.1)"/><path class="cls-3" d="M348.77,37.84a.85.85,0,1,1,0,1.7.85.85,0,1,1,0-1.7Zm.62,3.79v7.13h-1.24V41.63Z" transform="translate(-18.46 -1.1)"/><path class="cls-3" d="M361.71,48.76h-1.24V44.42c0-1.22-.43-1.78-1.36-1.78a1.59,1.59,0,0,0-1.66,1.78v4.34h-1.24V44.42c0-1.22-.44-1.78-1.37-1.78a1.59,1.59,0,0,0-1.66,1.78v4.34h-1.24V41.63h1.24v1a2.11,2.11,0,0,1,2-1.19,2.06,2.06,0,0,1,2.06,1.33,2.41,2.41,0,0,1,2.21-1.33c1.45,0,2.29,1,2.29,2.79Z" transform="translate(-18.46 -1.1)"/><path class="cls-3" d="M363.8,42.36a4.77,4.77,0,0,1,2.81-.88c1.66,0,2.79.79,2.79,2.17v5.11h-1.24v-1a2.81,2.81,0,0,1-2.36,1.12,2.29,2.29,0,0,1-2.46-2.29c0-1.38,1-2.3,2.79-2.3a3.72,3.72,0,0,1,2,.53v-1c0-1-.73-1.26-1.61-1.26a3.51,3.51,0,0,0-2.14.72Zm2.33,5.49a1.89,1.89,0,0,0,2-1.88v-.26a4.08,4.08,0,0,0-1.83-.4c-1.21,0-1.74.48-1.74,1.25S365.21,47.85,366.13,47.85Z" transform="translate(-18.46 -1.1)"/><path class="cls-3" d="M372.26,49.23a2.08,2.08,0,0,0,2.28,1.94,2.31,2.31,0,0,0,2.3-2.56V47.54a2.74,2.74,0,0,1-2.44,1.38,3.48,3.48,0,0,1-3.53-3.72,3.48,3.48,0,0,1,3.53-3.72,2.72,2.72,0,0,1,2.44,1.38V41.63h1.24v7a3.49,3.49,0,0,1-3.54,3.72c-2.09,0-3.53-1.26-3.53-3.1Zm2.3-1.47a2.56,2.56,0,1,0-2.44-2.56A2.4,2.4,0,0,0,374.56,47.76Z" transform="translate(-18.46 -1.1)"/><path class="cls-3" d="M379.7,45.2a3.45,3.45,0,0,1,3.54-3.72c2.09,0,3.36,1.39,3.36,3.66,0,.15,0,.34,0,.37H381a2.16,2.16,0,0,0,2.27,2.25,2.47,2.47,0,0,0,2.23-1.29l1,.64a3.74,3.74,0,0,1-3.4,1.81A3.4,3.4,0,0,1,379.7,45.2Zm1.32-.74h4.23a1.92,1.92,0,0,0-2-1.9A2.1,2.1,0,0,0,381,44.46Z" transform="translate(-18.46 -1.1)"/><path class="cls-3" d="M390.54,47.79c.7,0,1.13-.34,1.13-.9,0-.75-.82-1.09-1.64-1.4s-2-.88-2-2.14,1.15-1.87,2.31-1.87a3,3,0,0,1,2.57,1.39l-1,.64a2.15,2.15,0,0,0-1.73-.93c-.52,0-.95.22-.95.7s.73.9,1.49,1.21c1.24.51,2.25,1,2.25,2.26a2.24,2.24,0,0,1-2.45,2.17,3.14,3.14,0,0,1-2.86-1.74l1-.6A2.3,2.3,0,0,0,390.54,47.79Z" transform="translate(-18.46 -1.1)"/><path class="cls-2" d="M276.82,78.25A3.46,3.46,0,0,0,278,75.88a2,2,0,0,0-2.09-1.94c-1.4,0-2.24,1-2.24,2.65h-1.31c0-2.31,1.3-3.89,3.55-3.89a3.25,3.25,0,0,1,3.44,3.13A4.65,4.65,0,0,1,277.86,79l-3.46,3.52h4.94v1.24h-7.65Z" transform="translate(-18.46 -1.1)"/><path class="cls-2" d="M284.85,72.72c2.38,0,4,2.34,4,5.58s-1.65,5.58-4,5.58-4-2.34-4-5.58S282.46,72.72,284.85,72.72Zm0,9.92c1.67,0,2.71-1.81,2.71-4.34s-1-4.34-2.71-4.34-2.72,1.81-2.72,4.34S283.17,82.64,284.85,82.64Z" transform="translate(-18.46 -1.1)"/><path class="cls-2" d="M294.15,72.72c2.38,0,4,2.34,4,5.58s-1.65,5.58-4,5.58-4-2.34-4-5.58S291.76,72.72,294.15,72.72Zm0,9.92c1.67,0,2.71-1.81,2.71-4.34s-1-4.34-2.71-4.34-2.72,1.81-2.72,4.34S292.47,82.64,294.15,82.64Z" transform="translate(-18.46 -1.1)"/><path class="cls-2" d="M303.45,72.72c2.38,0,4,2.34,4,5.58s-1.65,5.58-4,5.58-4-2.34-4-5.58S301.06,72.72,303.45,72.72Zm0,9.92c1.67,0,2.71-1.81,2.71-4.34s-1-4.34-2.71-4.34-2.72,1.81-2.72,4.34S301.77,82.64,303.45,82.64Z" transform="translate(-18.46 -1.1)"/><path class="cls-2" d="M312.75,72.72c2.38,0,4,2.34,4,5.58s-1.65,5.58-4,5.58-4-2.34-4-5.58S310.36,72.72,312.75,72.72Zm0,9.92c1.67,0,2.71-1.81,2.71-4.34s-1-4.34-2.71-4.34S310,75.77,310,78.3,311.07,82.64,312.75,82.64Z" transform="translate(-18.46 -1.1)"/><path class="cls-2" d="M322.05,72.72c2.38,0,4,2.34,4,5.58s-1.65,5.58-4,5.58-4-2.34-4-5.58S319.66,72.72,322.05,72.72Zm0,9.92c1.67,0,2.71-1.81,2.71-4.34s-1-4.34-2.71-4.34-2.72,1.81-2.72,4.34S320.37,82.64,322.05,82.64Z" transform="translate(-18.46 -1.1)"/><path class="cls-3" d="M334.45,72.87l-6.28,13.18h-1.24l6.28-13.18Z" transform="translate(-18.46 -1.1)"/><path class="cls-3" d="M340.12,78.25a3.46,3.46,0,0,0,1.13-2.37,2,2,0,0,0-2.09-1.94c-1.4,0-2.24,1-2.24,2.65h-1.31c0-2.31,1.3-3.89,3.55-3.89a3.25,3.25,0,0,1,3.44,3.13A4.65,4.65,0,0,1,341.16,79l-3.46,3.52h4.95v1.24H335Z" transform="translate(-18.46 -1.1)"/><path class="cls-3" d="M350.27,72.87l-3,4a2.34,2.34,0,0,1,1.22-.26,3.34,3.34,0,0,1,3.21,3.52,3.69,3.69,0,1,1-7.38,0,3.83,3.83,0,0,1,.68-2.25l3.66-5ZM348,82.69a2.39,2.39,0,0,0,2.43-2.53A2.43,2.43,0,1,0,348,82.69Z" transform="translate(-18.46 -1.1)"/><path class="cls-3" d="M355.2,77.94a2.53,2.53,0,0,1-1.54-2.45,3,3,0,0,1,6,0,2.53,2.53,0,0,1-1.54,2.45A3,3,0,0,1,360,80.78a3.39,3.39,0,0,1-6.76,0A2.94,2.94,0,0,1,355.2,77.94Zm1.46,4.78a2.05,2.05,0,0,0,2.12-2.1,2.13,2.13,0,0,0-4.25,0A2.05,2.05,0,0,0,356.66,82.72Zm0-5.35a1.75,1.75,0,1,0-1.74-1.72A1.7,1.7,0,0,0,356.66,77.37Z" transform="translate(-18.46 -1.1)"/><path class="cls-3" d="M365.54,72.72c2.38,0,4,2.34,4,5.58s-1.65,5.58-4,5.58-4-2.34-4-5.58S363.15,72.72,365.54,72.72Zm0,9.92c1.67,0,2.71-1.81,2.71-4.34s-1-4.34-2.71-4.34-2.72,1.81-2.72,4.34S363.86,82.64,365.54,82.64Z" transform="translate(-18.46 -1.1)"/><path class="cls-3" d="M374.84,72.72c2.38,0,4,2.34,4,5.58s-1.65,5.58-4,5.58-4-2.34-4-5.58S372.45,72.72,374.84,72.72Zm0,9.92c1.67,0,2.71-1.81,2.71-4.34s-1-4.34-2.71-4.34-2.72,1.81-2.72,4.34S373.16,82.64,374.84,82.64Z" transform="translate(-18.46 -1.1)"/><path class="cls-3" d="M384.14,72.72c2.39,0,4,2.34,4,5.58s-1.64,5.58-4,5.58-4-2.34-4-5.58S381.75,72.72,384.14,72.72Zm0,9.92c1.67,0,2.71-1.81,2.71-4.34s-1-4.34-2.71-4.34-2.72,1.81-2.72,4.34S382.46,82.64,384.14,82.64Z" transform="translate(-18.46 -1.1)"/><path class="cls-3" d="M394.68,76.59V74.11h1.24v2.48h1.16v1.17h-1.16v6h-1.24v-6h-1.17V76.59Z" transform="translate(-18.46 -1.1)"/><path class="cls-3" d="M399.17,72.79a.86.86,0,1,1-.85.86A.86.86,0,0,1,399.17,72.79Zm.62,3.8v7.13h-1.24V76.59Z" transform="translate(-18.46 -1.1)"/><path class="cls-3" d="M412.12,83.72h-1.24V79.38c0-1.22-.44-1.78-1.37-1.78a1.59,1.59,0,0,0-1.66,1.78v4.34h-1.24V79.38c0-1.22-.43-1.78-1.36-1.78a1.59,1.59,0,0,0-1.66,1.78v4.34h-1.24V76.59h1.24v1a2.24,2.24,0,0,1,4,.14,2.41,2.41,0,0,1,2.2-1.33c1.46,0,2.3,1,2.3,2.79Z" transform="translate(-18.46 -1.1)"/><path class="cls-3" d="M413.82,80.16a3.44,3.44,0,0,1,3.53-3.72c2.1,0,3.37,1.39,3.37,3.66,0,.15,0,.34,0,.37h-5.61a2.15,2.15,0,0,0,2.26,2.25,2.48,2.48,0,0,0,2.24-1.29l1,.64a3.72,3.72,0,0,1-3.39,1.81A3.4,3.4,0,0,1,413.82,80.16Zm1.32-.75h4.23a1.93,1.93,0,0,0-2-1.89A2.09,2.09,0,0,0,415.14,79.41Z" transform="translate(-18.46 -1.1)"/><path class="cls-3" d="M424.65,82.75c.7,0,1.13-.34,1.13-.9,0-.75-.82-1.09-1.64-1.4s-2-.88-2-2.14,1.14-1.87,2.3-1.87A3,3,0,0,1,427,77.83l-1,.64a2.17,2.17,0,0,0-1.74-.93c-.51,0-.95.22-.95.7s.73.9,1.49,1.21c1.24.51,2.25,1,2.25,2.26a2.23,2.23,0,0,1-2.45,2.17,3.13,3.13,0,0,1-2.85-1.74l1-.6A2.3,2.3,0,0,0,424.65,82.75Z" transform="translate(-18.46 -1.1)"/><path class="cls-1" d="M148.12,14.35A1.4,1.4,0,0,0,149.67,13c0-1.18-.94-1.54-1.94-1.9s-2.31-.88-2.31-2.46A2.33,2.33,0,0,1,148,6.35a3,3,0,0,1,2.74,1.84l-.91.53a2.1,2.1,0,0,0-1.89-1.35c-.95,0-1.36.55-1.36,1.11,0,.74.49,1.25,2,1.77a2.83,2.83,0,0,1,2.21,2.6,2.56,2.56,0,0,1-2.69,2.5,3.64,3.64,0,0,1-3.12-2.2l.85-.57C146.39,13.64,147.07,14.35,148.12,14.35Z" transform="translate(-18.46 -1.1)"/><path class="cls-1" d="M157.22,12.6h-3.53l-1.11,2.63h-1.19L155.45,6l4.07,9.19h-1.19Zm-3.1-1h2.67l-1.34-3.15Z" transform="translate(-18.46 -1.1)"/><path class="cls-1" d="M165.58,6.48v1h-3.94V10h3.69v1h-3.69v3.25h3.94v1h-5V6.48Z" transform="translate(-18.46 -1.1)"/><path class="cls-1" d="M168.52,6.48V10h4.81V6.48h1.06v8.75h-1.06V11h-4.81v4.25h-1.06V6.48Z" transform="translate(-18.46 -1.1)"/><path class="cls-1" d="M176.39,15.23V6.48H179a4.17,4.17,0,0,1,4.37,4.37A4.18,4.18,0,0,1,179,15.23Zm1.06-7.69v6.62H179a3.11,3.11,0,0,0,3.31-3.31A3.11,3.11,0,0,0,179,7.54Z" transform="translate(-18.46 -1.1)"/><rect class="cls-4" x="122.67" y="0.5" width="46.09" height="18.21"/><rect class="cls-3" x="122.17" y="140.91" width="123.97" height="12.1"/><rect class="cls-2" x="122.17" y="140.91" width="94.45" height="12.1"/><rect class="cls-2" x="122.17" y="106.57" width="123.97" height="12.1"/><rect class="cls-3" x="122.17" y="72.23" width="123.97" height="12.1"/><rect class="cls-2" x="122.17" y="72.23" width="92.52" height="12.1"/><rect class="cls-3" x="122.17" y="37.89" width="123.97" height="12.1"/><rect class="cls-2" x="122.17" y="37.89" width="46.49" height="12.1"/><polyline class="cls-5" points="246.47 159.81 246.47 22.08 364.08 22.08"/><path class="cls-3" d="M274.63,4.19c2.09,0,3.69,1.25,3.69,3.25s-1.6,3.26-3.69,3.26H273V15h-1.31V4.19ZM273,5.43v4h1.63c1.4,0,2.37-.69,2.37-2s-1-2-2.37-2Z" transform="translate(-18.46 -1.1)"/><path class="cls-3" d="M282.23,8.91c-.93,0-1.2.76-1.2,1.79V15h-1.24V7.91H281v.82a1.93,1.93,0,0,1,1.51-1,1.7,1.7,0,0,1,1.33.5l-.68,1A1.42,1.42,0,0,0,282.23,8.91Z" transform="translate(-18.46 -1.1)"/><path class="cls-3" d="M288,7.75a3.61,3.61,0,0,1,3.68,3.72,3.69,3.69,0,1,1-7.37,0A3.61,3.61,0,0,1,288,7.75ZM288,14a2.42,2.42,0,0,0,2.43-2.56,2.44,2.44,0,1,0-4.87,0A2.42,2.42,0,0,0,288,14Z" transform="translate(-18.46 -1.1)"/><path class="cls-3" d="M292.67,17.21c.53,0,.75-.4.75-1.4V7.91h1.24V16c0,1.56-.76,2.48-2.07,2.48a1.55,1.55,0,0,1-1.36-.62l.68-1A.91.91,0,0,0,292.67,17.21ZM294,4.12a.84.84,0,1,1,0,1.68.84.84,0,0,1,0-1.68Z" transform="translate(-18.46 -1.1)"/><path class="cls-3" d="M296.59,11.47a3.45,3.45,0,0,1,3.54-3.72c2.09,0,3.36,1.4,3.36,3.66,0,.15,0,.34,0,.37h-5.62A2.16,2.16,0,0,0,300.13,14a2.47,2.47,0,0,0,2.23-1.29l1,.64a3.73,3.73,0,0,1-3.4,1.81A3.4,3.4,0,0,1,296.59,11.47Zm1.32-.74h4.23a1.92,1.92,0,0,0-2-1.89A2.09,2.09,0,0,0,297.91,10.73Z" transform="translate(-18.46 -1.1)"/><path class="cls-3" d="M308.19,14a2.77,2.77,0,0,0,2.48-1.3v1.55a3.37,3.37,0,0,1-2.48.91,3.61,3.61,0,0,1-3.69-3.72,3.61,3.61,0,0,1,3.69-3.72,3.42,3.42,0,0,1,2.48.92v1.55a2.78,2.78,0,0,0-2.48-1.31,2.42,2.42,0,0,0-2.44,2.56A2.42,2.42,0,0,0,308.19,14Z" transform="translate(-18.46 -1.1)"/><path class="cls-3" d="M312.68,7.91V5.43h1.24V7.91h1.17V9.07h-1.17v6h-1.24v-6h-1.16V7.91Z" transform="translate(-18.46 -1.1)"/><path class="cls-3" d="M324,4.19c2.09,0,3.69,1.25,3.69,3.25a3.15,3.15,0,0,1-2.59,3.13L328.34,15h-1.63l-3-4.34h-1.32V15h-1.32V4.19Zm-1.63,1.16V9.53H324a2.11,2.11,0,1,0,0-4.18Z" transform="translate(-18.46 -1.1)"/><path class="cls-3" d="M329,11.47a3.45,3.45,0,0,1,3.54-3.72c2.09,0,3.36,1.4,3.36,3.66,0,.15,0,.34,0,.37h-5.61A2.15,2.15,0,0,0,332.57,14a2.45,2.45,0,0,0,2.23-1.29l1,.64a3.71,3.71,0,0,1-3.4,1.81A3.4,3.4,0,0,1,329,11.47Zm1.32-.74h4.24a1.93,1.93,0,0,0-2-1.89A2.09,2.09,0,0,0,330.35,10.73Z" transform="translate(-18.46 -1.1)"/><path class="cls-3" d="M337.4,8.63a4.87,4.87,0,0,1,2.81-.88c1.66,0,2.79.79,2.79,2.17V15h-1.24v-1a2.79,2.79,0,0,1-2.36,1.11,2.29,2.29,0,0,1-2.46-2.29c0-1.38,1-2.3,2.79-2.3a3.79,3.79,0,0,1,2,.53v-1c0-1-.73-1.25-1.61-1.25a3.54,3.54,0,0,0-2.14.71Zm2.33,5.49a1.89,1.89,0,0,0,2-1.87V12a4,4,0,0,0-1.83-.4c-1.21,0-1.73.48-1.73,1.26S338.82,14.12,339.73,14.12Z" transform="translate(-18.46 -1.1)"/><path class="cls-3" d="M348.09,14a2.79,2.79,0,0,0,2.48-1.3v1.55a3.37,3.37,0,0,1-2.48.91,3.61,3.61,0,0,1-3.7-3.72,3.62,3.62,0,0,1,3.7-3.72,3.42,3.42,0,0,1,2.48.92v1.55a2.79,2.79,0,0,0-2.48-1.31,2.42,2.42,0,0,0-2.44,2.56A2.42,2.42,0,0,0,348.09,14Z" transform="translate(-18.46 -1.1)"/><path class="cls-3" d="M355.56,8.91a1.73,1.73,0,0,0-1.82,1.79V15H352.5V3h1.24V9a2.4,2.4,0,0,1,2.13-1.29c1.47,0,2.45.95,2.45,2.79V15h-1.24V10.7C357.08,9.52,356.56,8.91,355.56,8.91Z" transform="translate(-18.46 -1.1)"/></svg>