<svg id="图层_1" data-name="图层 1" xmlns="http://www.w3.org/2000/svg" viewBox="0 0 404.24 174.15"><defs><style>.cls-1,.cls-3,.cls-4,.cls-8{fill:none;stroke-miterlimit:10;}.cls-1{stroke:#fff;stroke-width:0.3px;}.cls-2{fill:#333;}.cls-3{stroke:#e2282b;stroke-width:0.99px;}.cls-4{stroke:#f2868c;stroke-width:0.79px;}.cls-5{fill:#939393;}.cls-6{fill:#e2282b;}.cls-7{fill:#f2868c;}.cls-8{stroke:#939393;stroke-width:0.66px;}</style></defs><line class="cls-1" x1="207.76" y1="174" x2="207.85" y2="174"/><path class="cls-2" d="M48.55,147.42h6.89v1.24H52.65v9.62H51.34v-9.62H48.55Z" transform="translate(-20.63 -9.92)"/><path class="cls-2" d="M58,152.15c-.93,0-1.2.76-1.2,1.79v4.34H55.52v-7.14h1.24V152a1.93,1.93,0,0,1,1.51-1,1.7,1.7,0,0,1,1.33.5l-.68,1A1.42,1.42,0,0,0,58,152.15Z" transform="translate(-20.63 -9.92)"/><path class="cls-2" d="M60.61,151.87a4.81,4.81,0,0,1,2.8-.88c1.66,0,2.79.79,2.79,2.17v5.12H65v-1a2.81,2.81,0,0,1-2.35,1.11,2.3,2.3,0,0,1-2.47-2.29c0-1.38,1-2.3,2.79-2.3a3.79,3.79,0,0,1,2,.53v-1c0-1-.73-1.26-1.61-1.26a3.54,3.54,0,0,0-2.14.72Zm2.32,5.49a1.89,1.89,0,0,0,2-1.87v-.27a4,4,0,0,0-1.83-.4c-1.21,0-1.73.48-1.73,1.25S62,157.36,62.93,157.36Z" transform="translate(-20.63 -9.92)"/><path class="cls-2" d="M69.15,147.35a.85.85,0,0,1,0,1.7.85.85,0,1,1,0-1.7Zm.62,3.79v7.14H68.53v-7.14Z" transform="translate(-20.63 -9.92)"/><path class="cls-2" d="M75.38,152.15a1.71,1.71,0,0,0-1.82,1.79v4.34H72.32v-7.14h1.24v1.12A2.28,2.28,0,0,1,75.69,151c1.5,0,2.45,1.07,2.45,2.79v4.5H76.9v-4.34C76.9,152.76,76.37,152.15,75.38,152.15Z" transform="translate(-20.63 -9.92)"/><path class="cls-2" d="M81.31,147.35a.85.85,0,1,1-.85.85A.86.86,0,0,1,81.31,147.35Zm.62,3.79v7.14H80.69v-7.14Z" transform="translate(-20.63 -9.92)"/><path class="cls-2" d="M87.54,152.15a1.71,1.71,0,0,0-1.81,1.79v4.34H84.49v-7.14h1.24v1.12A2.27,2.27,0,0,1,87.85,151c1.51,0,2.45,1.07,2.45,2.79v4.5H89.06v-4.34C89.06,152.76,88.54,152.15,87.54,152.15Z" transform="translate(-20.63 -9.92)"/><path class="cls-2" d="M93.4,158.74a2.08,2.08,0,0,0,2.28,1.94,2.31,2.31,0,0,0,2.3-2.56v-1.07a2.72,2.72,0,0,1-2.44,1.38,3.73,3.73,0,0,1,0-7.44A2.74,2.74,0,0,1,98,152.37v-1.23h1.24v7a3.49,3.49,0,0,1-3.54,3.72c-2.09,0-3.53-1.25-3.53-3.1Zm2.3-1.47a2.56,2.56,0,1,0-2.44-2.56A2.4,2.4,0,0,0,95.7,157.27Z" transform="translate(-20.63 -9.92)"/><path class="cls-2" d="M105.11,147.42H112v1.24h-2.79v9.62H107.9v-9.62h-2.79Z" transform="translate(-20.63 -9.92)"/><path class="cls-2" d="M114.17,147.35a.85.85,0,1,1-.85.85A.86.86,0,0,1,114.17,147.35Zm.62,3.79v7.14h-1.24v-7.14Z" transform="translate(-20.63 -9.92)"/><path class="cls-2" d="M127.12,158.28h-1.24v-4.34c0-1.23-.44-1.79-1.37-1.79a1.6,1.6,0,0,0-1.66,1.79v4.34h-1.24v-4.34c0-1.23-.43-1.79-1.36-1.79a1.6,1.6,0,0,0-1.66,1.79v4.34h-1.24v-7.14h1.24v1a2.1,2.1,0,0,1,2-1.19,2.06,2.06,0,0,1,2.06,1.33,2.41,2.41,0,0,1,2.2-1.33c1.46,0,2.3,1,2.3,2.79Z" transform="translate(-20.63 -9.92)"/><path class="cls-2" d="M128.82,154.71a3.44,3.44,0,0,1,3.53-3.72c2.1,0,3.37,1.39,3.37,3.66,0,.15,0,.34,0,.37h-5.61a2.15,2.15,0,0,0,2.26,2.25,2.47,2.47,0,0,0,2.24-1.29l1,.64a3.7,3.7,0,0,1-3.39,1.81A3.4,3.4,0,0,1,128.82,154.71Zm1.32-.74h4.23a1.93,1.93,0,0,0-2-1.9A2.09,2.09,0,0,0,130.14,154Z" transform="translate(-20.63 -9.92)"/><path class="cls-2" d="M26.13,114.16a5.58,5.58,0,1,1-5.5,5.58A5.42,5.42,0,0,1,26.13,114.16Zm0,9.84a4.26,4.26,0,1,0-4.1-4.26A4.06,4.06,0,0,0,26.13,124Z" transform="translate(-20.63 -9.92)"/><path class="cls-2" d="M36.18,124.16A1.71,1.71,0,0,0,38,122.38V118h1.24v7.13H38v-1.12a2.29,2.29,0,0,1-2.12,1.27c-1.49,0-2.45-1.08-2.45-2.79V118h1.24v4.34C34.66,123.52,35.19,124.16,36.18,124.16Z" transform="translate(-20.63 -9.92)"/><path class="cls-2" d="M41.63,118v-2.48h1.24V118H44v1.16H42.87v6H41.63v-6H40.47V118Z" transform="translate(-20.63 -9.92)"/><path class="cls-2" d="M45.2,128.58V118h1.24v1.22a2.74,2.74,0,0,1,2.43-1.38,3.72,3.72,0,0,1,0,7.44,2.72,2.72,0,0,1-2.43-1.38v4.64ZM48.72,119a2.58,2.58,0,0,0,0,5.12,2.56,2.56,0,0,0,0-5.12Z" transform="translate(-20.63 -9.92)"/><path class="cls-2" d="M56.87,124.16a1.7,1.7,0,0,0,1.81-1.78V118h1.24v7.13H58.68v-1.12a2.28,2.28,0,0,1-2.12,1.27c-1.49,0-2.45-1.08-2.45-2.79V118h1.24v4.34C55.35,123.52,55.88,124.16,56.87,124.16Z" transform="translate(-20.63 -9.92)"/><path class="cls-2" d="M62.33,118v-2.48h1.24V118h1.16v1.16H63.57v6H62.33v-6H61.16V118Z" transform="translate(-20.63 -9.92)"/><path class="cls-2" d="M73.64,114.32c2.09,0,3.69,1.25,3.69,3.25a3.14,3.14,0,0,1-2.59,3.13L78,125.17H76.35l-3-4.34H72v4.34H70.7V114.32ZM72,115.48v4.18h1.63a2.11,2.11,0,1,0,0-4.18Z" transform="translate(-20.63 -9.92)"/><path class="cls-2" d="M78.68,121.6a3.44,3.44,0,0,1,3.53-3.72c2.1,0,3.37,1.4,3.37,3.66,0,.15,0,.34,0,.37H80a2.15,2.15,0,0,0,2.26,2.25,2.45,2.45,0,0,0,2.23-1.29l1,.64a3.7,3.7,0,0,1-3.39,1.81A3.4,3.4,0,0,1,78.68,121.6Zm1.32-.74h4.23a1.93,1.93,0,0,0-2-1.89A2.08,2.08,0,0,0,80,120.86Z" transform="translate(-20.63 -9.92)"/><path class="cls-2" d="M89.51,124.19c.7,0,1.13-.34,1.13-.9,0-.74-.82-1.08-1.64-1.39s-2-.89-2-2.14,1.15-1.88,2.31-1.88a3,3,0,0,1,2.58,1.4l-1,.63a2.17,2.17,0,0,0-1.74-.93c-.51,0-1,.22-1,.7s.73.9,1.49,1.21c1.24.51,2.25,1,2.25,2.26a2.23,2.23,0,0,1-2.45,2.17,3.14,3.14,0,0,1-2.85-1.73l1-.61A2.32,2.32,0,0,0,89.51,124.19Z" transform="translate(-20.63 -9.92)"/><path class="cls-2" d="M96.6,117.88a3.72,3.72,0,1,1-3.69,3.72A3.61,3.61,0,0,1,96.6,117.88Zm0,6.28a2.56,2.56,0,1,0-2.44-2.56A2.42,2.42,0,0,0,96.6,124.16Z" transform="translate(-20.63 -9.92)"/><path class="cls-2" d="M103.23,113.08v12.09H102V113.08Z" transform="translate(-20.63 -9.92)"/><path class="cls-2" d="M108.31,124.16a1.71,1.71,0,0,0,1.82-1.78V118h1.24v7.13h-1.24v-1.12a2.29,2.29,0,0,1-2.13,1.27c-1.48,0-2.45-1.08-2.45-2.79V118h1.24v4.34C106.79,123.52,107.32,124.16,108.31,124.16Z" transform="translate(-20.63 -9.92)"/><path class="cls-2" d="M113.77,118v-2.48H115V118h1.16v1.16H115v6h-1.24v-6h-1.16V118Z" transform="translate(-20.63 -9.92)"/><path class="cls-2" d="M118.27,114.24a.85.85,0,1,1-.86.85A.86.86,0,0,1,118.27,114.24Zm.62,3.8v7.13h-1.24V118Z" transform="translate(-20.63 -9.92)"/><path class="cls-2" d="M124.51,117.88a3.72,3.72,0,1,1-3.69,3.72A3.61,3.61,0,0,1,124.51,117.88Zm0,6.28a2.56,2.56,0,1,0-2.43-2.56A2.42,2.42,0,0,0,124.51,124.16Z" transform="translate(-20.63 -9.92)"/><path class="cls-2" d="M133,119a1.71,1.71,0,0,0-1.81,1.79v4.34H129.9V118h1.25v1.11a2.27,2.27,0,0,1,2.12-1.27c1.5,0,2.45,1.07,2.45,2.79v4.5h-1.24v-4.34C134.48,119.65,134,119,133,119Z" transform="translate(-20.63 -9.92)"/><path class="cls-2" d="M30.3,81.83V92.68H29V81.83Z" transform="translate(-20.63 -9.92)"/><path class="cls-2" d="M32.78,85.55V83.07H34v2.48h1.17v1.16H34v6H32.78v-6H31.62V85.55Z" transform="translate(-20.63 -9.92)"/><path class="cls-2" d="M35.81,89.11a3.44,3.44,0,0,1,3.53-3.72c2.09,0,3.36,1.4,3.36,3.66,0,.16,0,.34,0,.37H37.08a2.15,2.15,0,0,0,2.26,2.25,2.45,2.45,0,0,0,2.23-1.29l1,.64a3.71,3.71,0,0,1-3.39,1.81A3.4,3.4,0,0,1,35.81,89.11Zm1.31-.74h4.24a1.93,1.93,0,0,0-2-1.89A2.1,2.1,0,0,0,37.12,88.37Z" transform="translate(-20.63 -9.92)"/><path class="cls-2" d="M46.84,86.56c-.93,0-1.19.75-1.19,1.78v4.34H44.41V85.55h1.24v.82a1.94,1.94,0,0,1,1.5-1,1.74,1.74,0,0,1,1.34.5l-.69,1A1.39,1.39,0,0,0,46.84,86.56Z" transform="translate(-20.63 -9.92)"/><path class="cls-2" d="M49.49,86.28a4.77,4.77,0,0,1,2.81-.89c1.66,0,2.79.79,2.79,2.17v5.12H53.85v-1a2.8,2.8,0,0,1-2.36,1.11A2.28,2.28,0,0,1,49,90.54c0-1.38,1-2.29,2.79-2.29a3.82,3.82,0,0,1,2,.52v-1c0-1-.73-1.25-1.61-1.25a3.52,3.52,0,0,0-2.14.71Zm2.33,5.48a1.89,1.89,0,0,0,2-1.87v-.26A4.06,4.06,0,0,0,52,89.22c-1.21,0-1.74.48-1.74,1.26S50.9,91.76,51.82,91.76Z" transform="translate(-20.63 -9.92)"/><path class="cls-2" d="M57.26,85.55V83.07H58.5v2.48h1.16v1.16H58.5v6H57.26v-6H56.1V85.55Z" transform="translate(-20.63 -9.92)"/><path class="cls-2" d="M61.75,81.75a.86.86,0,1,1-.85.85A.86.86,0,0,1,61.75,81.75Zm.62,3.8v7.13H61.13V85.55Z" transform="translate(-20.63 -9.92)"/><path class="cls-2" d="M68,85.39a3.72,3.72,0,1,1-3.69,3.72A3.61,3.61,0,0,1,68,85.39Zm0,6.28a2.56,2.56,0,1,0-2.43-2.56A2.42,2.42,0,0,0,68,91.67Z" transform="translate(-20.63 -9.92)"/><path class="cls-2" d="M76.45,86.56a1.71,1.71,0,0,0-1.82,1.78v4.34H73.39V85.55h1.24v1.11a2.3,2.3,0,0,1,2.13-1.27c1.5,0,2.45,1.07,2.45,2.79v4.5H78V88.34C78,87.16,77.44,86.56,76.45,86.56Z" transform="translate(-20.63 -9.92)"/><path class="cls-2" d="M92.32,89.42H88l-1.38,3.26H85.09l5-11.4,5,11.4H93.7Zm-3.85-1.24h3.32l-1.66-3.9Z" transform="translate(-20.63 -9.92)"/><path class="cls-2" d="M106.18,92.68h-1.24V88.34c0-1.23-.44-1.78-1.37-1.78a1.59,1.59,0,0,0-1.66,1.78v4.34h-1.24V88.34c0-1.23-.43-1.78-1.36-1.78a1.59,1.59,0,0,0-1.66,1.78v4.34H96.41V85.55h1.24v1a2.09,2.09,0,0,1,2-1.2,2.06,2.06,0,0,1,2.06,1.34,2.4,2.4,0,0,1,2.2-1.34c1.46,0,2.3,1,2.3,2.79Z" transform="translate(-20.63 -9.92)"/><path class="cls-2" d="M111.57,85.39a3.72,3.72,0,1,1-3.69,3.72A3.61,3.61,0,0,1,111.57,85.39Zm0,6.28a2.56,2.56,0,1,0-2.43-2.56A2.42,2.42,0,0,0,111.57,91.67Z" transform="translate(-20.63 -9.92)"/><path class="cls-2" d="M119.72,91.67a1.71,1.71,0,0,0,1.82-1.78V85.55h1.24v7.13h-1.24V91.56a2.28,2.28,0,0,1-2.13,1.27c-1.49,0-2.45-1.08-2.45-2.79V85.55h1.24v4.34C118.2,91,118.73,91.67,119.72,91.67Z" transform="translate(-20.63 -9.92)"/><path class="cls-2" d="M128.15,86.56a1.7,1.7,0,0,0-1.81,1.78v4.34H125.1V85.55h1.24v1.11a2.28,2.28,0,0,1,2.12-1.27c1.51,0,2.45,1.07,2.45,2.79v4.5h-1.24V88.34C129.67,87.16,129.15,86.56,128.15,86.56Z" transform="translate(-20.63 -9.92)"/><path class="cls-2" d="M133.31,85.55V83.07h1.25v2.48h1.16v1.16h-1.16v6h-1.25v-6h-1.16V85.55Z" transform="translate(-20.63 -9.92)"/><path class="cls-2" d="M58.33,58.72V47.87h3.25a5.43,5.43,0,1,1,0,10.85Zm1.32-9.54V57.4h1.93a4.11,4.11,0,0,0,0-8.22Z" transform="translate(-20.63 -9.92)"/><path class="cls-2" d="M68.56,52.32a4.76,4.76,0,0,1,2.8-.89c1.66,0,2.79.79,2.79,2.17v5.12H72.91v-1a2.77,2.77,0,0,1-2.35,1.11,2.29,2.29,0,0,1-2.47-2.29c0-1.38,1-2.3,2.79-2.3a3.79,3.79,0,0,1,2,.53v-1c0-1-.72-1.25-1.61-1.25a3.54,3.54,0,0,0-2.14.71Zm2.32,5.48a1.89,1.89,0,0,0,2-1.87v-.27a4.15,4.15,0,0,0-1.83-.4c-1.2,0-1.73.48-1.73,1.26S70,57.8,70.88,57.8Z" transform="translate(-20.63 -9.92)"/><path class="cls-2" d="M76.32,51.59V49.11h1.24v2.48h1.17v1.16H77.56v6H76.32v-6H75.16V51.59Z" transform="translate(-20.63 -9.92)"/><path class="cls-2" d="M79.73,52.32a4.77,4.77,0,0,1,2.81-.89c1.66,0,2.79.79,2.79,2.17v5.12H84.09v-1a2.8,2.8,0,0,1-2.36,1.11,2.28,2.28,0,0,1-2.46-2.29c0-1.38,1-2.3,2.79-2.3a3.81,3.81,0,0,1,2,.53v-1c0-1-.73-1.25-1.61-1.25a3.52,3.52,0,0,0-2.14.71Zm2.33,5.48a1.89,1.89,0,0,0,2-1.87v-.27a4.15,4.15,0,0,0-1.83-.4c-1.21,0-1.74.48-1.74,1.26S81.14,57.8,82.06,57.8Z" transform="translate(-20.63 -9.92)"/><path class="cls-2" d="M89.65,57.74c.7,0,1.13-.34,1.13-.9,0-.74-.82-1.08-1.64-1.39s-2-.89-2-2.14,1.15-1.88,2.31-1.88A3,3,0,0,1,92,52.83l-1,.63a2.2,2.2,0,0,0-1.74-.93c-.51,0-1,.22-1,.7s.73.9,1.49,1.21C91,55,92,55.43,92,56.7a2.23,2.23,0,0,1-2.45,2.17,3.14,3.14,0,0,1-2.85-1.73l1-.61A2.32,2.32,0,0,0,89.65,57.74Z" transform="translate(-20.63 -9.92)"/><path class="cls-2" d="M93.05,55.15a3.44,3.44,0,0,1,3.53-3.72c2.09,0,3.37,1.4,3.37,3.66,0,.16,0,.34,0,.37H94.32a2.15,2.15,0,0,0,2.26,2.25,2.45,2.45,0,0,0,2.23-1.29l1,.64a3.7,3.7,0,0,1-3.39,1.81A3.4,3.4,0,0,1,93.05,55.15Zm1.31-.74H98.6a1.93,1.93,0,0,0-2-1.89A2.1,2.1,0,0,0,94.36,54.41Z" transform="translate(-20.63 -9.92)"/><path class="cls-2" d="M101.73,51.59V49.11H103v2.48h1.16v1.16H103v6h-1.24v-6h-1.17V51.59Z" transform="translate(-20.63 -9.92)"/><path class="cls-2" d="M113.37,57.63a1.73,1.73,0,0,0,1.92-1.7c0-1.46-1.16-1.91-2.4-2.36s-2.87-1.08-2.87-3a2.89,2.89,0,0,1,3.15-2.81A3.74,3.74,0,0,1,116.56,50l-1.13.65A2.6,2.6,0,0,0,113.09,49c-1.18,0-1.69.68-1.69,1.38,0,.91.6,1.55,2.51,2.2a3.48,3.48,0,0,1,2.74,3.22,3.18,3.18,0,0,1-3.33,3.1,4.51,4.51,0,0,1-3.88-2.72l1.06-.72C111.23,56.75,112.06,57.63,113.37,57.63Z" transform="translate(-20.63 -9.92)"/><path class="cls-2" d="M119.36,47.79a.85.85,0,1,1,0,1.7.85.85,0,1,1,0-1.7Zm.62,3.8v7.13h-1.24V51.59Z" transform="translate(-20.63 -9.92)"/><path class="cls-2" d="M122.08,52.75V51.59h6.2l-4.42,6H128v1.16h-6.36l4.42-6Z" transform="translate(-20.63 -9.92)"/><path class="cls-2" d="M128.82,55.15a3.45,3.45,0,0,1,3.53-3.72c2.1,0,3.37,1.4,3.37,3.66,0,.16,0,.34,0,.37h-5.61a2.15,2.15,0,0,0,2.26,2.25,2.47,2.47,0,0,0,2.24-1.29l1,.64a3.7,3.7,0,0,1-3.39,1.81A3.4,3.4,0,0,1,128.82,55.15Zm1.32-.74h4.23a1.92,1.92,0,0,0-2-1.89A2.08,2.08,0,0,0,130.14,54.41Z" transform="translate(-20.63 -9.92)"/><path class="cls-2" d="M79.79,20.53H75.42L74,23.79H72.57l5-11.4,5,11.4H81.17ZM76,19.29h3.32l-1.66-3.9Z" transform="translate(-20.63 -9.92)"/><path class="cls-2" d="M85.13,11.7V23.79H83.89V11.7Z" transform="translate(-20.63 -9.92)"/><path class="cls-2" d="M88.23,24.25a2.07,2.07,0,0,0,2.27,1.94,2.31,2.31,0,0,0,2.3-2.56V22.56a2.72,2.72,0,0,1-2.44,1.38,3.49,3.49,0,0,1-3.53-3.72,3.49,3.49,0,0,1,3.53-3.72,2.74,2.74,0,0,1,2.44,1.38V16.66H94v7a3.48,3.48,0,0,1-3.54,3.72c-2.09,0-3.53-1.25-3.53-3.1Zm2.29-1.47a2.39,2.39,0,0,0,2.28-2.56,2.36,2.36,0,1,0-4.71,0A2.37,2.37,0,0,0,90.52,22.78Z" transform="translate(-20.63 -9.92)"/><path class="cls-2" d="M99.36,16.5A3.61,3.61,0,0,1,103,20.22a3.69,3.69,0,1,1-7.38,0A3.62,3.62,0,0,1,99.36,16.5Zm0,6.28a2.42,2.42,0,0,0,2.43-2.56,2.44,2.44,0,1,0-4.87,0A2.42,2.42,0,0,0,99.36,22.78Z" transform="translate(-20.63 -9.92)"/><path class="cls-2" d="M107.18,17.67c-.93,0-1.19.75-1.19,1.78v4.34h-1.24V16.66H106v.82a1.92,1.92,0,0,1,1.5-1,1.7,1.7,0,0,1,1.33.5l-.68,1A1.41,1.41,0,0,0,107.18,17.67Z" transform="translate(-20.63 -9.92)"/><path class="cls-2" d="M110.92,12.86a.85.85,0,1,1-.86.85A.86.86,0,0,1,110.92,12.86Zm.62,3.8v7.13H110.3V16.66Z" transform="translate(-20.63 -9.92)"/><path class="cls-2" d="M114.17,16.66V14.18h1.24v2.48h1.16v1.16h-1.16v6h-1.24v-6H113V16.66Z" transform="translate(-20.63 -9.92)"/><path class="cls-2" d="M120.87,17.67a1.72,1.72,0,0,0-1.82,1.78v4.34h-1.24V11.7h1.24v6.09a2.4,2.4,0,0,1,2.13-1.29c1.47,0,2.45.95,2.45,2.79v4.5h-1.24V19.45C122.39,18.27,121.88,17.67,120.87,17.67Z" transform="translate(-20.63 -9.92)"/><path class="cls-2" d="M135.72,23.79h-1.24V19.45c0-1.23-.44-1.78-1.37-1.78a1.59,1.59,0,0,0-1.66,1.78v4.34h-1.24V19.45c0-1.23-.43-1.78-1.36-1.78a1.59,1.59,0,0,0-1.66,1.78v4.34H126V16.66h1.24v1a2.1,2.1,0,0,1,2-1.2,2.06,2.06,0,0,1,2.06,1.34,2.4,2.4,0,0,1,2.2-1.34c1.46,0,2.3,1,2.3,2.79Z" transform="translate(-20.63 -9.92)"/><path class="cls-2" d="M150.29,23.18a1.39,1.39,0,0,0,1.55-1.37c0-1.18-.94-1.54-1.94-1.9s-2.31-.88-2.31-2.47a2.33,2.33,0,0,1,2.54-2.26A3,3,0,0,1,152.86,17l-.91.52a2.09,2.09,0,0,0-1.89-1.34c-.95,0-1.36.54-1.36,1.11,0,.73.49,1.25,2,1.77a2.82,2.82,0,0,1,2.21,2.6,2.56,2.56,0,0,1-2.69,2.5,3.64,3.64,0,0,1-3.12-2.2l.85-.57C148.56,22.47,149.24,23.18,150.29,23.18Z" transform="translate(-20.63 -9.92)"/><path class="cls-2" d="M159.39,21.43h-3.53l-1.11,2.63h-1.19l4.07-9.19,4.06,9.19H160.5Zm-3.1-1H159l-1.33-3.15Z" transform="translate(-20.63 -9.92)"/><path class="cls-2" d="M167.75,15.31v1h-3.94v2.5h3.69v1h-3.69v3.25h3.94v1h-5V15.31Z" transform="translate(-20.63 -9.92)"/><path class="cls-2" d="M170.69,15.31v3.5h4.81v-3.5h1.06v8.75H175.5V19.81h-4.81v4.25h-1.06V15.31Z" transform="translate(-20.63 -9.92)"/><path class="cls-2" d="M178.56,24.06V15.31h2.63a4.17,4.17,0,0,1,4.37,4.37,4.18,4.18,0,0,1-4.37,4.38Zm1.07-7.69V23h1.56a3.11,3.11,0,0,0,3.31-3.31,3.11,3.11,0,0,0-3.31-3.31Z" transform="translate(-20.63 -9.92)"/><rect class="cls-3" x="122.67" y="0.5" width="46.09" height="18.21"/><rect class="cls-4" x="176.74" y="0.46" width="32.75" height="18.28"/><path class="cls-2" d="M201.4,15.16v3.5h4.81v-3.5h1.06v8.75h-1.06V19.66H201.4v4.25h-1.06V15.16Z" transform="translate(-20.63 -9.92)"/><path class="cls-2" d="M209.28,15.78l3-.75v8.88h-1.06v-7.6l-1.93.57Z" transform="translate(-20.63 -9.92)"/><path class="cls-2" d="M218.29,19.49a2.79,2.79,0,0,0,.91-1.91A1.61,1.61,0,0,0,217.51,16c-1.12,0-1.8.81-1.8,2.14h-1.06c0-1.87,1-3.14,2.86-3.14a2.62,2.62,0,0,1,2.78,2.52,3.78,3.78,0,0,1-1.17,2.53l-2.78,2.84h4v1h-6.17Z" transform="translate(-20.63 -9.92)"/><path class="cls-2" d="M223.25,19.24a2,2,0,0,1-1.24-2,2.42,2.42,0,0,1,4.83,0,2,2,0,0,1-1.24,2,2.37,2.37,0,0,1,1.55,2.29,2.74,2.74,0,0,1-5.45,0A2.37,2.37,0,0,1,223.25,19.24Zm1.17,3.85a1.65,1.65,0,0,0,1.72-1.68,1.72,1.72,0,0,0-3.43,0A1.65,1.65,0,0,0,224.42,23.09Zm0-4.31a1.41,1.41,0,1,0-1.4-1.39A1.37,1.37,0,0,0,224.42,18.78Z" transform="translate(-20.63 -9.92)"/><path class="cls-5" d="M277,13c2.1,0,3.69,1.26,3.69,3.26s-1.59,3.26-3.69,3.26h-1.62v4.34H274V13Zm-1.62,1.24v4H277c1.4,0,2.38-.69,2.38-2s-1-2-2.38-2Z" transform="translate(-20.63 -9.92)"/><path class="cls-5" d="M284.58,17.74c-.93,0-1.19.76-1.19,1.79v4.34h-1.24V16.73h1.24v.83a1.92,1.92,0,0,1,1.5-1,1.7,1.7,0,0,1,1.33.5l-.68,1A1.42,1.42,0,0,0,284.58,17.74Z" transform="translate(-20.63 -9.92)"/><path class="cls-5" d="M290.3,16.58A3.61,3.61,0,0,1,294,20.3a3.69,3.69,0,1,1-7.38,0A3.61,3.61,0,0,1,290.3,16.58Zm0,6.28a2.42,2.42,0,0,0,2.43-2.56,2.44,2.44,0,1,0-4.87,0A2.42,2.42,0,0,0,290.3,22.86Z" transform="translate(-20.63 -9.92)"/><path class="cls-5" d="M295,26c.52,0,.74-.41.74-1.4V16.73H297V24.8c0,1.56-.76,2.48-2.06,2.48a1.57,1.57,0,0,1-1.37-.62l.69-1A.87.87,0,0,0,295,26ZM296.33,13a.84.84,0,1,1-.84.84A.84.84,0,0,1,296.33,13Z" transform="translate(-20.63 -9.92)"/><path class="cls-5" d="M299,20.3a3.44,3.44,0,0,1,3.53-3.72c2.09,0,3.37,1.4,3.37,3.66,0,.15,0,.34,0,.37h-5.61a2.15,2.15,0,0,0,2.26,2.25,2.45,2.45,0,0,0,2.23-1.29l1,.64A3.7,3.7,0,0,1,302.33,24,3.4,3.4,0,0,1,299,20.3Zm1.31-.74h4.24a1.93,1.93,0,0,0-2-1.89A2.1,2.1,0,0,0,300.26,19.56Z" transform="translate(-20.63 -9.92)"/><path class="cls-5" d="M310.54,22.86a2.78,2.78,0,0,0,2.48-1.3v1.55a3.34,3.34,0,0,1-2.48.91,3.61,3.61,0,0,1-3.69-3.72,3.61,3.61,0,0,1,3.69-3.72,3.42,3.42,0,0,1,2.48.91V19a2.78,2.78,0,0,0-2.48-1.3,2.42,2.42,0,0,0-2.43,2.56A2.42,2.42,0,0,0,310.54,22.86Z" transform="translate(-20.63 -9.92)"/><path class="cls-5" d="M315,16.73V14.25h1.24v2.48h1.16V17.9h-1.16v6H315v-6h-1.17V16.73Z" transform="translate(-20.63 -9.92)"/><path class="cls-5" d="M326.35,13c2.09,0,3.69,1.26,3.69,3.26a3.14,3.14,0,0,1-2.59,3.13l3.24,4.47h-1.63l-3-4.34h-1.32v4.34h-1.31V13Zm-1.63,1.17v4.18h1.63a2.11,2.11,0,1,0,0-4.18Z" transform="translate(-20.63 -9.92)"/><path class="cls-5" d="M331.39,20.3a3.44,3.44,0,0,1,3.53-3.72c2.1,0,3.37,1.4,3.37,3.66,0,.15,0,.34,0,.37h-5.61a2.15,2.15,0,0,0,2.26,2.25,2.48,2.48,0,0,0,2.24-1.29l1,.64A3.7,3.7,0,0,1,334.77,24,3.4,3.4,0,0,1,331.39,20.3Zm1.32-.74h4.23a1.92,1.92,0,0,0-2-1.89A2.08,2.08,0,0,0,332.71,19.56Z" transform="translate(-20.63 -9.92)"/><path class="cls-5" d="M339.76,17.46a4.83,4.83,0,0,1,2.8-.88c1.66,0,2.79.79,2.79,2.17v5.12h-1.24v-1A2.8,2.8,0,0,1,341.76,24a2.3,2.3,0,0,1-2.47-2.29c0-1.38,1-2.3,2.79-2.3a3.76,3.76,0,0,1,2,.53v-1c0-1-.72-1.25-1.61-1.25a3.54,3.54,0,0,0-2.14.71ZM342.08,23a1.88,1.88,0,0,0,2-1.87v-.27a4,4,0,0,0-1.82-.4c-1.21,0-1.74.48-1.74,1.26S341.17,23,342.08,23Z" transform="translate(-20.63 -9.92)"/><path class="cls-5" d="M350.44,22.86a2.81,2.81,0,0,0,2.48-1.3v1.55a3.35,3.35,0,0,1-2.48.91,3.6,3.6,0,0,1-3.69-3.72,3.61,3.61,0,0,1,3.69-3.72,3.44,3.44,0,0,1,2.48.91V19a2.81,2.81,0,0,0-2.48-1.3A2.42,2.42,0,0,0,348,20.3,2.42,2.42,0,0,0,350.44,22.86Z" transform="translate(-20.63 -9.92)"/><path class="cls-5" d="M357.91,17.74a1.72,1.72,0,0,0-1.81,1.79v4.34h-1.24V11.77h1.24v6.1a2.37,2.37,0,0,1,2.12-1.29c1.47,0,2.45,1,2.45,2.79v4.5h-1.24V19.53C359.43,18.35,358.92,17.74,357.91,17.74Z" transform="translate(-20.63 -9.92)"/><path class="cls-6" d="M279.17,154a3.46,3.46,0,0,0,1.13-2.37,2,2,0,0,0-2.09-1.94c-1.4,0-2.23,1-2.23,2.66h-1.32c0-2.31,1.3-3.9,3.55-3.9a3.25,3.25,0,0,1,3.44,3.14,4.69,4.69,0,0,1-1.44,3.13l-3.46,3.52h4.95v1.24H274Z" transform="translate(-20.63 -9.92)"/><path class="cls-6" d="M288.87,148.63h.55v7.51h1.7v1.17h-1.7v2.17H288.1v-2.17h-5.24Zm-.77,7.51v-4.58L285,156.14Z" transform="translate(-20.63 -9.92)"/><path class="cls-7" d="M299.34,148.63l-6.28,13.17h-1.24l6.28-13.17Z" transform="translate(-20.63 -9.92)"/><path class="cls-7" d="M305.89,148.63h.54v7.51h1.71v1.17h-1.71v2.17h-1.31v-2.17h-5.24Zm-.77,7.51v-4.58l-3.07,4.58Z" transform="translate(-20.63 -9.92)"/><path class="cls-7" d="M313.25,148.47c2.39,0,4,2.34,4,5.58s-1.65,5.58-4,5.58-4-2.34-4-5.58S310.87,148.47,313.25,148.47Zm0,9.92c1.68,0,2.72-1.81,2.72-4.34s-1-4.34-2.72-4.34-2.71,1.81-2.71,4.34S311.58,158.39,313.25,158.39Z" transform="translate(-20.63 -9.92)"/><path class="cls-5" d="M325.65,148.63l-6.27,13.17h-1.24l6.27-13.17Z" transform="translate(-20.63 -9.92)"/><path class="cls-5" d="M332.66,148.63l-3.05,4a2.25,2.25,0,0,1,1.22-.27,3.34,3.34,0,0,1,3.21,3.52,3.69,3.69,0,1,1-7.38,0,3.85,3.85,0,0,1,.68-2.25l3.66-5Zm-2.31,9.81a2.39,2.39,0,0,0,2.43-2.53,2.43,2.43,0,1,0-2.43,2.53Z" transform="translate(-20.63 -9.92)"/><path class="cls-5" d="M335.74,156.61h1.34a1.91,1.91,0,0,0,2.12,1.78,1.86,1.86,0,0,0,2-1.94c0-1.33-1.1-2-2.49-2v-1.16a2,2,0,0,0,2.18-1.88,1.56,1.56,0,0,0-1.64-1.74,1.73,1.73,0,0,0-1.82,1.66h-1.25a2.83,2.83,0,0,1,3.05-2.85,2.86,2.86,0,0,1,3,2.88,2.72,2.72,0,0,1-1.84,2.47,2.72,2.72,0,0,1,2.15,2.79,3.07,3.07,0,0,1-3.38,3C337.11,159.63,335.74,158.3,335.74,156.61Z" transform="translate(-20.63 -9.92)"/><path class="cls-5" d="M352.14,153.35a1.73,1.73,0,0,0-1.81,1.79v4.34h-1.24V147.39h1.24v6.09a2.37,2.37,0,0,1,2.12-1.29c1.48,0,2.45.95,2.45,2.79v4.5h-1.24v-4.34C353.66,154,353.15,153.35,352.14,153.35Z" transform="translate(-20.63 -9.92)"/><path class="cls-5" d="M360.3,152.19a3.72,3.72,0,1,1-3.69,3.72A3.61,3.61,0,0,1,360.3,152.19Zm0,6.28a2.56,2.56,0,1,0-2.44-2.56A2.42,2.42,0,0,0,360.3,158.47Z" transform="translate(-20.63 -9.92)"/><path class="cls-5" d="M368.45,158.47a1.71,1.71,0,0,0,1.81-1.78v-4.34h1.24v7.13h-1.24v-1.12a2.29,2.29,0,0,1-2.12,1.27c-1.49,0-2.45-1.08-2.45-2.79v-4.49h1.24v4.34C366.93,157.83,367.46,158.47,368.45,158.47Z" transform="translate(-20.63 -9.92)"/><path class="cls-5" d="M376.26,153.35c-.93,0-1.19.76-1.19,1.79v4.34h-1.24v-7.13h1.24v.82a1.92,1.92,0,0,1,1.5-1,1.7,1.7,0,0,1,1.33.5l-.68,1A1.42,1.42,0,0,0,376.26,153.35Z" transform="translate(-20.63 -9.92)"/><path class="cls-5" d="M381.38,158.5c.69,0,1.13-.34,1.13-.9,0-.74-.82-1.08-1.65-1.39s-2-.89-2-2.14,1.14-1.88,2.31-1.88a3,3,0,0,1,2.57,1.4l-1,.63a2.15,2.15,0,0,0-1.74-.93c-.51,0-.94.22-.94.7s.73.9,1.49,1.21c1.24.51,2.24,1,2.24,2.26a2.23,2.23,0,0,1-2.45,2.17,3.15,3.15,0,0,1-2.85-1.73l1-.61A2.3,2.3,0,0,0,381.38,158.5Z" transform="translate(-20.63 -9.92)"/><path class="cls-6" d="M274,114.56l3.72-.93v11h-1.32v-9.42l-2.4.71Z" transform="translate(-20.63 -9.92)"/><path class="cls-6" d="M285.21,119.16a3.43,3.43,0,0,0,1.14-2.37,2,2,0,0,0-2.1-1.94c-1.39,0-2.23,1-2.23,2.65H280.7c0-2.31,1.31-3.89,3.55-3.89a3.26,3.26,0,0,1,3.45,3.13,4.64,4.64,0,0,1-1.45,3.13l-3.45,3.52h4.94v1.24h-7.66Z" transform="translate(-20.63 -9.92)"/><path class="cls-6" d="M291.37,118.85a2.53,2.53,0,0,1-1.54-2.45,3,3,0,0,1,6,0,2.53,2.53,0,0,1-1.54,2.45,2.94,2.94,0,0,1,1.93,2.84,3.39,3.39,0,0,1-6.76,0A2.93,2.93,0,0,1,291.37,118.85Zm1.46,4.77a2.05,2.05,0,0,0,2.12-2.09,2.13,2.13,0,0,0-4.25,0A2.05,2.05,0,0,0,292.83,123.62Zm0-5.34a1.75,1.75,0,1,0-1.74-1.72A1.7,1.7,0,0,0,292.83,118.28Z" transform="translate(-20.63 -9.92)"/><path class="cls-7" d="M304.57,113.78,298.3,127h-1.24l6.27-13.18Z" transform="translate(-20.63 -9.92)"/><path class="cls-7" d="M306.05,114.56l3.72-.93v11h-1.32v-9.42l-2.4.71Z" transform="translate(-20.63 -9.92)"/><path class="cls-7" d="M317.22,119.16a3.42,3.42,0,0,0,1.13-2.37,2,2,0,0,0-2.09-1.94c-1.39,0-2.23,1-2.23,2.65h-1.32c0-2.31,1.3-3.89,3.55-3.89a3.25,3.25,0,0,1,3.44,3.13,4.67,4.67,0,0,1-1.44,3.13l-3.46,3.52h4.95v1.24h-7.66Z" transform="translate(-20.63 -9.92)"/><path class="cls-7" d="M323.37,118.85a2.54,2.54,0,0,1-1.53-2.45,3,3,0,0,1,6,0,2.53,2.53,0,0,1-1.53,2.45,2.93,2.93,0,0,1,1.92,2.84,3.39,3.39,0,0,1-6.76,0A2.93,2.93,0,0,1,323.37,118.85Zm1.46,4.77a2.05,2.05,0,0,0,2.13-2.09,2.13,2.13,0,0,0-4.25,0A2.05,2.05,0,0,0,324.83,123.62Zm0-5.34a1.75,1.75,0,0,0,0-3.49,1.75,1.75,0,0,0,0,3.49Z" transform="translate(-20.63 -9.92)"/><path class="cls-7" d="M334.8,128V117.5H336v1.23a2.72,2.72,0,0,1,2.43-1.38,3.72,3.72,0,0,1,0,7.44,2.74,2.74,0,0,1-2.43-1.38V128Zm3.52-9.53a2.56,2.56,0,1,0,2.43,2.56A2.39,2.39,0,0,0,338.32,118.51Z" transform="translate(-20.63 -9.92)"/><path class="cls-7" d="M348.67,117.5,346.24,121l2.59,3.67h-1.4l-1.86-2.7-1.86,2.7h-1.4L344.9,121l-2.43-3.46h1.4l1.7,2.48,1.71-2.48Z" transform="translate(-20.63 -9.92)"/><path class="cls-6" d="M277.74,49.79a3.78,3.78,0,0,1-3.49-2l1-.69a3,3,0,0,0,2.48,1.62,2.05,2.05,0,0,0,2.2-2.24,2.13,2.13,0,0,0-2.2-2.24,3.76,3.76,0,0,0-2.51.88l1.29-5.22h4.62v1h-3.7l-.66,2.59a3.21,3.21,0,0,1,1.46-.36,3,3,0,0,1,2.93,3.3A3.18,3.18,0,0,1,277.74,49.79Z" transform="translate(-20.63 -9.92)"/><path class="cls-6" d="M285.93,39.71c2.15,0,3.64,2.11,3.64,5s-1.49,5-3.64,5-3.64-2.11-3.64-5S283.77,39.71,285.93,39.71Zm0,9c1.51,0,2.45-1.64,2.45-3.92s-.94-3.92-2.45-3.92-2.45,1.64-2.45,3.92S284.41,48.67,285.93,48.67Z" transform="translate(-20.63 -9.92)"/><path class="cls-6" d="M294.33,39.71c2.15,0,3.64,2.11,3.64,5s-1.49,5-3.64,5-3.64-2.11-3.64-5S292.17,39.71,294.33,39.71Zm0,9c1.51,0,2.45-1.64,2.45-3.92s-.94-3.92-2.45-3.92-2.45,1.64-2.45,3.92S292.81,48.67,294.33,48.67Z" transform="translate(-20.63 -9.92)"/><path class="cls-7" d="M305.53,39.85l-5.67,11.9h-1.13l5.68-11.9Z" transform="translate(-20.63 -9.92)"/><path class="cls-7" d="M309.64,49.79a3.77,3.77,0,0,1-3.48-2l1-.69a3,3,0,0,0,2.48,1.62,2.05,2.05,0,0,0,2.2-2.24,2.13,2.13,0,0,0-2.2-2.24,3.74,3.74,0,0,0-2.5.88l1.28-5.22h4.63v1h-3.7l-.66,2.59a3.18,3.18,0,0,1,1.46-.36,3,3,0,0,1,2.92,3.3A3.18,3.18,0,0,1,309.64,49.79Z" transform="translate(-20.63 -9.92)"/><path class="cls-7" d="M317.83,39.71c2.16,0,3.65,2.11,3.65,5s-1.49,5-3.65,5-3.64-2.11-3.64-5S315.68,39.71,317.83,39.71Zm0,9c1.52,0,2.45-1.64,2.45-3.92s-.93-3.92-2.45-3.92-2.45,1.64-2.45,3.92S316.32,48.67,317.83,48.67Z" transform="translate(-20.63 -9.92)"/><path class="cls-7" d="M326.23,39.71c2.16,0,3.64,2.11,3.64,5s-1.48,5-3.64,5-3.64-2.11-3.64-5S324.08,39.71,326.23,39.71Zm0,9c1.52,0,2.45-1.64,2.45-3.92s-.93-3.92-2.45-3.92-2.45,1.64-2.45,3.92S324.72,48.67,326.23,48.67Z" transform="translate(-20.63 -9.92)"/><path class="cls-5" d="M280.83,53.85l-5.67,11.9H274l5.67-11.9Z" transform="translate(-20.63 -9.92)"/><path class="cls-5" d="M286,58.71a3.14,3.14,0,0,0,1-2.14,1.8,1.8,0,0,0-1.89-1.75c-1.26,0-2,.91-2,2.39h-1.19c0-2.09,1.18-3.52,3.21-3.52a3,3,0,0,1,3.11,2.83,4.22,4.22,0,0,1-1.31,2.83l-3.12,3.18h4.47v1.12h-6.92Z" transform="translate(-20.63 -9.92)"/><path class="cls-5" d="M293.21,53.71c2.15,0,3.64,2.11,3.64,5s-1.49,5-3.64,5-3.65-2.11-3.65-5S291.05,53.71,293.21,53.71Zm0,9c1.51,0,2.45-1.64,2.45-3.92s-.94-3.92-2.45-3.92-2.45,1.64-2.45,3.92S291.69,62.67,293.21,62.67Z" transform="translate(-20.63 -9.92)"/><path class="cls-5" d="M301.61,53.71c2.15,0,3.64,2.11,3.64,5s-1.49,5-3.64,5-3.64-2.11-3.64-5S299.45,53.71,301.61,53.71Zm0,9c1.51,0,2.45-1.64,2.45-3.92s-.94-3.92-2.45-3.92-2.45,1.64-2.45,3.92S300.09,62.67,301.61,62.67Z" transform="translate(-20.63 -9.92)"/><path class="cls-5" d="M310,53.71c2.15,0,3.64,2.11,3.64,5s-1.49,5-3.64,5-3.65-2.11-3.65-5S307.85,53.71,310,53.71Zm0,9c1.51,0,2.45-1.64,2.45-3.92s-.94-3.92-2.45-3.92-2.45,1.64-2.45,3.92S308.49,62.67,310,62.67Z" transform="translate(-20.63 -9.92)"/><path class="cls-5" d="M320.23,53.78a.77.77,0,1,1-.77.77A.78.78,0,0,1,320.23,53.78Zm.56,3.43v6.44h-1.12V57.21Z" transform="translate(-20.63 -9.92)"/><path class="cls-5" d="M331.92,63.65H330.8V59.73c0-1.1-.39-1.61-1.23-1.61a1.43,1.43,0,0,0-1.5,1.61v3.92H327V59.73c0-1.1-.4-1.61-1.24-1.61a1.43,1.43,0,0,0-1.49,1.61v3.92H323.1V57.21h1.12v.94a2,2,0,0,1,3.64.13,2.17,2.17,0,0,1,2-1.21c1.31,0,2.07.93,2.07,2.52Z" transform="translate(-20.63 -9.92)"/><path class="cls-5" d="M333.8,57.87a4.34,4.34,0,0,1,2.54-.8c1.5,0,2.52.72,2.52,2v4.62h-1.12v-.86a2.53,2.53,0,0,1-2.13,1,2.07,2.07,0,0,1-2.23-2.07c0-1.25.94-2.07,2.53-2.07a3.48,3.48,0,0,1,1.83.47v-.93c0-.89-.66-1.14-1.46-1.14a3.15,3.15,0,0,0-1.93.65Zm2.11,5a1.71,1.71,0,0,0,1.83-1.7V60.9a3.56,3.56,0,0,0-1.65-.37c-1.09,0-1.57.43-1.57,1.14S335.08,62.83,335.91,62.83Z" transform="translate(-20.63 -9.92)"/><path class="cls-5" d="M341.45,64.08a1.88,1.88,0,0,0,2.06,1.75,2.09,2.09,0,0,0,2.07-2.32v-1a2.47,2.47,0,0,1-2.2,1.24,3.36,3.36,0,0,1,0-6.72,2.47,2.47,0,0,1,2.2,1.25V57.21h1.12v6.3a3.15,3.15,0,0,1-3.19,3.37c-1.89,0-3.2-1.14-3.2-2.8Zm2.07-1.34a2.31,2.31,0,1,0-2.2-2.31A2.16,2.16,0,0,0,343.52,62.74Z" transform="translate(-20.63 -9.92)"/><path class="cls-5" d="M348.17,60.43a3.11,3.11,0,0,1,3.19-3.36c1.89,0,3,1.26,3,3.31,0,.14,0,.3,0,.33h-5.07a1.93,1.93,0,0,0,2,2,2.22,2.22,0,0,0,2-1.16l.91.58a3.36,3.36,0,0,1-3.07,1.63A3.06,3.06,0,0,1,348.17,60.43Zm1.19-.67h3.82a1.73,1.73,0,0,0-1.82-1.71A1.89,1.89,0,0,0,349.36,59.76Z" transform="translate(-20.63 -9.92)"/><path class="cls-5" d="M358,62.77c.63,0,1-.31,1-.81,0-.67-.74-1-1.49-1.26s-1.85-.8-1.85-1.93,1-1.7,2.09-1.7a2.71,2.71,0,0,1,2.33,1.26l-.9.58a2,2,0,0,0-1.57-.84c-.46,0-.85.19-.85.63s.66.81,1.34,1.09c1.12.46,2,.89,2,2a2,2,0,0,1-2.21,2,2.84,2.84,0,0,1-2.58-1.56l.89-.55A2.09,2.09,0,0,0,358,62.77Z" transform="translate(-20.63 -9.92)"/><path class="cls-6" d="M274,81.32l3.72-.93v11h-1.32V82l-2.4.71Z" transform="translate(-20.63 -9.92)"/><path class="cls-6" d="M284.1,91.56a4.19,4.19,0,0,1-3.86-2.28l1.12-.76a3.28,3.28,0,0,0,2.74,1.79,2.27,2.27,0,0,0,2.43-2.48,2.36,2.36,0,0,0-2.43-2.48,4.21,4.21,0,0,0-2.78,1l1.43-5.78h5.12v1.16h-4.1L283,84.58a3.5,3.5,0,0,1,1.62-.4,3.34,3.34,0,0,1,3.24,3.65A3.53,3.53,0,0,1,284.1,91.56Z" transform="translate(-20.63 -9.92)"/><path class="cls-6" d="M293.17,80.39c2.38,0,4,2.34,4,5.58s-1.65,5.59-4,5.59-4-2.35-4-5.59S290.78,80.39,293.17,80.39Zm0,9.92c1.67,0,2.71-1.81,2.71-4.34s-1-4.34-2.71-4.34-2.72,1.82-2.72,4.34S291.49,90.31,293.17,90.31Z" transform="translate(-20.63 -9.92)"/><path class="cls-6" d="M302.47,80.39c2.38,0,4,2.34,4,5.58s-1.65,5.59-4,5.59-4-2.35-4-5.59S300.08,80.39,302.47,80.39Zm0,9.92c1.67,0,2.71-1.81,2.71-4.34s-1-4.34-2.71-4.34-2.72,1.82-2.72,4.34S300.79,90.31,302.47,90.31Z" transform="translate(-20.63 -9.92)"/><path class="cls-6" d="M311.77,80.39c2.38,0,4,2.34,4,5.58s-1.65,5.59-4,5.59-4-2.35-4-5.59S309.38,80.39,311.77,80.39Zm0,9.92c1.67,0,2.71-1.81,2.71-4.34s-1-4.34-2.71-4.34-2.72,1.82-2.72,4.34S310.09,90.31,311.77,90.31Z" transform="translate(-20.63 -9.92)"/><path class="cls-6" d="M321.07,80.39c2.38,0,4,2.34,4,5.58s-1.65,5.59-4,5.59-4-2.35-4-5.59S318.68,80.39,321.07,80.39Zm0,9.92c1.67,0,2.71-1.81,2.71-4.34s-1-4.34-2.71-4.34-2.72,1.82-2.72,4.34S319.39,90.31,321.07,90.31Z" transform="translate(-20.63 -9.92)"/><path class="cls-7" d="M333.47,80.55l-6.28,13.18H326l6.28-13.18Z" transform="translate(-20.63 -9.92)"/><path class="cls-7" d="M334.94,81.32l3.72-.93v11h-1.32V82l-2.4.71Z" transform="translate(-20.63 -9.92)"/><path class="cls-7" d="M345,91.56a4.19,4.19,0,0,1-3.86-2.28l1.11-.76A3.28,3.28,0,0,0,345,90.31a2.27,2.27,0,0,0,2.43-2.48A2.36,2.36,0,0,0,345,85.35a4.21,4.21,0,0,0-2.78,1l1.43-5.78h5.11v1.16h-4.09l-.73,2.87a3.5,3.5,0,0,1,1.62-.4,3.34,3.34,0,0,1,3.24,3.65A3.53,3.53,0,0,1,345,91.56Z" transform="translate(-20.63 -9.92)"/><path class="cls-7" d="M354.07,80.39c2.38,0,4,2.34,4,5.58s-1.65,5.59-4,5.59-4-2.35-4-5.59S351.68,80.39,354.07,80.39Zm0,9.92c1.67,0,2.71-1.81,2.71-4.34s-1-4.34-2.71-4.34-2.72,1.82-2.72,4.34S352.39,90.31,354.07,90.31Z" transform="translate(-20.63 -9.92)"/><path class="cls-7" d="M363.37,80.39c2.38,0,4,2.34,4,5.58s-1.65,5.59-4,5.59-4-2.35-4-5.59S361,80.39,363.37,80.39Zm0,9.92c1.67,0,2.71-1.81,2.71-4.34s-1-4.34-2.71-4.34-2.72,1.82-2.72,4.34S361.69,90.31,363.37,90.31Z" transform="translate(-20.63 -9.92)"/><path class="cls-7" d="M372.67,80.39c2.38,0,4,2.34,4,5.58s-1.65,5.59-4,5.59-4-2.35-4-5.59S370.28,80.39,372.67,80.39Zm0,9.92c1.67,0,2.71-1.81,2.71-4.34s-1-4.34-2.71-4.34S370,83.45,370,86,371,90.31,372.67,90.31Z" transform="translate(-20.63 -9.92)"/><path class="cls-7" d="M382,80.39c2.39,0,4,2.34,4,5.58s-1.65,5.59-4,5.59-4-2.35-4-5.59S379.58,80.39,382,80.39Zm0,9.92c1.68,0,2.72-1.81,2.72-4.34s-1-4.34-2.72-4.34-2.71,1.82-2.71,4.34S380.29,90.31,382,90.31Z" transform="translate(-20.63 -9.92)"/><path class="cls-7" d="M392.5,84.27V81.79h1.24v2.48h1.17v1.16h-1.17v6H392.5v-6h-1.16V84.27Z" transform="translate(-20.63 -9.92)"/><path class="cls-7" d="M397,80.47a.86.86,0,1,1-.85.85A.86.86,0,0,1,397,80.47Zm.62,3.8V91.4h-1.24V84.27Z" transform="translate(-20.63 -9.92)"/><path class="cls-7" d="M409.94,91.4H408.7V87.06c0-1.23-.43-1.78-1.36-1.78a1.59,1.59,0,0,0-1.66,1.78V91.4h-1.24V87.06c0-1.23-.43-1.78-1.36-1.78a1.58,1.58,0,0,0-1.66,1.78V91.4h-1.24V84.27h1.24v1a2.24,2.24,0,0,1,4,.14,2.39,2.39,0,0,1,2.2-1.34c1.46,0,2.29,1,2.29,2.79Z" transform="translate(-20.63 -9.92)"/><path class="cls-7" d="M411.65,87.83a3.44,3.44,0,0,1,3.53-3.72c2.09,0,3.36,1.4,3.36,3.66,0,.16,0,.34,0,.38h-5.61a2.15,2.15,0,0,0,2.26,2.24,2.46,2.46,0,0,0,2.23-1.28l1,.63A3.72,3.72,0,0,1,415,91.56C413,91.56,411.65,90,411.65,87.83Zm1.31-.74h4.24a1.93,1.93,0,0,0-2-1.89A2.1,2.1,0,0,0,413,87.09Z" transform="translate(-20.63 -9.92)"/><path class="cls-7" d="M422.48,90.42c.7,0,1.13-.34,1.13-.9,0-.74-.82-1.08-1.64-1.39s-2.05-.88-2.05-2.14,1.15-1.88,2.31-1.88a3,3,0,0,1,2.58,1.4l-1,.64a2.14,2.14,0,0,0-1.73-.93c-.51,0-.95.21-.95.69s.73.9,1.49,1.21c1.24.51,2.25,1,2.25,2.27a2.23,2.23,0,0,1-2.45,2.17,3.13,3.13,0,0,1-2.85-1.74l1-.61A2.32,2.32,0,0,0,422.48,90.42Z" transform="translate(-20.63 -9.92)"/><rect class="cls-5" x="121.75" y="34.25" width="124.58" height="9.12"/><rect class="cls-5" x="121.75" y="43.37" width="124.58" height="9.12"/><rect class="cls-7" x="121.75" y="43.37" width="31.15" height="9.12"/><rect class="cls-6" x="121.75" y="34.25" width="31.15" height="9.12"/><rect class="cls-6" x="121.75" y="101.79" width="124.58" height="9.12"/><rect class="cls-7" x="121.75" y="110.9" width="124.58" height="9.12"/><rect class="cls-5" x="121.75" y="135.55" width="124.58" height="9.12"/><rect class="cls-5" x="121.75" y="144.67" width="124.58" height="9.12"/><rect class="cls-6" x="121.75" y="135.55" width="47.45" height="9.12"/><rect class="cls-7" x="121.75" y="144.67" width="79.09" height="9.12"/><polyline class="cls-8" points="246.65 160.55 246.65 22.14 364.84 22.14"/><rect class="cls-5" x="121.75" y="68.02" width="124.58" height="9.12"/><rect class="cls-5" x="121.75" y="77.14" width="124.58" height="9.12"/><rect class="cls-6" x="121.75" y="68.02" width="69.73" height="9.12"/><rect class="cls-7" x="121.75" y="77.14" width="69.73" height="9.12"/></svg>