<svg id="图层_1" data-name="图层 1" xmlns="http://www.w3.org/2000/svg" viewBox="0 0 405.81 159.81"><defs><style>.cls-1{fill:#333;}.cls-2{fill:#e2282b;}.cls-3{fill:#939393;}.cls-4,.cls-5{fill:none;stroke-miterlimit:10;}.cls-4{stroke:#e2282b;stroke-width:0.99px;}.cls-5{stroke:#939393;stroke-width:0.65px;}</style></defs><path class="cls-1" d="M47.76,140.89h6.9v1.24H51.87v9.61H50.55v-9.61H47.76Z" transform="translate(-19.85 -1.1)"/><path class="cls-1" d="M57.17,145.61c-.93,0-1.19.76-1.19,1.79v4.34H54.74v-7.13H56v.82a1.92,1.92,0,0,1,1.5-1,1.7,1.7,0,0,1,1.33.5l-.68,1A1.42,1.42,0,0,0,57.17,145.61Z" transform="translate(-19.85 -1.1)"/><path class="cls-1" d="M59.82,145.33a4.84,4.84,0,0,1,2.81-.88c1.66,0,2.79.79,2.79,2.17v5.12H64.18v-1a2.8,2.8,0,0,1-2.36,1.11,2.28,2.28,0,0,1-2.46-2.29c0-1.38,1-2.3,2.79-2.3a3.81,3.81,0,0,1,2,.53v-1c0-1-.73-1.25-1.62-1.25a3.51,3.51,0,0,0-2.13.71Zm2.33,5.49a1.89,1.89,0,0,0,2-1.87v-.27a4.08,4.08,0,0,0-1.83-.4c-1.21,0-1.74.48-1.74,1.26S61.23,150.82,62.15,150.82Z" transform="translate(-19.85 -1.1)"/><path class="cls-1" d="M68.36,140.81a.85.85,0,1,1-.85.85A.86.86,0,0,1,68.36,140.81Zm.62,3.8v7.13H67.74v-7.13Z" transform="translate(-19.85 -1.1)"/><path class="cls-1" d="M74.59,145.61a1.71,1.71,0,0,0-1.81,1.79v4.34H71.54v-7.13h1.24v1.11a2.27,2.27,0,0,1,2.12-1.27c1.51,0,2.45,1.07,2.45,2.79v4.5H76.11V147.4C76.11,146.22,75.58,145.61,74.59,145.61Z" transform="translate(-19.85 -1.1)"/><path class="cls-1" d="M80.53,140.81a.85.85,0,0,1,0,1.7.85.85,0,0,1,0-1.7Zm.62,3.8v7.13H79.91v-7.13Z" transform="translate(-19.85 -1.1)"/><path class="cls-1" d="M86.76,145.61A1.71,1.71,0,0,0,85,147.4v4.34H83.71v-7.13H85v1.11a2.27,2.27,0,0,1,2.12-1.27c1.5,0,2.45,1.07,2.45,2.79v4.5H88.28V147.4C88.28,146.22,87.75,145.61,86.76,145.61Z" transform="translate(-19.85 -1.1)"/><path class="cls-1" d="M92.62,152.2a2.07,2.07,0,0,0,2.28,1.94,2.31,2.31,0,0,0,2.29-2.56v-1.07a2.72,2.72,0,0,1-2.43,1.38,3.72,3.72,0,0,1,0-7.44,2.74,2.74,0,0,1,2.43,1.38v-1.22h1.24v7a3.48,3.48,0,0,1-3.53,3.72c-2.1,0-3.54-1.25-3.54-3.1Zm2.29-1.47a2.56,2.56,0,1,0-2.43-2.56A2.39,2.39,0,0,0,94.91,150.73Z" transform="translate(-19.85 -1.1)"/><path class="cls-1" d="M104.32,140.89h6.9v1.24h-2.79v9.61h-1.32v-9.61h-2.79Z" transform="translate(-19.85 -1.1)"/><path class="cls-1" d="M113.39,140.81a.85.85,0,1,1,0,1.7.85.85,0,1,1,0-1.7Zm.62,3.8v7.13h-1.24v-7.13Z" transform="translate(-19.85 -1.1)"/><path class="cls-1" d="M126.33,151.74h-1.24V147.4c0-1.23-.43-1.79-1.36-1.79a1.59,1.59,0,0,0-1.66,1.79v4.34h-1.24V147.4c0-1.23-.44-1.79-1.37-1.79a1.59,1.59,0,0,0-1.65,1.79v4.34h-1.25v-7.13h1.25v1a2.24,2.24,0,0,1,4,.14,2.4,2.4,0,0,1,2.2-1.33c1.45,0,2.29,1,2.29,2.79Z" transform="translate(-19.85 -1.1)"/><path class="cls-1" d="M128,148.17a3.45,3.45,0,0,1,3.54-3.72c2.09,0,3.36,1.4,3.36,3.66,0,.15,0,.34,0,.37h-5.61a2.15,2.15,0,0,0,2.26,2.25,2.47,2.47,0,0,0,2.23-1.29l1,.64a3.71,3.71,0,0,1-3.4,1.81A3.4,3.4,0,0,1,128,148.17Zm1.32-.74h4.23a1.92,1.92,0,0,0-2-1.89A2.09,2.09,0,0,0,129.35,147.43Z" transform="translate(-19.85 -1.1)"/><path class="cls-1" d="M25.35,107.05a5.58,5.58,0,1,1-5.5,5.58A5.42,5.42,0,0,1,25.35,107.05Zm0,9.84a4.26,4.26,0,1,0-4.11-4.26A4.07,4.07,0,0,0,25.35,116.89Z" transform="translate(-19.85 -1.1)"/><path class="cls-1" d="M35.39,117.05a1.71,1.71,0,0,0,1.82-1.78v-4.34h1.24v7.13H37.21v-1.12a2.29,2.29,0,0,1-2.13,1.27c-1.48,0-2.45-1.08-2.45-2.79v-4.49h1.24v4.34C33.87,116.41,34.4,117.05,35.39,117.05Z" transform="translate(-19.85 -1.1)"/><path class="cls-1" d="M40.85,110.93v-2.49h1.24v2.49h1.16v1.16H42.09v6H40.85v-6H39.69v-1.16Z" transform="translate(-19.85 -1.1)"/><path class="cls-1" d="M44.41,121.47V110.93h1.24v1.22a2.74,2.74,0,0,1,2.44-1.38,3.73,3.73,0,0,1,0,7.44,2.72,2.72,0,0,1-2.44-1.38v4.64Zm3.52-9.54a2.56,2.56,0,1,0,2.44,2.56A2.4,2.4,0,0,0,47.93,111.93Z" transform="translate(-19.85 -1.1)"/><path class="cls-1" d="M56.09,117.05a1.71,1.71,0,0,0,1.81-1.78v-4.34h1.24v7.13H57.9v-1.12a2.29,2.29,0,0,1-2.12,1.27c-1.49,0-2.45-1.08-2.45-2.79v-4.49h1.24v4.34C54.57,116.41,55.09,117.05,56.09,117.05Z" transform="translate(-19.85 -1.1)"/><path class="cls-1" d="M61.54,110.93v-2.49h1.24v2.49h1.16v1.16H62.78v6H61.54v-6H60.38v-1.16Z" transform="translate(-19.85 -1.1)"/><path class="cls-1" d="M72.86,107.2c2.09,0,3.69,1.26,3.69,3.26A3.15,3.15,0,0,1,74,113.59l3.24,4.47H75.57l-3-4.34H71.23v4.34H69.91V107.2Zm-1.63,1.17v4.18h1.63a2.11,2.11,0,1,0,0-4.18Z" transform="translate(-19.85 -1.1)"/><path class="cls-1" d="M77.89,114.49a3.45,3.45,0,0,1,3.54-3.72c2.09,0,3.36,1.4,3.36,3.66,0,.15,0,.34,0,.37H79.16a2.16,2.16,0,0,0,2.27,2.25,2.47,2.47,0,0,0,2.23-1.29l1,.64a3.73,3.73,0,0,1-3.4,1.81A3.4,3.4,0,0,1,77.89,114.49Zm1.32-.74h4.23a1.92,1.92,0,0,0-2-1.89A2.09,2.09,0,0,0,79.21,113.75Z" transform="translate(-19.85 -1.1)"/><path class="cls-1" d="M88.73,117.08c.7,0,1.13-.34,1.13-.9,0-.74-.82-1.08-1.64-1.39s-2-.89-2-2.14,1.15-1.88,2.31-1.88a2.94,2.94,0,0,1,2.57,1.4l-1,.63a2.15,2.15,0,0,0-1.73-.93c-.52,0-1,.22-1,.7s.73.9,1.49,1.21c1.24.51,2.25,1,2.25,2.26a2.24,2.24,0,0,1-2.45,2.17,3.15,3.15,0,0,1-2.86-1.73l1-.61A2.3,2.3,0,0,0,88.73,117.08Z" transform="translate(-19.85 -1.1)"/><path class="cls-1" d="M95.81,110.77a3.72,3.72,0,1,1-3.69,3.72A3.61,3.61,0,0,1,95.81,110.77Zm0,6.28a2.56,2.56,0,1,0-2.43-2.56A2.42,2.42,0,0,0,95.81,117.05Z" transform="translate(-19.85 -1.1)"/><path class="cls-1" d="M102.45,106v12.1H101.2V106Z" transform="translate(-19.85 -1.1)"/><path class="cls-1" d="M107.53,117.05a1.71,1.71,0,0,0,1.81-1.78v-4.34h1.24v7.13h-1.24v-1.12a2.29,2.29,0,0,1-2.12,1.27c-1.49,0-2.45-1.08-2.45-2.79v-4.49H106v4.34C106,116.41,106.54,117.05,107.53,117.05Z" transform="translate(-19.85 -1.1)"/><path class="cls-1" d="M113,110.93v-2.49h1.24v2.49h1.17v1.16h-1.17v6H113v-6h-1.16v-1.16Z" transform="translate(-19.85 -1.1)"/><path class="cls-1" d="M117.48,107.13a.85.85,0,1,1,0,1.7.85.85,0,1,1,0-1.7Zm.62,3.8v7.13h-1.24v-7.13Z" transform="translate(-19.85 -1.1)"/><path class="cls-1" d="M123.73,110.77a3.72,3.72,0,1,1-3.69,3.72A3.61,3.61,0,0,1,123.73,110.77Zm0,6.28a2.56,2.56,0,1,0-2.44-2.56A2.42,2.42,0,0,0,123.73,117.05Z" transform="translate(-19.85 -1.1)"/><path class="cls-1" d="M132.17,111.93a1.71,1.71,0,0,0-1.81,1.79v4.34h-1.24v-7.13h1.24V112a2.27,2.27,0,0,1,2.12-1.27c1.51,0,2.45,1.07,2.45,2.79v4.5h-1.24v-4.34C133.69,112.54,133.17,111.93,132.17,111.93Z" transform="translate(-19.85 -1.1)"/><path class="cls-1" d="M29.52,74.14V85H28.2V74.14Z" transform="translate(-19.85 -1.1)"/><path class="cls-1" d="M32,77.86V75.38h1.24v2.48H34.4V79H33.24v6H32V79H30.84V77.86Z" transform="translate(-19.85 -1.1)"/><path class="cls-1" d="M35,81.43a3.45,3.45,0,0,1,3.54-3.72c2.09,0,3.36,1.39,3.36,3.66,0,.15,0,.34,0,.37H36.29A2.16,2.16,0,0,0,38.56,84a2.47,2.47,0,0,0,2.23-1.29l1,.64a3.73,3.73,0,0,1-3.4,1.81A3.4,3.4,0,0,1,35,81.43Zm1.32-.74h4.23a1.93,1.93,0,0,0-2-1.9A2.1,2.1,0,0,0,36.34,80.69Z" transform="translate(-19.85 -1.1)"/><path class="cls-1" d="M46.06,78.87c-.93,0-1.2.76-1.2,1.78V85H43.62V77.86h1.24v.83a2,2,0,0,1,1.51-1,1.7,1.7,0,0,1,1.33.5l-.68,1A1.42,1.42,0,0,0,46.06,78.87Z" transform="translate(-19.85 -1.1)"/><path class="cls-1" d="M48.71,78.59a4.83,4.83,0,0,1,2.8-.88c1.66,0,2.79.79,2.79,2.17V85H53.06V84a2.78,2.78,0,0,1-2.35,1.12,2.3,2.3,0,0,1-2.47-2.29c0-1.38,1-2.3,2.79-2.3a3.76,3.76,0,0,1,2,.53v-1c0-1-.73-1.26-1.61-1.26a3.54,3.54,0,0,0-2.14.72ZM51,84.08a1.89,1.89,0,0,0,2-1.87v-.27a4,4,0,0,0-1.83-.4c-1.2,0-1.73.48-1.73,1.25S50.12,84.08,51,84.08Z" transform="translate(-19.85 -1.1)"/><path class="cls-1" d="M56.47,77.86V75.38h1.24v2.48h1.17V79H57.71v6H56.47V79H55.31V77.86Z" transform="translate(-19.85 -1.1)"/><path class="cls-1" d="M61,74.07a.85.85,0,1,1-.85.85A.86.86,0,0,1,61,74.07Zm.62,3.79V85H60.35V77.86Z" transform="translate(-19.85 -1.1)"/><path class="cls-1" d="M67.21,77.71a3.72,3.72,0,1,1-3.69,3.72A3.6,3.6,0,0,1,67.21,77.71Zm0,6.28a2.56,2.56,0,1,0-2.43-2.56A2.42,2.42,0,0,0,67.21,84Z" transform="translate(-19.85 -1.1)"/><path class="cls-1" d="M75.66,78.87a1.71,1.71,0,0,0-1.81,1.78V85H72.61V77.86h1.24V79A2.27,2.27,0,0,1,76,77.71c1.51,0,2.45,1.07,2.45,2.79V85H77.18V80.65C77.18,79.48,76.65,78.87,75.66,78.87Z" transform="translate(-19.85 -1.1)"/><path class="cls-1" d="M91.53,81.74H87.16L85.78,85H84.31l5-11.4,5,11.4H92.91ZM87.69,80.5H91l-1.66-3.91Z" transform="translate(-19.85 -1.1)"/><path class="cls-1" d="M105.39,85h-1.24V80.65c0-1.22-.43-1.78-1.36-1.78a1.59,1.59,0,0,0-1.66,1.78V85H99.89V80.65c0-1.22-.44-1.78-1.37-1.78a1.59,1.59,0,0,0-1.65,1.78V85H95.62V77.86h1.25v1a2.24,2.24,0,0,1,4,.14,2.4,2.4,0,0,1,2.2-1.33c1.45,0,2.29,1,2.29,2.79Z" transform="translate(-19.85 -1.1)"/><path class="cls-1" d="M110.78,77.71a3.72,3.72,0,1,1-3.69,3.72A3.6,3.6,0,0,1,110.78,77.71Zm0,6.28a2.56,2.56,0,1,0-2.43-2.56A2.42,2.42,0,0,0,110.78,84Z" transform="translate(-19.85 -1.1)"/><path class="cls-1" d="M118.94,84a1.71,1.71,0,0,0,1.81-1.78V77.86H122V85h-1.24V83.88a2.29,2.29,0,0,1-2.12,1.27c-1.49,0-2.45-1.08-2.45-2.79v-4.5h1.24v4.35C117.42,83.35,118,84,118.94,84Z" transform="translate(-19.85 -1.1)"/><path class="cls-1" d="M127.37,78.87a1.7,1.7,0,0,0-1.81,1.78V85h-1.24V77.86h1.24V79a2.27,2.27,0,0,1,2.12-1.27c1.5,0,2.45,1.07,2.45,2.79V85h-1.24V80.65C128.89,79.48,128.36,78.87,127.37,78.87Z" transform="translate(-19.85 -1.1)"/><path class="cls-1" d="M132.53,77.86V75.38h1.24v2.48h1.16V79h-1.16v6h-1.24V79h-1.16V77.86Z" transform="translate(-19.85 -1.1)"/><path class="cls-1" d="M57.54,50.46V39.61H60.8A5.18,5.18,0,0,1,66.22,45a5.18,5.18,0,0,1-5.42,5.42Zm1.32-9.53v8.21H60.8A3.86,3.86,0,0,0,64.91,45a3.86,3.86,0,0,0-4.11-4.11Z" transform="translate(-19.85 -1.1)"/><path class="cls-1" d="M67.77,44.06a4.8,4.8,0,0,1,2.81-.88c1.66,0,2.79.79,2.79,2.17v5.11H72.13v-1a2.81,2.81,0,0,1-2.36,1.12,2.29,2.29,0,0,1-2.46-2.3c0-1.38,1-2.29,2.79-2.29a3.72,3.72,0,0,1,2,.53v-1c0-1-.73-1.26-1.61-1.26a3.58,3.58,0,0,0-2.14.71Zm2.33,5.49a1.9,1.9,0,0,0,2-1.88v-.26A4,4,0,0,0,70.3,47c-1.21,0-1.74.48-1.74,1.25S69.18,49.55,70.1,49.55Z" transform="translate(-19.85 -1.1)"/><path class="cls-1" d="M75.54,43.33V40.85h1.24v2.48h1.16v1.16H76.78v6H75.54v-6H74.37V43.33Z" transform="translate(-19.85 -1.1)"/><path class="cls-1" d="M79,44.06a4.76,4.76,0,0,1,2.8-.88c1.66,0,2.79.79,2.79,2.17v5.11H83.3v-1A2.78,2.78,0,0,1,81,50.62a2.3,2.3,0,0,1-2.47-2.3c0-1.38,1-2.29,2.79-2.29a3.7,3.7,0,0,1,2,.53v-1c0-1-.72-1.26-1.61-1.26a3.61,3.61,0,0,0-2.14.71Zm2.32,5.49a1.9,1.9,0,0,0,2-1.88v-.26a4,4,0,0,0-1.83-.4c-1.2,0-1.73.48-1.73,1.25S80.36,49.55,81.27,49.55Z" transform="translate(-19.85 -1.1)"/><path class="cls-1" d="M88.87,49.49c.7,0,1.13-.35,1.13-.9,0-.75-.82-1.09-1.64-1.4s-2-.88-2-2.14,1.15-1.87,2.31-1.87a3,3,0,0,1,2.57,1.39l-1,.64a2.15,2.15,0,0,0-1.74-.93c-.51,0-.94.21-.94.69s.73.9,1.49,1.21c1.24.52,2.25,1,2.25,2.27a2.24,2.24,0,0,1-2.45,2.17A3.16,3.16,0,0,1,86,48.88l1-.6A2.32,2.32,0,0,0,88.87,49.49Z" transform="translate(-19.85 -1.1)"/><path class="cls-1" d="M92.26,46.9a3.45,3.45,0,0,1,3.54-3.72c2.09,0,3.36,1.39,3.36,3.65,0,.16,0,.35,0,.38H93.53a2.15,2.15,0,0,0,2.27,2.24A2.46,2.46,0,0,0,98,48.17l1,.63a3.73,3.73,0,0,1-3.4,1.82A3.4,3.4,0,0,1,92.26,46.9Zm1.32-.75h4.23a1.93,1.93,0,0,0-2-1.89A2.09,2.09,0,0,0,93.58,46.15Z" transform="translate(-19.85 -1.1)"/><path class="cls-1" d="M100.94,43.33V40.85h1.24v2.48h1.16v1.16h-1.16v6h-1.24v-6H99.78V43.33Z" transform="translate(-19.85 -1.1)"/><path class="cls-1" d="M112.58,49.38a1.73,1.73,0,0,0,1.92-1.71c0-1.46-1.16-1.91-2.4-2.35-1.08-.39-2.87-1.09-2.87-3.06a2.89,2.89,0,0,1,3.15-2.8,3.76,3.76,0,0,1,3.4,2.27l-1.14.65a2.59,2.59,0,0,0-2.34-1.67c-1.17,0-1.69.68-1.69,1.38,0,.92.61,1.55,2.51,2.2,1.17.41,2.75,1.26,2.75,3.23a3.18,3.18,0,0,1-3.33,3.1,4.52,4.52,0,0,1-3.88-2.73l1-.71C110.44,48.49,111.28,49.38,112.58,49.38Z" transform="translate(-19.85 -1.1)"/><path class="cls-1" d="M118.58,39.53a.86.86,0,0,1,0,1.71.86.86,0,0,1,0-1.71Zm.62,3.8v7.13H118V43.33Z" transform="translate(-19.85 -1.1)"/><path class="cls-1" d="M121.29,44.49V43.33h6.2l-4.41,6h4.1v1.16h-6.35l4.42-6Z" transform="translate(-19.85 -1.1)"/><path class="cls-1" d="M128,46.9a3.44,3.44,0,0,1,3.53-3.72c2.09,0,3.36,1.39,3.36,3.65,0,.16,0,.35,0,.38h-5.61a2.14,2.14,0,0,0,2.26,2.24,2.45,2.45,0,0,0,2.23-1.28l1,.63a3.72,3.72,0,0,1-3.4,1.82C129.41,50.62,128,49.1,128,46.9Zm1.31-.75h4.23a1.92,1.92,0,0,0-2-1.89A2.09,2.09,0,0,0,129.35,46.15Z" transform="translate(-19.85 -1.1)"/><path class="cls-1" d="M79,11.7H74.64L73.26,15H71.79l5-11.39,5,11.39H80.39Zm-3.85-1.24h3.32l-1.66-3.9Z" transform="translate(-19.85 -1.1)"/><path class="cls-1" d="M84.34,2.87V15H83.1V2.87Z" transform="translate(-19.85 -1.1)"/><path class="cls-1" d="M87.44,15.42a2.07,2.07,0,0,0,2.28,1.94A2.31,2.31,0,0,0,92,14.8V13.74a2.73,2.73,0,0,1-2.43,1.38,3.49,3.49,0,0,1-3.53-3.73,3.48,3.48,0,0,1,3.53-3.72A2.73,2.73,0,0,1,92,9.05V7.83h1.24v7a3.49,3.49,0,0,1-3.53,3.73c-2.09,0-3.53-1.26-3.53-3.11ZM89.74,14A2.39,2.39,0,0,0,92,11.39a2.36,2.36,0,1,0-4.71,0A2.38,2.38,0,0,0,89.74,14Z" transform="translate(-19.85 -1.1)"/><path class="cls-1" d="M98.57,7.67a3.61,3.61,0,0,1,3.69,3.72,3.69,3.69,0,1,1-7.38,0A3.61,3.61,0,0,1,98.57,7.67Zm0,6.28A2.42,2.42,0,0,0,101,11.39a2.43,2.43,0,1,0-4.86,0A2.42,2.42,0,0,0,98.57,14Z" transform="translate(-19.85 -1.1)"/><path class="cls-1" d="M106.4,8.84c-.93,0-1.2.76-1.2,1.78V15H104V7.83h1.24v.82a2,2,0,0,1,1.51-1,1.7,1.7,0,0,1,1.33.5l-.68,1A1.41,1.41,0,0,0,106.4,8.84Z" transform="translate(-19.85 -1.1)"/><path class="cls-1" d="M110.13,4a.86.86,0,1,1-.85.85A.86.86,0,0,1,110.13,4Zm.62,3.8V15h-1.24V7.83Z" transform="translate(-19.85 -1.1)"/><path class="cls-1" d="M113.39,7.83V5.35h1.24V7.83h1.16V9h-1.16v6h-1.24V9h-1.17V7.83Z" transform="translate(-19.85 -1.1)"/><path class="cls-1" d="M120.08,8.84a1.73,1.73,0,0,0-1.81,1.78V15H117V2.87h1.24V9a2.37,2.37,0,0,1,2.12-1.29c1.48,0,2.45.95,2.45,2.79V15H121.6V10.62C121.6,9.44,121.09,8.84,120.08,8.84Z" transform="translate(-19.85 -1.1)"/><path class="cls-1" d="M134.93,15h-1.24V10.62c0-1.23-.43-1.78-1.36-1.78a1.59,1.59,0,0,0-1.66,1.78V15h-1.24V10.62c0-1.23-.43-1.78-1.36-1.78a1.58,1.58,0,0,0-1.66,1.78V15h-1.24V7.83h1.24v1a2.24,2.24,0,0,1,4,.14,2.39,2.39,0,0,1,2.2-1.34c1.46,0,2.29,1,2.29,2.79Z" transform="translate(-19.85 -1.1)"/><path class="cls-2" d="M275,147.16a2.54,2.54,0,0,1-1.54-2.45,3,3,0,0,1,6,0,2.54,2.54,0,0,1-1.53,2.45,2.93,2.93,0,0,1,1.92,2.83,3.39,3.39,0,0,1-6.76,0A2.92,2.92,0,0,1,275,147.16Zm1.45,4.77a2.05,2.05,0,0,0,2.13-2.09,2.13,2.13,0,0,0-4.25,0A2.05,2.05,0,0,0,276.45,151.93Zm0-5.35a1.75,1.75,0,1,0-1.73-1.72A1.71,1.71,0,0,0,276.45,146.58Z" transform="translate(-19.85 -1.1)"/><path class="cls-3" d="M288.2,142.09l-6.28,13.17h-1.24L287,142.09Z" transform="translate(-19.85 -1.1)"/><path class="cls-3" d="M295.21,142.09l-3.06,4a2.4,2.4,0,0,1,1.23-.27,3.34,3.34,0,0,1,3.21,3.52,3.69,3.69,0,1,1-7.38,0,3.79,3.79,0,0,1,.68-2.24l3.66-5Zm-2.31,9.81a2.54,2.54,0,1,0-2.44-2.53A2.4,2.4,0,0,0,292.9,151.9Z" transform="translate(-19.85 -1.1)"/><path class="cls-3" d="M298.29,150.07h1.33a1.92,1.92,0,0,0,2.13,1.78,1.85,1.85,0,0,0,2-1.93c0-1.34-1.1-2-2.5-2v-1.16a2,2,0,0,0,2.19-1.88,1.55,1.55,0,0,0-1.64-1.73,1.72,1.72,0,0,0-1.82,1.65h-1.25a2.83,2.83,0,0,1,3.05-2.85,2.87,2.87,0,0,1,3,2.89,2.7,2.7,0,0,1-1.85,2.46,2.74,2.74,0,0,1,2.16,2.79c0,1.85-1.44,3-3.38,3S298.29,151.76,298.29,150.07Z" transform="translate(-19.85 -1.1)"/><path class="cls-3" d="M314.69,146.82a1.72,1.72,0,0,0-1.81,1.78v4.34h-1.24V140.85h1.24v6.09a2.37,2.37,0,0,1,2.12-1.29c1.47,0,2.45.95,2.45,2.79v4.5h-1.24V148.6C316.21,147.42,315.7,146.82,314.69,146.82Z" transform="translate(-19.85 -1.1)"/><path class="cls-3" d="M322.84,145.65a3.72,3.72,0,1,1-3.69,3.72A3.61,3.61,0,0,1,322.84,145.65Zm0,6.28a2.56,2.56,0,1,0-2.43-2.56A2.42,2.42,0,0,0,322.84,151.93Z" transform="translate(-19.85 -1.1)"/><path class="cls-3" d="M331,151.93a1.71,1.71,0,0,0,1.81-1.78v-4.34h1.24v7.13h-1.24v-1.12a2.27,2.27,0,0,1-2.12,1.27c-1.49,0-2.45-1.08-2.45-2.79v-4.49h1.24v4.34C329.48,151.3,330,151.93,331,151.93Z" transform="translate(-19.85 -1.1)"/><path class="cls-3" d="M338.81,146.82c-.93,0-1.2.75-1.2,1.78v4.34h-1.24v-7.13h1.24v.82a2,2,0,0,1,1.51-1,1.7,1.7,0,0,1,1.33.5l-.68,1A1.41,1.41,0,0,0,338.81,146.82Z" transform="translate(-19.85 -1.1)"/><path class="cls-3" d="M343.92,152c.7,0,1.13-.34,1.13-.9,0-.74-.82-1.08-1.64-1.39s-2.05-.89-2.05-2.14,1.15-1.88,2.31-1.88a3,3,0,0,1,2.58,1.4l-1,.63a2.2,2.2,0,0,0-1.74-.93c-.51,0-.95.22-.95.7s.73.9,1.49,1.21c1.24.51,2.25,1,2.25,2.26a2.23,2.23,0,0,1-2.45,2.17,3.14,3.14,0,0,1-2.85-1.73l1-.61A2.32,2.32,0,0,0,343.92,152Z" transform="translate(-19.85 -1.1)"/><path class="cls-2" d="M279.07,106.67l-3.05,4a2.34,2.34,0,0,1,1.22-.26,3.34,3.34,0,0,1,3.21,3.52,3.69,3.69,0,1,1-7.38,0,3.81,3.81,0,0,1,.69-2.25l3.65-5Zm-2.31,9.81A2.4,2.4,0,0,0,279.2,114a2.44,2.44,0,1,0-4.87,0A2.39,2.39,0,0,0,276.76,116.48Z" transform="translate(-19.85 -1.1)"/><path class="cls-2" d="M287.55,106.67h.54v7.52h1.71v1.16h-1.71v2.17h-1.31v-2.17h-5.24Zm-.77,7.52V109.6l-3.07,4.59Z" transform="translate(-19.85 -1.1)"/><path class="cls-3" d="M298,106.67l-6.28,13.18h-1.24l6.28-13.18Z" transform="translate(-19.85 -1.1)"/><path class="cls-3" d="M299.48,107.44l3.73-.93v11h-1.32V108.1l-2.41.71Z" transform="translate(-19.85 -1.1)"/><path class="cls-3" d="M310.66,112.05a3.48,3.48,0,0,0,1.13-2.37,2,2,0,0,0-2.09-1.94c-1.4,0-2.23,1-2.23,2.65h-1.32c0-2.31,1.3-3.89,3.55-3.89a3.25,3.25,0,0,1,3.44,3.13,4.67,4.67,0,0,1-1.44,3.13l-3.46,3.52h4.95v1.24h-7.66Z" transform="translate(-19.85 -1.1)"/><path class="cls-3" d="M316.81,111.74a2.54,2.54,0,0,1-1.53-2.45,3,3,0,0,1,6,0,2.54,2.54,0,0,1-1.53,2.45,2.93,2.93,0,0,1,1.92,2.84,3.39,3.39,0,0,1-6.76,0A2.93,2.93,0,0,1,316.81,111.74Zm1.46,4.77a2.05,2.05,0,0,0,2.13-2.09,2.13,2.13,0,0,0-4.25,0A2.05,2.05,0,0,0,318.27,116.51Zm0-5.35a1.74,1.74,0,1,0-1.74-1.72A1.7,1.7,0,0,0,318.27,111.16Z" transform="translate(-19.85 -1.1)"/><path class="cls-3" d="M328.24,120.93V110.39h1.24v1.23a2.71,2.71,0,0,1,2.43-1.38,3.72,3.72,0,0,1,0,7.44,2.73,2.73,0,0,1-2.43-1.38v4.63Zm3.52-9.53a2.56,2.56,0,1,0,2.43,2.56A2.39,2.39,0,0,0,331.76,111.4Z" transform="translate(-19.85 -1.1)"/><path class="cls-3" d="M342.11,110.39l-2.43,3.46,2.59,3.67h-1.4l-1.86-2.7-1.86,2.7h-1.4l2.59-3.67-2.43-3.46h1.39l1.71,2.48,1.7-2.48Z" transform="translate(-19.85 -1.1)"/><path class="cls-2" d="M273.07,38.69l3.72-.93v11h-1.31V39.34l-2.41.71Z" transform="translate(-19.85 -1.1)"/><path class="cls-2" d="M285.13,37.91h.55v7.52h1.7v1.16h-1.7v2.17h-1.32V46.59h-5.24Zm-.77,7.52V40.84l-3.07,4.59Z" transform="translate(-19.85 -1.1)"/><path class="cls-2" d="M292.49,37.76c2.39,0,4,2.34,4,5.58s-1.65,5.58-4,5.58-4-2.34-4-5.58S290.11,37.76,292.49,37.76Zm0,9.92c1.68,0,2.72-1.81,2.72-4.34s-1-4.34-2.72-4.34-2.71,1.81-2.71,4.34S290.82,47.68,292.49,47.68Z" transform="translate(-19.85 -1.1)"/><path class="cls-2" d="M301.79,37.76c2.39,0,4,2.34,4,5.58s-1.64,5.58-4,5.58-4-2.34-4-5.58S299.41,37.76,301.79,37.76Zm0,9.92c1.68,0,2.72-1.81,2.72-4.34s-1-4.34-2.72-4.34-2.71,1.81-2.71,4.34S300.12,47.68,301.79,47.68Z" transform="translate(-19.85 -1.1)"/><path class="cls-3" d="M314.19,37.91l-6.27,13.18h-1.24L313,37.91Z" transform="translate(-19.85 -1.1)"/><path class="cls-3" d="M319.87,43.29A3.46,3.46,0,0,0,321,40.92,2,2,0,0,0,318.91,39c-1.4,0-2.24,1-2.24,2.65h-1.31c0-2.31,1.3-3.89,3.55-3.89a3.25,3.25,0,0,1,3.44,3.13A4.7,4.7,0,0,1,320.91,44l-3.46,3.51h4.94v1.24h-7.65Z" transform="translate(-19.85 -1.1)"/><path class="cls-3" d="M327.9,37.76c2.38,0,4,2.34,4,5.58s-1.65,5.58-4,5.58-4-2.34-4-5.58S325.51,37.76,327.9,37.76Zm0,9.92c1.67,0,2.71-1.81,2.71-4.34s-1-4.34-2.71-4.34-2.72,1.81-2.72,4.34S326.22,47.68,327.9,47.68Z" transform="translate(-19.85 -1.1)"/><path class="cls-3" d="M337.2,37.76c2.38,0,4,2.34,4,5.58s-1.65,5.58-4,5.58-4-2.34-4-5.58S334.81,37.76,337.2,37.76Zm0,9.92c1.67,0,2.71-1.81,2.71-4.34s-1-4.34-2.71-4.34-2.72,1.81-2.72,4.34S335.52,47.68,337.2,47.68Z" transform="translate(-19.85 -1.1)"/><path class="cls-3" d="M346.5,37.76c2.38,0,4,2.34,4,5.58s-1.65,5.58-4,5.58-4-2.34-4-5.58S344.11,37.76,346.5,37.76Zm0,9.92c1.67,0,2.71-1.81,2.71-4.34s-1-4.34-2.71-4.34-2.72,1.81-2.72,4.34S344.82,47.68,346.5,47.68Z" transform="translate(-19.85 -1.1)"/><path class="cls-3" d="M357.81,37.84a.85.85,0,1,1-.85.85A.85.85,0,0,1,357.81,37.84Zm.62,3.79v7.13h-1.24V41.63Z" transform="translate(-19.85 -1.1)"/><path class="cls-3" d="M370.75,48.76h-1.24V44.42c0-1.22-.43-1.78-1.36-1.78a1.59,1.59,0,0,0-1.66,1.78v4.34h-1.24V44.42c0-1.22-.43-1.78-1.36-1.78a1.59,1.59,0,0,0-1.66,1.78v4.34H361V41.63h1.24v1a2.24,2.24,0,0,1,4,.14,2.4,2.4,0,0,1,2.2-1.33c1.46,0,2.29,1,2.29,2.79Z" transform="translate(-19.85 -1.1)"/><path class="cls-3" d="M372.84,42.36a4.8,4.8,0,0,1,2.81-.88c1.66,0,2.79.79,2.79,2.17v5.11H377.2v-1a2.8,2.8,0,0,1-2.36,1.12,2.29,2.29,0,0,1-2.46-2.29c0-1.38,1-2.3,2.79-2.3a3.7,3.7,0,0,1,2,.53v-1c0-1-.73-1.26-1.61-1.26a3.54,3.54,0,0,0-2.14.72Zm2.33,5.49a1.89,1.89,0,0,0,2-1.88v-.26a4,4,0,0,0-1.83-.4c-1.21,0-1.73.48-1.73,1.25S374.26,47.85,375.17,47.85Z" transform="translate(-19.85 -1.1)"/><path class="cls-3" d="M381.31,49.23a2.08,2.08,0,0,0,2.28,1.94,2.31,2.31,0,0,0,2.29-2.56V47.54a2.74,2.74,0,0,1-2.43,1.38,3.49,3.49,0,0,1-3.54-3.72,3.49,3.49,0,0,1,3.54-3.72,2.72,2.72,0,0,1,2.43,1.38V41.63h1.24v7a3.48,3.48,0,0,1-3.53,3.72c-2.1,0-3.54-1.26-3.54-3.1Zm2.29-1.47a2.56,2.56,0,1,0-2.43-2.56A2.4,2.4,0,0,0,383.6,47.76Z" transform="translate(-19.85 -1.1)"/><path class="cls-3" d="M388.75,45.2a3.44,3.44,0,0,1,3.53-3.72c2.09,0,3.37,1.39,3.37,3.66,0,.15,0,.34,0,.37H390a2.15,2.15,0,0,0,2.26,2.25,2.45,2.45,0,0,0,2.23-1.29l1,.64a3.72,3.72,0,0,1-3.39,1.81A3.4,3.4,0,0,1,388.75,45.2Zm1.32-.74h4.23a1.94,1.94,0,0,0-2-1.9A2.09,2.09,0,0,0,390.07,44.46Z" transform="translate(-19.85 -1.1)"/><path class="cls-3" d="M399.58,47.79c.7,0,1.13-.34,1.13-.9,0-.75-.82-1.09-1.64-1.4S397,44.61,397,43.35s1.15-1.87,2.31-1.87a3,3,0,0,1,2.58,1.39l-1,.64a2.17,2.17,0,0,0-1.74-.93c-.51,0-.95.22-.95.7s.73.9,1.49,1.21c1.24.51,2.25,1,2.25,2.26a2.23,2.23,0,0,1-2.45,2.17,3.13,3.13,0,0,1-2.85-1.74l1-.6A2.32,2.32,0,0,0,399.58,47.79Z" transform="translate(-19.85 -1.1)"/><path class="cls-2" d="M273.07,73.65l3.72-.93v11h-1.31V74.3l-2.41.71Z" transform="translate(-19.85 -1.1)"/><path class="cls-2" d="M283.46,72.72c2.39,0,4,2.34,4,5.58s-1.64,5.58-4,5.58-4-2.34-4-5.58S281.07,72.72,283.46,72.72Zm0,9.92c1.67,0,2.71-1.81,2.71-4.34s-1-4.34-2.71-4.34-2.71,1.81-2.71,4.34S281.78,82.64,283.46,82.64Z" transform="translate(-19.85 -1.1)"/><path class="cls-2" d="M292.76,72.72c2.39,0,4,2.34,4,5.58s-1.64,5.58-4,5.58-4-2.34-4-5.58S290.37,72.72,292.76,72.72Zm0,9.92c1.67,0,2.71-1.81,2.71-4.34s-1-4.34-2.71-4.34-2.71,1.81-2.71,4.34S291.08,82.64,292.76,82.64Z" transform="translate(-19.85 -1.1)"/><path class="cls-2" d="M302.06,72.72c2.39,0,4,2.34,4,5.58s-1.64,5.58-4,5.58-4-2.34-4-5.58S299.67,72.72,302.06,72.72Zm0,9.92c1.67,0,2.71-1.81,2.71-4.34s-1-4.34-2.71-4.34-2.71,1.81-2.71,4.34S300.38,82.64,302.06,82.64Z" transform="translate(-19.85 -1.1)"/><path class="cls-2" d="M311.36,72.72c2.39,0,4,2.34,4,5.58s-1.64,5.58-4,5.58-4-2.34-4-5.58S309,72.72,311.36,72.72Zm0,9.92c1.67,0,2.71-1.81,2.71-4.34S313,74,311.36,74s-2.71,1.81-2.71,4.34S309.68,82.64,311.36,82.64Z" transform="translate(-19.85 -1.1)"/><path class="cls-2" d="M320.66,72.72c2.39,0,4,2.34,4,5.58s-1.64,5.58-4,5.58-4-2.34-4-5.58S318.27,72.72,320.66,72.72Zm0,9.92c1.67,0,2.71-1.81,2.71-4.34s-1-4.34-2.71-4.34-2.72,1.81-2.72,4.34S319,82.64,320.66,82.64Z" transform="translate(-19.85 -1.1)"/><path class="cls-3" d="M333.06,72.87l-6.28,13.18h-1.24l6.28-13.18Z" transform="translate(-19.85 -1.1)"/><path class="cls-3" d="M338.73,78.25a3.46,3.46,0,0,0,1.13-2.37,2,2,0,0,0-2.09-1.94c-1.4,0-2.23,1-2.23,2.65h-1.32c0-2.31,1.3-3.89,3.55-3.89a3.25,3.25,0,0,1,3.44,3.13A4.65,4.65,0,0,1,339.77,79l-3.46,3.52h4.95v1.24H333.6Z" transform="translate(-19.85 -1.1)"/><path class="cls-3" d="M348.88,72.87l-3.05,4a2.34,2.34,0,0,1,1.22-.26,3.34,3.34,0,0,1,3.21,3.52,3.69,3.69,0,1,1-7.38,0,3.81,3.81,0,0,1,.69-2.25l3.65-5Zm-2.31,9.82A2.4,2.4,0,0,0,349,80.16a2.44,2.44,0,1,0-4.87,0A2.4,2.4,0,0,0,346.57,82.69Z" transform="translate(-19.85 -1.1)"/><path class="cls-3" d="M353.81,77.94a2.54,2.54,0,0,1-1.53-2.45,3,3,0,0,1,6,0,2.54,2.54,0,0,1-1.53,2.45,2.94,2.94,0,0,1,1.92,2.84,3.39,3.39,0,0,1-6.76,0A2.94,2.94,0,0,1,353.81,77.94Zm1.46,4.78a2.05,2.05,0,0,0,2.12-2.1,2.13,2.13,0,0,0-4.25,0A2.05,2.05,0,0,0,355.27,82.72Zm0-5.35a1.75,1.75,0,1,0-1.74-1.72A1.7,1.7,0,0,0,355.27,77.37Z" transform="translate(-19.85 -1.1)"/><path class="cls-3" d="M364.15,72.72c2.39,0,4,2.34,4,5.58s-1.64,5.58-4,5.58-4-2.34-4-5.58S361.76,72.72,364.15,72.72Zm0,9.92c1.67,0,2.71-1.81,2.71-4.34s-1-4.34-2.71-4.34-2.71,1.81-2.71,4.34S362.48,82.64,364.15,82.64Z" transform="translate(-19.85 -1.1)"/><path class="cls-3" d="M373.45,72.72c2.39,0,4,2.34,4,5.58s-1.64,5.58-4,5.58-4-2.34-4-5.58S371.06,72.72,373.45,72.72Zm0,9.92c1.67,0,2.71-1.81,2.71-4.34s-1-4.34-2.71-4.34-2.71,1.81-2.71,4.34S371.78,82.64,373.45,82.64Z" transform="translate(-19.85 -1.1)"/><path class="cls-3" d="M382.75,72.72c2.39,0,4,2.34,4,5.58s-1.64,5.58-4,5.58-4-2.34-4-5.58S380.36,72.72,382.75,72.72Zm0,9.92c1.67,0,2.71-1.81,2.71-4.34s-1-4.34-2.71-4.34S380,75.77,380,78.3,381.08,82.64,382.75,82.64Z" transform="translate(-19.85 -1.1)"/><path class="cls-3" d="M393.29,76.59V74.11h1.24v2.48h1.16v1.16h-1.16v6h-1.24v-6h-1.16V76.59Z" transform="translate(-19.85 -1.1)"/><path class="cls-3" d="M397.78,72.79a.86.86,0,1,1-.85.86A.87.87,0,0,1,397.78,72.79Zm.62,3.8v7.13h-1.24V76.59Z" transform="translate(-19.85 -1.1)"/><path class="cls-3" d="M410.73,83.72h-1.24V79.38c0-1.22-.44-1.78-1.37-1.78a1.59,1.59,0,0,0-1.66,1.78v4.34h-1.24V79.38c0-1.22-.43-1.78-1.36-1.78a1.59,1.59,0,0,0-1.66,1.78v4.34H401V76.59h1.24v1a2.11,2.11,0,0,1,2-1.19,2.06,2.06,0,0,1,2.06,1.33,2.41,2.41,0,0,1,2.2-1.33c1.46,0,2.3,1,2.3,2.79Z" transform="translate(-19.85 -1.1)"/><path class="cls-3" d="M412.43,80.16A3.45,3.45,0,0,1,416,76.44c2.09,0,3.36,1.39,3.36,3.66,0,.15,0,.34,0,.37H413.7A2.16,2.16,0,0,0,416,82.72a2.47,2.47,0,0,0,2.23-1.29l1,.64a3.74,3.74,0,0,1-3.4,1.81A3.4,3.4,0,0,1,412.43,80.16Zm1.32-.75H418a1.93,1.93,0,0,0-2-1.89A2.1,2.1,0,0,0,413.75,79.41Z" transform="translate(-19.85 -1.1)"/><path class="cls-3" d="M423.27,82.75c.69,0,1.13-.34,1.13-.9,0-.75-.82-1.09-1.65-1.4s-2-.88-2-2.14,1.15-1.87,2.31-1.87a3,3,0,0,1,2.57,1.39l-1,.64a2.15,2.15,0,0,0-1.74-.93c-.51,0-.94.21-.94.7s.73.9,1.49,1.21c1.24.51,2.24,1,2.24,2.26a2.23,2.23,0,0,1-2.45,2.17,3.14,3.14,0,0,1-2.85-1.74l1-.6A2.3,2.3,0,0,0,423.27,82.75Z" transform="translate(-19.85 -1.1)"/><path class="cls-1" d="M149.5,14.35A1.39,1.39,0,0,0,151.05,13c0-1.18-.93-1.54-1.93-1.9s-2.31-.88-2.31-2.46a2.33,2.33,0,0,1,2.53-2.27,3,3,0,0,1,2.74,1.84l-.91.53a2.11,2.11,0,0,0-1.89-1.35c-.95,0-1.36.55-1.36,1.11,0,.74.49,1.25,2,1.77a2.82,2.82,0,0,1,2.21,2.6,2.56,2.56,0,0,1-2.68,2.5,3.65,3.65,0,0,1-3.13-2.2l.85-.57C147.78,13.64,148.45,14.35,149.5,14.35Z" transform="translate(-19.85 -1.1)"/><path class="cls-1" d="M158.6,12.6h-3.52L154,15.23h-1.19L156.84,6l4.06,9.19h-1.18Zm-3.1-1h2.68l-1.34-3.15Z" transform="translate(-19.85 -1.1)"/><path class="cls-1" d="M167,6.48v1H163V10h3.69v1H163v3.25H167v1h-5V6.48Z" transform="translate(-19.85 -1.1)"/><path class="cls-1" d="M169.9,6.48V10h4.82V6.48h1.06v8.75h-1.06V11H169.9v4.25h-1.06V6.48Z" transform="translate(-19.85 -1.1)"/><path class="cls-1" d="M177.78,15.23V6.48h2.62a4.18,4.18,0,0,1,4.38,4.37,4.19,4.19,0,0,1-4.38,4.38Zm1.06-7.69v6.62h1.56a3.11,3.11,0,0,0,3.32-3.31,3.12,3.12,0,0,0-3.32-3.31Z" transform="translate(-19.85 -1.1)"/><rect class="cls-4" x="122.67" y="0.5" width="46.09" height="18.21"/><rect class="cls-3" x="122.17" y="140.91" width="123.97" height="12.1"/><rect class="cls-3" x="122.17" y="106.57" width="123.97" height="12.1"/><rect class="cls-2" x="122.17" y="140.91" width="15.73" height="12.1"/><rect class="cls-2" x="122.17" y="106.57" width="61.99" height="12.1"/><rect class="cls-3" x="122.17" y="72.23" width="123.97" height="12.1"/><rect class="cls-2" x="122.17" y="72.23" width="46.26" height="12.1"/><rect class="cls-3" x="122.17" y="37.89" width="123.97" height="12.1"/><rect class="cls-2" x="122.17" y="37.89" width="86.77" height="12.1"/><polyline class="cls-5" points="246.47 159.81 246.47 22.08 364.08 22.08"/><path class="cls-3" d="M276,4.19c2.09,0,3.69,1.25,3.69,3.25s-1.6,3.26-3.69,3.26h-1.63V15h-1.32V4.19Zm-1.63,1.24v4H276c1.39,0,2.37-.69,2.37-2s-1-2-2.37-2Z" transform="translate(-19.85 -1.1)"/><path class="cls-3" d="M283.61,8.91c-.93,0-1.19.76-1.19,1.79V15h-1.24V7.91h1.24v.82a1.92,1.92,0,0,1,1.5-1,1.72,1.72,0,0,1,1.34.5l-.69,1A1.4,1.4,0,0,0,283.61,8.91Z" transform="translate(-19.85 -1.1)"/><path class="cls-3" d="M289.33,7.75A3.61,3.61,0,0,1,293,11.47a3.69,3.69,0,1,1-7.38,0A3.61,3.61,0,0,1,289.33,7.75Zm0,6.28a2.42,2.42,0,0,0,2.44-2.56,2.44,2.44,0,1,0-4.87,0A2.42,2.42,0,0,0,289.33,14Z" transform="translate(-19.85 -1.1)"/><path class="cls-3" d="M294.06,17.21c.53,0,.74-.4.74-1.4V7.91H296V16c0,1.56-.76,2.48-2.06,2.48a1.55,1.55,0,0,1-1.36-.62l.68-1A.88.88,0,0,0,294.06,17.21Zm1.3-13.09a.84.84,0,1,1-.84.84A.84.84,0,0,1,295.36,4.12Z" transform="translate(-19.85 -1.1)"/><path class="cls-3" d="M298,11.47a3.45,3.45,0,0,1,3.54-3.72c2.09,0,3.36,1.4,3.36,3.66,0,.15,0,.34,0,.37h-5.61A2.16,2.16,0,0,0,301.52,14a2.47,2.47,0,0,0,2.23-1.29l1,.64a3.73,3.73,0,0,1-3.4,1.81A3.4,3.4,0,0,1,298,11.47Zm1.32-.74h4.23a1.92,1.92,0,0,0-2-1.89A2.09,2.09,0,0,0,299.3,10.73Z" transform="translate(-19.85 -1.1)"/><path class="cls-3" d="M309.58,14a2.79,2.79,0,0,0,2.48-1.3v1.55a3.37,3.37,0,0,1-2.48.91,3.6,3.6,0,0,1-3.69-3.72,3.61,3.61,0,0,1,3.69-3.72,3.42,3.42,0,0,1,2.48.92v1.55a2.79,2.79,0,0,0-2.48-1.31,2.42,2.42,0,0,0-2.44,2.56A2.42,2.42,0,0,0,309.58,14Z" transform="translate(-19.85 -1.1)"/><path class="cls-3" d="M314.07,7.91V5.43h1.24V7.91h1.16V9.07h-1.16v6h-1.24v-6h-1.16V7.91Z" transform="translate(-19.85 -1.1)"/><path class="cls-3" d="M325.39,4.19c2.09,0,3.68,1.25,3.68,3.25a3.14,3.14,0,0,1-2.58,3.13L329.73,15H328.1l-3-4.34h-1.31V15h-1.32V4.19Zm-1.63,1.16V9.53h1.63a2.11,2.11,0,1,0,0-4.18Z" transform="translate(-19.85 -1.1)"/><path class="cls-3" d="M330.42,11.47A3.45,3.45,0,0,1,334,7.75c2.09,0,3.36,1.4,3.36,3.66,0,.15,0,.34,0,.37h-5.62A2.16,2.16,0,0,0,334,14a2.47,2.47,0,0,0,2.23-1.29l1,.64a3.73,3.73,0,0,1-3.4,1.81A3.4,3.4,0,0,1,330.42,11.47Zm1.32-.74H336a1.92,1.92,0,0,0-2-1.89A2.09,2.09,0,0,0,331.74,10.73Z" transform="translate(-19.85 -1.1)"/><path class="cls-3" d="M338.79,8.63a4.84,4.84,0,0,1,2.81-.88c1.66,0,2.79.79,2.79,2.17V15h-1.24v-1a2.8,2.8,0,0,1-2.36,1.11,2.28,2.28,0,0,1-2.46-2.29c0-1.38,1-2.3,2.79-2.3a3.81,3.81,0,0,1,2,.53v-1c0-1-.73-1.25-1.61-1.25a3.52,3.52,0,0,0-2.14.71Zm2.33,5.49a1.89,1.89,0,0,0,2-1.87V12a4,4,0,0,0-1.83-.4c-1.21,0-1.74.48-1.74,1.26S340.2,14.12,341.12,14.12Z" transform="translate(-19.85 -1.1)"/><path class="cls-3" d="M349.47,14a2.76,2.76,0,0,0,2.48-1.3v1.55a3.34,3.34,0,0,1-2.48.91,3.61,3.61,0,0,1-3.69-3.72,3.61,3.61,0,0,1,3.69-3.72,3.38,3.38,0,0,1,2.48.92v1.55a2.77,2.77,0,0,0-2.48-1.31A2.42,2.42,0,0,0,347,11.47,2.42,2.42,0,0,0,349.47,14Z" transform="translate(-19.85 -1.1)"/><path class="cls-3" d="M356.94,8.91a1.73,1.73,0,0,0-1.81,1.79V15h-1.24V3h1.24V9a2.37,2.37,0,0,1,2.12-1.29c1.48,0,2.45.95,2.45,2.79V15h-1.24V10.7C358.46,9.52,358,8.91,356.94,8.91Z" transform="translate(-19.85 -1.1)"/></svg>