<svg id="图层_1" data-name="图层 1" xmlns="http://www.w3.org/2000/svg" viewBox="0 0 376.08 160.55"><defs><style>.cls-1{fill:#333;}.cls-2{fill:#e2282b;}.cls-3{fill:#f2868c;}.cls-4{fill:#939393;}.cls-5,.cls-6{fill:none;stroke-miterlimit:10;}.cls-5{stroke:#939393;stroke-width:0.66px;}.cls-6{stroke:#e2282b;stroke-width:0.99px;}</style></defs><path class="cls-1" d="M62.63,138.23h6.89v1.24H66.73v9.61H65.42v-9.61H62.63Z" transform="translate(-34.71 -0.73)"/><path class="cls-1" d="M72,143c-.93,0-1.19.76-1.19,1.79v4.34H69.6V142h1.24v.82a1.92,1.92,0,0,1,1.5-1,1.71,1.71,0,0,1,1.34.5l-.68,1A1.45,1.45,0,0,0,72,143Z" transform="translate(-34.71 -0.73)"/><path class="cls-1" d="M74.68,142.68a4.79,4.79,0,0,1,2.81-.89c1.66,0,2.79.79,2.79,2.17v5.12H79v-1a2.79,2.79,0,0,1-2.36,1.11,2.29,2.29,0,0,1-2.46-2.29c0-1.38,1-2.3,2.79-2.3a3.79,3.79,0,0,1,2,.53v-1c0-1-.73-1.25-1.61-1.25a3.52,3.52,0,0,0-2.14.71ZM77,148.16a1.89,1.89,0,0,0,2-1.87V146a4,4,0,0,0-1.83-.4c-1.21,0-1.73.48-1.73,1.26S76.1,148.16,77,148.16Z" transform="translate(-34.71 -0.73)"/><path class="cls-1" d="M83.23,138.15a.85.85,0,1,1-.86.85A.86.86,0,0,1,83.23,138.15Zm.62,3.8v7.13H82.61V142Z" transform="translate(-34.71 -0.73)"/><path class="cls-1" d="M89.46,143a1.71,1.71,0,0,0-1.82,1.79v4.34H86.4V142h1.24v1.11a2.28,2.28,0,0,1,2.13-1.27c1.5,0,2.45,1.07,2.45,2.79v4.5H91v-4.34C91,143.56,90.45,143,89.46,143Z" transform="translate(-34.71 -0.73)"/><path class="cls-1" d="M95.39,138.15a.85.85,0,1,1,0,1.7.85.85,0,0,1,0-1.7ZM96,142v7.13H94.77V142Z" transform="translate(-34.71 -0.73)"/><path class="cls-1" d="M101.62,143a1.71,1.71,0,0,0-1.81,1.79v4.34H98.57V142h1.24v1.11a2.27,2.27,0,0,1,2.12-1.27c1.51,0,2.45,1.07,2.45,2.79v4.5h-1.24v-4.34C103.14,143.56,102.62,143,101.62,143Z" transform="translate(-34.71 -0.73)"/><path class="cls-1" d="M107.48,149.54a2.08,2.08,0,0,0,2.28,1.94,2.31,2.31,0,0,0,2.3-2.56v-1.07a2.72,2.72,0,0,1-2.44,1.38,3.73,3.73,0,0,1,0-7.44,2.74,2.74,0,0,1,2.44,1.38V142h1.24v7a3.49,3.49,0,0,1-3.54,3.72c-2.09,0-3.53-1.25-3.53-3.1Zm2.3-1.47a2.56,2.56,0,1,0-2.44-2.56A2.4,2.4,0,0,0,109.78,148.07Z" transform="translate(-34.71 -0.73)"/><path class="cls-1" d="M119.18,138.23h6.9v1.24h-2.79v9.61H122v-9.61h-2.79Z" transform="translate(-34.71 -0.73)"/><path class="cls-1" d="M128.25,138.15a.85.85,0,1,1-.85.85A.86.86,0,0,1,128.25,138.15Zm.62,3.8v7.13h-1.24V142Z" transform="translate(-34.71 -0.73)"/><path class="cls-1" d="M141.2,149.08H140v-4.34c0-1.23-.44-1.79-1.37-1.79a1.6,1.6,0,0,0-1.66,1.79v4.34h-1.24v-4.34c0-1.23-.43-1.79-1.36-1.79a1.59,1.59,0,0,0-1.66,1.79v4.34h-1.24V142h1.24v1a2.24,2.24,0,0,1,4,.13,2.41,2.41,0,0,1,2.2-1.33c1.46,0,2.3,1,2.3,2.79Z" transform="translate(-34.71 -0.73)"/><path class="cls-1" d="M142.9,145.51a3.44,3.44,0,0,1,3.53-3.72c2.1,0,3.37,1.4,3.37,3.66,0,.16,0,.34,0,.37h-5.61a2.15,2.15,0,0,0,2.26,2.25,2.48,2.48,0,0,0,2.24-1.29l1,.64a3.7,3.7,0,0,1-3.39,1.81A3.4,3.4,0,0,1,142.9,145.51Zm1.32-.74h4.23a1.92,1.92,0,0,0-2-1.89A2.08,2.08,0,0,0,144.22,144.77Z" transform="translate(-34.71 -0.73)"/><path class="cls-1" d="M40.21,105a5.58,5.58,0,1,1-5.5,5.58A5.42,5.42,0,0,1,40.21,105Zm0,9.85a4.27,4.27,0,1,0-4.1-4.27A4.07,4.07,0,0,0,40.21,114.81Z" transform="translate(-34.71 -0.73)"/><path class="cls-1" d="M50.26,115a1.71,1.71,0,0,0,1.81-1.78v-4.34h1.24V116H52.07v-1.12A2.27,2.27,0,0,1,50,116.12c-1.49,0-2.45-1.08-2.45-2.79v-4.49h1.24v4.34C48.74,114.33,49.27,115,50.26,115Z" transform="translate(-34.71 -0.73)"/><path class="cls-1" d="M55.71,108.84v-2.48H57v2.48h1.17V110H57v6H55.71v-6H54.55v-1.16Z" transform="translate(-34.71 -0.73)"/><path class="cls-1" d="M59.28,119.38V108.84h1.24v1.22A2.74,2.74,0,0,1,63,108.68a3.72,3.72,0,0,1,0,7.44,2.72,2.72,0,0,1-2.43-1.38v4.64Zm3.52-9.53a2.56,2.56,0,1,0,2.43,2.55A2.39,2.39,0,0,0,62.8,109.85Z" transform="translate(-34.71 -0.73)"/><path class="cls-1" d="M71,115a1.71,1.71,0,0,0,1.81-1.78v-4.34H74V116H72.76v-1.12a2.26,2.26,0,0,1-2.12,1.27c-1.49,0-2.45-1.08-2.45-2.79v-4.49h1.24v4.34C69.43,114.33,70,115,71,115Z" transform="translate(-34.71 -0.73)"/><path class="cls-1" d="M76.4,108.84v-2.48h1.25v2.48h1.16V110H77.65v6H76.4v-6H75.24v-1.16Z" transform="translate(-34.71 -0.73)"/><path class="cls-1" d="M87.72,105.12c2.09,0,3.69,1.25,3.69,3.25a3.14,3.14,0,0,1-2.59,3.13L92.06,116H90.43l-3-4.34H86.09V116H84.77V105.12Zm-1.63,1.16v4.19h1.63a2.11,2.11,0,1,0,0-4.19Z" transform="translate(-34.71 -0.73)"/><path class="cls-1" d="M92.76,112.4a3.44,3.44,0,0,1,3.53-3.72c2.09,0,3.37,1.4,3.37,3.66,0,.16,0,.34,0,.37H94A2.15,2.15,0,0,0,96.29,115a2.46,2.46,0,0,0,2.23-1.28l1,.63a3.7,3.7,0,0,1-3.39,1.81C94.14,116.12,92.76,114.61,92.76,112.4Zm1.31-.74h4.24a1.93,1.93,0,0,0-2-1.89A2.1,2.1,0,0,0,94.07,111.66Z" transform="translate(-34.71 -0.73)"/><path class="cls-1" d="M103.59,115c.7,0,1.13-.34,1.13-.9,0-.74-.82-1.08-1.64-1.39s-2-.89-2-2.14,1.15-1.88,2.31-1.88a3,3,0,0,1,2.58,1.4l-1,.63a2.2,2.2,0,0,0-1.74-.93c-.51,0-1,.22-1,.7s.73.9,1.49,1.21c1.24.51,2.25,1,2.25,2.26a2.23,2.23,0,0,1-2.45,2.17,3.14,3.14,0,0,1-2.85-1.73l1-.61A2.32,2.32,0,0,0,103.59,115Z" transform="translate(-34.71 -0.73)"/><path class="cls-1" d="M110.68,108.68A3.72,3.72,0,1,1,107,112.4,3.61,3.61,0,0,1,110.68,108.68Zm0,6.28a2.56,2.56,0,1,0-2.44-2.56A2.42,2.42,0,0,0,110.68,115Z" transform="translate(-34.71 -0.73)"/><path class="cls-1" d="M117.31,103.88V116h-1.24V103.88Z" transform="translate(-34.71 -0.73)"/><path class="cls-1" d="M122.39,115a1.71,1.71,0,0,0,1.82-1.78v-4.34h1.24V116h-1.24v-1.12a2.28,2.28,0,0,1-2.13,1.27c-1.48,0-2.45-1.08-2.45-2.79v-4.49h1.24v4.34C120.87,114.33,121.4,115,122.39,115Z" transform="translate(-34.71 -0.73)"/><path class="cls-1" d="M127.85,108.84v-2.48h1.24v2.48h1.16V110h-1.16v6h-1.24v-6h-1.16v-1.16Z" transform="translate(-34.71 -0.73)"/><path class="cls-1" d="M132.34,105a.86.86,0,1,1-.85.85A.86.86,0,0,1,132.34,105Zm.62,3.8V116h-1.24v-7.13Z" transform="translate(-34.71 -0.73)"/><path class="cls-1" d="M138.59,108.68a3.72,3.72,0,1,1-3.69,3.72A3.61,3.61,0,0,1,138.59,108.68Zm0,6.28a2.56,2.56,0,1,0-2.43-2.56A2.42,2.42,0,0,0,138.59,115Z" transform="translate(-34.71 -0.73)"/><path class="cls-1" d="M147,109.85a1.71,1.71,0,0,0-1.82,1.78V116H144v-7.13h1.24V110a2.3,2.3,0,0,1,2.13-1.27c1.5,0,2.45,1.07,2.45,2.79V116h-1.24v-4.34C148.56,110.45,148,109.85,147,109.85Z" transform="translate(-34.71 -0.73)"/><path class="cls-1" d="M44.38,72.63V83.48H43.07V72.63Z" transform="translate(-34.71 -0.73)"/><path class="cls-1" d="M46.86,76.35V73.87H48.1v2.48h1.17v1.16H48.1v6H46.86v-6H45.7V76.35Z" transform="translate(-34.71 -0.73)"/><path class="cls-1" d="M49.88,79.92a3.45,3.45,0,0,1,3.54-3.72c2.09,0,3.36,1.39,3.36,3.65,0,.16,0,.34,0,.38H51.16a2.14,2.14,0,0,0,2.26,2.24,2.46,2.46,0,0,0,2.23-1.28l1,.63a3.72,3.72,0,0,1-3.4,1.82A3.4,3.4,0,0,1,49.88,79.92Zm1.32-.75h4.24a1.93,1.93,0,0,0-2-1.89A2.1,2.1,0,0,0,51.2,79.17Z" transform="translate(-34.71 -0.73)"/><path class="cls-1" d="M60.92,77.36c-.93,0-1.19.76-1.19,1.78v4.34H58.49V76.35h1.24v.82a1.93,1.93,0,0,1,1.5-1,1.73,1.73,0,0,1,1.34.49l-.69,1A1.46,1.46,0,0,0,60.92,77.36Z" transform="translate(-34.71 -0.73)"/><path class="cls-1" d="M63.57,77.08a4.77,4.77,0,0,1,2.81-.88c1.66,0,2.79.79,2.79,2.17v5.11H67.93v-1a2.81,2.81,0,0,1-2.36,1.12,2.29,2.29,0,0,1-2.46-2.3c0-1.38,1-2.29,2.79-2.29a3.82,3.82,0,0,1,2,.52v-1c0-1-.73-1.26-1.61-1.26a3.52,3.52,0,0,0-2.14.71Zm2.33,5.49a1.9,1.9,0,0,0,2-1.88v-.26A4.06,4.06,0,0,0,66.1,80c-1.21,0-1.74.48-1.74,1.26S65,82.57,65.9,82.57Z" transform="translate(-34.71 -0.73)"/><path class="cls-1" d="M71.34,76.35V73.87h1.24v2.48h1.16v1.16H72.58v6H71.34v-6H70.17V76.35Z" transform="translate(-34.71 -0.73)"/><path class="cls-1" d="M75.83,72.55a.86.86,0,0,1,0,1.71.86.86,0,0,1,0-1.71Zm.62,3.8v7.13H75.21V76.35Z" transform="translate(-34.71 -0.73)"/><path class="cls-1" d="M82.08,76.2a3.72,3.72,0,1,1-3.69,3.72A3.61,3.61,0,0,1,82.08,76.2Zm0,6.27a2.56,2.56,0,1,0-2.44-2.55A2.42,2.42,0,0,0,82.08,82.47Z" transform="translate(-34.71 -0.73)"/><path class="cls-1" d="M90.53,77.36a1.71,1.71,0,0,0-1.82,1.78v4.34H87.47V76.35h1.24v1.12a2.28,2.28,0,0,1,2.13-1.27c1.5,0,2.45,1.06,2.45,2.79v4.49H92.05V79.14C92.05,78,91.52,77.36,90.53,77.36Z" transform="translate(-34.71 -0.73)"/><path class="cls-1" d="M106.4,80.23H102l-1.38,3.25H99.17l5-11.39,5,11.39h-1.47ZM102.55,79h3.32l-1.66-3.91Z" transform="translate(-34.71 -0.73)"/><path class="cls-1" d="M120.26,83.48H119V79.14c0-1.22-.44-1.78-1.37-1.78A1.59,1.59,0,0,0,116,79.14v4.34h-1.24V79.14c0-1.22-.43-1.78-1.36-1.78a1.58,1.58,0,0,0-1.66,1.78v4.34h-1.24V76.35h1.24v1a2.24,2.24,0,0,1,4,.14A2.39,2.39,0,0,1,118,76.2c1.46,0,2.3,1,2.3,2.79Z" transform="translate(-34.71 -0.73)"/><path class="cls-1" d="M125.65,76.2A3.72,3.72,0,1,1,122,79.92,3.61,3.61,0,0,1,125.65,76.2Zm0,6.27a2.56,2.56,0,1,0-2.44-2.55A2.42,2.42,0,0,0,125.65,82.47Z" transform="translate(-34.71 -0.73)"/><path class="cls-1" d="M133.8,82.47a1.7,1.7,0,0,0,1.81-1.78V76.35h1.25v7.13h-1.25V82.37a2.28,2.28,0,0,1-2.12,1.27c-1.49,0-2.45-1.09-2.45-2.79v-4.5h1.24v4.34C132.28,81.84,132.81,82.47,133.8,82.47Z" transform="translate(-34.71 -0.73)"/><path class="cls-1" d="M142.23,77.36a1.71,1.71,0,0,0-1.81,1.78v4.34h-1.24V76.35h1.24v1.12a2.27,2.27,0,0,1,2.12-1.27c1.51,0,2.45,1.06,2.45,2.79v4.49h-1.24V79.14C143.75,78,143.23,77.36,142.23,77.36Z" transform="translate(-34.71 -0.73)"/><path class="cls-1" d="M147.39,76.35V73.87h1.24v2.48h1.17v1.16h-1.17v6h-1.24v-6h-1.16V76.35Z" transform="translate(-34.71 -0.73)"/><path class="cls-1" d="M72.41,49.52V38.67h3.25a5.18,5.18,0,0,1,5.43,5.42,5.19,5.19,0,0,1-5.43,5.43ZM73.72,40V48.2h1.94a3.86,3.86,0,0,0,4.11-4.11A3.86,3.86,0,0,0,75.66,40Z" transform="translate(-34.71 -0.73)"/><path class="cls-1" d="M82.64,43.12a4.73,4.73,0,0,1,2.8-.89c1.66,0,2.79.79,2.79,2.17v5.12H87v-1a2.79,2.79,0,0,1-2.35,1.12,2.3,2.3,0,0,1-2.47-2.3c0-1.38,1-2.29,2.79-2.29a3.8,3.8,0,0,1,2,.52v-1c0-1-.73-1.25-1.61-1.25a3.54,3.54,0,0,0-2.14.71ZM85,48.61a1.9,1.9,0,0,0,2-1.88v-.26a4,4,0,0,0-1.83-.41c-1.21,0-1.73.48-1.73,1.26S84.05,48.61,85,48.61Z" transform="translate(-34.71 -0.73)"/><path class="cls-1" d="M90.4,42.39V39.91h1.24v2.48H92.8v1.16H91.64v6H90.4v-6H89.24V42.39Z" transform="translate(-34.71 -0.73)"/><path class="cls-1" d="M93.81,43.12a4.77,4.77,0,0,1,2.81-.89c1.66,0,2.79.79,2.79,2.17v5.12H98.17v-1a2.81,2.81,0,0,1-2.36,1.12,2.29,2.29,0,0,1-2.46-2.3c0-1.38,1-2.29,2.79-2.29a3.82,3.82,0,0,1,2,.52v-1c0-1-.73-1.25-1.61-1.25a3.52,3.52,0,0,0-2.14.71Zm2.33,5.49a1.9,1.9,0,0,0,2-1.88v-.26a4.09,4.09,0,0,0-1.83-.41c-1.21,0-1.74.48-1.74,1.26S95.22,48.61,96.14,48.61Z" transform="translate(-34.71 -0.73)"/><path class="cls-1" d="M103.73,48.54c.7,0,1.13-.34,1.13-.9,0-.74-.82-1.08-1.64-1.39s-2-.88-2-2.14,1.15-1.88,2.31-1.88a3,3,0,0,1,2.58,1.4l-1,.63a2.2,2.2,0,0,0-1.74-.93c-.51,0-1,.22-1,.7s.73.9,1.49,1.21c1.24.51,2.25,1,2.25,2.26a2.24,2.24,0,0,1-2.45,2.18,3.13,3.13,0,0,1-2.85-1.74l1-.61A2.32,2.32,0,0,0,103.73,48.54Z" transform="translate(-34.71 -0.73)"/><path class="cls-1" d="M107.13,46a3.44,3.44,0,0,1,3.53-3.72c2.09,0,3.37,1.4,3.37,3.66,0,.16,0,.34,0,.37H108.4a2.15,2.15,0,0,0,2.26,2.25,2.46,2.46,0,0,0,2.23-1.28l1,.63a3.71,3.71,0,0,1-3.39,1.82C108.51,49.68,107.13,48.16,107.13,46Zm1.31-.74h4.24a1.93,1.93,0,0,0-2-1.89A2.1,2.1,0,0,0,108.44,45.21Z" transform="translate(-34.71 -0.73)"/><path class="cls-1" d="M115.81,42.39V39.91h1.24v2.48h1.16v1.16h-1.16v6h-1.24v-6h-1.17V42.39Z" transform="translate(-34.71 -0.73)"/><path class="cls-1" d="M127.45,48.44a1.74,1.74,0,0,0,1.92-1.71c0-1.46-1.16-1.91-2.4-2.36-1.09-.38-2.87-1.08-2.87-3a2.89,2.89,0,0,1,3.14-2.81,3.74,3.74,0,0,1,3.4,2.28l-1.13.65a2.61,2.61,0,0,0-2.34-1.67c-1.18,0-1.69.68-1.69,1.38,0,.91.6,1.55,2.51,2.2a3.49,3.49,0,0,1,2.74,3.22,3.18,3.18,0,0,1-3.33,3.11A4.52,4.52,0,0,1,123.52,47l1.06-.72C125.31,47.55,126.14,48.44,127.45,48.44Z" transform="translate(-34.71 -0.73)"/><path class="cls-1" d="M133.44,38.59a.86.86,0,1,1-.85.85A.86.86,0,0,1,133.44,38.59Zm.62,3.8v7.13h-1.24V42.39Z" transform="translate(-34.71 -0.73)"/><path class="cls-1" d="M136.16,43.55V42.39h6.2l-4.42,6h4.11v1.16h-6.36l4.42-6Z" transform="translate(-34.71 -0.73)"/><path class="cls-1" d="M142.9,46a3.44,3.44,0,0,1,3.53-3.72c2.1,0,3.37,1.4,3.37,3.66,0,.16,0,.34,0,.37h-5.61a2.15,2.15,0,0,0,2.26,2.25,2.48,2.48,0,0,0,2.24-1.28l1,.63a3.71,3.71,0,0,1-3.39,1.82C144.28,49.68,142.9,48.16,142.9,46Zm1.32-.74h4.23a1.92,1.92,0,0,0-2-1.89A2.08,2.08,0,0,0,144.22,45.21Z" transform="translate(-34.71 -0.73)"/><path class="cls-1" d="M93.87,11.33H89.5l-1.38,3.26H86.65l5-11.39,5,11.39H95.25ZM90,10.09h3.32l-1.66-3.9Z" transform="translate(-34.71 -0.73)"/><path class="cls-1" d="M99.2,2.5V14.59H98V2.5Z" transform="translate(-34.71 -0.73)"/><path class="cls-1" d="M102.31,15.06A2.07,2.07,0,0,0,104.58,17a2.31,2.31,0,0,0,2.3-2.55V13.37a2.74,2.74,0,0,1-2.44,1.38A3.49,3.49,0,0,1,100.91,11a3.5,3.5,0,0,1,3.53-3.73,2.74,2.74,0,0,1,2.44,1.38V7.46h1.24v7a3.49,3.49,0,0,1-3.54,3.72c-2.09,0-3.53-1.26-3.53-3.1Zm2.29-1.48A2.39,2.39,0,0,0,106.88,11a2.4,2.4,0,0,0-2.28-2.56A2.37,2.37,0,0,0,102.17,11,2.37,2.37,0,0,0,104.6,13.58Z" transform="translate(-34.71 -0.73)"/><path class="cls-1" d="M113.43,7.3A3.61,3.61,0,0,1,117.12,11a3.69,3.69,0,1,1-7.38,0A3.62,3.62,0,0,1,113.43,7.3Zm0,6.28A2.42,2.42,0,0,0,115.87,11,2.44,2.44,0,1,0,111,11,2.42,2.42,0,0,0,113.43,13.58Z" transform="translate(-34.71 -0.73)"/><path class="cls-1" d="M121.26,8.47c-.93,0-1.19.76-1.19,1.78v4.34h-1.24V7.46h1.24v.82a1.94,1.94,0,0,1,1.5-1,1.7,1.7,0,0,1,1.33.5l-.68,1A1.46,1.46,0,0,0,121.26,8.47Z" transform="translate(-34.71 -0.73)"/><path class="cls-1" d="M125,3.66a.86.86,0,1,1-.86.85A.86.86,0,0,1,125,3.66Zm.62,3.8v7.13h-1.24V7.46Z" transform="translate(-34.71 -0.73)"/><path class="cls-1" d="M128.25,7.46V5h1.24V7.46h1.16V8.62h-1.16v6h-1.24v-6h-1.16V7.46Z" transform="translate(-34.71 -0.73)"/><path class="cls-1" d="M135,8.47a1.73,1.73,0,0,0-1.82,1.78v4.34h-1.24V2.5h1.24V8.59a2.4,2.4,0,0,1,2.13-1.29c1.47,0,2.45,1,2.45,2.79v4.5h-1.24V10.25C136.47,9.07,136,8.47,135,8.47Z" transform="translate(-34.71 -0.73)"/><path class="cls-1" d="M149.8,14.59h-1.24V10.25c0-1.22-.44-1.78-1.37-1.78a1.59,1.59,0,0,0-1.66,1.78v4.34h-1.24V10.25c0-1.22-.43-1.78-1.36-1.78a1.59,1.59,0,0,0-1.66,1.78v4.34H140V7.46h1.24v1a2.24,2.24,0,0,1,4,.14,2.4,2.4,0,0,1,2.2-1.34c1.46,0,2.3,1,2.3,2.79Z" transform="translate(-34.71 -0.73)"/><path class="cls-2" d="M288.15,147.41h1.34a1.91,1.91,0,0,0,2.12,1.78,1.85,1.85,0,0,0,2-1.93c0-1.34-1.1-2-2.49-2v-1.16a1.94,1.94,0,0,0,2.18-1.88,1.55,1.55,0,0,0-1.64-1.73,1.72,1.72,0,0,0-1.82,1.65h-1.25a2.83,2.83,0,0,1,3.05-2.85,2.87,2.87,0,0,1,3,2.89,2.7,2.7,0,0,1-1.84,2.46,2.73,2.73,0,0,1,2.15,2.79c0,1.85-1.44,3-3.38,3C289.52,150.43,288.15,149.1,288.15,147.41Z" transform="translate(-34.71 -0.73)"/><path class="cls-2" d="M296.93,140.2l3.72-.93v11h-1.32v-9.43l-2.4.72Z" transform="translate(-34.71 -0.73)"/><path class="cls-3" d="M310.41,139.43l-6.28,13.17h-1.24l6.28-13.17Z" transform="translate(-34.71 -0.73)"/><path class="cls-3" d="M317.42,139.43l-3.05,4a2.34,2.34,0,0,1,1.22-.27,3.34,3.34,0,0,1,3.21,3.52,3.69,3.69,0,1,1-7.38,0,3.79,3.79,0,0,1,.68-2.24l3.66-5Zm-2.31,9.81a2.54,2.54,0,1,0-2.43-2.53A2.4,2.4,0,0,0,315.11,149.24Z" transform="translate(-34.71 -0.73)"/><path class="cls-3" d="M320.5,147.41h1.34a1.91,1.91,0,0,0,2.12,1.78,1.85,1.85,0,0,0,2-1.93c0-1.34-1.1-2-2.5-2v-1.16a2,2,0,0,0,2.19-1.88,1.55,1.55,0,0,0-1.64-1.73,1.72,1.72,0,0,0-1.82,1.65H321a2.83,2.83,0,0,1,3-2.85,2.87,2.87,0,0,1,3,2.89,2.69,2.69,0,0,1-1.85,2.46,2.73,2.73,0,0,1,2.16,2.79c0,1.85-1.44,3-3.38,3S320.5,149.1,320.5,147.41Z" transform="translate(-34.71 -0.73)"/><path class="cls-3" d="M336.9,144.16a1.72,1.72,0,0,0-1.81,1.78v4.34h-1.24V138.19h1.24v6.09a2.37,2.37,0,0,1,2.12-1.29c1.47,0,2.45.95,2.45,2.79v4.5h-1.24v-4.34C338.42,144.76,337.91,144.16,336.9,144.16Z" transform="translate(-34.71 -0.73)"/><path class="cls-3" d="M345.05,143a3.72,3.72,0,1,1-3.69,3.72A3.61,3.61,0,0,1,345.05,143Zm0,6.28a2.56,2.56,0,1,0-2.43-2.56A2.42,2.42,0,0,0,345.05,149.27Z" transform="translate(-34.71 -0.73)"/><path class="cls-3" d="M353.21,149.27a1.71,1.71,0,0,0,1.81-1.78v-4.34h1.24v7.13H355v-1.12a2.27,2.27,0,0,1-2.12,1.27c-1.49,0-2.45-1.08-2.45-2.79v-4.49h1.24v4.34C351.69,148.64,352.22,149.27,353.21,149.27Z" transform="translate(-34.71 -0.73)"/><path class="cls-3" d="M361,144.16c-.93,0-1.2.75-1.2,1.78v4.34h-1.24v-7.13h1.24V144a2,2,0,0,1,1.51-1,1.7,1.7,0,0,1,1.33.5l-.68,1A1.41,1.41,0,0,0,361,144.16Z" transform="translate(-34.71 -0.73)"/><path class="cls-3" d="M366.13,149.3c.7,0,1.14-.34,1.14-.9,0-.74-.83-1.08-1.65-1.39s-2-.89-2-2.14,1.14-1.88,2.31-1.88a3,3,0,0,1,2.57,1.4l-1,.63a2.2,2.2,0,0,0-1.74-.93c-.51,0-1,.22-1,.7s.73.9,1.49,1.21c1.24.51,2.25,1,2.25,2.26a2.23,2.23,0,0,1-2.45,2.17,3.15,3.15,0,0,1-2.85-1.73l1-.61A2.3,2.3,0,0,0,366.13,149.3Z" transform="translate(-34.71 -0.73)"/><path class="cls-2" d="M288.15,105.36l3.72-.93v11h-1.31V106l-2.41.71Z" transform="translate(-34.71 -0.73)"/><path class="cls-2" d="M299.33,110a3.46,3.46,0,0,0,1.13-2.37,2,2,0,0,0-2.09-1.94c-1.4,0-2.23,1-2.23,2.65h-1.32c0-2.31,1.3-3.89,3.55-3.89a3.25,3.25,0,0,1,3.44,3.13,4.7,4.7,0,0,1-1.44,3.14l-3.46,3.51h4.95v1.24H294.2Z" transform="translate(-34.71 -0.73)"/><path class="cls-2" d="M305.48,109.65A2.54,2.54,0,0,1,304,107.2a3,3,0,0,1,6,0,2.54,2.54,0,0,1-1.53,2.45,2.94,2.94,0,0,1,1.92,2.84,3.39,3.39,0,0,1-6.76,0A2.94,2.94,0,0,1,305.48,109.65Zm1.46,4.78a2,2,0,0,0,2.12-2.1,2.12,2.12,0,0,0-4.24,0A2.05,2.05,0,0,0,306.94,114.43Zm0-5.35a1.75,1.75,0,1,0-1.74-1.72A1.71,1.71,0,0,0,306.94,109.08Z" transform="translate(-34.71 -0.73)"/><path class="cls-3" d="M318.69,104.58l-6.28,13.18h-1.24l6.28-13.18Z" transform="translate(-34.71 -0.73)"/><path class="cls-3" d="M320.16,105.36l3.72-.93v11h-1.32V106l-2.4.71Z" transform="translate(-34.71 -0.73)"/><path class="cls-3" d="M331.34,110a3.46,3.46,0,0,0,1.13-2.37,2,2,0,0,0-2.09-1.94c-1.4,0-2.24,1-2.24,2.65h-1.31c0-2.31,1.3-3.89,3.55-3.89a3.25,3.25,0,0,1,3.44,3.13,4.7,4.7,0,0,1-1.44,3.14l-3.46,3.51h4.94v1.24h-7.65Z" transform="translate(-34.71 -0.73)"/><path class="cls-3" d="M337.49,109.65A2.53,2.53,0,0,1,336,107.2a3,3,0,0,1,6,0,2.53,2.53,0,0,1-1.54,2.45,2.94,2.94,0,0,1,1.93,2.84,3.39,3.39,0,0,1-6.76,0A2.94,2.94,0,0,1,337.49,109.65Zm1.46,4.78a2.05,2.05,0,0,0,2.12-2.1,2.13,2.13,0,0,0-4.25,0A2.05,2.05,0,0,0,339,114.43Zm0-5.35a1.75,1.75,0,1,0-1.74-1.72A1.7,1.7,0,0,0,339,109.08Z" transform="translate(-34.71 -0.73)"/><path class="cls-3" d="M348.91,118.85V108.3h1.24v1.23a2.72,2.72,0,0,1,2.44-1.38,3.73,3.73,0,0,1,0,7.44,2.74,2.74,0,0,1-2.44-1.38v4.64Zm3.52-9.54a2.56,2.56,0,1,0,2.44,2.56A2.4,2.4,0,0,0,352.43,109.31Z" transform="translate(-34.71 -0.73)"/><path class="cls-3" d="M362.79,108.3l-2.44,3.46,2.59,3.67h-1.39l-1.86-2.69-1.86,2.69h-1.4l2.59-3.67-2.43-3.46H358l1.71,2.48,1.7-2.48Z" transform="translate(-34.71 -0.73)"/><path class="cls-2" d="M293.29,42.35A3.46,3.46,0,0,0,294.42,40a2,2,0,0,0-2.1-1.94c-1.39,0-2.23,1-2.23,2.65h-1.32c0-2.31,1.31-3.89,3.55-3.89a3.26,3.26,0,0,1,3.45,3.13,4.62,4.62,0,0,1-1.45,3.13l-3.45,3.52h4.94v1.24h-7.66Z" transform="translate(-34.71 -0.73)"/><path class="cls-2" d="M301.31,36.82c2.39,0,4,2.34,4,5.58s-1.65,5.58-4,5.58-4-2.34-4-5.58S298.93,36.82,301.31,36.82Zm0,9.92c1.68,0,2.72-1.82,2.72-4.34s-1-4.34-2.72-4.34-2.71,1.81-2.71,4.34S299.64,46.74,301.31,46.74Z" transform="translate(-34.71 -0.73)"/><path class="cls-2" d="M310.61,36.82c2.39,0,4,2.34,4,5.58S313,48,310.61,48s-4-2.34-4-5.58S308.23,36.82,310.61,36.82Zm0,9.92c1.68,0,2.72-1.82,2.72-4.34s-1-4.34-2.72-4.34-2.71,1.81-2.71,4.34S308.94,46.74,310.61,46.74Z" transform="translate(-34.71 -0.73)"/><path class="cls-3" d="M323,37l-6.27,13.18H315.5L321.77,37Z" transform="translate(-34.71 -0.73)"/><path class="cls-3" d="M328.69,42.35A3.46,3.46,0,0,0,329.82,40,2,2,0,0,0,327.73,38c-1.4,0-2.24,1-2.24,2.65h-1.31c0-2.31,1.3-3.89,3.55-3.89a3.25,3.25,0,0,1,3.44,3.13,4.65,4.65,0,0,1-1.44,3.13l-3.46,3.52h4.94v1.24h-7.65Z" transform="translate(-34.71 -0.73)"/><path class="cls-3" d="M336.72,36.82c2.38,0,4,2.34,4,5.58s-1.65,5.58-4,5.58-4-2.34-4-5.58S334.33,36.82,336.72,36.82Zm0,9.92c1.67,0,2.71-1.82,2.71-4.34s-1-4.34-2.71-4.34S334,39.87,334,42.4,335,46.74,336.72,46.74Z" transform="translate(-34.71 -0.73)"/><path class="cls-3" d="M346,36.82c2.38,0,4,2.34,4,5.58S348.4,48,346,48s-4-2.34-4-5.58S343.63,36.82,346,36.82Zm0,9.92c1.67,0,2.71-1.82,2.71-4.34s-1-4.34-2.71-4.34-2.72,1.81-2.72,4.34S344.34,46.74,346,46.74Z" transform="translate(-34.71 -0.73)"/><path class="cls-3" d="M355.32,36.82c2.38,0,4,2.34,4,5.58s-1.65,5.58-4,5.58-4-2.34-4-5.58S352.93,36.82,355.32,36.82Zm0,9.92c1.67,0,2.71-1.82,2.71-4.34s-1-4.34-2.71-4.34-2.72,1.81-2.72,4.34S353.64,46.74,355.32,46.74Z" transform="translate(-34.71 -0.73)"/><path class="cls-3" d="M366.63,36.89a.86.86,0,0,1,0,1.71.86.86,0,0,1,0-1.71Zm.62,3.8v7.13H366V40.69Z" transform="translate(-34.71 -0.73)"/><path class="cls-3" d="M379.57,47.82h-1.24V43.48c0-1.22-.43-1.78-1.36-1.78a1.59,1.59,0,0,0-1.66,1.78v4.34h-1.24V43.48c0-1.22-.43-1.78-1.36-1.78a1.59,1.59,0,0,0-1.66,1.78v4.34h-1.24V40.69h1.24v1a2.24,2.24,0,0,1,4,.14,2.4,2.4,0,0,1,2.2-1.33c1.46,0,2.29,1,2.29,2.79Z" transform="translate(-34.71 -0.73)"/><path class="cls-3" d="M381.66,41.42a4.8,4.8,0,0,1,2.81-.88c1.66,0,2.79.79,2.79,2.17v5.11H386v-1A2.8,2.8,0,0,1,383.66,48a2.3,2.3,0,0,1-2.46-2.3c0-1.38,1-2.29,2.79-2.29a3.7,3.7,0,0,1,2,.53v-1c0-1-.73-1.26-1.61-1.26a3.58,3.58,0,0,0-2.14.71ZM384,46.91A1.9,1.9,0,0,0,386,45v-.26a4,4,0,0,0-1.83-.4c-1.21,0-1.74.48-1.74,1.25S383.07,46.91,384,46.91Z" transform="translate(-34.71 -0.73)"/><path class="cls-3" d="M390.13,48.29a2.08,2.08,0,0,0,2.28,1.94,2.31,2.31,0,0,0,2.29-2.56V46.6A2.74,2.74,0,0,1,392.27,48a3.49,3.49,0,0,1-3.54-3.72,3.49,3.49,0,0,1,3.54-3.72,2.72,2.72,0,0,1,2.43,1.38V40.69h1.24v7a3.48,3.48,0,0,1-3.53,3.72c-2.1,0-3.54-1.26-3.54-3.1Zm2.29-1.47a2.58,2.58,0,0,0,0-5.12,2.56,2.56,0,0,0,0,5.12Z" transform="translate(-34.71 -0.73)"/><path class="cls-3" d="M397.57,44.26a3.44,3.44,0,0,1,3.53-3.72c2.09,0,3.37,1.39,3.37,3.66,0,.15,0,.34,0,.37h-5.61a2.15,2.15,0,0,0,2.26,2.25,2.45,2.45,0,0,0,2.23-1.29l1,.63A3.71,3.71,0,0,1,401,48,3.4,3.4,0,0,1,397.57,44.26Zm1.31-.75h4.24a1.94,1.94,0,0,0-2-1.89A2.1,2.1,0,0,0,398.88,43.51Z" transform="translate(-34.71 -0.73)"/><path class="cls-3" d="M408.4,46.85c.7,0,1.13-.34,1.13-.9,0-.75-.82-1.09-1.64-1.4s-2.05-.88-2.05-2.14,1.15-1.87,2.31-1.87a3,3,0,0,1,2.58,1.39l-1,.64a2.17,2.17,0,0,0-1.74-.93c-.51,0-.95.21-.95.69s.73.9,1.49,1.21c1.24.52,2.25,1,2.25,2.27A2.23,2.23,0,0,1,408.34,48a3.13,3.13,0,0,1-2.85-1.74l1-.6A2.35,2.35,0,0,0,408.4,46.85Z" transform="translate(-34.71 -0.73)"/><path class="cls-2" d="M293.39,69.85a3.46,3.46,0,0,0,1.13-2.37,2,2,0,0,0-2.1-1.94c-1.39,0-2.23,1-2.23,2.65h-1.32c0-2.31,1.31-3.89,3.55-3.89a3.26,3.26,0,0,1,3.45,3.13,4.64,4.64,0,0,1-1.45,3.13L291,74.08h4.94v1.24h-7.66Z" transform="translate(-34.71 -0.73)"/><path class="cls-2" d="M301.41,64.31c2.39,0,4,2.35,4,5.59s-1.65,5.58-4,5.58-4-2.34-4-5.58S299,64.31,301.41,64.31Zm0,9.93c1.68,0,2.72-1.82,2.72-4.34s-1-4.34-2.72-4.34-2.71,1.81-2.71,4.34S299.74,74.24,301.41,74.24Z" transform="translate(-34.71 -0.73)"/><path class="cls-2" d="M310.71,64.31c2.39,0,4,2.35,4,5.59s-1.64,5.58-4,5.58-4-2.34-4-5.58S308.33,64.31,310.71,64.31Zm0,9.93c1.68,0,2.72-1.82,2.72-4.34s-1-4.34-2.72-4.34S308,67.37,308,69.9,309,74.24,310.71,74.24Z" transform="translate(-34.71 -0.73)"/><path class="cls-2" d="M320,64.31c2.39,0,4,2.35,4,5.59s-1.64,5.58-4,5.58-4-2.34-4-5.58S317.63,64.31,320,64.31Zm0,9.93c1.68,0,2.72-1.82,2.72-4.34s-1-4.34-2.72-4.34-2.71,1.81-2.71,4.34S318.34,74.24,320,74.24Z" transform="translate(-34.71 -0.73)"/><path class="cls-2" d="M329.31,64.31c2.39,0,4,2.35,4,5.59s-1.64,5.58-4,5.58-4-2.34-4-5.58S326.93,64.31,329.31,64.31Zm0,9.93c1.68,0,2.72-1.82,2.72-4.34s-1-4.34-2.72-4.34-2.71,1.81-2.71,4.34S327.64,74.24,329.31,74.24Z" transform="translate(-34.71 -0.73)"/><path class="cls-2" d="M338.61,64.31c2.39,0,4,2.35,4,5.59s-1.64,5.58-4,5.58-4-2.34-4-5.58S336.23,64.31,338.61,64.31Zm0,9.93c1.68,0,2.72-1.82,2.72-4.34s-1-4.34-2.72-4.34-2.71,1.81-2.71,4.34S336.94,74.24,338.61,74.24Z" transform="translate(-34.71 -0.73)"/><path class="cls-3" d="M351,64.47l-6.27,13.18h-1.25l6.28-13.18Z" transform="translate(-34.71 -0.73)"/><path class="cls-3" d="M356.69,69.85a3.46,3.46,0,0,0,1.13-2.37,2,2,0,0,0-2.09-1.94c-1.4,0-2.24,1-2.24,2.65h-1.31c0-2.31,1.3-3.89,3.55-3.89a3.25,3.25,0,0,1,3.44,3.13,4.67,4.67,0,0,1-1.44,3.13l-3.46,3.52h4.94v1.24h-7.66Z" transform="translate(-34.71 -0.73)"/><path class="cls-3" d="M364.72,64.31c2.38,0,4,2.35,4,5.59s-1.65,5.58-4,5.58-4-2.34-4-5.58S362.33,64.31,364.72,64.31Zm0,9.93c1.67,0,2.71-1.82,2.71-4.34s-1-4.34-2.71-4.34S362,67.37,362,69.9,363,74.24,364.72,74.24Z" transform="translate(-34.71 -0.73)"/><path class="cls-3" d="M374,64.31c2.39,0,4,2.35,4,5.59s-1.65,5.58-4,5.58-4-2.34-4-5.58S371.63,64.31,374,64.31Zm0,9.93c1.68,0,2.72-1.82,2.72-4.34s-1-4.34-2.72-4.34-2.71,1.81-2.71,4.34S372.34,74.24,374,74.24Z" transform="translate(-34.71 -0.73)"/><path class="cls-3" d="M383.31,64.31c2.39,0,4,2.35,4,5.59s-1.65,5.58-4,5.58-4-2.34-4-5.58S380.93,64.31,383.31,64.31Zm0,9.93c1.68,0,2.72-1.82,2.72-4.34s-1-4.34-2.72-4.34-2.71,1.81-2.71,4.34S381.64,74.24,383.31,74.24Z" transform="translate(-34.71 -0.73)"/><path class="cls-3" d="M392.62,64.31c2.38,0,4,2.35,4,5.59s-1.65,5.58-4,5.58-4-2.34-4-5.58S390.23,64.31,392.62,64.31Zm0,9.93c1.67,0,2.71-1.82,2.71-4.34s-1-4.34-2.71-4.34-2.72,1.81-2.72,4.34S390.94,74.24,392.62,74.24Z" transform="translate(-34.71 -0.73)"/><path class="cls-3" d="M401.91,64.31c2.39,0,4,2.35,4,5.59s-1.65,5.58-4,5.58-4-2.34-4-5.58S399.53,64.31,401.91,64.31Zm0,9.93c1.68,0,2.72-1.82,2.72-4.34s-1-4.34-2.72-4.34-2.71,1.81-2.71,4.34S400.24,74.24,401.91,74.24Z" transform="translate(-34.71 -0.73)"/><path class="cls-4" d="M295,79.52l-5.68,11.9h-1.12l5.68-11.9Z" transform="translate(-34.71 -0.73)"/><path class="cls-4" d="M300.07,84.38a3.1,3.1,0,0,0,1-2.15,1.8,1.8,0,0,0-1.89-1.75c-1.26,0-2,.91-2,2.4H296c0-2.09,1.18-3.52,3.21-3.52a2.94,2.94,0,0,1,3.11,2.83A4.21,4.21,0,0,1,301,85l-3.12,3.18h4.46v1.12h-6.92Z" transform="translate(-34.71 -0.73)"/><path class="cls-4" d="M309.24,79.52l-2.76,3.64a2.14,2.14,0,0,1,1.11-.24,3,3,0,0,1,2.9,3.18,3.34,3.34,0,1,1-6.67,0,3.45,3.45,0,0,1,.62-2l3.3-4.55Zm-2.09,8.86a2.16,2.16,0,0,0,2.2-2.28,2.2,2.2,0,1,0-4.4,0A2.16,2.16,0,0,0,307.15,88.38Z" transform="translate(-34.71 -0.73)"/><path class="cls-4" d="M313.69,84.1a2.31,2.31,0,0,1-1.39-2.22,2.71,2.71,0,0,1,5.41,0,2.29,2.29,0,0,1-1.39,2.22,2.64,2.64,0,0,1,1.74,2.56,3.07,3.07,0,0,1-6.11,0A2.66,2.66,0,0,1,313.69,84.1ZM315,88.41a1.85,1.85,0,0,0,1.92-1.89,1.92,1.92,0,0,0-3.84,0A1.85,1.85,0,0,0,315,88.41Zm0-4.83A1.58,1.58,0,1,0,313.44,82,1.54,1.54,0,0,0,315,83.58Z" transform="translate(-34.71 -0.73)"/><path class="cls-4" d="M323,79.38c2.16,0,3.64,2.11,3.64,5s-1.48,5-3.64,5-3.64-2.11-3.64-5S320.87,79.38,323,79.38Zm0,9c1.51,0,2.45-1.64,2.45-3.92s-.94-3.92-2.45-3.92-2.45,1.64-2.45,3.92S321.52,88.34,323,88.34Z" transform="translate(-34.71 -0.73)"/><path class="cls-4" d="M331.43,79.38c2.16,0,3.64,2.11,3.64,5s-1.48,5-3.64,5-3.64-2.11-3.64-5S329.27,79.38,331.43,79.38Zm0,9c1.51,0,2.45-1.64,2.45-3.92s-.94-3.92-2.45-3.92S329,82.14,329,84.42,329.92,88.34,331.43,88.34Z" transform="translate(-34.71 -0.73)"/><path class="cls-4" d="M339.83,79.38c2.16,0,3.64,2.11,3.64,5s-1.48,5-3.64,5-3.64-2.11-3.64-5S337.67,79.38,339.83,79.38Zm0,9c1.51,0,2.45-1.64,2.45-3.92s-.94-3.92-2.45-3.92-2.45,1.64-2.45,3.92S338.32,88.34,339.83,88.34Z" transform="translate(-34.71 -0.73)"/><path class="cls-4" d="M349.35,82.88V80.64h1.12v2.24h1v1.05h-1v5.39h-1.12V83.93H348.3V82.88Z" transform="translate(-34.71 -0.73)"/><path class="cls-4" d="M353.41,79.45a.77.77,0,1,1-.77.77A.78.78,0,0,1,353.41,79.45Zm.56,3.43v6.44h-1.12V82.88Z" transform="translate(-34.71 -0.73)"/><path class="cls-4" d="M365.1,89.32H364V85.4c0-1.11-.39-1.61-1.23-1.61a1.43,1.43,0,0,0-1.5,1.61v3.92h-1.12V85.4c0-1.11-.39-1.61-1.23-1.61a1.43,1.43,0,0,0-1.5,1.61v3.92h-1.12V82.88h1.12v.94a1.88,1.88,0,0,1,1.78-1.08,1.86,1.86,0,0,1,1.86,1.2,2.18,2.18,0,0,1,2-1.2c1.32,0,2.07.92,2.07,2.52Z" transform="translate(-34.71 -0.73)"/><path class="cls-4" d="M366.64,86.1a3.11,3.11,0,0,1,3.19-3.36c1.89,0,3,1.26,3,3.3,0,.14,0,.31,0,.34h-5.07a1.94,1.94,0,0,0,2,2,2.24,2.24,0,0,0,2-1.16l.91.57a3.35,3.35,0,0,1-3.07,1.64A3.06,3.06,0,0,1,366.64,86.1Zm1.19-.67h3.82a1.73,1.73,0,0,0-1.82-1.71A1.89,1.89,0,0,0,367.83,85.43Z" transform="translate(-34.71 -0.73)"/><path class="cls-4" d="M376.42,88.44c.63,0,1-.31,1-.81,0-.67-.75-1-1.49-1.26s-1.85-.8-1.85-1.94,1-1.69,2.09-1.69A2.71,2.71,0,0,1,378.53,84l-.9.57a2,2,0,0,0-1.57-.84c-.46,0-.85.2-.85.63s.65.82,1.34,1.1c1.12.46,2,.89,2,2a2,2,0,0,1-2.21,2,2.84,2.84,0,0,1-2.58-1.57l.88-.54A2.11,2.11,0,0,0,376.42,88.44Z" transform="translate(-34.71 -0.73)"/><rect class="cls-2" x="121.78" y="34.25" width="12.46" height="9.12"/><polyline class="cls-5" points="246.69 160.55 246.69 22.14 364.88 22.14"/><path class="cls-1" d="M164.37,14a1.39,1.39,0,0,0,1.55-1.37c0-1.18-.94-1.54-1.94-1.9s-2.31-.88-2.31-2.46A2.34,2.34,0,0,1,164.21,6a3,3,0,0,1,2.73,1.84l-.91.53A2.1,2.1,0,0,0,164.14,7c-.95,0-1.36.55-1.36,1.11,0,.74.49,1.25,2,1.77a2.83,2.83,0,0,1,2.21,2.6,2.56,2.56,0,0,1-2.69,2.5,3.62,3.62,0,0,1-3.12-2.2l.85-.57C162.64,13.27,163.32,14,164.37,14Z" transform="translate(-34.71 -0.73)"/><path class="cls-1" d="M173.47,12.23h-3.53l-1.11,2.63h-1.19l4.07-9.19,4.06,9.19h-1.19Zm-3.1-1H173l-1.33-3.15Z" transform="translate(-34.71 -0.73)"/><path class="cls-1" d="M181.83,6.11v1h-3.94v2.5h3.69v1h-3.69v3.25h3.94v1h-5V6.11Z" transform="translate(-34.71 -0.73)"/><path class="cls-1" d="M184.77,6.11v3.5h4.81V6.11h1.06v8.75h-1.06V10.61h-4.81v4.25h-1.06V6.11Z" transform="translate(-34.71 -0.73)"/><path class="cls-1" d="M192.64,14.86V6.11h2.63a4.17,4.17,0,0,1,4.37,4.37,4.18,4.18,0,0,1-4.37,4.38Zm1.07-7.69V13.8h1.56a3.12,3.12,0,0,0,3.31-3.32,3.11,3.11,0,0,0-3.31-3.31Z" transform="translate(-34.71 -0.73)"/><rect class="cls-4" x="121.78" y="34.25" width="124.58" height="9.12"/><rect class="cls-3" x="121.78" y="43.37" width="124.58" height="9.12"/><rect class="cls-2" x="121.78" y="101.79" width="124.58" height="9.12"/><rect class="cls-3" x="121.78" y="110.9" width="124.58" height="9.12"/><rect class="cls-4" x="121.78" y="135.55" width="124.58" height="9.12"/><rect class="cls-2" x="121.78" y="135.55" width="57.79" height="9.12"/><rect class="cls-3" x="121.78" y="144.67" width="124.58" height="9.12"/><rect class="cls-6" x="122.67" y="0.5" width="46.09" height="18.21"/><rect class="cls-4" x="121.78" y="68.02" width="124.58" height="9.12"/><rect class="cls-4" x="121.78" y="77.14" width="124.58" height="9.12"/><rect class="cls-2" x="121.78" y="68.02" width="92.98" height="9.12"/><rect class="cls-3" x="121.78" y="77.14" width="92.98" height="9.12"/><path class="cls-4" d="M291.1,3.82c2.09,0,3.69,1.25,3.69,3.25s-1.6,3.26-3.69,3.26h-1.63v4.34h-1.32V3.82Zm-1.63,1.24v4h1.63c1.39,0,2.37-.69,2.37-2s-1-2-2.37-2Z" transform="translate(-34.71 -0.73)"/><path class="cls-4" d="M298.69,8.54c-.93,0-1.19.76-1.19,1.79v4.34h-1.24V7.54h1.24v.82a1.92,1.92,0,0,1,1.5-1,1.71,1.71,0,0,1,1.34.5l-.68,1A1.45,1.45,0,0,0,298.69,8.54Z" transform="translate(-34.71 -0.73)"/><path class="cls-4" d="M304.41,7.38a3.61,3.61,0,0,1,3.69,3.72,3.69,3.69,0,1,1-7.38,0A3.61,3.61,0,0,1,304.41,7.38Zm0,6.28a2.42,2.42,0,0,0,2.44-2.56,2.44,2.44,0,1,0-4.87,0A2.42,2.42,0,0,0,304.41,13.66Z" transform="translate(-34.71 -0.73)"/><path class="cls-4" d="M309.14,16.84c.53,0,.74-.4.74-1.4V7.54h1.24V15.6c0,1.56-.75,2.48-2.06,2.48a1.55,1.55,0,0,1-1.36-.62l.68-1A.9.9,0,0,0,309.14,16.84Zm1.3-13.09a.84.84,0,1,1,0,1.68.84.84,0,0,1,0-1.68Z" transform="translate(-34.71 -0.73)"/><path class="cls-4" d="M313.06,11.1a3.45,3.45,0,0,1,3.54-3.72c2.09,0,3.36,1.4,3.36,3.66,0,.16,0,.34,0,.37h-5.62a2.16,2.16,0,0,0,2.27,2.25,2.47,2.47,0,0,0,2.23-1.29l1,.64a3.73,3.73,0,0,1-3.4,1.81A3.4,3.4,0,0,1,313.06,11.1Zm1.32-.74h4.23a1.92,1.92,0,0,0-2-1.89A2.09,2.09,0,0,0,314.38,10.36Z" transform="translate(-34.71 -0.73)"/><path class="cls-4" d="M324.66,13.66a2.79,2.79,0,0,0,2.48-1.3v1.55a3.37,3.37,0,0,1-2.48.91A3.6,3.6,0,0,1,321,11.1a3.61,3.61,0,0,1,3.69-3.72,3.42,3.42,0,0,1,2.48.92V9.85a2.79,2.79,0,0,0-2.48-1.31,2.42,2.42,0,0,0-2.44,2.56A2.42,2.42,0,0,0,324.66,13.66Z" transform="translate(-34.71 -0.73)"/><path class="cls-4" d="M329.15,7.54V5.06h1.24V7.54h1.16V8.7h-1.16v6h-1.24v-6H328V7.54Z" transform="translate(-34.71 -0.73)"/><path class="cls-4" d="M340.47,3.82c2.09,0,3.69,1.25,3.69,3.25a3.15,3.15,0,0,1-2.59,3.13l3.24,4.47h-1.63l-3-4.34h-1.32v4.34h-1.32V3.82ZM338.84,5V9.16h1.63a2.11,2.11,0,1,0,0-4.18Z" transform="translate(-34.71 -0.73)"/><path class="cls-4" d="M345.5,11.1A3.45,3.45,0,0,1,349,7.38c2.09,0,3.36,1.4,3.36,3.66,0,.16,0,.34,0,.37h-5.62A2.16,2.16,0,0,0,349,13.66a2.47,2.47,0,0,0,2.23-1.29l1,.64a3.73,3.73,0,0,1-3.4,1.81A3.4,3.4,0,0,1,345.5,11.1Zm1.32-.74h4.23a1.92,1.92,0,0,0-2-1.89A2.09,2.09,0,0,0,346.82,10.36Z" transform="translate(-34.71 -0.73)"/><path class="cls-4" d="M353.87,8.27a4.79,4.79,0,0,1,2.81-.89c1.66,0,2.79.79,2.79,2.17v5.12h-1.24v-1a2.8,2.8,0,0,1-2.36,1.11,2.29,2.29,0,0,1-2.46-2.29c0-1.38,1-2.3,2.79-2.3a3.81,3.81,0,0,1,2,.53v-1c0-1-.73-1.25-1.61-1.25a3.52,3.52,0,0,0-2.14.71Zm2.33,5.48a1.89,1.89,0,0,0,2-1.87v-.27a4.15,4.15,0,0,0-1.83-.4c-1.21,0-1.74.48-1.74,1.26S355.28,13.75,356.2,13.75Z" transform="translate(-34.71 -0.73)"/><path class="cls-4" d="M364.55,13.66a2.76,2.76,0,0,0,2.48-1.3v1.55a3.34,3.34,0,0,1-2.48.91,3.61,3.61,0,0,1-3.69-3.72,3.61,3.61,0,0,1,3.69-3.72A3.38,3.38,0,0,1,367,8.3V9.85a2.77,2.77,0,0,0-2.48-1.31,2.42,2.42,0,0,0-2.43,2.56A2.42,2.42,0,0,0,364.55,13.66Z" transform="translate(-34.71 -0.73)"/><path class="cls-4" d="M372,8.54a1.73,1.73,0,0,0-1.81,1.79v4.34H369V2.58h1.24V8.67a2.37,2.37,0,0,1,2.12-1.29c1.48,0,2.45,1,2.45,2.79v4.5h-1.24V10.33C373.54,9.15,373,8.54,372,8.54Z" transform="translate(-34.71 -0.73)"/></svg>