<svg id="图层_1" data-name="图层 1" xmlns="http://www.w3.org/2000/svg" viewBox="0 0 405.7 159.81"><defs><style>.cls-1{fill:#333;}.cls-2{fill:#e2282b;}.cls-3{fill:#939393;}.cls-4,.cls-5{fill:none;stroke-miterlimit:10;}.cls-4{stroke:#e2282b;stroke-width:0.99px;}.cls-5{stroke:#939393;stroke-width:0.65px;}</style></defs><path class="cls-1" d="M47.82,140.89h6.89v1.24H51.92v9.61H50.61v-9.61H47.82Z" transform="translate(-19.9 -1.1)"/><path class="cls-1" d="M57.22,145.61c-.93,0-1.19.76-1.19,1.79v4.34H54.79v-7.13H56v.82a1.92,1.92,0,0,1,1.51-1,1.7,1.7,0,0,1,1.33.5l-.68,1A1.43,1.43,0,0,0,57.22,145.61Z" transform="translate(-19.9 -1.1)"/><path class="cls-1" d="M59.87,145.33a4.87,4.87,0,0,1,2.81-.88c1.66,0,2.79.79,2.79,2.17v5.12H64.23v-1a2.79,2.79,0,0,1-2.36,1.11,2.29,2.29,0,0,1-2.46-2.29c0-1.38,1-2.3,2.79-2.3a3.79,3.79,0,0,1,2,.53v-1c0-1-.73-1.25-1.61-1.25a3.54,3.54,0,0,0-2.14.71Zm2.33,5.49a1.89,1.89,0,0,0,2-1.87v-.27a4,4,0,0,0-1.83-.4c-1.21,0-1.73.48-1.73,1.26S61.29,150.82,62.2,150.82Z" transform="translate(-19.9 -1.1)"/><path class="cls-1" d="M68.42,140.81a.85.85,0,1,1-.86.85A.86.86,0,0,1,68.42,140.81Zm.62,3.8v7.13H67.8v-7.13Z" transform="translate(-19.9 -1.1)"/><path class="cls-1" d="M74.65,145.61a1.71,1.71,0,0,0-1.82,1.79v4.34H71.59v-7.13h1.24v1.11A2.28,2.28,0,0,1,75,144.45c1.5,0,2.45,1.07,2.45,2.79v4.5H76.17V147.4C76.17,146.22,75.64,145.61,74.65,145.61Z" transform="translate(-19.9 -1.1)"/><path class="cls-1" d="M80.58,140.81a.85.85,0,1,1,0,1.7.85.85,0,1,1,0-1.7Zm.62,3.8v7.13H80v-7.13Z" transform="translate(-19.9 -1.1)"/><path class="cls-1" d="M86.81,145.61A1.71,1.71,0,0,0,85,147.4v4.34H83.76v-7.13H85v1.11a2.27,2.27,0,0,1,2.12-1.27c1.51,0,2.45,1.07,2.45,2.79v4.5H88.33V147.4C88.33,146.22,87.81,145.61,86.81,145.61Z" transform="translate(-19.9 -1.1)"/><path class="cls-1" d="M92.67,152.2A2.08,2.08,0,0,0,95,154.14a2.31,2.31,0,0,0,2.3-2.56v-1.07a2.72,2.72,0,0,1-2.44,1.38,3.73,3.73,0,0,1,0-7.44,2.74,2.74,0,0,1,2.44,1.38v-1.22h1.24v7A3.49,3.49,0,0,1,95,155.3c-2.09,0-3.53-1.25-3.53-3.1Zm2.3-1.47a2.56,2.56,0,1,0-2.44-2.56A2.4,2.4,0,0,0,95,150.73Z" transform="translate(-19.9 -1.1)"/><path class="cls-1" d="M104.37,140.89h6.9v1.24h-2.79v9.61h-1.32v-9.61h-2.79Z" transform="translate(-19.9 -1.1)"/><path class="cls-1" d="M113.44,140.81a.85.85,0,1,1-.85.85A.86.86,0,0,1,113.44,140.81Zm.62,3.8v7.13h-1.24v-7.13Z" transform="translate(-19.9 -1.1)"/><path class="cls-1" d="M126.39,151.74h-1.24V147.4c0-1.23-.44-1.79-1.37-1.79a1.6,1.6,0,0,0-1.66,1.79v4.34h-1.24V147.4c0-1.23-.43-1.79-1.36-1.79a1.6,1.6,0,0,0-1.66,1.79v4.34h-1.24v-7.13h1.24v1a2.24,2.24,0,0,1,4,.14,2.41,2.41,0,0,1,2.2-1.33c1.46,0,2.3,1,2.3,2.79Z" transform="translate(-19.9 -1.1)"/><path class="cls-1" d="M128.09,148.17a3.44,3.44,0,0,1,3.53-3.72c2.1,0,3.37,1.4,3.37,3.66,0,.15,0,.34,0,.37h-5.61a2.15,2.15,0,0,0,2.26,2.25,2.48,2.48,0,0,0,2.24-1.29l1,.64a3.7,3.7,0,0,1-3.39,1.81A3.4,3.4,0,0,1,128.09,148.17Zm1.32-.74h4.23a1.92,1.92,0,0,0-2-1.89A2.08,2.08,0,0,0,129.41,147.43Z" transform="translate(-19.9 -1.1)"/><path class="cls-1" d="M25.4,107.05a5.58,5.58,0,1,1-5.5,5.58A5.42,5.42,0,0,1,25.4,107.05Zm0,9.84a4.26,4.26,0,1,0-4.1-4.26A4.06,4.06,0,0,0,25.4,116.89Z" transform="translate(-19.9 -1.1)"/><path class="cls-1" d="M35.45,117.05a1.71,1.71,0,0,0,1.81-1.78v-4.34H38.5v7.13H37.26v-1.12a2.29,2.29,0,0,1-2.12,1.27c-1.49,0-2.45-1.08-2.45-2.79v-4.49h1.24v4.34C33.93,116.41,34.46,117.05,35.45,117.05Z" transform="translate(-19.9 -1.1)"/><path class="cls-1" d="M40.9,110.93v-2.49h1.24v2.49h1.17v1.16H42.14v6H40.9v-6H39.74v-1.16Z" transform="translate(-19.9 -1.1)"/><path class="cls-1" d="M44.47,121.47V110.93h1.24v1.22a2.74,2.74,0,0,1,2.43-1.38,3.72,3.72,0,0,1,0,7.44,2.72,2.72,0,0,1-2.43-1.38v4.64ZM48,111.93a2.56,2.56,0,1,0,2.43,2.56A2.4,2.4,0,0,0,48,111.93Z" transform="translate(-19.9 -1.1)"/><path class="cls-1" d="M56.14,117.05A1.71,1.71,0,0,0,58,115.27v-4.34h1.24v7.13H58v-1.12a2.28,2.28,0,0,1-2.12,1.27c-1.49,0-2.45-1.08-2.45-2.79v-4.49h1.24v4.34C54.62,116.41,55.15,117.05,56.14,117.05Z" transform="translate(-19.9 -1.1)"/><path class="cls-1" d="M61.6,110.93v-2.49h1.24v2.49H64v1.16H62.84v6H61.6v-6H60.43v-1.16Z" transform="translate(-19.9 -1.1)"/><path class="cls-1" d="M72.91,107.2c2.09,0,3.69,1.26,3.69,3.26A3.14,3.14,0,0,1,74,113.59l3.24,4.47H75.62l-3-4.34H71.28v4.34H70V107.2Zm-1.63,1.17v4.18h1.63a2.11,2.11,0,1,0,0-4.18Z" transform="translate(-19.9 -1.1)"/><path class="cls-1" d="M78,114.49a3.44,3.44,0,0,1,3.53-3.72c2.09,0,3.37,1.4,3.37,3.66,0,.15,0,.34,0,.37H79.22a2.15,2.15,0,0,0,2.26,2.25,2.45,2.45,0,0,0,2.23-1.29l1,.64a3.7,3.7,0,0,1-3.39,1.81A3.4,3.4,0,0,1,78,114.49Zm1.32-.74H83.5a1.93,1.93,0,0,0-2-1.89A2.08,2.08,0,0,0,79.27,113.75Z" transform="translate(-19.9 -1.1)"/><path class="cls-1" d="M88.78,117.08c.7,0,1.13-.34,1.13-.9,0-.74-.82-1.08-1.64-1.39s-2-.89-2-2.14,1.15-1.88,2.31-1.88a3,3,0,0,1,2.58,1.4l-1,.63a2.17,2.17,0,0,0-1.74-.93c-.51,0-.95.22-.95.7s.73.9,1.49,1.21c1.24.51,2.25,1,2.25,2.26a2.23,2.23,0,0,1-2.45,2.17,3.14,3.14,0,0,1-2.85-1.73l1-.61A2.32,2.32,0,0,0,88.78,117.08Z" transform="translate(-19.9 -1.1)"/><path class="cls-1" d="M95.87,110.77a3.72,3.72,0,1,1-3.69,3.72A3.61,3.61,0,0,1,95.87,110.77Zm0,6.28a2.56,2.56,0,1,0-2.44-2.56A2.42,2.42,0,0,0,95.87,117.05Z" transform="translate(-19.9 -1.1)"/><path class="cls-1" d="M102.5,106v12.1h-1.24V106Z" transform="translate(-19.9 -1.1)"/><path class="cls-1" d="M107.58,117.05a1.71,1.71,0,0,0,1.82-1.78v-4.34h1.24v7.13H109.4v-1.12a2.29,2.29,0,0,1-2.13,1.27c-1.48,0-2.45-1.08-2.45-2.79v-4.49h1.24v4.34C106.06,116.41,106.59,117.05,107.58,117.05Z" transform="translate(-19.9 -1.1)"/><path class="cls-1" d="M113,110.93v-2.49h1.24v2.49h1.16v1.16h-1.16v6H113v-6h-1.16v-1.16Z" transform="translate(-19.9 -1.1)"/><path class="cls-1" d="M117.53,107.13a.85.85,0,1,1-.85.85A.86.86,0,0,1,117.53,107.13Zm.62,3.8v7.13h-1.24v-7.13Z" transform="translate(-19.9 -1.1)"/><path class="cls-1" d="M123.78,110.77a3.72,3.72,0,1,1-3.69,3.72A3.61,3.61,0,0,1,123.78,110.77Zm0,6.28a2.56,2.56,0,1,0-2.43-2.56A2.42,2.42,0,0,0,123.78,117.05Z" transform="translate(-19.9 -1.1)"/><path class="cls-1" d="M132.23,111.93a1.71,1.71,0,0,0-1.82,1.79v4.34h-1.24v-7.13h1.24V112a2.28,2.28,0,0,1,2.13-1.27c1.5,0,2.45,1.07,2.45,2.79v4.5h-1.24v-4.34C133.75,112.54,133.22,111.93,132.23,111.93Z" transform="translate(-19.9 -1.1)"/><path class="cls-1" d="M29.57,74.14V85H28.26V74.14Z" transform="translate(-19.9 -1.1)"/><path class="cls-1" d="M32.05,77.86V75.38h1.24v2.48h1.17V79H33.29v6H32.05V79H30.89V77.86Z" transform="translate(-19.9 -1.1)"/><path class="cls-1" d="M35.08,81.43a3.44,3.44,0,0,1,3.53-3.72c2.09,0,3.36,1.39,3.36,3.66,0,.15,0,.34,0,.37H36.35A2.15,2.15,0,0,0,38.61,84a2.45,2.45,0,0,0,2.23-1.29l1,.64a3.71,3.71,0,0,1-3.4,1.81C36.45,85.15,35.08,83.63,35.08,81.43Zm1.31-.74h4.24a1.94,1.94,0,0,0-2-1.9A2.11,2.11,0,0,0,36.39,80.69Z" transform="translate(-19.9 -1.1)"/><path class="cls-1" d="M46.11,78.87c-.93,0-1.19.76-1.19,1.78V85H43.68V77.86h1.24v.83a1.92,1.92,0,0,1,1.5-1,1.74,1.74,0,0,1,1.34.5l-.69,1A1.4,1.4,0,0,0,46.11,78.87Z" transform="translate(-19.9 -1.1)"/><path class="cls-1" d="M48.76,78.59a4.84,4.84,0,0,1,2.81-.88c1.66,0,2.79.79,2.79,2.17V85H53.12V84a2.81,2.81,0,0,1-2.36,1.12,2.29,2.29,0,0,1-2.46-2.29c0-1.38,1-2.3,2.79-2.3a3.81,3.81,0,0,1,2,.53v-1c0-1-.73-1.26-1.61-1.26a3.51,3.51,0,0,0-2.14.72Zm2.33,5.49a1.89,1.89,0,0,0,2-1.87v-.27a4,4,0,0,0-1.83-.4c-1.21,0-1.74.48-1.74,1.25S50.17,84.08,51.09,84.08Z" transform="translate(-19.9 -1.1)"/><path class="cls-1" d="M56.53,77.86V75.38h1.24v2.48h1.16V79H57.77v6H56.53V79H55.36V77.86Z" transform="translate(-19.9 -1.1)"/><path class="cls-1" d="M61,74.07a.85.85,0,1,1,0,1.7.85.85,0,0,1,0-1.7Zm.62,3.79V85H60.4V77.86Z" transform="translate(-19.9 -1.1)"/><path class="cls-1" d="M67.27,77.71a3.72,3.72,0,1,1-3.69,3.72A3.61,3.61,0,0,1,67.27,77.71Zm0,6.28a2.56,2.56,0,1,0-2.44-2.56A2.42,2.42,0,0,0,67.27,84Z" transform="translate(-19.9 -1.1)"/><path class="cls-1" d="M75.72,78.87a1.71,1.71,0,0,0-1.82,1.78V85H72.66V77.86H73.9V79A2.28,2.28,0,0,1,76,77.71c1.5,0,2.45,1.07,2.45,2.79V85H77.24V80.65C77.24,79.48,76.71,78.87,75.72,78.87Z" transform="translate(-19.9 -1.1)"/><path class="cls-1" d="M91.59,81.74H87.22L85.84,85H84.36l5-11.4,5,11.4H93ZM87.74,80.5h3.32L89.4,76.59Z" transform="translate(-19.9 -1.1)"/><path class="cls-1" d="M105.45,85h-1.24V80.65c0-1.22-.44-1.78-1.37-1.78a1.59,1.59,0,0,0-1.66,1.78V85H99.94V80.65c0-1.22-.43-1.78-1.36-1.78a1.59,1.59,0,0,0-1.66,1.78V85H95.68V77.86h1.24v1a2.24,2.24,0,0,1,4,.14,2.41,2.41,0,0,1,2.2-1.33c1.46,0,2.3,1,2.3,2.79Z" transform="translate(-19.9 -1.1)"/><path class="cls-1" d="M110.84,77.71a3.72,3.72,0,1,1-3.69,3.72A3.61,3.61,0,0,1,110.84,77.71Zm0,6.28a2.56,2.56,0,1,0-2.44-2.56A2.42,2.42,0,0,0,110.84,84Z" transform="translate(-19.9 -1.1)"/><path class="cls-1" d="M119,84a1.71,1.71,0,0,0,1.82-1.78V77.86h1.24V85h-1.24V83.88a2.3,2.3,0,0,1-2.13,1.27c-1.49,0-2.45-1.08-2.45-2.79v-4.5h1.24v4.35C117.47,83.35,118,84,119,84Z" transform="translate(-19.9 -1.1)"/><path class="cls-1" d="M127.42,78.87a1.71,1.71,0,0,0-1.81,1.78V85h-1.24V77.86h1.24V79a2.27,2.27,0,0,1,2.12-1.27c1.51,0,2.45,1.07,2.45,2.79V85h-1.24V80.65C128.94,79.48,128.42,78.87,127.42,78.87Z" transform="translate(-19.9 -1.1)"/><path class="cls-1" d="M132.58,77.86V75.38h1.24v2.48H135V79h-1.17v6h-1.24V79h-1.16V77.86Z" transform="translate(-19.9 -1.1)"/><path class="cls-1" d="M57.6,50.46V39.61h3.25A5.19,5.19,0,0,1,66.28,45a5.18,5.18,0,0,1-5.43,5.42Zm1.31-9.53v8.21h1.94A3.86,3.86,0,0,0,65,45a3.86,3.86,0,0,0-4.11-4.11Z" transform="translate(-19.9 -1.1)"/><path class="cls-1" d="M67.83,44.06a4.74,4.74,0,0,1,2.8-.88c1.66,0,2.79.79,2.79,2.17v5.11H72.18v-1a2.79,2.79,0,0,1-2.35,1.12,2.3,2.3,0,0,1-2.47-2.3c0-1.38,1-2.29,2.79-2.29a3.7,3.7,0,0,1,2,.53v-1c0-1-.73-1.26-1.61-1.26a3.61,3.61,0,0,0-2.14.71Zm2.32,5.49a1.9,1.9,0,0,0,2-1.88v-.26a4,4,0,0,0-1.83-.4c-1.21,0-1.73.48-1.73,1.25S69.24,49.55,70.15,49.55Z" transform="translate(-19.9 -1.1)"/><path class="cls-1" d="M75.59,43.33V40.85h1.24v2.48H78v1.16H76.83v6H75.59v-6H74.43V43.33Z" transform="translate(-19.9 -1.1)"/><path class="cls-1" d="M79,44.06a4.77,4.77,0,0,1,2.81-.88c1.66,0,2.79.79,2.79,2.17v5.11H83.36v-1A2.81,2.81,0,0,1,81,50.62a2.29,2.29,0,0,1-2.46-2.3c0-1.38,1-2.29,2.79-2.29a3.72,3.72,0,0,1,2,.53v-1c0-1-.73-1.26-1.61-1.26a3.58,3.58,0,0,0-2.14.71Zm2.33,5.49a1.9,1.9,0,0,0,2-1.88v-.26a4.08,4.08,0,0,0-1.83-.4c-1.21,0-1.74.48-1.74,1.25S80.41,49.55,81.33,49.55Z" transform="translate(-19.9 -1.1)"/><path class="cls-1" d="M88.92,49.49c.7,0,1.13-.35,1.13-.9,0-.75-.82-1.09-1.64-1.4s-2-.88-2-2.14,1.15-1.87,2.31-1.87a3,3,0,0,1,2.58,1.39l-1,.64a2.17,2.17,0,0,0-1.74-.93c-.51,0-1,.21-1,.69s.73.9,1.49,1.21c1.24.52,2.25,1,2.25,2.27a2.23,2.23,0,0,1-2.45,2.17A3.13,3.13,0,0,1,86,48.88l1-.6A2.35,2.35,0,0,0,88.92,49.49Z" transform="translate(-19.9 -1.1)"/><path class="cls-1" d="M92.32,46.9a3.44,3.44,0,0,1,3.53-3.72c2.09,0,3.37,1.39,3.37,3.65,0,.16,0,.35,0,.38H93.59a2.15,2.15,0,0,0,2.26,2.24,2.45,2.45,0,0,0,2.23-1.28l1,.63a3.71,3.71,0,0,1-3.39,1.82A3.4,3.4,0,0,1,92.32,46.9Zm1.31-.75h4.24a1.94,1.94,0,0,0-2-1.89A2.1,2.1,0,0,0,93.63,46.15Z" transform="translate(-19.9 -1.1)"/><path class="cls-1" d="M101,43.33V40.85h1.24v2.48h1.16v1.16h-1.16v6H101v-6H99.83V43.33Z" transform="translate(-19.9 -1.1)"/><path class="cls-1" d="M112.64,49.38a1.74,1.74,0,0,0,1.92-1.71c0-1.46-1.16-1.91-2.4-2.35-1.09-.39-2.87-1.09-2.87-3.06a2.88,2.88,0,0,1,3.14-2.8,3.73,3.73,0,0,1,3.4,2.27l-1.13.65a2.61,2.61,0,0,0-2.34-1.67c-1.18,0-1.69.68-1.69,1.38,0,.92.6,1.55,2.51,2.2,1.16.41,2.74,1.26,2.74,3.23a3.18,3.18,0,0,1-3.33,3.1,4.52,4.52,0,0,1-3.88-2.73l1.06-.71C110.5,48.49,111.33,49.38,112.64,49.38Z" transform="translate(-19.9 -1.1)"/><path class="cls-1" d="M118.63,39.53a.86.86,0,1,1-.85.85A.86.86,0,0,1,118.63,39.53Zm.62,3.8v7.13H118V43.33Z" transform="translate(-19.9 -1.1)"/><path class="cls-1" d="M121.35,44.49V43.33h6.2l-4.42,6h4.11v1.16h-6.36l4.42-6Z" transform="translate(-19.9 -1.1)"/><path class="cls-1" d="M128.09,46.9a3.44,3.44,0,0,1,3.53-3.72c2.1,0,3.37,1.39,3.37,3.65,0,.16,0,.35,0,.38h-5.61a2.15,2.15,0,0,0,2.26,2.24,2.46,2.46,0,0,0,2.24-1.28l1,.63a3.71,3.71,0,0,1-3.39,1.82A3.4,3.4,0,0,1,128.09,46.9Zm1.32-.75h4.23a1.93,1.93,0,0,0-2-1.89A2.08,2.08,0,0,0,129.41,46.15Z" transform="translate(-19.9 -1.1)"/><path class="cls-1" d="M79.06,11.7H74.69L73.31,15H71.84l5-11.39,5,11.39H80.44Zm-3.84-1.24h3.32l-1.66-3.9Z" transform="translate(-19.9 -1.1)"/><path class="cls-1" d="M84.39,2.87V15H83.15V2.87Z" transform="translate(-19.9 -1.1)"/><path class="cls-1" d="M87.5,15.42a2.07,2.07,0,0,0,2.27,1.94,2.31,2.31,0,0,0,2.3-2.56V13.74a2.74,2.74,0,0,1-2.44,1.38,3.5,3.5,0,0,1-3.53-3.73,3.49,3.49,0,0,1,3.53-3.72,2.74,2.74,0,0,1,2.44,1.38V7.83h1.24v7a3.49,3.49,0,0,1-3.54,3.73c-2.09,0-3.53-1.26-3.53-3.11ZM89.79,14a2.4,2.4,0,0,0,2.28-2.56,2.39,2.39,0,0,0-2.28-2.55,2.37,2.37,0,0,0-2.43,2.55A2.37,2.37,0,0,0,89.79,14Z" transform="translate(-19.9 -1.1)"/><path class="cls-1" d="M98.62,7.67a3.61,3.61,0,0,1,3.69,3.72,3.69,3.69,0,1,1-7.38,0A3.61,3.61,0,0,1,98.62,7.67Zm0,6.28a2.42,2.42,0,0,0,2.44-2.56,2.44,2.44,0,1,0-4.87,0A2.42,2.42,0,0,0,98.62,14Z" transform="translate(-19.9 -1.1)"/><path class="cls-1" d="M106.45,8.84c-.93,0-1.19.76-1.19,1.78V15H104V7.83h1.24v.82a1.94,1.94,0,0,1,1.5-1,1.7,1.7,0,0,1,1.33.5l-.68,1A1.41,1.41,0,0,0,106.45,8.84Z" transform="translate(-19.9 -1.1)"/><path class="cls-1" d="M110.19,4a.86.86,0,1,1-.86.85A.86.86,0,0,1,110.19,4Zm.62,3.8V15h-1.24V7.83Z" transform="translate(-19.9 -1.1)"/><path class="cls-1" d="M113.44,7.83V5.35h1.24V7.83h1.16V9h-1.16v6h-1.24V9h-1.16V7.83Z" transform="translate(-19.9 -1.1)"/><path class="cls-1" d="M120.14,8.84a1.73,1.73,0,0,0-1.82,1.78V15h-1.24V2.87h1.24V9a2.4,2.4,0,0,1,2.13-1.29c1.47,0,2.45.95,2.45,2.79V15h-1.24V10.62C121.66,9.44,121.15,8.84,120.14,8.84Z" transform="translate(-19.9 -1.1)"/><path class="cls-1" d="M135,15h-1.24V10.62c0-1.23-.44-1.78-1.37-1.78a1.59,1.59,0,0,0-1.66,1.78V15h-1.24V10.62c0-1.23-.43-1.78-1.36-1.78a1.59,1.59,0,0,0-1.66,1.78V15h-1.24V7.83h1.24v1a2.09,2.09,0,0,1,2-1.2A2.06,2.06,0,0,1,130.49,9a2.4,2.4,0,0,1,2.2-1.34c1.46,0,2.3,1,2.3,2.79Z" transform="translate(-19.9 -1.1)"/><path class="cls-2" d="M279.14,142.09h.54v7.52h1.71v1.16h-1.71v2.17h-1.31v-2.17h-5.24Zm-.77,7.52V145l-3.07,4.59Z" transform="translate(-19.9 -1.1)"/><path class="cls-2" d="M288.18,142.09h.54v7.52h1.71v1.16h-1.71v2.17H287.4v-2.17h-5.24Zm-.78,7.52V145l-3.07,4.59Z" transform="translate(-19.9 -1.1)"/><path class="cls-3" d="M298.64,142.09l-6.28,13.17h-1.24l6.28-13.17Z" transform="translate(-19.9 -1.1)"/><path class="cls-3" d="M305.65,142.09l-3.06,4a2.38,2.38,0,0,1,1.23-.27,3.34,3.34,0,0,1,3.21,3.52,3.69,3.69,0,1,1-7.38,0,3.79,3.79,0,0,1,.68-2.24l3.66-5Zm-2.31,9.81a2.54,2.54,0,1,0-2.44-2.53A2.4,2.4,0,0,0,303.34,151.9Z" transform="translate(-19.9 -1.1)"/><path class="cls-3" d="M308.73,150.07h1.33a1.92,1.92,0,0,0,2.13,1.78,1.85,1.85,0,0,0,2-1.93c0-1.34-1.1-2-2.5-2v-1.16a2,2,0,0,0,2.19-1.88,1.56,1.56,0,0,0-1.65-1.73,1.72,1.72,0,0,0-1.81,1.65H309.2a2.83,2.83,0,0,1,3.05-2.85,2.87,2.87,0,0,1,3,2.89,2.7,2.7,0,0,1-1.85,2.46,2.74,2.74,0,0,1,2.16,2.79c0,1.85-1.44,3-3.38,3C310.09,153.09,308.73,151.76,308.73,150.07Z" transform="translate(-19.9 -1.1)"/><path class="cls-3" d="M325.13,146.82a1.71,1.71,0,0,0-1.81,1.78v4.34h-1.24V140.85h1.24v6.09a2.37,2.37,0,0,1,2.12-1.29c1.47,0,2.45.95,2.45,2.79v4.5h-1.24V148.6C326.65,147.42,326.14,146.82,325.13,146.82Z" transform="translate(-19.9 -1.1)"/><path class="cls-3" d="M333.28,145.65a3.72,3.72,0,1,1-3.69,3.72A3.61,3.61,0,0,1,333.28,145.65Zm0,6.28a2.56,2.56,0,1,0-2.43-2.56A2.42,2.42,0,0,0,333.28,151.93Z" transform="translate(-19.9 -1.1)"/><path class="cls-3" d="M341.44,151.93a1.71,1.71,0,0,0,1.81-1.78v-4.34h1.24v7.13h-1.24v-1.12a2.27,2.27,0,0,1-2.12,1.27c-1.49,0-2.45-1.08-2.45-2.79v-4.49h1.24v4.34C339.92,151.3,340.44,151.93,341.44,151.93Z" transform="translate(-19.9 -1.1)"/><path class="cls-3" d="M349.25,146.82c-.93,0-1.2.75-1.2,1.78v4.34h-1.24v-7.13h1.24v.82a1.93,1.93,0,0,1,1.51-1,1.7,1.7,0,0,1,1.33.5l-.68,1A1.41,1.41,0,0,0,349.25,146.82Z" transform="translate(-19.9 -1.1)"/><path class="cls-3" d="M354.36,152c.7,0,1.13-.34,1.13-.9,0-.74-.82-1.08-1.64-1.39s-2.05-.89-2.05-2.14,1.15-1.88,2.31-1.88a3,3,0,0,1,2.58,1.4l-1,.63a2.2,2.2,0,0,0-1.74-.93c-.51,0-.95.22-.95.7s.73.9,1.49,1.21c1.24.51,2.25,1,2.25,2.26a2.23,2.23,0,0,1-2.45,2.17,3.14,3.14,0,0,1-2.85-1.73l1-.61A2.32,2.32,0,0,0,354.36,152Z" transform="translate(-19.9 -1.1)"/><path class="cls-2" d="M273.13,107.44l3.72-.92v11h-1.32V108.1l-2.4.71Z" transform="translate(-19.9 -1.1)"/><path class="cls-2" d="M284.3,112.05a3.45,3.45,0,0,0,1.14-2.37,2,2,0,0,0-2.1-1.94c-1.39,0-2.23,1-2.23,2.65h-1.32c0-2.31,1.3-3.89,3.55-3.89a3.25,3.25,0,0,1,3.44,3.13,4.67,4.67,0,0,1-1.44,3.13l-3.46,3.52h4.95v1.24h-7.66Z" transform="translate(-19.9 -1.1)"/><path class="cls-2" d="M290.46,111.74a2.53,2.53,0,0,1-1.54-2.45,3,3,0,0,1,6,0,2.53,2.53,0,0,1-1.54,2.45,2.93,2.93,0,0,1,1.92,2.84,3.39,3.39,0,0,1-6.76,0A2.94,2.94,0,0,1,290.46,111.74Zm1.45,4.77a2.05,2.05,0,0,0,2.13-2.09,2.13,2.13,0,0,0-4.25,0A2.05,2.05,0,0,0,291.91,116.51Zm0-5.34a1.75,1.75,0,0,0,0-3.49,1.75,1.75,0,0,0,0,3.49Z" transform="translate(-19.9 -1.1)"/><path class="cls-3" d="M303.66,106.67l-6.28,13.18h-1.24l6.28-13.18Z" transform="translate(-19.9 -1.1)"/><path class="cls-3" d="M305.13,107.44l3.72-.92v11h-1.31V108.1l-2.41.71Z" transform="translate(-19.9 -1.1)"/><path class="cls-3" d="M316.31,112.05a3.48,3.48,0,0,0,1.13-2.37,2,2,0,0,0-2.09-1.94c-1.4,0-2.23,1-2.23,2.65H311.8c0-2.31,1.3-3.89,3.55-3.89a3.25,3.25,0,0,1,3.44,3.13,4.67,4.67,0,0,1-1.44,3.13l-3.46,3.52h4.95v1.24h-7.66Z" transform="translate(-19.9 -1.1)"/><path class="cls-3" d="M322.46,111.74a2.54,2.54,0,0,1-1.53-2.45,3,3,0,0,1,6,0,2.54,2.54,0,0,1-1.53,2.45,2.93,2.93,0,0,1,1.92,2.84,3.39,3.39,0,0,1-6.76,0A2.93,2.93,0,0,1,322.46,111.74Zm1.46,4.77a2,2,0,0,0,2.12-2.09,2.12,2.12,0,0,0-4.24,0A2.05,2.05,0,0,0,323.92,116.51Zm0-5.34a1.75,1.75,0,1,0-1.74-1.73A1.71,1.71,0,0,0,323.92,111.17Z" transform="translate(-19.9 -1.1)"/><path class="cls-3" d="M333.89,120.93V110.39h1.24v1.22a2.72,2.72,0,0,1,2.43-1.37,3.73,3.73,0,0,1,0,7.44,2.73,2.73,0,0,1-2.43-1.38v4.63Zm3.52-9.53a2.56,2.56,0,1,0,2.43,2.56A2.39,2.39,0,0,0,337.41,111.4Z" transform="translate(-19.9 -1.1)"/><path class="cls-3" d="M347.76,110.39l-2.43,3.46,2.58,3.67h-1.39l-1.86-2.7-1.86,2.7h-1.4l2.59-3.67-2.43-3.46H343l1.71,2.48,1.7-2.48Z" transform="translate(-19.9 -1.1)"/><path class="cls-2" d="M273.13,38.69l3.72-.93v11h-1.32V39.34l-2.4.71Z" transform="translate(-19.9 -1.1)"/><path class="cls-2" d="M285.64,37.91l-3.06,4a2.38,2.38,0,0,1,1.23-.26A3.35,3.35,0,0,1,287,45.2a3.69,3.69,0,1,1-7.38,0,3.83,3.83,0,0,1,.68-2.25l3.66-5Zm-2.31,9.82a2.4,2.4,0,0,0,2.43-2.53,2.44,2.44,0,1,0-2.43,2.53Z" transform="translate(-19.9 -1.1)"/><path class="cls-2" d="M292.11,48.92a4.2,4.2,0,0,1-3.86-2.28l1.12-.76a3.29,3.29,0,0,0,2.74,1.8,2.27,2.27,0,0,0,2.44-2.48,2.36,2.36,0,0,0-2.44-2.48,4.15,4.15,0,0,0-2.77,1l1.43-5.79h5.11v1.17h-4.09l-.73,2.86a3.58,3.58,0,0,1,1.61-.4c1.86,0,3.24,1.5,3.24,3.66A3.52,3.52,0,0,1,292.11,48.92Z" transform="translate(-19.9 -1.1)"/><path class="cls-3" d="M304.28,37.91,298,51.09h-1.24L303,37.91Z" transform="translate(-19.9 -1.1)"/><path class="cls-3" d="M310,43.29a3.46,3.46,0,0,0,1.13-2.37A2,2,0,0,0,309,39c-1.39,0-2.23,1-2.23,2.65h-1.32c0-2.31,1.31-3.89,3.55-3.89a3.26,3.26,0,0,1,3.45,3.13A4.67,4.67,0,0,1,311,44l-3.45,3.51h4.94v1.24h-7.66Z" transform="translate(-19.9 -1.1)"/><path class="cls-3" d="M318,37.76c2.39,0,4,2.34,4,5.58s-1.64,5.58-4,5.58-4-2.34-4-5.58S315.6,37.76,318,37.76Zm0,9.92c1.68,0,2.72-1.81,2.72-4.34S319.66,39,318,39s-2.71,1.81-2.71,4.34S316.31,47.68,318,47.68Z" transform="translate(-19.9 -1.1)"/><path class="cls-3" d="M327.28,37.76c2.39,0,4,2.34,4,5.58s-1.64,5.58-4,5.58-4-2.34-4-5.58S324.9,37.76,327.28,37.76Zm0,9.92c1.68,0,2.72-1.81,2.72-4.34S329,39,327.28,39s-2.71,1.81-2.71,4.34S325.61,47.68,327.28,47.68Z" transform="translate(-19.9 -1.1)"/><path class="cls-3" d="M336.58,37.76c2.39,0,4,2.34,4,5.58s-1.64,5.58-4,5.58-4-2.34-4-5.58S334.2,37.76,336.58,37.76Zm0,9.92c1.68,0,2.72-1.81,2.72-4.34s-1-4.34-2.72-4.34-2.71,1.81-2.71,4.34S334.91,47.68,336.58,47.68Z" transform="translate(-19.9 -1.1)"/><path class="cls-3" d="M347.9,37.84a.85.85,0,1,1-.85.85A.86.86,0,0,1,347.9,37.84Zm.62,3.79v7.13h-1.24V41.63Z" transform="translate(-19.9 -1.1)"/><path class="cls-3" d="M360.84,48.76H359.6V44.42c0-1.22-.43-1.78-1.36-1.78a1.59,1.59,0,0,0-1.66,1.78v4.34h-1.24V44.42c0-1.22-.44-1.78-1.37-1.78a1.59,1.59,0,0,0-1.65,1.78v4.34h-1.24V41.63h1.24v1a2.24,2.24,0,0,1,4,.14,2.4,2.4,0,0,1,2.2-1.33c1.45,0,2.29,1,2.29,2.79Z" transform="translate(-19.9 -1.1)"/><path class="cls-3" d="M362.93,42.36a4.8,4.8,0,0,1,2.81-.88c1.66,0,2.79.79,2.79,2.17v5.11h-1.24v-1a2.81,2.81,0,0,1-2.36,1.12,2.29,2.29,0,0,1-2.46-2.29c0-1.38,1-2.3,2.79-2.3a3.72,3.72,0,0,1,2,.53v-1c0-1-.73-1.26-1.61-1.26a3.51,3.51,0,0,0-2.14.72Zm2.33,5.49a1.89,1.89,0,0,0,2-1.88v-.26a4,4,0,0,0-1.83-.4c-1.21,0-1.74.48-1.74,1.25S364.34,47.85,365.26,47.85Z" transform="translate(-19.9 -1.1)"/><path class="cls-3" d="M371.4,49.23a2.07,2.07,0,0,0,2.27,1.94,2.31,2.31,0,0,0,2.3-2.56V47.54a2.74,2.74,0,0,1-2.44,1.38A3.49,3.49,0,0,1,370,45.2a3.49,3.49,0,0,1,3.53-3.72A2.72,2.72,0,0,1,376,42.86V41.63h1.24v7a3.48,3.48,0,0,1-3.54,3.72c-2.09,0-3.53-1.25-3.53-3.1Zm2.29-1.47a2.56,2.56,0,1,0-2.43-2.56A2.4,2.4,0,0,0,373.69,47.76Z" transform="translate(-19.9 -1.1)"/><path class="cls-3" d="M378.84,45.2a3.44,3.44,0,0,1,3.53-3.72c2.09,0,3.36,1.39,3.36,3.66,0,.15,0,.34,0,.37h-5.61a2.15,2.15,0,0,0,2.26,2.25,2.45,2.45,0,0,0,2.23-1.29l1,.64a3.71,3.71,0,0,1-3.4,1.81C380.21,48.92,378.84,47.4,378.84,45.2Zm1.31-.74h4.24a1.94,1.94,0,0,0-2-1.9A2.11,2.11,0,0,0,380.15,44.46Z" transform="translate(-19.9 -1.1)"/><path class="cls-3" d="M389.67,47.79c.7,0,1.13-.34,1.13-.9,0-.75-.82-1.09-1.64-1.4s-2.05-.88-2.05-2.14,1.15-1.87,2.31-1.87A3,3,0,0,1,392,42.87l-1,.64a2.14,2.14,0,0,0-1.73-.93c-.51,0-.95.22-.95.7s.73.9,1.49,1.21c1.24.51,2.25,1,2.25,2.26a2.23,2.23,0,0,1-2.45,2.17,3.12,3.12,0,0,1-2.85-1.74l1-.6A2.32,2.32,0,0,0,389.67,47.79Z" transform="translate(-19.9 -1.1)"/><path class="cls-2" d="M278.26,78.25a3.46,3.46,0,0,0,1.13-2.37,2,2,0,0,0-2.09-1.94c-1.4,0-2.23,1-2.23,2.65h-1.32c0-2.31,1.3-3.89,3.55-3.89a3.25,3.25,0,0,1,3.44,3.13A4.65,4.65,0,0,1,279.3,79l-3.46,3.52h5v1.24h-7.66Z" transform="translate(-19.9 -1.1)"/><path class="cls-2" d="M282.88,73.65l3.72-.93v11h-1.32V74.3l-2.4.71Z" transform="translate(-19.9 -1.1)"/><path class="cls-2" d="M292.94,83.88a4.19,4.19,0,0,1-3.86-2.28l1.11-.76a3.29,3.29,0,0,0,2.75,1.8,2.27,2.27,0,0,0,2.43-2.48,2.36,2.36,0,0,0-2.43-2.48,4.16,4.16,0,0,0-2.78,1l1.43-5.79h5.11V74h-4.09l-.73,2.86a3.58,3.58,0,0,1,1.61-.4c1.87,0,3.24,1.5,3.24,3.66A3.52,3.52,0,0,1,292.94,83.88Z" transform="translate(-19.9 -1.1)"/><path class="cls-2" d="M302,72.72c2.39,0,4,2.34,4,5.58s-1.64,5.58-4,5.58-4-2.34-4-5.58S299.62,72.72,302,72.72Zm0,9.92c1.68,0,2.72-1.81,2.72-4.34S303.68,74,302,74s-2.71,1.81-2.71,4.34S300.33,82.64,302,82.64Z" transform="translate(-19.9 -1.1)"/><path class="cls-2" d="M311.3,72.72c2.39,0,4,2.34,4,5.58s-1.64,5.58-4,5.58-4-2.34-4-5.58S308.92,72.72,311.3,72.72Zm0,9.92c1.68,0,2.72-1.81,2.72-4.34S313,74,311.3,74s-2.71,1.81-2.71,4.34S309.63,82.64,311.3,82.64Z" transform="translate(-19.9 -1.1)"/><path class="cls-2" d="M320.6,72.72c2.39,0,4,2.34,4,5.58s-1.64,5.58-4,5.58-4-2.34-4-5.58S318.22,72.72,320.6,72.72Zm0,9.92c1.68,0,2.72-1.81,2.72-4.34s-1-4.34-2.72-4.34-2.71,1.81-2.71,4.34S318.93,82.64,320.6,82.64Z" transform="translate(-19.9 -1.1)"/><path class="cls-3" d="M333,72.87l-6.27,13.18h-1.25l6.28-13.18Z" transform="translate(-19.9 -1.1)"/><path class="cls-3" d="M338.68,78.25a3.46,3.46,0,0,0,1.13-2.37,2,2,0,0,0-2.09-1.94c-1.4,0-2.24,1-2.24,2.65h-1.31c0-2.31,1.3-3.89,3.55-3.89a3.25,3.25,0,0,1,3.44,3.13A4.65,4.65,0,0,1,339.72,79l-3.46,3.52h4.94v1.24h-7.65Z" transform="translate(-19.9 -1.1)"/><path class="cls-3" d="M348.83,72.87l-3.05,4a2.34,2.34,0,0,1,1.22-.26,3.34,3.34,0,0,1,3.21,3.52,3.69,3.69,0,1,1-7.38,0,3.83,3.83,0,0,1,.68-2.25l3.66-5Zm-2.31,9.82A2.4,2.4,0,0,0,349,80.16a2.43,2.43,0,1,0-4.86,0A2.39,2.39,0,0,0,346.52,82.69Z" transform="translate(-19.9 -1.1)"/><path class="cls-3" d="M353.76,77.94a2.53,2.53,0,0,1-1.54-2.45,3,3,0,0,1,6,0,2.53,2.53,0,0,1-1.54,2.45,2.94,2.94,0,0,1,1.92,2.84,3.39,3.39,0,0,1-6.76,0A3,3,0,0,1,353.76,77.94Zm1.45,4.78a2.05,2.05,0,0,0,2.13-2.1,2.13,2.13,0,0,0-4.25,0A2.05,2.05,0,0,0,355.21,82.72Zm0-5.35a1.75,1.75,0,1,0-1.73-1.72A1.71,1.71,0,0,0,355.21,77.37Z" transform="translate(-19.9 -1.1)"/><path class="cls-3" d="M364.1,72.72c2.38,0,4,2.34,4,5.58s-1.65,5.58-4,5.58-4-2.34-4-5.58S361.71,72.72,364.1,72.72Zm0,9.92c1.67,0,2.71-1.81,2.71-4.34s-1-4.34-2.71-4.34-2.72,1.81-2.72,4.34S362.42,82.64,364.1,82.64Z" transform="translate(-19.9 -1.1)"/><path class="cls-3" d="M373.4,72.72c2.38,0,4,2.34,4,5.58s-1.65,5.58-4,5.58-4-2.34-4-5.58S371,72.72,373.4,72.72Zm0,9.92c1.67,0,2.71-1.81,2.71-4.34s-1-4.34-2.71-4.34-2.72,1.81-2.72,4.34S371.72,82.64,373.4,82.64Z" transform="translate(-19.9 -1.1)"/><path class="cls-3" d="M382.7,72.72c2.38,0,4,2.34,4,5.58s-1.65,5.58-4,5.58-4-2.34-4-5.58S380.31,72.72,382.7,72.72Zm0,9.92c1.67,0,2.71-1.81,2.71-4.34s-1-4.34-2.71-4.34S380,75.77,380,78.3,381,82.64,382.7,82.64Z" transform="translate(-19.9 -1.1)"/><path class="cls-3" d="M393.23,76.59V74.11h1.24v2.48h1.17v1.17h-1.17v6h-1.24v-6h-1.16V76.59Z" transform="translate(-19.9 -1.1)"/><path class="cls-3" d="M397.73,72.79a.86.86,0,0,1,0,1.71.86.86,0,0,1,0-1.71Zm.62,3.8v7.13h-1.24V76.59Z" transform="translate(-19.9 -1.1)"/><path class="cls-3" d="M410.67,83.72h-1.24V79.38c0-1.22-.43-1.78-1.36-1.78a1.59,1.59,0,0,0-1.66,1.78v4.34h-1.24V79.38c0-1.22-.43-1.78-1.36-1.78a1.59,1.59,0,0,0-1.66,1.78v4.34h-1.24V76.59h1.24v1a2.24,2.24,0,0,1,4,.14,2.4,2.4,0,0,1,2.2-1.33c1.46,0,2.29,1,2.29,2.79Z" transform="translate(-19.9 -1.1)"/><path class="cls-3" d="M412.38,80.16a3.44,3.44,0,0,1,3.53-3.72c2.09,0,3.37,1.39,3.37,3.66,0,.15,0,.34,0,.37h-5.61a2.15,2.15,0,0,0,2.26,2.25,2.45,2.45,0,0,0,2.23-1.29l1,.64a3.72,3.72,0,0,1-3.39,1.81A3.4,3.4,0,0,1,412.38,80.16Zm1.31-.75h4.24a1.94,1.94,0,0,0-2-1.89A2.11,2.11,0,0,0,413.69,79.41Z" transform="translate(-19.9 -1.1)"/><path class="cls-3" d="M423.21,82.75c.7,0,1.13-.34,1.13-.9,0-.75-.82-1.09-1.64-1.4s-2.05-.88-2.05-2.14,1.15-1.87,2.31-1.87a3,3,0,0,1,2.58,1.39l-1,.64a2.17,2.17,0,0,0-1.74-.93c-.51,0-.95.22-.95.7s.73.9,1.49,1.21c1.24.51,2.25,1,2.25,2.26a2.23,2.23,0,0,1-2.45,2.17,3.12,3.12,0,0,1-2.85-1.74l1-.6A2.32,2.32,0,0,0,423.21,82.75Z" transform="translate(-19.9 -1.1)"/><path class="cls-1" d="M149.56,14.35A1.39,1.39,0,0,0,151.11,13c0-1.18-.94-1.54-1.94-1.9s-2.31-.88-2.31-2.46a2.34,2.34,0,0,1,2.54-2.27,3,3,0,0,1,2.73,1.84l-.91.53a2.1,2.1,0,0,0-1.89-1.35c-1,0-1.36.55-1.36,1.11,0,.74.49,1.25,2,1.77a2.83,2.83,0,0,1,2.21,2.6,2.56,2.56,0,0,1-2.69,2.5,3.64,3.64,0,0,1-3.12-2.2l.85-.57C147.83,13.64,148.51,14.35,149.56,14.35Z" transform="translate(-19.9 -1.1)"/><path class="cls-1" d="M158.66,12.6h-3.53L154,15.23h-1.19L156.9,6,161,15.23h-1.19Zm-3.1-1h2.67L156.9,8.45Z" transform="translate(-19.9 -1.1)"/><path class="cls-1" d="M167,6.48v1h-3.94V10h3.69v1h-3.69v3.25H167v1h-5V6.48Z" transform="translate(-19.9 -1.1)"/><path class="cls-1" d="M170,6.48V10h4.81V6.48h1.06v8.75h-1.06V11H170v4.25H168.9V6.48Z" transform="translate(-19.9 -1.1)"/><path class="cls-1" d="M177.83,15.23V6.48h2.63a4.17,4.17,0,0,1,4.37,4.37,4.18,4.18,0,0,1-4.37,4.38Zm1.07-7.69v6.62h1.56a3.11,3.11,0,0,0,3.31-3.31,3.11,3.11,0,0,0-3.31-3.31Z" transform="translate(-19.9 -1.1)"/><rect class="cls-4" x="122.67" y="0.5" width="46.09" height="18.21"/><rect class="cls-3" x="122.17" y="140.91" width="123.97" height="12.1"/><rect class="cls-2" x="122.17" y="140.91" width="86.57" height="12.1"/><rect class="cls-2" x="122.17" y="106.57" width="123.97" height="12.1"/><rect class="cls-3" x="122.17" y="72.23" width="123.97" height="12.1"/><rect class="cls-2" x="122.17" y="72.23" width="99.44" height="12.1"/><rect class="cls-3" x="122.17" y="37.89" width="123.97" height="12.1"/><rect class="cls-2" x="122.17" y="37.89" width="10.23" height="12.1"/><polyline class="cls-5" points="246.47 159.81 246.47 22.08 364.08 22.08"/><path class="cls-3" d="M276.07,4.19c2.1,0,3.69,1.25,3.69,3.25s-1.59,3.26-3.69,3.26h-1.63V15h-1.31V4.19Zm-1.63,1.24v4h1.63c1.4,0,2.37-.69,2.37-2s-1-2-2.37-2Z" transform="translate(-19.9 -1.1)"/><path class="cls-3" d="M283.67,8.91c-.93,0-1.2.76-1.2,1.79V15h-1.24V7.91h1.24v.82a2,2,0,0,1,1.51-1,1.7,1.7,0,0,1,1.33.5l-.68,1A1.42,1.42,0,0,0,283.67,8.91Z" transform="translate(-19.9 -1.1)"/><path class="cls-3" d="M289.39,7.75a3.61,3.61,0,0,1,3.69,3.72,3.69,3.69,0,1,1-7.38,0A3.61,3.61,0,0,1,289.39,7.75Zm0,6.28a2.42,2.42,0,0,0,2.43-2.56,2.44,2.44,0,1,0-4.87,0A2.42,2.42,0,0,0,289.39,14Z" transform="translate(-19.9 -1.1)"/><path class="cls-3" d="M294.11,17.21c.53,0,.75-.4.75-1.4V7.91h1.24V16c0,1.56-.76,2.48-2.06,2.48a1.57,1.57,0,0,1-1.37-.62l.68-1A.91.91,0,0,0,294.11,17.21Zm1.31-13.09a.84.84,0,1,1-.84.84A.84.84,0,0,1,295.42,4.12Z" transform="translate(-19.9 -1.1)"/><path class="cls-3" d="M298,11.47a3.45,3.45,0,0,1,3.54-3.72c2.09,0,3.36,1.4,3.36,3.66,0,.15,0,.34,0,.37h-5.61A2.15,2.15,0,0,0,301.57,14a2.45,2.45,0,0,0,2.23-1.29l1,.64a3.71,3.71,0,0,1-3.4,1.81A3.4,3.4,0,0,1,298,11.47Zm1.32-.74h4.24a1.93,1.93,0,0,0-2-1.89A2.09,2.09,0,0,0,299.35,10.73Z" transform="translate(-19.9 -1.1)"/><path class="cls-3" d="M309.63,14a2.77,2.77,0,0,0,2.48-1.3v1.55a3.35,3.35,0,0,1-2.48.91,3.61,3.61,0,0,1-3.69-3.72,3.61,3.61,0,0,1,3.69-3.72,3.4,3.4,0,0,1,2.48.92v1.55a2.78,2.78,0,0,0-2.48-1.31,2.42,2.42,0,0,0-2.43,2.56A2.42,2.42,0,0,0,309.63,14Z" transform="translate(-19.9 -1.1)"/><path class="cls-3" d="M314.12,7.91V5.43h1.24V7.91h1.17V9.07h-1.17v6h-1.24v-6H313V7.91Z" transform="translate(-19.9 -1.1)"/><path class="cls-3" d="M325.44,4.19c2.09,0,3.69,1.25,3.69,3.25a3.15,3.15,0,0,1-2.59,3.13L329.78,15h-1.63l-3-4.34h-1.32V15h-1.32V4.19Zm-1.63,1.16V9.53h1.63a2.11,2.11,0,1,0,0-4.18Z" transform="translate(-19.9 -1.1)"/><path class="cls-3" d="M330.48,11.47A3.44,3.44,0,0,1,334,7.75c2.09,0,3.37,1.4,3.37,3.66,0,.15,0,.34,0,.37h-5.61A2.15,2.15,0,0,0,334,14a2.45,2.45,0,0,0,2.23-1.29l1,.64a3.7,3.7,0,0,1-3.39,1.81A3.4,3.4,0,0,1,330.48,11.47Zm1.31-.74H336a1.93,1.93,0,0,0-2-1.89A2.1,2.1,0,0,0,331.79,10.73Z" transform="translate(-19.9 -1.1)"/><path class="cls-3" d="M338.85,8.63a4.81,4.81,0,0,1,2.8-.88c1.66,0,2.79.79,2.79,2.17V15H343.2v-1a2.78,2.78,0,0,1-2.35,1.11,2.29,2.29,0,0,1-2.47-2.29c0-1.38,1-2.3,2.79-2.3a3.79,3.79,0,0,1,2,.53v-1c0-1-.73-1.25-1.61-1.25a3.54,3.54,0,0,0-2.14.71Zm2.32,5.49a1.89,1.89,0,0,0,2-1.87V12a4,4,0,0,0-1.83-.4c-1.21,0-1.73.48-1.73,1.26S340.26,14.12,341.17,14.12Z" transform="translate(-19.9 -1.1)"/><path class="cls-3" d="M349.53,14a2.79,2.79,0,0,0,2.48-1.3v1.55a3.37,3.37,0,0,1-2.48.91,3.6,3.6,0,0,1-3.69-3.72,3.61,3.61,0,0,1,3.69-3.72,3.42,3.42,0,0,1,2.48.92v1.55a2.79,2.79,0,0,0-2.48-1.31,2.42,2.42,0,0,0-2.44,2.56A2.42,2.42,0,0,0,349.53,14Z" transform="translate(-19.9 -1.1)"/><path class="cls-3" d="M357,8.91a1.73,1.73,0,0,0-1.82,1.79V15h-1.24V3h1.24V9a2.4,2.4,0,0,1,2.13-1.29c1.47,0,2.45.95,2.45,2.79V15h-1.24V10.7C358.52,9.52,358,8.91,357,8.91Z" transform="translate(-19.9 -1.1)"/></svg>