<?xml version="1.0" encoding="utf-8"?>
<!-- Generator: Adobe Illustrator 24.1.0, SVG Export Plug-In . SVG Version: 6.00 Build 0)  -->
<svg version="1.1" id="图层_1" xmlns="http://www.w3.org/2000/svg" xmlns:xlink="http://www.w3.org/1999/xlink" x="0px" y="0px"
	 viewBox="0 0 404.2 174.1" style="enable-background:new 0 0 404.2 174.1;" xml:space="preserve">
<style type="text/css">
	.st0{fill:none;stroke:#FFFFFF;stroke-width:0.3;stroke-miterlimit:10;}
	.st1{fill:#333333;}
	.st2{fill:none;stroke:#E2282B;stroke-width:0.99;stroke-miterlimit:10;}
	.st3{fill:none;stroke:#F2868C;stroke-width:0.79;stroke-miterlimit:10;}
	.st4{fill:#939393;}
	.st5{fill:#E2282B;}
	.st6{fill:#F2868C;}
	.st7{fill:#E6E6E6;}
	.st8{fill:none;stroke:#939393;stroke-width:0.66;stroke-miterlimit:10;}
</style>
<line class="st0" x1="207.8" y1="174" x2="207.9" y2="174"/>
<path class="st1" d="M27.9,137.5h6.9v1.2H32v9.6h-1.3v-9.6h-2.8V137.5z"/>
<path class="st1" d="M37.4,142.2c-0.9,0-1.2,0.8-1.2,1.8v4.3h-1.3v-7.1h1.2v0.9c0.3-0.6,0.9-0.9,1.5-1c0.5,0,1,0.1,1.3,0.5l-0.7,1
	C38,142.4,37.7,142.2,37.4,142.2z"/>
<path class="st1" d="M40,141.9c0.8-0.6,1.8-0.9,2.8-0.9c1.7,0,2.8,0.8,2.8,2.2v5.1h-1.2v-1c-0.6,0.7-1.4,1.1-2.3,1.1
	c-1.3,0.1-2.4-0.9-2.5-2.1c0-0.1,0-0.1,0-0.2c0-1.4,1-2.3,2.8-2.3c0.7,0,1.4,0.2,2,0.5v-1c0-1-0.7-1.3-1.6-1.3
	c-0.8,0-1.5,0.3-2.1,0.7L40,141.9z M42.3,147.4c1,0.1,1.9-0.7,2-1.8c0,0,0-0.1,0-0.1v-0.3c-0.6-0.3-1.2-0.4-1.8-0.4
	c-1.2,0-1.7,0.5-1.7,1.2S41.4,147.4,42.3,147.4z"/>
<path class="st1" d="M48.5,137.4c0.5,0,0.8,0.4,0.8,0.9c0,0.5-0.4,0.8-0.8,0.8c-0.5,0-0.9-0.4-0.9-0.8
	C47.7,137.8,48,137.4,48.5,137.4C48.5,137.4,48.5,137.4,48.5,137.4z M49.1,141.2v7.1h-1.2v-7.1H49.1z"/>
<path class="st1" d="M54.8,142.2c-0.9-0.1-1.8,0.7-1.8,1.6c0,0.1,0,0.1,0,0.2v4.3h-1.2v-7.1h1.2v1.1c0.4-0.8,1.2-1.3,2.1-1.3
	c1.5,0,2.4,1.1,2.4,2.8v4.5h-1.2V144C56.3,142.8,55.7,142.2,54.8,142.2z"/>
<path class="st1" d="M60.7,137.4c0.5,0,0.8,0.4,0.8,0.9c0,0.5-0.4,0.8-0.8,0.8c-0.5,0-0.8-0.4-0.8-0.8
	C59.8,137.8,60.2,137.4,60.7,137.4z M61.3,141.2v7.1h-1.2v-7.1H61.3z"/>
<path class="st1" d="M66.9,142.2c-0.9-0.1-1.8,0.7-1.8,1.6c0,0.1,0,0.1,0,0.2v4.3h-1.2v-7.1h1.2v1.1c0.4-0.8,1.2-1.3,2.1-1.3
	c1.5,0,2.4,1.1,2.4,2.8v4.5h-1.2V144C68.4,142.8,67.9,142.2,66.9,142.2z"/>
<path class="st1" d="M72.8,148.8c0.1,1.1,1.1,2,2.2,1.9c0,0,0,0,0.1,0c1.3,0,2.3-1,2.3-2.3c0-0.1,0-0.2,0-0.3v-1.1
	c-0.5,0.9-1.4,1.4-2.4,1.4c-2.1-0.2-3.6-1.9-3.4-4c0.1-1.8,1.6-3.3,3.4-3.4c1,0,2,0.5,2.5,1.4v-1.2h1.2v7c0.1,1.9-1.3,3.6-3.3,3.7
	c-0.1,0-0.2,0-0.3,0c-2.1,0-3.5-1.2-3.5-3.1L72.8,148.8z M75.1,147.3c1.4,0.1,2.6-1,2.7-2.4c0.1-1.4-1-2.6-2.4-2.7
	c-1.4-0.1-2.6,1-2.7,2.4c0,0,0,0.1,0,0.1c-0.1,1.3,0.9,2.5,2.2,2.6C74.9,147.3,75,147.4,75.1,147.3z"/>
<path class="st1" d="M84.5,137.5h6.9v1.2h-2.8v9.6h-1.3v-9.6h-2.8V137.5z"/>
<path class="st1" d="M93.5,137.4c0.5,0,0.8,0.4,0.8,0.9c0,0.5-0.4,0.8-0.8,0.8c-0.5,0-0.8-0.4-0.8-0.8
	C92.7,137.8,93.1,137.4,93.5,137.4z M94.2,141.2v7.1h-1.2v-7.1H94.2z"/>
<path class="st1" d="M106.5,148.4h-1.2V144c0-1.2-0.4-1.8-1.4-1.8c-0.9,0-1.6,0.6-1.7,1.5c0,0.1,0,0.2,0,0.3v4.3H101V144
	c0-1.2-0.4-1.8-1.4-1.8c-0.9,0-1.6,0.6-1.7,1.5c0,0.1,0,0.2,0,0.3v4.3h-1.2v-7.1H98v1c0.4-0.8,1.2-1.2,2-1.2
	c0.9-0.1,1.7,0.5,2.1,1.3c0.4-0.8,1.3-1.3,2.2-1.3c1.5,0,2.3,1,2.3,2.8L106.5,148.4z"/>
<path class="st1" d="M108.2,144.8c-0.2-1.9,1.3-3.6,3.1-3.7c0.1,0,0.3,0,0.4,0c2.1,0,3.4,1.4,3.4,3.7c0,0.1,0,0.3,0,0.4h-5.6
	c-0.1,1.2,0.9,2.2,2,2.3c0.1,0,0.1,0,0.2,0c0.9,0,1.8-0.5,2.2-1.3l1,0.6c-0.7,1.2-2,1.9-3.4,1.8c-1.9,0-3.4-1.5-3.4-3.4
	C108.2,145,108.2,144.9,108.2,144.8z M109.5,144h4.2c0-1.1-0.9-1.9-2-1.9c0,0,0,0,0,0C110.6,142.1,109.6,142.9,109.5,144L109.5,144z
	"/>
<path class="st1" d="M5.5,104.2c3.1,0,5.6,2.4,5.7,5.5c0,3.1-2.4,5.6-5.5,5.7S0,113,0,109.9c0,0,0-0.1,0-0.1c-0.1-3,2.3-5.5,5.3-5.6
	C5.3,104.2,5.4,104.2,5.5,104.2z M5.5,114.1c2.4,0.1,4.3-1.7,4.4-4.1c0.1-2.4-1.7-4.3-4.1-4.4c-2.4-0.1-4.3,1.7-4.4,4.1
	c0,0.1,0,0.1,0,0.2c-0.1,2.2,1.6,4.1,3.9,4.3C5.3,114.1,5.4,114.1,5.5,114.1z"/>
<path class="st1" d="M15.6,114.2c0.9,0.1,1.8-0.7,1.8-1.6c0-0.1,0-0.1,0-0.2v-4.4h1.2v7.1h-1.2v-1.1c-0.4,0.8-1.2,1.3-2.1,1.3
	c-1.5,0-2.5-1.1-2.5-2.8v-4.5H14v4.3C14,113.6,14.6,114.2,15.6,114.2z"/>
<path class="st1" d="M21,108.1v-2.5h1.2v2.5h1.1v1.2h-1.1v6H21v-6h-1.2v-1.2H21z"/>
<path class="st1" d="M24.6,118.7v-10.6h1.2v1.2c0.5-0.9,1.4-1.4,2.4-1.4c2.1,0,3.7,1.7,3.7,3.7s-1.7,3.7-3.7,3.7
	c-1,0-1.9-0.5-2.4-1.4v4.6L24.6,118.7z M28.1,109.1c-1.4,0.2-2.4,1.5-2.2,2.9c0.1,1.2,1.1,2.1,2.2,2.2c1.4,0,2.6-1.1,2.6-2.6
	C30.7,110.2,29.5,109.1,28.1,109.1z"/>
<path class="st1" d="M36.2,114.2c0.9,0.1,1.7-0.6,1.8-1.6c0-0.1,0-0.1,0-0.2v-4.4h1.2v7.1h-1.2v-1.1c-0.4,0.8-1.2,1.3-2.1,1.3
	c-1.5,0-2.4-1.1-2.4-2.8v-4.5h1.2v4.3C34.7,113.6,35.2,114.2,36.2,114.2z"/>
<path class="st1" d="M41.7,108.1v-2.5h1.2v2.5h1.2v1.2h-1.2v6h-1.2v-6h-1.2v-1.2H41.7z"/>
<path class="st1" d="M53,104.4c2.1,0,3.7,1.2,3.7,3.2c0,1.5-1.1,2.9-2.6,3.1l3.3,4.5h-1.7l-3-4.3h-1.3v4.3h-1.3v-10.8H53z
	 M51.4,105.6v4.2H53c1.2,0.2,2.2-0.6,2.4-1.8c0.2-1.2-0.6-2.2-1.8-2.4c-0.2,0-0.4,0-0.6,0H51.4z"/>
<path class="st1" d="M58.1,111.7c-0.2-1.9,1.3-3.6,3.1-3.7c0.1,0,0.3,0,0.4,0c2.1,0,3.4,1.4,3.4,3.7c0,0.2,0,0.3,0,0.4h-5.6
	c-0.1,1.2,0.9,2.2,2,2.3c0.1,0,0.1,0,0.2,0c0.9,0,1.8-0.5,2.2-1.3l1,0.6c-0.7,1.2-2,1.9-3.4,1.8c-1.9,0-3.4-1.5-3.4-3.4
	C58,111.9,58,111.8,58.1,111.7z M59.4,110.9h4.2c0-1.1-0.9-1.9-2-1.9c0,0,0,0,0,0C60.5,109,59.5,109.8,59.4,110.9z"/>
<path class="st1" d="M68.9,114.3c0.7,0,1.1-0.3,1.1-0.9c0-0.7-0.8-1.1-1.6-1.4s-2-0.9-2-2.1s1.2-1.9,2.3-1.9c1,0,2,0.5,2.6,1.4
	l-1,0.6c-0.4-0.6-1-0.9-1.7-0.9c-0.5,0-1,0.2-1,0.7s0.7,0.9,1.5,1.2c1.2,0.5,2.2,1,2.2,2.3c0,1.2-1,2.2-2.3,2.2c-0.1,0-0.1,0-0.2,0
	c-1.2,0-2.3-0.7-2.8-1.7l1-0.6C67.3,113.8,68.1,114.2,68.9,114.3z"/>
<path class="st1" d="M76,108c2.1,0,3.7,1.6,3.7,3.7c0,2.1-1.6,3.7-3.7,3.7c-2.1,0-3.7-1.6-3.7-3.7c0,0,0,0,0,0
	c-0.1-2,1.5-3.7,3.5-3.7C75.8,108,75.9,108,76,108z M76,114.2c1.4,0.1,2.6-1,2.7-2.4c0.1-1.4-1-2.6-2.4-2.7c-1.4-0.1-2.6,1-2.7,2.4
	c0,0,0,0.1,0,0.1c-0.1,1.3,0.9,2.5,2.3,2.6C75.9,114.2,75.9,114.2,76,114.2z"/>
<path class="st1" d="M82.6,103.2v12.1h-1.2v-12.1H82.6z"/>
<path class="st1" d="M87.7,114.2c0.9,0.1,1.8-0.7,1.8-1.6c0-0.1,0-0.1,0-0.2v-4.4h1.2v7.1h-1.2v-1.1c-0.4,0.8-1.2,1.3-2.1,1.3
	c-1.5,0-2.4-1.1-2.4-2.8v-4.5h1.2v4.3C86.2,113.6,86.7,114.2,87.7,114.2z"/>
<path class="st1" d="M93.1,108.1v-2.5h1.2v2.5h1.2v1.2h-1.2v6h-1.2v-6H92v-1.2H93.1z"/>
<path class="st1" d="M97.6,104.3c0.5,0,0.8,0.4,0.8,0.9c0,0.5-0.4,0.8-0.9,0.8c-0.5,0-0.8-0.4-0.8-0.8
	C96.8,104.7,97.2,104.3,97.6,104.3z M98.3,108.1v7.1H97v-7.2L98.3,108.1z"/>
<path class="st1" d="M103.9,108c2.1,0,3.7,1.6,3.7,3.7c0,2.1-1.6,3.7-3.7,3.7c-2.1,0-3.7-1.6-3.7-3.7c0,0,0,0,0,0
	c-0.1-2,1.5-3.7,3.5-3.7C103.8,108,103.8,108,103.9,108z M103.9,114.2c1.4,0.1,2.6-1,2.7-2.4c0.1-1.4-1-2.6-2.4-2.7
	c-1.4-0.1-2.6,1-2.7,2.4c0,0,0,0.1,0,0.1c-0.1,1.3,0.9,2.5,2.3,2.6C103.8,114.2,103.8,114.2,103.9,114.2z"/>
<path class="st1" d="M112.4,109.1c-0.9-0.1-1.8,0.7-1.8,1.6c0,0.1,0,0.1,0,0.2v4.3h-1.3v-7.1h1.2v1.1c0.4-0.8,1.2-1.3,2.1-1.3
	c1.5,0,2.4,1.1,2.4,2.8v4.5h-1.2v-4.3C113.8,109.7,113.4,109.1,112.4,109.1z"/>
<path class="st1" d="M9.7,71.9v10.8H8.4V71.9H9.7z"/>
<path class="st1" d="M12.1,75.6v-2.5h1.2v2.5h1.2v1.2h-1.2v6h-1.2v-6H11v-1.2H12.1z"/>
<path class="st1" d="M15.2,79.2c-0.2-1.9,1.3-3.6,3.1-3.7c0.1,0,0.3,0,0.4,0c2.1,0,3.4,1.4,3.4,3.7c0,0.2,0,0.3,0,0.4h-5.6
	c-0.1,1.2,0.9,2.2,2,2.3c0.1,0,0.1,0,0.2,0c0.9,0,1.8-0.5,2.2-1.3l1,0.6c-0.7,1.2-2,1.9-3.4,1.8c-1.9,0-3.4-1.5-3.4-3.4
	C15.2,79.4,15.2,79.3,15.2,79.2z M16.5,78.4h4.2c0-1.1-0.9-1.9-2-1.9c0,0,0,0,0,0C17.6,76.5,16.6,77.3,16.5,78.4z"/>
<path class="st1" d="M26.2,76.6c-0.9,0-1.2,0.8-1.2,1.8v4.3h-1.2v-7.1H25v0.8c0.3-0.6,0.9-0.9,1.5-1c0.5,0,1,0.1,1.3,0.5l-0.7,1
	C26.9,76.7,26.6,76.6,26.2,76.6z"/>
<path class="st1" d="M28.9,76.4c0.8-0.6,1.8-0.9,2.8-0.9c1.7,0,2.8,0.8,2.8,2.2v5.1h-1.2v-1c-0.6,0.7-1.4,1.2-2.4,1.1
	c-1.3,0.1-2.4-0.8-2.5-2.1c0-0.1,0-0.1,0-0.2c0-1.4,1-2.3,2.8-2.3c0.7,0,1.4,0.2,2,0.5v-1c0-1-0.7-1.2-1.6-1.2
	c-0.8,0-1.5,0.2-2.1,0.7L28.9,76.4z M31.2,81.8c1,0.1,1.9-0.7,2-1.8c0,0,0-0.1,0-0.1v-0.3c-0.6-0.3-1.2-0.4-1.8-0.4
	c-1.2,0-1.7,0.5-1.7,1.3S30.3,81.8,31.2,81.8z"/>
<path class="st1" d="M36.6,75.6v-2.5h1.2v2.5H39v1.2h-1.2v6h-1.2v-6h-1.2v-1.2H36.6z"/>
<path class="st1" d="M41.1,71.8c0.5,0,0.9,0.4,0.9,0.8c0,0.5-0.4,0.9-0.8,0.9c-0.5,0-0.9-0.4-0.9-0.8c0,0,0,0,0,0
	C40.3,72.2,40.7,71.8,41.1,71.8z M41.7,75.6v7.1h-1.2v-7.1H41.7z"/>
<path class="st1" d="M47.4,75.5c2.1,0,3.7,1.6,3.7,3.7c0,2.1-1.6,3.7-3.7,3.7c-2.1,0-3.7-1.6-3.7-3.7c0,0,0,0,0,0
	c-0.1-2,1.5-3.7,3.5-3.7C47.2,75.5,47.3,75.5,47.4,75.5z M47.4,81.7c1.4,0.1,2.6-1,2.7-2.4c0.1-1.4-1-2.6-2.4-2.7
	c-1.4-0.1-2.6,1-2.7,2.4c0,0,0,0.1,0,0.1c-0.1,1.3,0.9,2.5,2.3,2.6C47.3,81.7,47.3,81.8,47.4,81.7z"/>
<path class="st1" d="M55.8,76.6c-0.9-0.1-1.8,0.7-1.8,1.6c0,0.1,0,0.1,0,0.2v4.3h-1.2v-7.1H54v1.1c0.4-0.8,1.2-1.3,2.1-1.3
	c1.5,0,2.4,1.1,2.4,2.8v4.5h-1.2v-4.3C57.4,77.2,56.8,76.6,55.8,76.6z"/>
<path class="st1" d="M71.7,79.5h-4.3L66,82.8h-1.5l5-11.4l5,11.4h-1.4L71.7,79.5z M67.8,78.3h3.3l-1.7-3.9L67.8,78.3z"/>
<path class="st1" d="M85.6,82.8h-1.2v-4.3c0-1.2-0.4-1.8-1.4-1.8c-0.9,0-1.6,0.6-1.7,1.5c0,0.1,0,0.2,0,0.3v4.3H80v-4.3
	c0-1.2-0.4-1.8-1.4-1.8c-0.9,0-1.6,0.6-1.7,1.5c0,0.1,0,0.2,0,0.3v4.3h-1.2v-7.1H77v1c0.4-0.8,1.2-1.2,2-1.2
	c0.9-0.1,1.7,0.5,2.1,1.3c0.4-0.8,1.3-1.4,2.2-1.3c1.5,0,2.3,1,2.3,2.8L85.6,82.8z"/>
<path class="st1" d="M90.9,75.5c2.1,0,3.7,1.6,3.7,3.7c0,2.1-1.6,3.7-3.7,3.7c-2.1,0-3.7-1.6-3.7-3.7c0,0,0,0,0,0
	c-0.1-2,1.5-3.7,3.5-3.7C90.8,75.5,90.9,75.5,90.9,75.5z M90.9,81.7c1.4,0.1,2.6-1,2.7-2.4c0.1-1.4-1-2.6-2.4-2.7
	c-1.4-0.1-2.6,1-2.7,2.4c0,0,0,0.1,0,0.1c-0.1,1.3,0.9,2.5,2.3,2.6C90.8,81.7,90.9,81.8,90.9,81.7z"/>
<path class="st1" d="M99.1,81.7c0.9,0.1,1.8-0.7,1.8-1.6c0-0.1,0-0.1,0-0.2v-4.3h1.2v7.1h-1.2v-1.1c-0.4,0.8-1.2,1.3-2.1,1.3
	c-1.5,0-2.4-1.1-2.4-2.8v-4.5h1.2V80C97.6,81.1,98.1,81.7,99.1,81.7z"/>
<path class="st1" d="M107.5,76.6c-0.9-0.1-1.7,0.6-1.8,1.6c0,0.1,0,0.1,0,0.2v4.3h-1.2v-7.1h1.2v1.1c0.4-0.8,1.2-1.3,2.1-1.3
	c1.5,0,2.4,1.1,2.4,2.8v4.5H109v-4.3C109,77.2,108.5,76.6,107.5,76.6z"/>
<path class="st1" d="M112.7,75.6v-2.5h1.2v2.5h1.2v1.2h-1.2v6h-1.2v-6h-1.2v-1.2H112.7z"/>
<path class="st1" d="M37.7,48.8V37.9H41c3-0.1,5.5,2.2,5.7,5.2c0.1,3-2.2,5.5-5.2,5.7c-0.2,0-0.3,0-0.5,0H37.7z M39,39.3v8.2H41
	c2.3,0,4.1-1.8,4.1-4.1s-1.8-4.1-4.1-4.1l0,0H39z"/>
<path class="st1" d="M47.9,42.4c0.8-0.6,1.8-0.9,2.8-0.9c1.7,0,2.8,0.8,2.8,2.2v5.1h-1.2v-1c-0.6,0.7-1.4,1.2-2.3,1.1
	c-1.3,0.1-2.4-0.8-2.5-2.1c0-0.1,0-0.1,0-0.2c0-1.4,1-2.3,2.8-2.3c0.7,0,1.4,0.2,2,0.5v-1c0-1-0.7-1.2-1.6-1.2
	c-0.8,0-1.5,0.2-2.1,0.7L47.9,42.4z M50.2,47.9c1,0.1,1.9-0.7,2-1.8c0,0,0-0.1,0-0.1v-0.3c-0.6-0.3-1.2-0.4-1.8-0.4
	c-1.2,0-1.7,0.5-1.7,1.3S49.4,47.9,50.2,47.9z"/>
<path class="st1" d="M55.7,41.7v-2.5h1.2v2.5h1.2v1.2h-1.2v6h-1.2v-6h-1.2v-1.2H55.7z"/>
<path class="st1" d="M59.1,42.4c0.8-0.6,1.8-0.9,2.8-0.9c1.7,0,2.8,0.8,2.8,2.2v5.1h-1.2v-1c-0.6,0.7-1.4,1.2-2.4,1.1
	c-1.3,0.1-2.4-0.8-2.5-2.1c0-0.1,0-0.1,0-0.2c0-1.4,1-2.3,2.8-2.3c0.7,0,1.4,0.2,2,0.5v-1c0-1-0.7-1.2-1.6-1.2
	c-0.8,0-1.5,0.2-2.1,0.7L59.1,42.4z M61.4,47.9c1,0.1,1.9-0.7,2-1.8c0,0,0-0.1,0-0.1v-0.3c-0.6-0.3-1.2-0.4-1.8-0.4
	c-1.2,0-1.7,0.5-1.7,1.3S60.5,47.9,61.4,47.9z"/>
<path class="st1" d="M69,47.8c0.7,0,1.1-0.3,1.1-0.9c0-0.7-0.8-1.1-1.6-1.4s-2-0.9-2-2.1s1.2-1.9,2.3-1.9c1,0,2,0.5,2.6,1.4l-1,0.6
	c-0.4-0.6-1-0.9-1.7-0.9c-0.5,0-1,0.2-1,0.7s0.7,0.9,1.5,1.2c1.2,0.6,2.2,1,2.2,2.3c0,1.2-1,2.2-2.3,2.2c-0.1,0-0.1,0-0.2,0
	c-1.2,0-2.3-0.7-2.8-1.7l1-0.6C67.5,47.3,68.2,47.8,69,47.8z"/>
<path class="st1" d="M72.4,45.2c-0.2-1.9,1.3-3.6,3.1-3.7c0.1,0,0.3,0,0.4,0c2.1,0,3.4,1.4,3.4,3.7c0,0.2,0,0.3,0,0.4h-5.6
	c-0.1,1.2,0.9,2.2,2,2.3c0.1,0,0.1,0,0.2,0c0.9,0,1.8-0.5,2.2-1.3l1,0.6c-0.7,1.2-2,1.9-3.4,1.8c-1.9,0-3.4-1.5-3.4-3.4
	C72.4,45.4,72.4,45.3,72.4,45.2z M73.7,44.5H78c0-1.1-0.9-1.9-2-1.9c0,0,0,0,0,0C74.8,42.5,73.8,43.4,73.7,44.5z"/>
<path class="st1" d="M81.1,41.7v-2.5h1.3v2.5h1.2v1.2h-1.2v6h-1.2v-6H80v-1.2H81.1z"/>
<path class="st1" d="M92.7,47.7c0.9,0.1,1.8-0.6,1.9-1.5c0-0.1,0-0.1,0-0.2c0-1.5-1.2-1.9-2.4-2.4s-2.9-1.1-2.9-3
	c0-1.6,1.4-2.9,3-2.8c0.1,0,0.1,0,0.2,0c1.5,0,2.8,0.9,3.4,2.2l-1.1,0.7c-0.4-1-1.3-1.6-2.3-1.7c-1.2,0-1.7,0.7-1.7,1.4
	c0,0.9,0.6,1.5,2.5,2.2c1.5,0.3,2.7,1.7,2.7,3.2c0,1.8-1.5,3.1-3.3,3.1c0,0,0,0-0.1,0c-1.7-0.1-3.2-1.2-3.9-2.7l1.1-0.7
	C90.6,46.8,91.4,47.7,92.7,47.7z"/>
<path class="st1" d="M98.7,37.9c0.5,0,0.8,0.4,0.8,0.8c0,0.5-0.4,0.9-0.8,0.9l0,0c-0.5,0-0.8-0.4-0.8-0.9
	C97.9,38.3,98.3,37.9,98.7,37.9z M99.4,41.7v7.1h-1.2v-7.1H99.4z"/>
<path class="st1" d="M101.5,42.8v-1.2h6.2l-4.4,6h4.1v1.2H101l4.4-6H101.5z"/>
<path class="st1" d="M108.2,45.2c-0.1-1.9,1.3-3.6,3.2-3.7c0.1,0,0.2,0,0.4,0c2.1,0,3.4,1.4,3.4,3.7c0,0.2,0,0.3,0,0.4h-5.6
	c-0.1,1.2,0.9,2.2,2,2.3c0.1,0,0.1,0,0.2,0c0.9,0,1.8-0.5,2.2-1.3l1,0.6c-0.7,1.2-2,1.9-3.4,1.8c-1.9,0-3.4-1.5-3.4-3.4
	C108.2,45.5,108.2,45.3,108.2,45.2z M109.5,44.5h4.2c0-1.1-0.9-1.9-1.9-1.9c0,0,0,0-0.1,0C110.6,42.5,109.6,43.4,109.5,44.5
	L109.5,44.5z"/>
<path class="st1" d="M59.2,10.6h-4.4l-1.4,3.3h-1.4l5-11.4l5,11.4h-1.4L59.2,10.6z M55.4,9.4h3.3L57,5.5L55.4,9.4z"/>
<path class="st1" d="M64.5,1.8v12.1h-1.2V1.8H64.5z"/>
<path class="st1" d="M67.6,14.3c0.1,1.1,1,2,2.2,1.9c0,0,0.1,0,0.1,0c1.3,0,2.3-1,2.3-2.3c0-0.1,0-0.2,0-0.3v-1.1
	c-0.5,0.9-1.4,1.4-2.4,1.4c-1.9,0-3.5-1.5-3.5-3.4c0-0.1,0-0.2,0-0.3c-0.1-1.9,1.3-3.6,3.3-3.7c0.1,0,0.2,0,0.3,0
	c1,0,1.9,0.5,2.4,1.4V6.7h1.2v7c0.1,1.9-1.3,3.6-3.2,3.7c-0.1,0-0.2,0-0.3,0c-2.1,0-3.5-1.2-3.5-3.1L67.6,14.3z M69.9,12.9
	c1.3-0.1,2.3-1.2,2.3-2.5c0,0,0,0,0-0.1C72.3,9,71.3,7.9,70,7.8s-2.4,0.9-2.5,2.2c0,0.1,0,0.2,0,0.3c-0.1,1.3,0.9,2.4,2.2,2.6
	C69.7,12.9,69.8,12.9,69.9,12.9z"/>
<path class="st1" d="M78.7,6.6c2,0,3.6,1.6,3.6,3.6c0,0,0,0.1,0,0.1c0,2-1.6,3.7-3.7,3.7c-2,0-3.7-1.6-3.7-3.7c0,0,0,0,0,0
	c-0.1-2,1.5-3.7,3.5-3.7C78.6,6.6,78.7,6.6,78.7,6.6z M78.7,12.9c1.3,0,2.4-1.1,2.4-2.4c0-0.1,0-0.1,0-0.2c0.1-1.3-0.9-2.5-2.3-2.6
	c-1.3-0.1-2.5,0.9-2.6,2.3c0,0.1,0,0.2,0,0.3c-0.1,1.3,0.9,2.5,2.3,2.6C78.6,12.9,78.7,12.9,78.7,12.9z"/>
<path class="st1" d="M86.6,7.7c-0.9,0-1.2,0.8-1.2,1.8v4.3h-1.2V6.7h1.2v0.8c0.3-0.6,0.9-0.9,1.5-1c0.5,0,1,0.1,1.3,0.5l-0.7,1
	C87.2,7.8,86.9,7.7,86.6,7.7z"/>
<path class="st1" d="M90.3,2.9c0.5,0,0.8,0.4,0.8,0.9c0,0.5-0.4,0.8-0.9,0.8c-0.5,0-0.8-0.4-0.8-0.8C89.4,3.3,89.8,2.9,90.3,2.9z
	 M90.9,6.7v7.1h-1.2V6.7H90.9z"/>
<path class="st1" d="M93.5,6.7V4.3h1.2v2.5h1.2v1.2h-1.2v6h-1.2v-6h-1.2V6.7H93.5z"/>
<path class="st1" d="M100.2,7.7c-0.9-0.1-1.8,0.7-1.8,1.6c0,0.1,0,0.1,0,0.2v4.3h-1.2V1.8h1.2v6.1c0.4-0.8,1.2-1.3,2.1-1.3
	c1.5,0,2.4,1,2.4,2.8v4.5h-1.2V9.5C101.8,8.3,101.2,7.7,100.2,7.7z"/>
<path class="st1" d="M115.1,13.9h-1.2V9.5c0-1.2-0.4-1.8-1.4-1.8c-0.9,0-1.6,0.6-1.7,1.5c0,0.1,0,0.2,0,0.3v4.3h-1.2V9.5
	c0-1.2-0.4-1.8-1.4-1.8c-0.9,0-1.6,0.6-1.7,1.5c0,0.1,0,0.2,0,0.3v4.3h-1.2V6.7h1.2v1c0.4-0.8,1.2-1.2,2-1.2
	c0.9-0.1,1.7,0.5,2.1,1.3c0.4-0.8,1.3-1.4,2.2-1.3c1.5,0,2.3,1,2.3,2.8L115.1,13.9z"/>
<path class="st1" d="M129.7,13.3c0.8,0.1,1.5-0.5,1.5-1.2c0,0,0-0.1,0-0.1c0-1.2-0.9-1.5-1.9-1.9S127,9.1,127,7.5
	c0-1.3,1.1-2.3,2.4-2.3c0.1,0,0.1,0,0.2,0c1.2,0,2.3,0.7,2.7,1.8l-0.9,0.5c-0.3-0.8-1-1.3-1.9-1.3c-0.9,0-1.4,0.5-1.4,1.1
	c0,0.7,0.5,1.2,2,1.8c1.2,0.3,2.1,1.3,2.2,2.6c0,1.4-1.2,2.5-2.6,2.5c0,0,0,0-0.1,0c-1.4-0.1-2.6-0.9-3.1-2.2l0.9-0.6
	C127.9,12.5,128.6,13.3,129.7,13.3z"/>
<path class="st1" d="M138.8,11.5h-3.5l-1.1,2.6h-1.2l4.1-9.2l4.1,9.2h-1.2L138.8,11.5z M135.7,10.5h2.7L137,7.4L135.7,10.5z"/>
<path class="st1" d="M147.1,5.4v1h-3.9v2.5h3.7v1h-3.7v3.2h3.9v1h-5V5.4H147.1z"/>
<path class="st1" d="M150.1,5.4v3.5h4.8V5.4h1.1v8.8h-1.1V9.9h-4.8v4.2H149V5.4H150.1z"/>
<path class="st1" d="M157.9,14.1V5.4h2.6c2.3-0.1,4.3,1.7,4.4,4c0,0.1,0,0.3,0,0.4c0.1,2.3-1.7,4.3-4,4.4c-0.1,0-0.3,0-0.4,0
	L157.9,14.1z M159,6.4v6.6h1.6c1.7,0.1,3.2-1.2,3.3-2.9c0-0.1,0-0.3,0-0.4c0.1-1.7-1.2-3.2-2.9-3.3c-0.1,0-0.3,0-0.4,0L159,6.4z"/>
<rect x="122.7" y="0.5" class="st2" width="46.1" height="18.2"/>
<rect x="176.7" y="0.5" class="st3" width="32.8" height="18.3"/>
<path class="st1" d="M180.8,5.2v3.5h4.8V5.2h1.1V14h-1.1V9.7h-4.8V14h-1.1V5.2H180.8z"/>
<path class="st1" d="M188.6,5.9l3-0.8V14h-1.1V6.4L188.7,7L188.6,5.9z"/>
<path class="st1" d="M197.7,9.6c0.5-0.5,0.9-1.2,0.9-1.9c0-0.9-0.7-1.6-1.6-1.6c0,0,0,0-0.1,0c-1.1,0-1.8,0.8-1.8,2.1H194
	c0-1.9,1-3.1,2.9-3.1c1.4-0.1,2.7,1,2.8,2.5c0,0,0,0,0,0.1c-0.1,1-0.5,1.9-1.2,2.5l-2.8,2.8h4v1h-6.2L197.7,9.6z"/>
<path class="st1" d="M202.6,9.3c-0.8-0.3-1.3-1.1-1.2-2c0.1-1.3,1.2-2.3,2.6-2.3c1.2,0.1,2.2,1,2.3,2.3c0.1,0.9-0.4,1.7-1.2,2
	c1,0.4,1.6,1.3,1.6,2.3c-0.2,1.5-1.5,2.6-3,2.4c-1.3-0.1-2.3-1.2-2.4-2.4C201,10.6,201.7,9.7,202.6,9.3z M203.8,13.2
	c0.9,0,1.7-0.7,1.7-1.6c0,0,0-0.1,0-0.1c-0.1-0.9-0.9-1.7-1.8-1.6c-0.8,0.1-1.5,0.7-1.6,1.6C202.1,12.4,202.8,13.2,203.8,13.2
	C203.7,13.2,203.8,13.2,203.8,13.2z M203.8,8.9c0.8,0,1.4-0.6,1.4-1.4S204.6,6,203.8,6s-1.4,0.6-1.4,1.4c0,0,0,0,0,0
	C202.4,8.2,203,8.8,203.8,8.9C203.8,8.9,203.8,8.9,203.8,8.9z"/>
<path class="st4" d="M256.4,3.1c2.1,0,3.7,1.3,3.7,3.3s-1.6,3.3-3.7,3.3h-1.6v4.3h-1.4V3.1H256.4z M254.8,4.3v4h1.6
	c1.4,0,2.4-0.7,2.4-2s-1-2-2.4-2H254.8z"/>
<path class="st4" d="M263.9,7.8c-0.9,0-1.2,0.8-1.2,1.8v4.3h-1.2V6.8h1.2v0.8c0.3-0.6,0.9-0.9,1.5-1c0.5,0,1,0.1,1.3,0.5l-0.7,1
	C264.6,7.9,264.3,7.8,263.9,7.8z"/>
<path class="st4" d="M269.7,6.7c2-0.1,3.6,1.5,3.7,3.5c0,0.1,0,0.1,0,0.2c0,2-1.7,3.7-3.7,3.7s-3.7-1.7-3.7-3.7
	c-0.1-2,1.5-3.7,3.5-3.7C269.5,6.7,269.6,6.7,269.7,6.7z M269.7,12.9c1.3,0,2.4-1.1,2.4-2.4c0-0.1,0-0.1,0-0.2
	c0.1-1.3-0.9-2.5-2.3-2.6s-2.5,0.9-2.6,2.3c0,0.1,0,0.2,0,0.3c-0.1,1.3,0.9,2.5,2.3,2.6C269.6,12.9,269.6,12.9,269.7,12.9z"/>
<path class="st4" d="M274.4,16.1c0.5,0,0.7-0.4,0.7-1.4V6.8h1.3v8.1c0,1.6-0.8,2.5-2.1,2.5c-0.5,0-1-0.2-1.4-0.6l0.7-1
	C273.8,16,274.1,16.1,274.4,16.1z M275.7,3.1c0.5,0,0.8,0.4,0.8,0.8s-0.4,0.8-0.8,0.8c-0.5,0-0.8-0.4-0.8-0.8c0,0,0,0,0,0
	C274.9,3.5,275.2,3.1,275.7,3.1z"/>
<path class="st4" d="M278.4,10.4c-0.2-1.9,1.3-3.6,3.1-3.7c0.1,0,0.3,0,0.4,0c2.1,0,3.4,1.4,3.4,3.7c0,0.1,0,0.3,0,0.4h-5.6
	c-0.1,1.2,0.9,2.2,2,2.3c0.1,0,0.1,0,0.2,0c0.9,0,1.8-0.5,2.2-1.3l1,0.6c-0.7,1.2-2.1,1.9-3.5,1.8c-1.9,0-3.4-1.6-3.3-3.5
	C278.4,10.5,278.4,10.5,278.4,10.4z M279.7,9.6h4.2c0-1.1-0.9-1.9-2-1.9c0,0,0,0,0,0C280.8,7.6,279.7,8.5,279.7,9.6L279.7,9.6z"/>
<path class="st4" d="M289.9,12.9c1,0,1.9-0.5,2.5-1.3v1.5c-0.7,0.6-1.6,1-2.5,0.9c-2,0-3.6-1.5-3.7-3.5c0-0.1,0-0.1,0-0.2
	c-0.1-2,1.5-3.7,3.5-3.7c0.1,0,0.1,0,0.2,0c0.9,0,1.8,0.3,2.5,0.9v1.5c-0.5-0.8-1.5-1.3-2.5-1.3c-1.3,0-2.4,1.1-2.4,2.4
	c0,0.1,0,0.1,0,0.2c-0.1,1.3,0.9,2.5,2.2,2.6C289.8,12.9,289.8,12.9,289.9,12.9z"/>
<path class="st4" d="M294.4,6.8V4.3h1.2v2.5h1.2V8h-1.2v6h-1.2V8h-1.2V6.8H294.4z"/>
<path class="st4" d="M305.7,3.1c2.1,0,3.7,1.3,3.7,3.3c0,1.5-1.1,2.9-2.6,3.1l3.2,4.5h-1.6l-3-4.3h-1.3v4.3h-1.3V3.1H305.7z
	 M304.1,4.2v4.2h1.6c1.2,0.2,2.2-0.6,2.4-1.8s-0.6-2.2-1.8-2.4c-0.2,0-0.4,0-0.6,0H304.1z"/>
<path class="st4" d="M310.8,10.4c-0.2-1.9,1.3-3.6,3.1-3.7c0.1,0,0.3,0,0.4,0c2.1,0,3.4,1.4,3.4,3.7c0,0.1,0,0.3,0,0.4h-5.6
	c-0.1,1.2,0.9,2.2,2,2.3c0.1,0,0.1,0,0.2,0c0.9,0,1.8-0.5,2.2-1.3l1,0.6c-0.7,1.2-2,1.9-3.4,1.8c-1.9,0-3.4-1.5-3.4-3.4
	C310.7,10.6,310.8,10.5,310.8,10.4z M312.1,9.6h4.2c0-1.1-0.9-1.9-1.9-1.9c0,0,0,0-0.1,0C313.2,7.7,312.2,8.5,312.1,9.6L312.1,9.6z"
	/>
<path class="st4" d="M319.1,7.5c0.8-0.6,1.8-0.9,2.8-0.9c1.7,0,2.8,0.8,2.8,2.2v5.1h-1.2v-1c-0.5,0.7-1.4,1.2-2.4,1.1
	c-1.3,0.1-2.4-0.9-2.5-2.1c0-0.1,0-0.1,0-0.2c0-1.4,1-2.3,2.8-2.3c0.7,0,1.4,0.2,2,0.5V9c0-1-0.7-1.2-1.6-1.2
	c-0.8,0-1.5,0.2-2.1,0.7L319.1,7.5z M321.4,13.1c1,0.1,1.9-0.7,2-1.8c0,0,0-0.1,0-0.1v-0.3c-0.6-0.3-1.2-0.4-1.8-0.4
	c-1.2,0-1.7,0.5-1.7,1.3S320.5,13.1,321.4,13.1z"/>
<path class="st4" d="M329.8,12.9c1,0,1.9-0.5,2.5-1.3v1.5c-0.7,0.6-1.6,1-2.5,0.9c-2,0.1-3.6-1.5-3.7-3.5c0-0.1,0-0.1,0-0.2
	c-0.1-2,1.5-3.7,3.5-3.7c0.1,0,0.1,0,0.2,0c0.9,0,1.8,0.3,2.5,0.9v1.5c-0.5-0.8-1.5-1.3-2.5-1.3c-1.3,0-2.4,1.1-2.4,2.4
	c0,0.1,0,0.1,0,0.2c-0.1,1.3,0.9,2.5,2.3,2.6C329.7,12.9,329.8,12.9,329.8,12.9z"/>
<path class="st4" d="M337.3,7.8c-0.9-0.1-1.8,0.7-1.8,1.6c0,0.1,0,0.1,0,0.2v4.3h-1.2V1.8h1.2v6.1c0.4-0.8,1.2-1.3,2.1-1.3
	c1.5,0,2.5,1,2.5,2.8v4.5h-1.2V9.6C338.8,8.4,338.3,7.8,337.3,7.8z"/>
<path class="st5" d="M258.5,144.1c0.7-0.6,1.1-1.5,1.1-2.4c0-1.1-1-2-2.1-1.9c0,0,0,0,0,0c-1.4,0-2.2,1-2.2,2.7H254
	c0-2.3,1.3-3.9,3.5-3.9c1.8-0.1,3.3,1.3,3.4,3.1c0,0,0,0.1,0,0.1c-0.1,1.2-0.6,2.3-1.4,3.1l-3.5,3.5h5v1.2h-7.7L258.5,144.1z"/>
<path class="st5" d="M268.2,138.7h0.5v7.5h1.7v1.2h-1.7v2.2h-1.3v-2.2h-5.2L268.2,138.7z M267.5,146.2v-4.6l-3.1,4.6H267.5z"/>
<path class="st6" d="M278.7,138.7l-6.3,13.2h-1.2l6.3-13.2H278.7z"/>
<path class="st6" d="M285.3,138.7h0.5v7.5h1.7v1.2h-1.7v2.2h-1.3v-2.2h-5.2L285.3,138.7z M284.5,146.2v-4.6l-3.1,4.6H284.5z"/>
<path class="st6" d="M292.6,138.5c2.4,0,4,2.3,4,5.6s-1.6,5.6-4,5.6s-4-2.3-4-5.6S290.2,138.5,292.6,138.5z M292.6,148.5
	c1.7,0,2.7-1.8,2.7-4.3s-1-4.3-2.7-4.3s-2.7,1.8-2.7,4.3S290.9,148.5,292.6,148.5z"/>
<path class="st4" d="M305,138.7l-6.3,13.2h-1.2l6.3-13.2H305z"/>
<path class="st4" d="M312,138.7l-3,4c0.4-0.2,0.8-0.3,1.2-0.3c1.8,0.1,3.3,1.6,3.2,3.5c0,0,0,0,0,0.1c0,2-1.7,3.7-3.7,3.7
	S306,148,306,146c0-0.8,0.2-1.6,0.7-2.2l3.7-5H312z M309.7,148.5c1.3,0,2.4-1,2.4-2.3c0-0.1,0-0.1,0-0.2c-0.1-1.3-1.2-2.4-2.5-2.3
	c-1.3,0.1-2.4,1.2-2.3,2.5C307.3,147.5,308.4,148.5,309.7,148.5z"/>
<path class="st4" d="M315.1,146.7h1.3c0.1,1.1,1,1.9,2,1.8c0,0,0.1,0,0.1,0c1,0.1,1.9-0.7,2-1.7c0-0.1,0-0.2,0-0.2
	c0-1.3-1.1-2-2.5-2v-1.2c1.1,0.1,2.1-0.7,2.2-1.8c0,0,0,0,0-0.1c0.1-0.9-0.5-1.6-1.4-1.7c-0.1,0-0.2,0-0.3,0c-1-0.1-1.8,0.7-1.8,1.6
	c0,0,0,0,0,0h-1.2c0-1.6,1.2-2.8,2.8-2.9c0.1,0,0.2,0,0.2,0c1.6-0.1,2.9,1.1,3,2.7c0,0.1,0,0.1,0,0.2c0,1.1-0.8,2.1-1.8,2.5
	c1.3,0.3,2.2,1.5,2.1,2.8c0,1.7-1.4,3-3.1,3c-0.1,0-0.2,0-0.3,0C316.5,149.7,315.1,148.4,315.1,146.7z"/>
<path class="st4" d="M331.5,143.4c-1,0-1.8,0.7-1.8,1.6c0,0,0,0.1,0,0.1v4.3h-1.2v-12.1h1.2v6.1c0.4-0.8,1.2-1.3,2.1-1.3
	c1.5,0,2.5,0.9,2.5,2.8v4.5H333v-4.3C333,144.1,332.5,143.4,331.5,143.4z"/>
<path class="st4" d="M339.7,142.3c2.1,0,3.7,1.6,3.7,3.7s-1.6,3.7-3.7,3.7s-3.7-1.6-3.7-3.7c0,0,0,0,0,0c-0.1-2,1.5-3.7,3.5-3.7
	C339.5,142.3,339.6,142.3,339.7,142.3z M339.7,148.5c1.4,0.1,2.6-1,2.7-2.4s-1-2.6-2.4-2.7c-1.4-0.1-2.6,1-2.7,2.4c0,0,0,0.1,0,0.1
	c-0.1,1.3,0.9,2.5,2.3,2.6C339.6,148.5,339.6,148.6,339.7,148.5z"/>
<path class="st4" d="M347.8,148.5c0.9,0.1,1.8-0.7,1.8-1.6c0-0.1,0-0.1,0-0.2v-4.3h1.2v7.1h-1.2v-1.1c-0.4,0.8-1.2,1.3-2.1,1.3
	c-1.5,0-2.5-1.1-2.5-2.8v-4.5h1.2v4.3C346.3,147.9,346.8,148.5,347.8,148.5z"/>
<path class="st4" d="M355.6,143.4c-0.9,0-1.2,0.8-1.2,1.8v4.3h-1.2v-7.1h1.2v0.8c0.3-0.6,0.9-0.9,1.5-1c0.5,0,1,0.1,1.3,0.5l-0.7,1
	C356.3,143.5,356,143.4,355.6,143.4z"/>
<path class="st4" d="M360.8,148.6c0.7,0,1.1-0.3,1.1-0.9c0-0.7-0.8-1.1-1.6-1.4s-2-0.9-2-2.1s1.1-1.9,2.3-1.9c1,0,2,0.5,2.6,1.4
	l-1,0.6c-0.4-0.6-1-0.9-1.7-0.9c-0.5,0-0.9,0.2-0.9,0.7s0.7,0.9,1.5,1.2c1.2,0.5,2.2,1,2.2,2.3c0,1.2-1,2.2-2.3,2.2
	c-0.1,0-0.1,0-0.2,0c-1.2,0-2.3-0.7-2.9-1.7l1-0.6C359.2,148.1,360,148.5,360.8,148.6z"/>
<path class="st5" d="M253.4,104.6l3.7-0.9v11h-1.3v-9.4l-2.4,0.7V104.6z"/>
<path class="st5" d="M264.6,109.2c0.7-0.6,1.1-1.5,1.1-2.4c0-1.1-1-2-2.1-1.9c0,0,0,0,0,0c-1.4,0-2.2,1-2.2,2.7h-1.3
	c0-2.3,1.3-3.9,3.5-3.9c1.8-0.1,3.3,1.3,3.4,3.1c0,0,0,0,0,0.1c-0.1,1.2-0.6,2.3-1.5,3.1l-3.5,3.5h4.9v1.2h-7.7L264.6,109.2z"/>
<path class="st5" d="M270.7,108.9c-1-0.4-1.6-1.4-1.5-2.4c0-1.7,1.3-3,3-3s3,1.3,3,3l0,0c0.1,1.1-0.6,2-1.5,2.4
	c1.2,0.4,2,1.6,1.9,2.8c-0.1,1.9-1.8,3.3-3.6,3.1c-1.7-0.1-3-1.5-3.1-3.1C268.8,110.5,269.6,109.4,270.7,108.9z M272.2,113.7
	c1.1,0,2.1-0.8,2.1-2c0,0,0-0.1,0-0.1c-0.1-1.2-1.1-2.1-2.3-2c-1.1,0.1-1.9,0.9-2,2c0,1.1,0.9,2.1,2,2.1
	C272.1,113.7,272.2,113.7,272.2,113.7z M272.2,108.4c1,0,1.8-0.8,1.8-1.7c0-1-0.8-1.8-1.7-1.8s-1.8,0.8-1.8,1.7c0,0,0,0,0,0
	C270.4,107.6,271.2,108.3,272.2,108.4C272.2,108.4,272.2,108.4,272.2,108.4z"/>
<path class="st6" d="M283.9,103.9l-6.3,13.2h-1.2l6.3-13.2L283.9,103.9z"/>
<path class="st6" d="M285.4,104.6l3.7-0.9v11h-1.3v-9.4l-2.4,0.7V104.6z"/>
<path class="st6" d="M296.6,109.2c0.7-0.6,1.1-1.5,1.1-2.4c0-1.1-1-2-2.1-1.9c0,0,0,0,0,0c-1.4,0-2.2,1-2.2,2.7h-1.3
	c0-2.3,1.3-3.9,3.5-3.9c1.8-0.1,3.3,1.3,3.4,3.1c0,0,0,0.1,0,0.1c-0.1,1.2-0.6,2.3-1.4,3.1l-3.5,3.5h5v1.2h-7.7L296.6,109.2z"/>
<path class="st6" d="M302.7,108.9c-1-0.4-1.6-1.4-1.5-2.4c0-1.7,1.3-3,3-3s3,1.3,3,3l0,0c0.1,1.1-0.6,2-1.5,2.4
	c1.2,0.4,2,1.6,1.9,2.8c-0.1,1.9-1.8,3.3-3.6,3.1c-1.7-0.1-3-1.5-3.1-3.1C300.8,110.5,301.6,109.4,302.7,108.9z M304.2,113.7
	c1.1,0,2.1-0.8,2.1-2c0,0,0-0.1,0-0.1c-0.1-1.2-1.1-2.1-2.3-2c-1.1,0.1-1.9,0.9-2,2c0,1.1,0.9,2.1,2,2.1
	C304.1,113.7,304.2,113.7,304.2,113.7z M304.2,108.4c1-0.1,1.7-0.9,1.6-1.9c-0.1-0.9-0.8-1.5-1.6-1.6c-1,0.1-1.7,0.9-1.6,1.9
	C302.7,107.6,303.3,108.3,304.2,108.4z"/>
<path class="st6" d="M314.2,118.1v-10.5h1.2v1.2c0.5-0.9,1.4-1.4,2.4-1.4c2.1,0,3.7,1.7,3.7,3.7s-1.7,3.7-3.7,3.7
	c-1,0-1.9-0.5-2.4-1.4v4.6H314.2z M317.7,108.5c-1.4-0.1-2.6,1-2.7,2.4s1,2.6,2.4,2.7s2.6-1,2.7-2.4c0,0,0-0.1,0-0.1
	c0.1-1.3-0.9-2.4-2.3-2.5C317.8,108.6,317.7,108.6,317.7,108.5L317.7,108.5z"/>
<path class="st6" d="M328,107.6l-2.4,3.5l2.6,3.7h-1.4l-1.9-2.7l-1.9,2.7h-1.4l2.6-3.7l-2.4-3.5h1.4l1.7,2.5l1.7-2.5L328,107.6z"/>
<path class="st5" d="M257.1,39.9c-1.5,0.1-2.8-0.7-3.5-2l1-0.7c0.5,0.9,1.4,1.6,2.5,1.6c1.1,0.1,2.1-0.8,2.2-1.9c0-0.1,0-0.2,0-0.4
	c0.1-1.2-0.8-2.2-2-2.2c-0.1,0-0.1,0-0.2,0c-0.9,0-1.8,0.3-2.5,0.9l1.3-5.2h4.6v1h-3.7l-0.7,2.6c0.5-0.2,1-0.4,1.5-0.4
	c1.7,0,3,1.4,2.9,3.1c0,0.1,0,0.2,0,0.2c0.1,1.8-1.2,3.3-3,3.4C257.4,39.9,257.3,39.9,257.1,39.9z"/>
<path class="st5" d="M265.3,29.8c2.1,0,3.6,2.1,3.6,5s-1.5,5-3.6,5s-3.6-2.1-3.6-5S263.1,29.8,265.3,29.8z M265.3,38.8
	c1.5,0,2.5-1.6,2.5-3.9s-0.9-3.9-2.5-3.9s-2.5,1.6-2.5,3.9S263.8,38.7,265.3,38.8L265.3,38.8z"/>
<path class="st5" d="M273.7,29.8c2.1,0,3.6,2.1,3.6,5s-1.5,5-3.6,5s-3.6-2.1-3.6-5S271.5,29.8,273.7,29.8z M273.7,38.8
	c1.5,0,2.5-1.6,2.5-3.9s-0.9-3.9-2.5-3.9s-2.5,1.6-2.5,3.9S272.2,38.7,273.7,38.8L273.7,38.8z"/>
<path class="st6" d="M284.9,29.9l-5.7,11.9h-1.1l5.7-11.9H284.9z"/>
<path class="st6" d="M289,39.9c-1.4,0.1-2.8-0.7-3.5-2l1-0.7c0.5,0.9,1.4,1.6,2.5,1.6c1.1,0.1,2.1-0.8,2.2-1.9c0-0.1,0-0.2,0-0.4
	c0.1-1.2-0.8-2.2-2-2.2c-0.1,0-0.1,0-0.2,0c-0.9,0-1.8,0.3-2.5,0.9l1.3-5.2h4.6v1h-3.7l-0.7,2.6c0.5-0.2,1-0.4,1.5-0.4
	c1.7,0,3,1.4,2.9,3.1c0,0.1,0,0.2,0,0.2c0.1,1.8-1.2,3.3-3,3.4C289.3,39.9,289.2,39.9,289,39.9z"/>
<path class="st6" d="M297.2,29.8c2.2,0,3.6,2.1,3.6,5s-1.5,5-3.6,5s-3.6-2.1-3.6-5S295,29.8,297.2,29.8z M297.2,38.8
	c1.5,0,2.5-1.6,2.5-3.9s-0.9-3.9-2.5-3.9s-2.5,1.6-2.5,3.9S295.7,38.7,297.2,38.8L297.2,38.8z"/>
<path class="st6" d="M305.6,29.8c2.2,0,3.6,2.1,3.6,5s-1.5,5-3.6,5s-3.6-2.1-3.6-5S303.4,29.8,305.6,29.8z M305.6,38.8
	c1.5,0,2.5-1.6,2.5-3.9s-0.9-3.9-2.5-3.9s-2.5,1.6-2.5,3.9S304.1,38.7,305.6,38.8L305.6,38.8z"/>
<path class="st4" d="M260.2,43.9l-5.7,11.9h-1.2l5.7-11.9H260.2z"/>
<path class="st4" d="M265.4,48.8c0.6-0.6,1-1.3,1-2.1c0-1-0.9-1.8-1.8-1.8c0,0,0,0,0,0c-1.3,0-2,0.9-2,2.4h-1.2
	c0-2.1,1.2-3.5,3.2-3.5c1.6-0.1,3,1.2,3.1,2.8c-0.1,1.1-0.5,2.1-1.3,2.8l-3.1,3.2h4.5v1.1h-6.9L265.4,48.8z"/>
<path class="st4" d="M272.6,43.8c2.1,0,3.6,2.1,3.6,5s-1.5,5-3.6,5s-3.6-2.1-3.6-5S270.4,43.8,272.6,43.8z M272.6,52.8
	c1.5,0,2.5-1.6,2.5-3.9s-0.9-3.9-2.5-3.9s-2.5,1.6-2.5,3.9S271.1,52.7,272.6,52.8L272.6,52.8z"/>
<path class="st4" d="M281,43.8c2.1,0,3.6,2.1,3.6,5s-1.5,5-3.6,5s-3.6-2.1-3.6-5S278.8,43.8,281,43.8z M281,52.8
	c1.5,0,2.5-1.6,2.5-3.9s-0.9-3.9-2.5-3.9s-2.5,1.6-2.5,3.9S279.5,52.7,281,52.8L281,52.8z"/>
<path class="st4" d="M289.4,43.8c2.1,0,3.6,2.1,3.6,5s-1.5,5-3.6,5s-3.6-2.1-3.6-5S287.2,43.8,289.4,43.8z M289.4,52.8
	c1.5,0,2.5-1.6,2.5-3.9s-0.9-3.9-2.5-3.9s-2.5,1.6-2.5,3.9S287.9,52.7,289.4,52.8L289.4,52.8z"/>
<path class="st4" d="M299.6,43.9c0.4,0,0.8,0.3,0.8,0.8s-0.3,0.8-0.8,0.8c-0.4,0-0.8-0.3-0.8-0.8c0,0,0,0,0,0
	C298.8,44.2,299.2,43.9,299.6,43.9z M300.2,47.3v6.4H299v-6.4H300.2z"/>
<path class="st4" d="M311.3,53.7h-1.1v-3.9c0-1.1-0.4-1.6-1.2-1.6c-0.8,0-1.5,0.6-1.5,1.3c0,0.1,0,0.2,0,0.3v3.9h-1.1v-3.9
	c0-1.1-0.4-1.6-1.2-1.6c-0.8,0-1.5,0.6-1.5,1.4c0,0.1,0,0.2,0,0.3v3.9h-1.2v-6.4h1.1v0.9c0.5-1,1.7-1.4,2.7-0.9c0.4,0.2,0.8,0.6,1,1
	c0.4-0.8,1.2-1.2,2-1.2c1.3,0,2.1,0.9,2.1,2.5L311.3,53.7z"/>
<path class="st4" d="M313.2,47.9c0.7-0.5,1.6-0.8,2.5-0.8c1.5,0,2.5,0.7,2.5,2v4.6h-1.1v-0.9c-0.5,0.7-1.3,1-2.1,1
	c-1.1,0.1-2.1-0.8-2.2-1.9c0-0.1,0-0.1,0-0.2c0-1.2,0.9-2.1,2.5-2.1c0.6,0,1.3,0.1,1.8,0.5v-0.9c0-0.9-0.7-1.1-1.5-1.1
	c-0.7,0-1.4,0.2-1.9,0.7L313.2,47.9z M315.3,52.9c0.9,0.1,1.8-0.6,1.8-1.6c0,0,0-0.1,0-0.1V51c-0.5-0.3-1.1-0.4-1.6-0.4
	c-1.1,0-1.6,0.4-1.6,1.1S314.4,52.9,315.3,52.9L315.3,52.9z"/>
<path class="st4" d="M320.8,54.2c0.1,1,1,1.8,2,1.8c0,0,0,0,0.1,0c1.2,0,2.1-0.9,2.1-2.1c0-0.1,0-0.1,0-0.2v-1
	c-0.5,0.8-1.3,1.3-2.2,1.2c-1.9,0-3.4-1.5-3.4-3.4s1.5-3.4,3.4-3.4c0.9,0,1.8,0.5,2.2,1.2v-1.1h1.1v6.3c0.1,1.7-1.2,3.2-2.9,3.4
	c-0.1,0-0.2,0-0.3,0c-1.9,0-3.2-1.1-3.2-2.8L320.8,54.2z M322.9,52.8c1.3,0.1,2.4-0.9,2.4-2.2c0.1-1.3-0.9-2.4-2.2-2.4
	c-1.3-0.1-2.4,0.9-2.4,2.2c0,0,0,0.1,0,0.1c-0.1,1.2,0.8,2.2,2,2.3C322.8,52.8,322.8,52.8,322.9,52.8L322.9,52.8z"/>
<path class="st4" d="M327.5,50.5c-0.1-1.7,1.1-3.2,2.8-3.4c0.1,0,0.2,0,0.3,0c1.9,0,3,1.3,3,3.3c0,0.1,0,0.3,0,0.3h-5.1
	c0,1.1,0.8,2,1.9,2c0,0,0.1,0,0.1,0c0.8,0,1.6-0.4,2-1.2l0.9,0.6c-0.6,1.1-1.8,1.7-3.1,1.6c-1.7,0-3-1.5-3-3.1
	C327.5,50.6,327.5,50.6,327.5,50.5z M328.7,49.8h3.8c0-1-0.8-1.7-1.7-1.7c0,0,0,0-0.1,0C329.7,48.1,328.8,48.8,328.7,49.8
	L328.7,49.8z"/>
<path class="st4" d="M337.4,52.8c0.6,0,1-0.3,1-0.8c0-0.7-0.7-1-1.5-1.3S335,50,335,48.8s1-1.7,2.1-1.7c0.9,0,1.8,0.5,2.3,1.3
	l-0.9,0.6c-0.4-0.5-0.9-0.8-1.6-0.8c-0.5,0-0.9,0.2-0.9,0.6s0.7,0.8,1.3,1.1c1.1,0.5,2,0.9,2,2c0,1.1-0.9,2-2,2c-0.1,0-0.1,0-0.2,0
	c-1.1,0-2.1-0.6-2.6-1.6l0.9-0.5C335.9,52.4,336.6,52.8,337.4,52.8z"/>
<path class="st5" d="M253.4,71.4l3.7-0.9v11h-1.3v-9.4l-2.4,0.7V71.4z"/>
<path class="st5" d="M263.5,81.6c-1.6,0.1-3.1-0.8-3.9-2.3l1.1-0.8c0.5,1,1.6,1.7,2.7,1.8c1.3,0.1,2.3-0.8,2.4-2.1
	c0-0.1,0-0.3,0-0.4c0.1-1.3-0.9-2.4-2.2-2.5c-0.1,0-0.1,0-0.2,0c-1,0-2,0.3-2.8,1l1.4-5.8h5.1v1.2h-4.1l-0.8,2.9
	c0.5-0.3,1.1-0.4,1.6-0.4c1.8,0,3.3,1.6,3.3,3.4c0,0.1,0,0.2,0,0.2c0.1,1.9-1.4,3.6-3.3,3.7C263.8,81.7,263.6,81.6,263.5,81.6z"/>
<path class="st5" d="M272.5,70.5c2.4,0,4,2.3,4,5.6s-1.6,5.6-4,5.6s-4-2.3-4-5.6S270.1,70.5,272.5,70.5z M272.5,80.4
	c1.7,0,2.7-1.8,2.7-4.3s-1-4.3-2.7-4.3s-2.7,1.8-2.7,4.3S270.9,80.4,272.5,80.4z"/>
<path class="st5" d="M281.8,70.5c2.4,0,4,2.3,4,5.6s-1.6,5.6-4,5.6s-4-2.3-4-5.6S279.4,70.5,281.8,70.5z M281.8,80.4
	c1.7,0,2.7-1.8,2.7-4.3s-1-4.3-2.7-4.3s-2.7,1.8-2.7,4.3S280.2,80.4,281.8,80.4z"/>
<path class="st5" d="M291.1,70.5c2.4,0,4,2.3,4,5.6s-1.6,5.6-4,5.6s-4-2.3-4-5.6S288.8,70.5,291.1,70.5z M291.1,80.4
	c1.7,0,2.7-1.8,2.7-4.3s-1-4.3-2.7-4.3s-2.7,1.8-2.7,4.3S289.5,80.4,291.1,80.4z"/>
<path class="st5" d="M300.4,70.5c2.4,0,4,2.3,4,5.6s-1.6,5.6-4,5.6s-4-2.3-4-5.6S298,70.5,300.4,70.5z M300.4,80.4
	c1.7,0,2.7-1.8,2.7-4.3s-1-4.3-2.7-4.3s-2.7,1.8-2.7,4.3S298.8,80.4,300.4,80.4z"/>
<path class="st6" d="M312.8,70.6l-6.3,13.2h-1.2l6.3-13.2H312.8z"/>
<path class="st6" d="M314.3,71.4l3.7-0.9v11h-1.3v-9.4l-2.4,0.7V71.4z"/>
<path class="st6" d="M324.4,81.6c-1.6,0.1-3.1-0.8-3.9-2.3l1.1-0.8c0.5,1,1.6,1.7,2.8,1.8c1.3,0.1,2.3-0.8,2.4-2.1
	c0-0.1,0-0.3,0-0.4c0.1-1.3-0.9-2.4-2.2-2.5c-0.1,0-0.1,0-0.2,0c-1,0-2,0.3-2.8,1l1.4-5.8h5.1v1.2H324l-0.7,2.9
	c0.5-0.3,1.1-0.4,1.6-0.4c1.8,0,3.3,1.6,3.3,3.4c0,0.1,0,0.2,0,0.2c0.1,1.9-1.4,3.6-3.3,3.7C324.7,81.7,324.5,81.7,324.4,81.6z"/>
<path class="st6" d="M333.4,70.5c2.4,0,4,2.3,4,5.6s-1.6,5.6-4,5.6s-4-2.3-4-5.6S331,70.5,333.4,70.5z M333.4,80.4
	c1.7,0,2.7-1.8,2.7-4.3s-1-4.3-2.7-4.3s-2.7,1.8-2.7,4.3S331.8,80.4,333.4,80.4z"/>
<path class="st6" d="M342.7,70.5c2.4,0,4,2.3,4,5.6s-1.6,5.6-4,5.6s-4-2.3-4-5.6S340.4,70.5,342.7,70.5z M342.7,80.4
	c1.7,0,2.7-1.8,2.7-4.3s-1-4.3-2.7-4.3S340,73.5,340,76S341.1,80.4,342.7,80.4z"/>
<path class="st6" d="M352,70.5c2.4,0,4,2.3,4,5.6s-1.6,5.6-4,5.6s-4-2.3-4-5.6S349.6,70.5,352,70.5z M352,80.4
	c1.7,0,2.7-1.8,2.7-4.3s-1-4.3-2.7-4.3s-2.7,1.8-2.7,4.4S350.4,80.4,352,80.4z"/>
<path class="st6" d="M361.4,70.5c2.4,0,4,2.3,4,5.6s-1.6,5.6-4,5.6s-4-2.3-4-5.6S358.9,70.5,361.4,70.5z M361.4,80.4
	c1.7,0,2.7-1.8,2.7-4.3s-1-4.3-2.7-4.3s-2.7,1.8-2.7,4.3S359.7,80.4,361.4,80.4z"/>
<path class="st6" d="M371.9,74.3v-2.5h1.2v2.5h1.2v1.2h-1.2v6h-1.2v-6h-1.2v-1.2H371.9z"/>
<path class="st6" d="M376.4,70.5c0.5,0,0.9,0.4,0.9,0.9s-0.4,0.9-0.9,0.9c-0.5,0-0.9-0.4-0.9-0.9c0,0,0,0,0,0
	C375.5,70.9,375.9,70.6,376.4,70.5z M377,74.3v7.1h-1.2v-7.1L377,74.3z"/>
<path class="st6" d="M389.3,81.5h-1.2v-4.3c0-1.2-0.4-1.8-1.4-1.8c-0.9,0-1.6,0.6-1.7,1.5c0,0.1,0,0.2,0,0.3v4.3h-1.2v-4.3
	c0-1.2-0.4-1.8-1.4-1.8c-0.9-0.1-1.6,0.6-1.7,1.5c0,0.1,0,0.2,0,0.3v4.3h-1.2v-7.1h1.2v1c0.6-1.1,2-1.5,3-0.9c0.4,0.2,0.8,0.6,1,1
	c0.4-0.8,1.3-1.4,2.2-1.3c1.5,0,2.3,1,2.3,2.8L389.3,81.5z"/>
<path class="st6" d="M391,77.9c-0.2-1.9,1.3-3.6,3.1-3.7c0.1,0,0.3,0,0.4,0c2.1,0,3.4,1.4,3.4,3.7c0,0.2,0,0.3,0,0.4h-5.6
	c-0.1,1.2,0.9,2.2,2.1,2.2c0.1,0,0.1,0,0.2,0c0.9,0,1.8-0.5,2.2-1.3l1,0.6c-0.7,1.2-2,1.9-3.4,1.8C392.4,81.6,391,80.1,391,77.9z
	 M392.3,77.2h4.2c0-1.1-0.9-1.9-2-1.9c0,0,0,0,0,0C393.4,75.2,392.5,76.1,392.3,77.2L392.3,77.2z"/>
<path class="st6" d="M401.9,80.5c0.7,0,1.1-0.3,1.1-0.9c0-0.7-0.8-1.1-1.6-1.4s-2-0.9-2-2.1s1.1-1.9,2.3-1.9c1,0,2,0.5,2.6,1.4
	l-1,0.6c-0.4-0.6-1-0.9-1.7-0.9c-0.5,0-1,0.2-1,0.7s0.7,0.9,1.5,1.2c1.2,0.5,2.2,1,2.2,2.3c0,1.2-1,2.2-2.3,2.2c-0.1,0-0.1,0-0.2,0
	c-1.2,0-2.3-0.7-2.9-1.7l1-0.6C400.3,80,401,80.5,401.9,80.5z"/>
<rect x="121.8" y="34.2" class="st7" width="124.6" height="9.1"/>
<rect x="121.8" y="43.4" class="st7" width="124.6" height="9.1"/>
<rect x="121.8" y="43.4" class="st6" width="31.1" height="9.1"/>
<rect x="121.8" y="34.2" class="st5" width="31.1" height="9.1"/>
<rect x="121.8" y="101.8" class="st5" width="124.6" height="9.1"/>
<rect x="121.8" y="110.9" class="st6" width="124.6" height="9.1"/>
<rect x="121.8" y="135.6" class="st7" width="124.6" height="9.1"/>
<rect x="121.8" y="144.7" class="st7" width="124.6" height="9.1"/>
<rect x="121.8" y="135.6" class="st5" width="47.4" height="9.1"/>
<rect x="121.8" y="144.7" class="st6" width="79.1" height="9.1"/>
<polyline class="st8" points="246.6,160.6 246.6,22.1 364.8,22.1 "/>
<rect x="121.8" y="68" class="st7" width="124.6" height="9.1"/>
<rect x="121.8" y="77.1" class="st7" width="124.6" height="9.1"/>
<rect x="121.8" y="68" class="st5" width="69.7" height="9.1"/>
<rect x="121.8" y="77.1" class="st6" width="69.7" height="9.1"/>
</svg>
