<?xml version="1.0" encoding="utf-8"?>
<!-- Generator: Adobe Illustrator 24.1.0, SVG Export Plug-In . SVG Version: 6.00 Build 0)  -->
<svg version="1.1" id="图层_1" xmlns="http://www.w3.org/2000/svg" xmlns:xlink="http://www.w3.org/1999/xlink" x="0px" y="0px"
	 viewBox="0 0 406.7 159.8" style="enable-background:new 0 0 406.7 159.8;" xml:space="preserve">
<style type="text/css">
	.st0{fill:#333333;}
	.st1{fill:#E2282B;}
	.st2{fill:#939393;}
	.st3{fill:#E6E6E6;}
	.st4{fill:none;stroke:#E2282B;stroke-width:1.07;stroke-miterlimit:10;}
	.st5{fill:none;stroke:#939393;stroke-width:0.65;stroke-miterlimit:10;}
</style>
<path class="st0" d="M28.6,139.8h6.9v1.2h-2.8v9.6h-1.3V141h-2.8V139.8z"/>
<path class="st0" d="M37.9,144.5c-0.9,0-1.2,0.8-1.2,1.8v4.3h-1.2v-7.1h1.2v0.8c0.3-0.6,0.9-0.9,1.5-1c0.5,0,1,0.1,1.3,0.5l-0.7,1
	C38.6,144.6,38.3,144.5,37.9,144.5z"/>
<path class="st0" d="M40.6,144.2c0.8-0.6,1.8-0.9,2.8-0.9c1.7,0,2.8,0.8,2.8,2.2v5.1H45v-1c-0.5,0.8-1.4,1.2-2.4,1.2
	c-1.3,0.1-2.4-0.9-2.5-2.1c0-0.1,0-0.1,0-0.2c0-1.4,1-2.3,2.8-2.3c0.7,0,1.4,0.2,2,0.5v-1c0-1-0.7-1.3-1.6-1.3
	c-0.8,0-1.5,0.3-2.1,0.7L40.6,144.2z M42.9,149.7c1,0.1,1.9-0.7,2-1.8c0,0,0-0.1,0-0.1v-0.3c-0.6-0.3-1.2-0.4-1.8-0.4
	c-1.2,0-1.7,0.5-1.7,1.2S42,149.7,42.9,149.7L42.9,149.7z"/>
<path class="st0" d="M49.1,139.7c0.5,0,0.9,0.4,0.9,0.9s-0.4,0.9-0.9,0.9c-0.5,0-0.9-0.4-0.9-0.9S48.7,139.7,49.1,139.7L49.1,139.7z
	 M49.8,143.5v7.1h-1.2v-7.1H49.8z"/>
<path class="st0" d="M55.4,144.5c-0.9,0-1.7,0.7-1.8,1.6c0,0.1,0,0.1,0,0.2v4.3h-1.3v-7.1h1.3v1.1c0.4-0.8,1.2-1.3,2.1-1.3
	c1.5,0,2.4,1.1,2.4,2.8v4.5h-1.3v-4.3C56.9,145.1,56.4,144.5,55.4,144.5z"/>
<path class="st0" d="M61.3,139.7c0.5,0,0.9,0.4,0.9,0.8c0,0.5-0.4,0.9-0.8,0.9c-0.5,0-0.9-0.4-0.9-0.8c0,0,0,0,0,0
	C60.5,140.1,60.8,139.7,61.3,139.7z M61.9,143.5v7.1h-1.2v-7.1H61.9z"/>
<path class="st0" d="M67.6,144.5c-0.9-0.1-1.8,0.7-1.8,1.6c0,0.1,0,0.1,0,0.2v4.3h-1.3v-7.1h1.2v1.1c0.4-0.8,1.2-1.3,2.1-1.3
	c1.5,0,2.4,1.1,2.4,2.8v4.5h-1.2v-4.3C69.1,145.1,68.6,144.5,67.6,144.5z"/>
<path class="st0" d="M73.4,151.1c0.1,1.1,1.1,2,2.2,1.9c0,0,0,0,0.1,0c1.3,0,2.3-1,2.3-2.3c0-0.1,0-0.2,0-0.3v-1.1
	c-0.5,0.9-1.4,1.4-2.4,1.4c-2.1-0.2-3.6-1.9-3.4-4c0.1-1.8,1.6-3.3,3.4-3.4c1,0,1.9,0.5,2.4,1.4v-1.2h1.2v7c0.1,1.9-1.3,3.6-3.3,3.7
	c-0.1,0-0.2,0-0.3,0c-2.1,0-3.5-1.3-3.5-3.1L73.4,151.1z M75.7,149.6c1.4,0.1,2.6-1,2.7-2.4c0.1-1.4-1-2.6-2.4-2.7
	c-1.4-0.1-2.6,1-2.7,2.4c0,0,0,0.1,0,0.1c-0.1,1.3,0.9,2.5,2.2,2.6C75.6,149.6,75.6,149.6,75.7,149.6z"/>
<path class="st0" d="M85.1,139.8H92v1.2h-2.8v9.6h-1.3V141h-2.8V139.8z"/>
<path class="st0" d="M94.2,139.7c0.5,0,0.9,0.4,0.9,0.8c0,0.5-0.4,0.9-0.8,0.9c-0.5,0-0.9-0.4-0.9-0.8c0,0,0,0,0,0
	C93.3,140.1,93.7,139.7,94.2,139.7z M94.8,143.5v7.1h-1.2v-7.1H94.8z"/>
<path class="st0" d="M107.1,150.6h-1.2v-4.3c0-1.2-0.4-1.8-1.4-1.8c-0.9,0-1.6,0.6-1.7,1.5c0,0.1,0,0.2,0,0.3v4.3h-1.3v-4.3
	c0-1.2-0.4-1.8-1.4-1.8c-0.9,0-1.6,0.6-1.7,1.5c0,0.1,0,0.2,0,0.3v4.3h-1.2v-7.1h1.3v1c0.6-1.1,2-1.5,3-0.9c0.4,0.2,0.8,0.6,1,1
	c0.4-0.8,1.3-1.3,2.2-1.3c1.5,0,2.3,1,2.3,2.8L107.1,150.6z"/>
<path class="st0" d="M108.8,147.1c-0.2-1.9,1.3-3.6,3.1-3.7c0.1,0,0.3,0,0.4,0c2.1,0,3.4,1.4,3.4,3.7c0,0.1,0,0.3,0,0.4h-5.6
	c-0.1,1.2,0.9,2.2,2,2.3c0.1,0,0.1,0,0.2,0c0.9,0,1.8-0.5,2.2-1.3l1,0.6c-0.7,1.2-2,1.9-3.4,1.8c-1.9,0-3.4-1.5-3.4-3.4
	C108.8,147.3,108.8,147.2,108.8,147.1z M110.1,146.3h4.2c0-1.1-0.9-1.9-2-1.9c0,0,0,0,0,0C111.2,144.3,110.2,145.2,110.1,146.3z"/>
<path class="st0" d="M5.5,105.9c3.1,0,5.6,2.4,5.7,5.5c0,3.1-2.4,5.6-5.5,5.7S0,114.7,0,111.6c0,0,0-0.1,0-0.1
	c-0.1-3,2.3-5.5,5.2-5.6C5.3,105.9,5.4,105.9,5.5,105.9z M5.5,115.8c2.4,0.1,4.3-1.7,4.4-4.1s-1.7-4.3-4.1-4.4
	c-2.4-0.1-4.3,1.7-4.4,4.1c0,0.1,0,0.1,0,0.2c-0.1,2.2,1.6,4.1,3.9,4.3C5.3,115.8,5.4,115.8,5.5,115.8z"/>
<path class="st0" d="M15.6,115.9c0.9,0.1,1.7-0.6,1.8-1.6c0-0.1,0-0.1,0-0.2v-4.3h1.2v7.1h-1.2v-1.1c-0.4,0.8-1.2,1.3-2.1,1.3
	c-1.5,0-2.5-1.1-2.5-2.8v-4.5H14v4.3C14,115.3,14.6,115.9,15.6,115.9z"/>
<path class="st0" d="M21,109.8v-2.5h1.2v2.5h1.2v1.2h-1.2v6H21v-6h-1.2v-1.2H21z"/>
<path class="st0" d="M24.6,120.4v-10.5h1.2v1.2c0.5-0.9,1.4-1.4,2.4-1.4c2.1,0,3.7,1.7,3.7,3.7s-1.7,3.7-3.7,3.7
	c-1,0-1.9-0.5-2.4-1.4v4.6L24.6,120.4z M28.1,110.8c-1.4-0.1-2.6,1-2.7,2.4s1,2.6,2.4,2.7c1.4,0.1,2.6-1,2.7-2.4c0,0,0-0.1,0-0.1
	c0.1-1.3-0.9-2.5-2.2-2.6C28.2,110.8,28.2,110.8,28.1,110.8L28.1,110.8z"/>
<path class="st0" d="M36.2,115.9c0.9,0.1,1.7-0.6,1.8-1.6c0-0.1,0-0.1,0-0.2v-4.3h1.2v7.1h-1.2v-1.1c-0.4,0.8-1.2,1.3-2.1,1.3
	c-1.5,0-2.4-1.1-2.4-2.8v-4.5h1.2v4.3C34.7,115.3,35.2,115.9,36.2,115.9z"/>
<path class="st0" d="M41.7,109.8v-2.5h1.2v2.5h1.2v1.2h-1.2v6h-1.2v-6h-1.1v-1.2H41.7z"/>
<path class="st0" d="M53,106.1c2.1,0,3.7,1.3,3.7,3.3c0,1.5-1.1,2.9-2.6,3.1l3.2,4.5h-1.6l-3-4.3h-1.3v4.3h-1.3v-10.8H53z
	 M51.4,107.3v4.2H53c1.2,0.1,2.2-0.7,2.3-1.8c0.1-1.2-0.7-2.2-1.8-2.3c-0.2,0-0.3,0-0.5,0H51.4z"/>
<path class="st0" d="M58.1,113.4c-0.2-1.9,1.3-3.6,3.1-3.7c0.1,0,0.3,0,0.4,0c2.1,0,3.4,1.4,3.4,3.7c0,0.2,0,0.3,0,0.4h-5.6
	c0,1.2,0.9,2.2,2.1,2.2c0.1,0,0.1,0,0.2,0c0.9,0,1.8-0.5,2.2-1.3l1,0.6c-0.7,1.2-2,1.9-3.4,1.8c-1.9,0-3.4-1.5-3.4-3.4
	C58,113.6,58,113.5,58.1,113.4z M59.4,112.6h4.2c0-1.1-0.9-1.9-2-1.9c0,0,0,0,0,0C60.5,110.7,59.5,111.5,59.4,112.6z"/>
<path class="st0" d="M68.9,116c0.7,0,1.1-0.3,1.1-0.9c0-0.8-0.8-1.1-1.6-1.4s-2.1-0.9-2.1-2.1s1.2-1.9,2.3-1.9c1,0,2,0.5,2.6,1.4
	l-1,0.6c-0.4-0.6-1-0.9-1.7-0.9c-0.5,0-1,0.2-1,0.7s0.7,0.9,1.5,1.2c1.2,0.5,2.2,1,2.2,2.3c0,1.2-1,2.2-2.3,2.2c-0.1,0-0.1,0-0.2,0
	c-1.2,0-2.3-0.7-2.8-1.7l1-0.6C67.3,115.5,68.1,115.9,68.9,116z"/>
<path class="st0" d="M76,109.7c2.1,0,3.7,1.6,3.7,3.7c0,2.1-1.6,3.7-3.7,3.7c-2.1,0-3.7-1.6-3.7-3.7c0,0,0,0,0,0
	c-0.1-2,1.5-3.7,3.5-3.7C75.8,109.7,75.9,109.7,76,109.7z M76,115.9c1.4,0.1,2.6-1,2.7-2.4c0.1-1.4-1-2.6-2.4-2.7s-2.6,1-2.7,2.4
	c0,0.1,0,0.1,0,0.2C73.5,114.7,74.6,115.8,76,115.9C75.9,115.9,75.9,115.9,76,115.9L76,115.9z"/>
<path class="st0" d="M82.6,104.9V117h-1.2v-12.1H82.6z"/>
<path class="st0" d="M87.7,115.9c0.9,0.1,1.8-0.7,1.8-1.6c0-0.1,0-0.1,0-0.2v-4.3h1.2v7.1h-1.2v-1.1c-0.4,0.8-1.2,1.3-2.1,1.3
	c-1.5,0-2.4-1.1-2.4-2.8v-4.5h1.2v4.3C86.2,115.3,86.7,115.9,87.7,115.9z"/>
<path class="st0" d="M93.1,109.8v-2.5h1.2v2.5h1.2v1.2h-1.2v6h-1.2v-6H92v-1.2H93.1z"/>
<path class="st0" d="M97.6,106c0.5,0,0.9,0.4,0.9,0.8c0,0.5-0.4,0.9-0.8,0.9c-0.5,0-0.9-0.4-0.9-0.8c0,0,0,0,0,0
	C96.8,106.4,97.2,106,97.6,106z M98.3,109.8v7.1H97v-7.1H98.3z"/>
<path class="st0" d="M103.9,109.7c2.1,0,3.7,1.6,3.7,3.7c0,2.1-1.6,3.7-3.7,3.7c-2.1,0-3.7-1.6-3.7-3.7c0,0,0,0,0,0
	c-0.1-2,1.5-3.7,3.5-3.7C103.8,109.7,103.8,109.7,103.9,109.7z M103.9,115.9c1.4,0.1,2.6-1,2.7-2.4s-1-2.6-2.4-2.7s-2.6,1-2.7,2.4
	c0,0,0,0.1,0,0.1c-0.1,1.3,1,2.5,2.3,2.5C103.8,115.9,103.8,115.9,103.9,115.9L103.9,115.9z"/>
<path class="st0" d="M112.3,110.8c-0.9-0.1-1.8,0.7-1.8,1.6c0,0.1,0,0.1,0,0.2v4.3h-1.2v-7.1h1.2v1.1c0.4-0.8,1.2-1.3,2.1-1.3
	c1.5,0,2.4,1.1,2.4,2.8v4.5h-1.2v-4.3C113.9,111.4,113.3,110.8,112.3,110.8z"/>
<path class="st0" d="M10.8,73v10.9H9.4V73H10.8z"/>
<path class="st0" d="M13.2,76.8v-2.5h1.2v2.5h1.2v1.1h-1.2v6h-1.2v-6h-1.2v-1.1H13.2z"/>
<path class="st0" d="M16.3,80.3c-0.2-1.9,1.3-3.6,3.1-3.7c0.1,0,0.3,0,0.4,0c2.1,0,3.4,1.4,3.4,3.7c0,0.2,0,0.3,0,0.4h-5.6
	c-0.1,1.2,0.9,2.2,2,2.3c0.1,0,0.1,0,0.2,0c0.9,0,1.8-0.5,2.2-1.3l1,0.6c-0.7,1.2-2,1.9-3.4,1.8c-1.9,0-3.4-1.5-3.4-3.4
	C16.2,80.6,16.2,80.4,16.3,80.3z M17.6,79.6h4.2c0-1.1-0.9-1.9-1.9-1.9c0,0,0,0-0.1,0C18.7,77.6,17.7,78.4,17.6,79.6z"/>
<path class="st0" d="M27.3,77.8c-0.9,0-1.2,0.8-1.2,1.8v4.3h-1.2v-7.1h1.2v0.8c0.3-0.6,0.9-0.9,1.5-1c0.5,0,1,0.1,1.3,0.5l-0.7,1
	C28,77.9,27.6,77.8,27.3,77.8z"/>
<path class="st0" d="M29.9,77.5c0.8-0.6,1.8-0.9,2.8-0.9c1.7,0,2.8,0.8,2.8,2.2v5.1h-1.2v-1c-0.6,0.7-1.4,1.2-2.4,1.1
	c-1.3,0.1-2.4-0.9-2.5-2.1c0-0.1,0-0.1,0-0.2c0-1.4,1-2.3,2.8-2.3c0.7,0,1.4,0.2,2,0.5v-1c0-1-0.7-1.3-1.6-1.3
	c-0.8,0-1.5,0.3-2.1,0.7L29.9,77.5z M32.3,83c1,0.1,1.9-0.7,2-1.8c0,0,0-0.1,0-0.1v-0.3c-0.6-0.3-1.2-0.4-1.8-0.4
	c-1.2,0-1.7,0.5-1.7,1.3S31.4,83,32.3,83z"/>
<path class="st0" d="M37.7,76.8v-2.5H39v2.5h1.2v1.1h-1.2v6h-1.2v-6h-1.1v-1.1H37.7z"/>
<path class="st0" d="M42.2,73c0.5,0,0.9,0.4,0.9,0.9c0,0.5-0.4,0.9-0.9,0.9c-0.5,0-0.9-0.4-0.9-0.9c0,0,0,0,0,0
	C41.4,73.3,41.7,73,42.2,73z M42.8,76.8v7.1h-1.2v-7.1H42.8z"/>
<path class="st0" d="M48.5,76.6c2.1,0,3.7,1.6,3.7,3.7c0,2.1-1.6,3.7-3.7,3.7c-2.1,0-3.7-1.6-3.7-3.7c0,0,0,0,0,0
	c-0.1-2,1.5-3.7,3.5-3.7C48.3,76.6,48.4,76.6,48.5,76.6z M48.5,82.9c1.4,0.1,2.6-1,2.7-2.4s-1-2.6-2.4-2.7s-2.6,1-2.7,2.4
	c0,0,0,0.1,0,0.1c-0.1,1.3,0.9,2.5,2.3,2.6C48.3,82.9,48.4,82.9,48.5,82.9L48.5,82.9z"/>
<path class="st0" d="M56.9,77.8c-0.9-0.1-1.8,0.7-1.8,1.6c0,0.1,0,0.1,0,0.2v4.3h-1.2v-7.1h1.2v1.1c0.4-0.8,1.2-1.3,2.1-1.3
	c1.5,0,2.4,1.1,2.4,2.8v4.5h-1.2v-4.3C58.4,78.4,57.9,77.8,56.9,77.8z"/>
<path class="st0" d="M72.8,80.6h-4.4L67,83.9h-1.4l5-11.4l5,11.4h-1.4L72.8,80.6z M68.9,79.4h3.3l-1.7-3.9L68.9,79.4z"/>
<path class="st0" d="M86.6,83.9h-1.2v-4.3c0-1.2-0.4-1.8-1.4-1.8c-0.9-0.1-1.6,0.6-1.7,1.5c0,0.1,0,0.2,0,0.3v4.3h-1.2v-4.3
	c0-1.2-0.4-1.8-1.4-1.8c-0.9,0-1.6,0.6-1.7,1.5c0,0.1,0,0.2,0,0.3v4.3h-1.2v-7.1h1.2v1c0.4-0.8,1.2-1.2,2-1.2c0.9,0,1.7,0.5,2,1.3
	c0.4-0.8,1.3-1.4,2.2-1.3c1.4,0,2.3,1,2.3,2.8V83.9z"/>
<path class="st0" d="M92,76.6c2.1,0,3.7,1.6,3.7,3.7c0,2.1-1.6,3.7-3.7,3.7c-2.1,0-3.7-1.6-3.7-3.7c0,0,0,0,0,0
	c-0.1-2,1.5-3.7,3.5-3.7C91.9,76.6,91.9,76.6,92,76.6z M92,82.9c1.4,0.1,2.6-1,2.7-2.4c0.1-1.4-1-2.6-2.4-2.7s-2.6,1-2.7,2.4
	c0,0,0,0.1,0,0.1c-0.1,1.3,0.9,2.5,2.3,2.6C91.9,82.9,92,82.9,92,82.9L92,82.9z"/>
<path class="st0" d="M100.2,82.9c0.9,0.1,1.7-0.6,1.8-1.6c0-0.1,0-0.1,0-0.2v-4.4h1.2v7.1H102v-1.1c-0.4,0.8-1.2,1.3-2.1,1.3
	c-1.5,0-2.4-1.1-2.4-2.8v-4.5h1.2v4.3C98.7,82.2,99.2,82.9,100.2,82.9z"/>
<path class="st0" d="M108.6,77.8c-0.9-0.1-1.8,0.7-1.8,1.6c0,0.1,0,0.1,0,0.2v4.3h-1.2v-7.1h1.2v1.1c0.4-0.8,1.2-1.3,2.1-1.3
	c1.5,0,2.4,1.1,2.4,2.8v4.5h-1.2v-4.3C110.1,78.4,109.6,77.8,108.6,77.8z"/>
<path class="st0" d="M113.8,76.8v-2.5h1.2v2.5h1.2v1.1H115v6h-1.2v-6h-1.2v-1.1H113.8z"/>
<path class="st0" d="M38.3,49.4V38.5h3.3c2.9-0.1,5.3,2.1,5.4,4.9c0,0.2,0,0.3,0,0.5c0.2,2.9-2,5.3-4.9,5.5c-0.2,0-0.3,0-0.5,0H38.3
	z M39.6,39.8V48h1.9c2.1,0.1,4-1.5,4.1-3.6c0-0.2,0-0.4,0-0.5c0.1-2.1-1.5-4-3.6-4.1c-0.2,0-0.3,0-0.5,0H39.6z"/>
<path class="st0" d="M48.6,42.9c0.8-0.6,1.8-0.9,2.8-0.9c1.7,0,2.8,0.8,2.8,2.2v5.1h-1.3v-1c-0.5,0.7-1.4,1.2-2.3,1.2
	c-1.3,0.1-2.4-0.8-2.5-2.1c0-0.1,0-0.1,0-0.2c0-1.4,1-2.3,2.8-2.3c0.7,0,1.4,0.2,2,0.5v-1c0-1-0.7-1.2-1.6-1.2
	c-0.8,0-1.5,0.2-2.1,0.7L48.6,42.9z M50.9,48.4c1,0.1,1.9-0.7,2-1.8c0,0,0-0.1,0-0.1v-0.3c-0.6-0.3-1.2-0.4-1.8-0.4
	c-1.2,0-1.7,0.5-1.7,1.3S50,48.4,50.9,48.4L50.9,48.4z"/>
<path class="st0" d="M56.3,42.2v-2.5h1.3v2.5h1.2v1.2h-1.2v6h-1.3v-6h-1.2v-1.2H56.3z"/>
<path class="st0" d="M59.7,42.9c0.8-0.6,1.8-0.9,2.9-0.9c1.7,0,2.8,0.8,2.8,2.2v5.1h-1.3v-1c-0.6,0.7-1.4,1.2-2.4,1.1
	c-1.3,0.1-2.4-0.8-2.5-2.1c0-0.1,0-0.1,0-0.2c0-1.4,1-2.3,2.8-2.3c0.7,0,1.4,0.2,2,0.5v-1c0-1-0.7-1.2-1.6-1.2
	c-0.8,0-1.5,0.2-2.1,0.7L59.7,42.9z M62.1,48.4c1,0.1,1.9-0.7,2-1.8c0,0,0-0.1,0-0.1v-0.3c-0.6-0.3-1.2-0.4-1.8-0.4
	c-1.2,0-1.7,0.5-1.7,1.3S61.1,48.4,62.1,48.4z"/>
<path class="st0" d="M69.6,48.4c0.7,0,1.1-0.3,1.1-0.9c0-0.7-0.8-1.1-1.6-1.4s-2-0.9-2-2.1s1.2-1.9,2.3-1.9c1,0,2,0.5,2.6,1.4
	l-1,0.6c-0.4-0.6-1-0.9-1.7-0.9c-0.5,0-1,0.2-1,0.7s0.7,0.9,1.5,1.2c1.2,0.5,2.2,1,2.2,2.3c0,1.2-1,2.2-2.3,2.2c-0.1,0-0.1,0-0.2,0
	c-1.2,0-2.3-0.7-2.8-1.7l1-0.6C68.1,47.9,68.8,48.3,69.6,48.4z"/>
<path class="st0" d="M73,45.8c-0.2-1.9,1.3-3.6,3.1-3.7c0.1,0,0.3,0,0.4,0c2.1,0,3.4,1.4,3.4,3.7c0,0.2,0,0.3,0,0.4h-5.6
	c-0.1,1.2,0.9,2.2,2,2.3c0.1,0,0.2,0,0.2,0c0.9,0,1.8-0.5,2.2-1.3l1,0.6c-0.7,1.2-2,1.9-3.4,1.8c-1.9,0-3.4-1.5-3.4-3.4
	C73,46,73,45.9,73,45.8z M74.3,45h4.2c0-1.1-0.9-1.9-2-1.9c0,0,0,0,0,0C75.4,43.1,74.5,43.9,74.3,45z"/>
<path class="st0" d="M81.7,42.2v-2.5H83v2.5h1.2v1.2H83v6h-1.2v-6h-1.1v-1.2H81.7z"/>
<path class="st0" d="M93.4,48.3c0.9,0.1,1.8-0.6,1.9-1.5c0-0.1,0-0.1,0-0.2c0-1.5-1.2-1.9-2.4-2.4c-1.1-0.4-2.9-1.1-2.9-3
	c0-1.6,1.3-2.9,2.9-2.8c0.1,0,0.1,0,0.2,0c1.5,0,2.8,0.9,3.4,2.3l-1.1,0.7c-0.4-1-1.3-1.6-2.3-1.7c-1.2,0-1.7,0.7-1.7,1.4
	c0,0.9,0.6,1.5,2.5,2.2c1.5,0.3,2.7,1.7,2.7,3.2c0,1.8-1.5,3.1-3.3,3.1c0,0,0,0-0.1,0c-1.7-0.1-3.2-1.2-3.9-2.7l1.1-0.7
	C91.2,47.4,92.1,48.3,93.4,48.3z"/>
<path class="st0" d="M99.3,38.4c0.5,0,0.8,0.4,0.8,0.8c0,0.5-0.4,0.9-0.8,0.9l0,0c-0.5,0-0.8-0.4-0.8-0.9
	C98.5,38.8,98.9,38.4,99.3,38.4z M100,42.2v7.1h-1.2v-7.1L100,42.2z"/>
<path class="st0" d="M102.1,43.4v-1.2h6.2l-4.4,6h4.1v1.2h-6.4l4.4-6H102.1z"/>
<path class="st0" d="M108.8,45.8c-0.2-1.9,1.3-3.6,3.1-3.7c0.1,0,0.3,0,0.4,0c2.1,0,3.4,1.4,3.4,3.7c0,0.2,0,0.3,0,0.4h-5.6
	c-0.1,1.2,0.9,2.2,2,2.3c0.1,0,0.1,0,0.2,0c0.9,0,1.8-0.5,2.2-1.3l1,0.6c-0.7,1.2-2,1.9-3.4,1.8c-1.9,0-3.4-1.5-3.4-3.4
	C108.8,46,108.8,45.9,108.8,45.8z M110.1,45h4.2c0-1.1-0.9-1.9-1.9-1.9c0,0,0,0-0.1,0C111.2,43.1,110.2,43.9,110.1,45z"/>
<path class="st0" d="M59.2,10.6h-4.4l-1.4,3.3h-1.5l5-11.4l5,11.4h-1.4L59.2,10.6z M55.3,9.4h3.3L57,5.4L55.3,9.4z"/>
<path class="st0" d="M64.5,1.8v12.1h-1.2V1.8H64.5z"/>
<path class="st0" d="M67.6,14.3c0.1,1.1,1,2,2.2,1.9c0,0,0.1,0,0.1,0c1.3,0,2.3-1,2.3-2.3c0-0.1,0-0.2,0-0.3v-1.1
	c-0.5,0.9-1.4,1.4-2.4,1.4c-1.9,0-3.5-1.5-3.5-3.4c0-0.1,0-0.2,0-0.3c-0.1-1.9,1.3-3.6,3.3-3.7c0.1,0,0.2,0,0.3,0
	c1,0,1.9,0.5,2.4,1.4V6.7h1.2v7c0.1,1.9-1.3,3.6-3.2,3.7c-0.1,0-0.2,0-0.3,0c-2.1,0-3.5-1.2-3.5-3.1L67.6,14.3z M69.9,12.9
	c1.3-0.1,2.3-1.2,2.3-2.5c0,0,0,0,0,0c0.1-1.3-0.9-2.5-2.2-2.6c0,0,0,0,0,0c-1.3,0-2.4,1-2.4,2.3c0,0.1,0,0.2,0,0.2
	c-0.1,1.3,0.9,2.5,2.2,2.6C69.7,12.9,69.8,12.9,69.9,12.9z"/>
<path class="st0" d="M78.7,6.6c2,0,3.6,1.5,3.7,3.5c0,0.1,0,0.1,0,0.2c0,2-1.6,3.7-3.7,3.7c-2,0-3.7-1.6-3.7-3.7c0,0,0,0,0,0
	c-0.1-2,1.5-3.7,3.5-3.7C78.6,6.6,78.7,6.6,78.7,6.6z M78.7,12.8c1.3,0,2.4-1.1,2.4-2.4c0-0.1,0-0.1,0-0.2c0.1-1.3-0.9-2.5-2.3-2.6
	c-1.3-0.1-2.5,0.9-2.6,2.3c0,0.1,0,0.2,0,0.3c-0.1,1.3,0.9,2.5,2.2,2.6C78.6,12.9,78.7,12.9,78.7,12.8L78.7,12.8z"/>
<path class="st0" d="M86.6,7.7c-0.9,0-1.2,0.8-1.2,1.8v4.4h-1.2V6.7h1.2v0.8c0.3-0.6,0.9-0.9,1.5-1c0.5,0,1,0.1,1.3,0.5l-0.7,1
	C87.3,7.8,86.9,7.7,86.6,7.7z"/>
<path class="st0" d="M90.3,2.9c0.5,0,0.8,0.4,0.8,0.9c0,0.5-0.4,0.8-0.8,0.8c-0.5,0-0.8-0.4-0.8-0.9S89.8,2.9,90.3,2.9
	C90.3,2.9,90.3,2.9,90.3,2.9z M90.9,6.7v7.2h-1.2V6.7L90.9,6.7z"/>
<path class="st0" d="M93.6,6.7V4.2h1.2v2.5H96v1.2h-1.2v6h-1.2v-6h-1.2V6.7H93.6z"/>
<path class="st0" d="M100.2,7.7c-1-0.1-1.8,0.7-1.8,1.6c0,0,0,0.1,0,0.1v4.4h-1.2V1.8h1.2v6.1c0.4-0.8,1.2-1.3,2.2-1.3
	c1.5,0,2.4,0.9,2.4,2.8v4.5h-1.2V9.5C101.8,8.3,101.2,7.7,100.2,7.7z"/>
<path class="st0" d="M115.1,13.9h-1.2V9.5c0-1.2-0.4-1.8-1.4-1.8c-0.9,0-1.6,0.6-1.7,1.5c0,0.1,0,0.2,0,0.3v4.4h-1.2V9.5
	c0-1.2-0.4-1.8-1.4-1.8c-0.9,0-1.6,0.6-1.7,1.5c0,0.1,0,0.2,0,0.3v4.4h-1.2V6.7h1.2v1c0.4-0.8,1.2-1.2,2-1.2c0.9,0,1.7,0.5,2,1.4
	c0.4-0.8,1.3-1.3,2.2-1.3c1.5,0,2.3,1,2.3,2.8L115.1,13.9z"/>
<path class="st1" d="M256.4,146c-1-0.4-1.6-1.4-1.5-2.4c0-1.7,1.3-3,3-3s3,1.3,3,3c0,1.1-0.6,2-1.5,2.4c1.2,0.4,2,1.6,1.9,2.8
	c-0.1,1.9-1.8,3.3-3.6,3.1c-1.7-0.1-3-1.5-3.1-3.1C254.4,147.6,255.2,146.5,256.4,146z M257.8,150.8c1.1,0.1,2.1-0.8,2.1-1.9
	c0-0.1,0-0.2,0-0.2c0-1.2-1-2.1-2.1-2.1c-1.2,0-2.1,0.9-2.1,2.1c0,1.1,0.9,2.1,2,2.1C257.7,150.8,257.8,150.8,257.8,150.8z
	 M257.8,145.5c1,0,1.8-0.8,1.8-1.7c0-1-0.8-1.8-1.7-1.8s-1.8,0.8-1.8,1.7c0,0,0,0,0,0C256.1,144.7,256.8,145.5,257.8,145.5
	C257.8,145.5,257.8,145.5,257.8,145.5L257.8,145.5z"/>
<path class="st1" d="M269.6,141l-6.3,13.2h-1.2l6.3-13.2L269.6,141z"/>
<path class="st2" d="M276.6,141l-3.1,4c0.4-0.2,0.8-0.3,1.2-0.3c1.8,0.1,3.3,1.6,3.2,3.5c0,0,0,0,0,0c0,2-1.7,3.7-3.7,3.7
	s-3.7-1.7-3.7-3.7c0-0.8,0.2-1.6,0.7-2.2l3.7-5L276.6,141z M274.3,150.8c1.3,0,2.4-1,2.4-2.4c0-0.1,0-0.1,0-0.2
	c0-1.3-1.2-2.4-2.5-2.3s-2.4,1.2-2.3,2.5C271.9,149.8,273,150.8,274.3,150.8z"/>
<path class="st2" d="M279.7,149h1.3c0.1,1.1,1,1.9,2,1.8c0,0,0.1,0,0.1,0c1,0.1,1.9-0.7,2-1.7c0-0.1,0-0.2,0-0.2c0-1.3-1.1-2-2.5-2
	v-1.2c1.1,0.1,2-0.6,2.2-1.7c0-0.1,0-0.1,0-0.2c0.1-0.9-0.5-1.6-1.4-1.7c-0.1,0-0.2,0-0.3,0c-0.9-0.1-1.8,0.7-1.8,1.6c0,0,0,0,0,0
	h-1.3c0-1.7,1.4-3,3-3s3,1.4,3,3c0,1.1-0.8,2.1-1.9,2.5c1.3,0.3,2.2,1.5,2.2,2.8c0,1.7-1.4,3-3.1,3c-0.1,0-0.2,0-0.3,0
	C281,152,279.7,150.7,279.7,149z"/>
<path class="st2" d="M296.1,145.7c-0.9-0.1-1.8,0.7-1.8,1.6c0,0.1,0,0.1,0,0.2v4.3H293v-12.1h1.2v6.1c0.4-0.8,1.2-1.3,2.1-1.3
	c1.5,0,2.5,0.9,2.5,2.8v4.5h-1.2v-4.3C297.6,146.3,297.1,145.7,296.1,145.7z"/>
<path class="st2" d="M304.2,144.5c2.1,0,3.7,1.6,3.7,3.7s-1.6,3.7-3.7,3.7s-3.7-1.6-3.7-3.7c0,0,0,0,0,0c-0.1-2,1.5-3.7,3.5-3.7
	C304.1,144.5,304.2,144.5,304.2,144.5z M304.2,150.8c1.4,0.1,2.6-1,2.7-2.4c0.1-1.4-1-2.6-2.4-2.7c-1.4-0.1-2.6,1-2.7,2.4
	c0,0,0,0.1,0,0.1c-0.1,1.3,0.9,2.5,2.3,2.6C304.1,150.8,304.2,150.8,304.2,150.8z"/>
<path class="st2" d="M312.4,150.8c0.9,0.1,1.8-0.7,1.8-1.6c0-0.1,0-0.1,0-0.2v-4.3h1.2v7.1h-1.2v-1.1c-0.4,0.8-1.2,1.3-2.1,1.3
	c-1.5,0-2.5-1.1-2.5-2.8v-4.5h1.2v4.3C310.9,150.2,311.4,150.8,312.4,150.8z"/>
<path class="st2" d="M320.2,145.7c-0.9,0-1.2,0.8-1.2,1.8v4.3h-1.2v-7.1h1.2v0.8c0.3-0.6,0.9-0.9,1.5-1c0.5,0,1,0.1,1.3,0.5l-0.7,1
	C320.9,145.8,320.5,145.7,320.2,145.7z"/>
<path class="st2" d="M325.3,150.9c0.7,0,1.1-0.3,1.1-0.9c0-0.8-0.8-1.1-1.6-1.4s-2-0.9-2-2.1s1.1-1.9,2.3-1.9c1,0,2,0.5,2.6,1.4
	l-1,0.6c-0.4-0.6-1-0.9-1.7-0.9c-0.5,0-1,0.2-1,0.7s0.7,0.9,1.5,1.2c1.2,0.5,2.2,1,2.2,2.3c0,1.2-1,2.2-2.3,2.2c-0.1,0-0.1,0-0.2,0
	c-1.2,0-2.3-0.7-2.9-1.7l1-0.6C323.8,150.4,324.5,150.8,325.3,150.9z"/>
<path class="st1" d="M260.4,105.6l-3,4c0.4-0.2,0.8-0.3,1.2-0.3c1.8,0.1,3.3,1.6,3.2,3.5c0,0,0,0,0,0.1c0,2-1.7,3.7-3.7,3.7
	s-3.7-1.7-3.7-3.7c0-0.8,0.2-1.6,0.7-2.2l3.7-5H260.4z M258.1,115.4c1.3,0,2.4-1,2.4-2.4c0,0,0-0.1,0-0.1c0.1-1.3-0.9-2.5-2.3-2.6
	c-1.3-0.1-2.5,0.9-2.6,2.3c0,0.1,0,0.2,0,0.3c0,1.3,1,2.4,2.3,2.5C258.1,115.4,258.1,115.4,258.1,115.4z"/>
<path class="st1" d="M268.9,105.6h0.5v7.5h1.7v1.2h-1.7v2.2h-1.3v-2.2h-5.2L268.9,105.6z M268.1,113.1v-4.6l-3.1,4.6H268.1z"/>
<path class="st1" d="M279.4,105.6l-6.3,13.2h-1.2l6.3-13.2H279.4z"/>
<path class="st2" d="M280.9,106.3l3.7-0.9v11h-1.3V107l-2.4,0.7V106.3z"/>
<path class="st2" d="M292,110.9c0.7-0.6,1.1-1.5,1.1-2.4c0-1.1-1-2-2.1-1.9c0,0,0,0,0,0c-1.4,0-2.2,1-2.2,2.7h-1.3
	c0-2.3,1.3-3.9,3.5-3.9c1.8-0.1,3.3,1.3,3.4,3.1c0,0,0,0.1,0,0.1c-0.1,1.2-0.6,2.3-1.4,3.1l-3.5,3.6h5v1.2h-7.7L292,110.9z"/>
<path class="st2" d="M298.2,110.6c-1-0.4-1.6-1.4-1.5-2.4c0-1.7,1.3-3,3-3s3,1.3,3,3c0,1.1-0.6,2-1.5,2.4c1.2,0.5,1.9,1.6,1.9,2.8
	c-0.1,1.9-1.8,3.3-3.6,3.1c-1.7-0.1-3-1.5-3.1-3.1C296.3,112.2,297,111.1,298.2,110.6z M299.6,115.4c1.1,0,2.1-0.8,2.1-2
	c0,0,0-0.1,0-0.1c0-1.2-1-2.1-2.1-2.1c-1.2,0-2.1,0.9-2.1,2.1c-0.1,1.1,0.8,2,1.9,2.1C299.5,115.4,299.6,115.4,299.6,115.4
	L299.6,115.4z M299.6,110.1c1,0,1.8-0.8,1.8-1.7c0-1-0.8-1.8-1.7-1.8s-1.8,0.8-1.8,1.7c0,0,0,0,0,0
	C297.9,109.3,298.7,110.1,299.6,110.1C299.6,110.1,299.6,110.1,299.6,110.1L299.6,110.1z"/>
<path class="st2" d="M309.6,119.8v-10.5h1.2v1.2c0.5-0.9,1.4-1.4,2.4-1.4c2.1,0.2,3.6,1.9,3.4,4c-0.1,1.8-1.6,3.3-3.4,3.4
	c-1,0-1.9-0.5-2.4-1.4v4.6L309.6,119.8z M313.1,110.3c-1.4,0-2.6,1.1-2.6,2.5c0,1.4,1.1,2.6,2.5,2.6s2.6-1.1,2.6-2.5c0,0,0,0,0,0
	c0.1-1.3-0.9-2.5-2.2-2.6C313.3,110.3,313.2,110.3,313.1,110.3L313.1,110.3z"/>
<path class="st2" d="M323.5,109.3l-2.4,3.4l2.6,3.7h-1.4l-1.9-2.7l-1.9,2.7h-1.4l2.6-3.7l-2.4-3.4h1.4l1.7,2.5l1.7-2.5H323.5z"/>
<path class="st1" d="M259.6,42.2c0.7-0.6,1.1-1.5,1.1-2.4c0-1.1-1-2-2.1-1.9c0,0,0,0-0.1,0c-1.4,0-2.2,1-2.2,2.7H255
	c0-2.3,1.3-3.9,3.5-3.9c1.8-0.1,3.3,1.3,3.4,3.1c0,0,0,0.1,0,0.1c-0.1,1.2-0.6,2.3-1.4,3.1l-3.5,3.5h5v1.2h-7.7L259.6,42.2z"/>
<path class="st1" d="M267.6,36.6c2.4,0,4,2.3,4,5.6s-1.6,5.6-4,5.6s-4-2.3-4-5.6S265.2,36.6,267.6,36.6z M267.6,46.6
	c1.7,0,2.7-1.8,2.7-4.3s-1-4.3-2.7-4.3s-2.7,1.8-2.7,4.3S265.9,46.6,267.6,46.6z"/>
<path class="st1" d="M276.9,36.6c2.4,0,4,2.3,4,5.6s-1.6,5.6-4,5.6s-4-2.3-4-5.6S274.5,36.6,276.9,36.6z M276.9,46.6
	c1.7,0,2.7-1.8,2.7-4.3s-1-4.3-2.7-4.3s-2.7,1.8-2.7,4.3S275.2,46.6,276.9,46.6z"/>
<path class="st1" d="M289.3,36.8L283,50h-1.2l6.3-13.2H289.3z"/>
<path class="st2" d="M295,42.2c0.7-0.6,1.1-1.5,1.1-2.4c0-1.1-1-2-2.1-1.9c0,0,0,0,0,0c-1.4,0-2.2,1-2.2,2.7h-1.3
	c0-2.3,1.3-3.9,3.5-3.9c1.8-0.1,3.3,1.3,3.4,3.1c0,0,0,0.1,0,0.1c-0.1,1.2-0.6,2.3-1.4,3.1l-3.4,3.5h4.9v1.2h-7.7L295,42.2z"/>
<path class="st2" d="M303,36.6c2.4,0,4,2.3,4,5.6s-1.6,5.6-4,5.6s-4-2.3-4-5.6S300.6,36.6,303,36.6z M303,46.6
	c1.7,0,2.7-1.8,2.7-4.3s-1-4.3-2.7-4.3s-2.7,1.8-2.7,4.3S301.3,46.6,303,46.6z"/>
<path class="st2" d="M312.3,36.6c2.4,0,4,2.3,4,5.6s-1.6,5.6-4,5.6s-4-2.3-4-5.6S309.9,36.6,312.3,36.6z M312.3,46.6
	c1.7,0,2.7-1.8,2.7-4.3s-1-4.3-2.7-4.3s-2.7,1.8-2.7,4.3S310.6,46.6,312.3,46.6z"/>
<path class="st2" d="M321.6,36.6c2.4,0,4,2.3,4,5.6s-1.6,5.6-4,5.6s-4-2.3-4-5.6S319.2,36.6,321.6,36.6z M321.6,46.6
	c1.7,0,2.7-1.8,2.7-4.3s-1-4.3-2.7-4.3s-2.7,1.8-2.7,4.3S319.9,46.6,321.6,46.6z"/>
<path class="st2" d="M332.9,36.7c0.5,0,0.9,0.4,0.9,0.9s-0.4,0.9-0.9,0.9c-0.5,0-0.9-0.4-0.9-0.9c0,0,0,0,0,0
	C332.1,37.1,332.5,36.7,332.9,36.7z M333.5,40.5v7.1h-1.2v-7.1H333.5z"/>
<path class="st2" d="M345.9,47.7h-1.2v-4.3c0-1.2-0.4-1.8-1.4-1.8c-0.9-0.1-1.6,0.6-1.7,1.5c0,0.1,0,0.2,0,0.3v4.3h-1.2v-4.3
	c0-1.2-0.4-1.8-1.4-1.8c-0.9,0-1.6,0.6-1.7,1.5c0,0.1,0,0.2,0,0.3v4.3h-1.2v-7.1h1.2v1c0.4-0.8,1.2-1.2,2-1.2
	c0.9-0.1,1.7,0.5,2.1,1.3c0.4-0.8,1.3-1.3,2.2-1.3c1.5,0,2.3,1,2.3,2.8V47.7z"/>
<path class="st2" d="M348,41.3c0.8-0.6,1.8-0.9,2.8-0.9c1.7,0,2.8,0.8,2.8,2.2v5.1h-1.2v-1c-0.6,0.7-1.4,1.2-2.4,1.1
	c-1.3,0.1-2.4-0.9-2.5-2.1c0-0.1,0-0.1,0-0.2c0-1.4,1-2.3,2.8-2.3c0.7,0,1.4,0.2,2,0.5v-1c0-1-0.7-1.3-1.6-1.3
	c-0.8,0-1.5,0.2-2.1,0.7L348,41.3z M350.3,46.7c1,0.1,1.9-0.7,2-1.8c0,0,0-0.1,0-0.1v-0.3c-0.6-0.3-1.2-0.4-1.8-0.4
	c-1.2,0-1.7,0.5-1.7,1.3S349.4,46.7,350.3,46.7z"/>
<path class="st2" d="M356.4,48.1c0.1,1.1,1.1,2,2.2,1.9c0,0,0,0,0.1,0c1.3,0,2.3-1,2.3-2.3c0-0.1,0-0.2,0-0.2v-1.1
	c-0.5,0.9-1.4,1.4-2.4,1.4c-1.9,0-3.5-1.5-3.5-3.4c0-0.1,0-0.2,0-0.3c-0.1-1.9,1.3-3.6,3.3-3.7c0.1,0,0.2,0,0.3,0
	c1,0,1.9,0.5,2.4,1.4v-1.2h1.2v7c0.1,1.9-1.3,3.6-3.3,3.7c-0.1,0-0.2,0-0.3,0c-2.1,0-3.5-1.3-3.5-3.1L356.4,48.1z M358.7,46.6
	c1.4,0.1,2.6-1,2.7-2.4c0.1-1.4-1-2.6-2.4-2.7c-1.4-0.1-2.6,1-2.7,2.4c0,0,0,0.1,0,0.1c-0.1,1.3,0.9,2.5,2.2,2.5
	C358.6,46.7,358.6,46.7,358.7,46.6L358.7,46.6z"/>
<path class="st2" d="M363.9,44.1c-0.2-1.9,1.3-3.6,3.2-3.7c0.1,0,0.3,0,0.4,0c2.1,0,3.4,1.4,3.4,3.7c0,0.2,0,0.3,0,0.4h-5.6
	c-0.1,1.2,0.8,2.2,2,2.3c0.1,0,0.2,0,0.2,0c0.9,0,1.8-0.5,2.2-1.3l1,0.6c-0.7,1.2-2,1.9-3.4,1.8c-1.9,0-3.4-1.5-3.4-3.4
	C363.8,44.3,363.9,44.2,363.9,44.1z M365.2,43.3h4.2c0-1.1-0.9-1.9-1.9-1.9c0,0,0,0-0.1,0C366.3,41.4,365.3,42.2,365.2,43.3z"/>
<path class="st2" d="M374.7,46.7c0.7,0,1.1-0.3,1.1-0.9c0-0.7-0.8-1.1-1.6-1.4s-2-0.9-2-2.1s1.1-1.9,2.3-1.9c1,0,2,0.5,2.6,1.4
	l-1,0.6c-0.4-0.6-1-0.9-1.7-0.9c-0.5,0-1,0.2-1,0.7s0.7,0.9,1.5,1.2c1.2,0.5,2.2,1,2.2,2.3c0,1.2-1.1,2.2-2.3,2.2
	c-0.1,0-0.1,0-0.2,0c-1.2,0-2.3-0.7-2.9-1.7l1-0.6C373.1,46.2,373.9,46.7,374.7,46.7z"/>
<path class="st1" d="M254.4,72.5l3.7-0.9v11h-1.3v-9.4l-2.4,0.7V72.5z"/>
<path class="st1" d="M264.8,71.6c2.4,0,4,2.3,4,5.6s-1.6,5.6-4,5.6s-4-2.3-4-5.6S262.4,71.6,264.8,71.6z M264.8,81.5
	c1.7,0,2.7-1.8,2.7-4.3s-1-4.3-2.7-4.3s-2.7,1.8-2.7,4.3S263.2,81.5,264.8,81.5z"/>
<path class="st1" d="M276.3,71.8l-3,4c0.4-0.2,0.8-0.3,1.2-0.3c1.8,0.1,3.3,1.6,3.2,3.4c0,0,0,0,0,0.1c0,2-1.7,3.7-3.7,3.7
	s-3.7-1.7-3.7-3.7c0-0.8,0.2-1.6,0.7-2.2l3.7-5L276.3,71.8z M273.9,81.6c1.4,0,2.5-1.1,2.5-2.5s-1.1-2.5-2.5-2.5s-2.5,1.1-2.5,2.5
	S272.5,81.6,273.9,81.6L273.9,81.6z"/>
<path class="st1" d="M283.1,71.6c2.4,0,4,2.3,4,5.6s-1.6,5.6-4,5.6s-4-2.3-4-5.6S280.7,71.6,283.1,71.6z M283.1,81.5
	c1.7,0,2.7-1.8,2.7-4.3s-1-4.3-2.7-4.3s-2.7,1.8-2.7,4.3S281.4,81.5,283.1,81.5z"/>
<path class="st1" d="M292.4,71.6c2.4,0,4,2.3,4,5.6s-1.6,5.6-4,5.6s-4-2.3-4-5.6S290,71.6,292.4,71.6z M292.4,81.5
	c1.7,0,2.7-1.8,2.7-4.3s-1-4.3-2.7-4.3s-2.7,1.8-2.7,4.3S290.7,81.5,292.4,81.5z"/>
<path class="st1" d="M301.7,71.6c2.4,0,4,2.3,4,5.6s-1.6,5.6-4,5.6s-4-2.3-4-5.6S299.3,71.6,301.7,71.6z M301.7,81.5
	c1.7,0,2.7-1.8,2.7-4.3s-1-4.3-2.7-4.3s-2.7,1.8-2.7,4.3S300,81.5,301.7,81.5z"/>
<path class="st1" d="M314.1,71.8l-6.3,13.2h-1.2l6.3-13.2H314.1z"/>
<path class="st2" d="M319.7,77.1c0.7-0.6,1.1-1.5,1.1-2.4c0-1.1-1-2-2.1-1.9c0,0,0,0,0,0c-1.4,0-2.2,1-2.2,2.7h-1.3
	c0-2.3,1.3-3.9,3.5-3.9c1.8-0.1,3.3,1.3,3.4,3.1c0,0,0,0.1,0,0.1c-0.1,1.2-0.6,2.3-1.4,3.2l-3.5,3.5h4.9v1.2h-7.7L319.7,77.1z"/>
<path class="st2" d="M329.9,71.8l-3,4c0.4-0.2,0.8-0.3,1.2-0.3c1.8,0.1,3.3,1.6,3.2,3.4c0,0,0,0,0,0.1c0,2-1.7,3.7-3.7,3.7
	s-3.7-1.7-3.7-3.7c0-0.8,0.2-1.6,0.7-2.2l3.7-5L329.9,71.8z M327.6,81.6c1.4,0.1,2.6-1,2.6-2.4s-1-2.6-2.4-2.6
	c-1.4-0.1-2.6,1-2.6,2.4c0,0,0,0.1,0,0.1c-0.1,1.3,0.9,2.5,2.3,2.5C327.5,81.6,327.5,81.6,327.6,81.6z"/>
<path class="st2" d="M334.8,76.8c-1-0.4-1.6-1.4-1.5-2.4c0-1.7,1.3-3,3-3s3,1.3,3,3c0.1,1.1-0.6,2-1.5,2.4c1.2,0.4,2,1.6,1.9,2.8
	c-0.2,1.9-1.8,3.2-3.7,3.1c-1.6-0.2-2.9-1.4-3.1-3.1C332.9,78.4,333.6,77.3,334.8,76.8z M336.3,81.6c1.1,0,2.1-0.8,2.1-2
	c0,0,0-0.1,0-0.1c-0.1-1.2-1.1-2.1-2.3-2c-1.1,0.1-1.9,0.9-2,2c0,1.1,0.9,2.1,2,2.1C336.2,81.6,336.2,81.6,336.3,81.6L336.3,81.6z
	 M336.3,76.3c1,0,1.8-0.7,1.8-1.7c0-1-0.7-1.8-1.7-1.8s-1.8,0.7-1.8,1.7c0,0,0,0,0,0.1C334.6,75.5,335.3,76.2,336.3,76.3
	C336.3,76.3,336.3,76.3,336.3,76.3L336.3,76.3z"/>
<path class="st2" d="M345.2,71.6c2.4,0,4,2.3,4,5.6s-1.6,5.6-4,5.6s-4-2.3-4-5.6S342.8,71.6,345.2,71.6z M345.2,81.5
	c1.7,0,2.7-1.8,2.7-4.3s-1-4.3-2.7-4.3s-2.7,1.8-2.7,4.3S343.5,81.5,345.2,81.5z"/>
<path class="st2" d="M354.5,71.6c2.4,0,4,2.3,4,5.6s-1.6,5.6-4,5.6s-4-2.3-4-5.6S352.1,71.6,354.5,71.6z M354.5,81.5
	c1.7,0,2.7-1.8,2.7-4.3s-1-4.3-2.7-4.3s-2.7,1.8-2.7,4.3S352.8,81.5,354.5,81.5z"/>
<path class="st2" d="M363.8,71.6c2.4,0,4,2.3,4,5.6s-1.6,5.6-4,5.6s-4-2.3-4-5.6S361.4,71.6,363.8,71.6z M363.8,81.5
	c1.7,0,2.7-1.8,2.7-4.3s-1-4.3-2.7-4.3s-2.7,1.8-2.7,4.3S362.1,81.5,363.8,81.5z"/>
<path class="st2" d="M374.3,75.5V73h1.3v2.5h1.2v1.2h-1.2v6h-1.2v-6h-1.2v-1.2H374.3z"/>
<path class="st2" d="M378.8,71.7c0.5,0.1,0.8,0.5,0.8,0.9c0,0.4-0.4,0.7-0.8,0.8c-0.5-0.1-0.8-0.5-0.8-0.9
	C378.1,72.1,378.4,71.7,378.8,71.7z M379.4,75.5v7.1h-1.2v-7.1L379.4,75.5z"/>
<path class="st2" d="M391.7,82.6h-1.2v-4.3c0-1.2-0.4-1.8-1.4-1.8c-0.9,0-1.6,0.6-1.7,1.5c0,0.1,0,0.2,0,0.3v4.3h-1.2v-4.3
	c0-1.2-0.4-1.8-1.4-1.8c-0.9-0.1-1.6,0.6-1.7,1.5c0,0.1,0,0.2,0,0.3v4.3H382v-7.1h1.2v1c0.6-1.1,2-1.5,3-0.9c0.4,0.2,0.8,0.6,1,1
	c0.4-0.8,1.3-1.4,2.2-1.3c1.5,0,2.3,1,2.3,2.8L391.7,82.6z"/>
<path class="st2" d="M393.4,79c-0.2-1.9,1.3-3.6,3.1-3.7c0.1,0,0.3,0,0.4,0c2.1,0,3.4,1.4,3.4,3.7c0,0.2,0,0.3,0,0.4h-5.6
	c-0.1,1.2,0.9,2.2,2,2.3c0.1,0,0.1,0,0.2,0c0.9,0,1.8-0.5,2.2-1.3l1,0.6c-0.7,1.2-2,1.9-3.4,1.8C394.8,82.8,393.4,81.3,393.4,79z
	 M394.8,78.3h4.2c0-1.1-0.9-1.9-2-1.9c0,0,0,0,0,0C395.9,76.3,394.9,77.2,394.8,78.3z"/>
<path class="st2" d="M404.3,81.6c0.7,0,1.1-0.3,1.1-0.9c0-0.7-0.8-1.1-1.6-1.4s-2-0.9-2-2.1s1.1-1.9,2.3-1.9c1,0,2,0.5,2.6,1.4
	l-1,0.6c-0.4-0.6-1-0.9-1.7-0.9c-0.5,0-1,0.2-1,0.7s0.7,0.9,1.5,1.2c1.2,0.5,2.2,1,2.2,2.3c0,1.2-1,2.2-2.3,2.2c-0.1,0-0.1,0-0.2,0
	c-1.2,0-2.3-0.7-2.9-1.7l1-0.6C402.7,81.2,403.4,81.6,404.3,81.6z"/>
<rect x="123.4" y="140.9" class="st3" width="124" height="12.1"/>
<rect x="123.4" y="140.9" class="st1" width="16.1" height="12.1"/>
<rect x="123.4" y="106.6" class="st3" width="124" height="12.1"/>
<rect x="123.4" y="106.6" class="st1" width="62" height="12.1"/>
<rect x="123.4" y="72.2" class="st3" width="124" height="12.1"/>
<rect x="123.4" y="72.2" class="st1" width="49.6" height="12.1"/>
<rect x="123.4" y="37.9" class="st3" width="124" height="12.1"/>
<rect x="123.4" y="37.9" class="st1" width="12.4" height="12.1"/>
<path class="st0" d="M126.8,5.2v3.5h4.8V5.2h1v8.7h-1V9.6h-4.8v4.2h-1.1V5.2H126.8z"/>
<path class="st0" d="M139.1,5.2l-2.5,3.2c0.3-0.2,0.7-0.2,1-0.2c1.5,0.1,2.6,1.3,2.6,2.8c0,0,0,0,0,0c0.2,1.6-0.9,3.2-2.5,3.4
	c-1.6,0.2-3.2-0.9-3.4-2.5c0-0.3,0-0.6,0-0.8c0-0.6,0.2-1.3,0.6-1.8l2.9-4.1L139.1,5.2z M137.2,13.1c1.1,0,2-0.8,2-1.9
	c0,0,0-0.1,0-0.1c0.2-1.1-0.5-2.1-1.6-2.4c-1.1-0.2-2.1,0.5-2.4,1.6c-0.1,0.3-0.1,0.5,0,0.8C135.3,12.1,136.1,13,137.2,13.1
	C137.2,13.1,137.2,13.1,137.2,13.1z"/>
<path class="st0" d="M145.9,5.2h0.4v6.1h1.4v0.9h-1.4v1.8h-1.1v-1.8h-4.2L145.9,5.2z M145.3,11.2V7.5l-2.5,3.7H145.3z"/>
<rect x="123.8" y="0.5" class="st4" width="25.8" height="18.1"/>
<polyline class="st5" points="247.7,159.8 247.7,22.1 365.3,22.1 "/>
<path class="st2" d="M257.4,3.1c2.1,0,3.7,1.3,3.7,3.3s-1.6,3.2-3.7,3.2h-1.6v4.3h-1.3V3.1H257.4z M255.8,4.3v4h1.6
	c1.4,0,2.4-0.7,2.4-2s-1-2-2.4-2H255.8z"/>
<path class="st2" d="M265,7.8c-0.9,0-1.2,0.8-1.2,1.8v4.3h-1.2V6.8h1.2v0.8c0.3-0.6,0.9-0.9,1.5-1c0.5,0,1,0.1,1.3,0.5l-0.7,1
	C265.7,7.9,265.3,7.8,265,7.8z"/>
<path class="st2" d="M270.7,6.6c2,0,3.6,1.5,3.7,3.5c0,0.1,0,0.1,0,0.2c0,2-1.7,3.7-3.7,3.7s-3.7-1.7-3.7-3.7
	c-0.1-2,1.5-3.7,3.5-3.7C270.6,6.6,270.6,6.6,270.7,6.6z M270.7,12.9c1.3,0,2.4-1.1,2.4-2.4c0-0.1,0-0.1,0-0.2
	c0-1.3-1.1-2.4-2.4-2.4s-2.4,1.1-2.4,2.4c0,0,0,0,0,0c-0.1,1.3,1,2.5,2.3,2.5C270.6,12.9,270.7,12.9,270.7,12.9L270.7,12.9z"/>
<path class="st2" d="M275.4,16.1c0.5,0,0.7-0.4,0.7-1.4V6.8h1.2v8.1c0,1.6-0.8,2.5-2.1,2.5c-0.5,0-1-0.2-1.4-0.6l0.7-1
	C274.9,16,275.1,16.1,275.4,16.1z M276.7,3c0.5,0,0.8,0.4,0.8,0.8s-0.4,0.8-0.8,0.8c-0.5,0-0.8-0.4-0.8-0.8c0,0,0,0,0,0
	C275.9,3.4,276.3,3,276.7,3C276.7,3,276.7,3,276.7,3L276.7,3z"/>
<path class="st2" d="M279.4,10.4c-0.2-1.9,1.3-3.6,3.1-3.7c0.1,0,0.3,0,0.4,0c2.1,0,3.4,1.4,3.4,3.7c0,0.1,0,0.3,0,0.4h-5.6
	c0,1.2,0.9,2.2,2.1,2.2c0.1,0,0.1,0,0.2,0c0.9,0,1.8-0.5,2.2-1.3l1,0.6c-0.7,1.2-2,1.9-3.4,1.8c-1.9,0-3.4-1.5-3.4-3.4
	C279.3,10.6,279.4,10.5,279.4,10.4z M280.7,9.6h4.2c0-1.1-0.9-1.9-2-1.9c0,0,0,0,0,0C281.8,7.6,280.8,8.5,280.7,9.6z"/>
<path class="st2" d="M290.9,12.9c1,0,2-0.5,2.5-1.3v1.6c-0.7,0.6-1.6,1-2.5,0.9c-2,0-3.6-1.5-3.7-3.5c0-0.1,0-0.1,0-0.2
	c-0.1-2,1.5-3.7,3.5-3.7c0.1,0,0.1,0,0.2,0c0.9,0,1.8,0.3,2.5,0.9v1.5c-0.5-0.9-1.5-1.3-2.5-1.3c-1.3,0-2.4,1.1-2.4,2.4
	c0,0.1,0,0.1,0,0.2c-0.1,1.3,0.9,2.5,2.3,2.6C290.8,12.9,290.9,12.9,290.9,12.9z"/>
<path class="st2" d="M295.4,6.8V4.3h1.2v2.5h1.2V8h-1.2v6h-1.2V8h-1.2V6.8H295.4z"/>
<path class="st2" d="M306.8,3.1c2.1,0,3.7,1.3,3.7,3.3c0,1.5-1.1,2.9-2.6,3.1l3.2,4.4h-1.6l-3-4.3h-1.3v4.3h-1.3V3.1H306.8z
	 M305.1,4.2v4.2h1.6c1.2,0.1,2.2-0.7,2.3-1.8c0.1-1.2-0.7-2.2-1.8-2.3c-0.2,0-0.3,0-0.5,0H305.1z"/>
<path class="st2" d="M311.8,10.4c-0.1-1.9,1.3-3.6,3.2-3.7c0.1,0,0.2,0,0.4,0c2.1,0,3.4,1.4,3.4,3.7c0,0.1,0,0.3,0,0.4h-5.6
	c0,1.2,0.9,2.2,2.1,2.2c0.1,0,0.1,0,0.2,0c0.9,0,1.8-0.5,2.2-1.3l1,0.6c-0.7,1.2-2,1.9-3.4,1.8c-1.9,0-3.4-1.5-3.4-3.4
	C311.8,10.6,311.8,10.5,311.8,10.4z M313.1,9.6h4.2c0-1.1-0.9-1.9-2-1.9c0,0,0,0,0,0C314.2,7.6,313.2,8.5,313.1,9.6z"/>
<path class="st2" d="M320.2,7.5c0.8-0.6,1.8-0.9,2.8-0.9c1.7,0,2.8,0.8,2.8,2.2v5.1h-1.2v-1c-0.6,0.7-1.4,1.2-2.4,1.1
	c-1.3,0.1-2.4-0.9-2.5-2.1c0-0.1,0-0.1,0-0.2c0-1.4,1-2.3,2.8-2.3c0.7,0,1.4,0.2,2,0.5V9c0-1-0.7-1.3-1.6-1.3
	c-0.8,0-1.5,0.2-2.1,0.7L320.2,7.5z M322.5,13c1,0.1,1.9-0.7,2-1.8c0,0,0-0.1,0-0.1v-0.2c-0.6-0.3-1.2-0.4-1.8-0.4
	c-1.2,0-1.7,0.5-1.7,1.2S321.6,13,322.5,13L322.5,13z"/>
<path class="st2" d="M330.8,12.9c1,0,2-0.5,2.5-1.3v1.6c-0.7,0.6-1.6,1-2.5,0.9c-2,0-3.6-1.5-3.7-3.5c0-0.1,0-0.1,0-0.2
	c-0.1-2,1.5-3.7,3.5-3.7c0.1,0,0.1,0,0.2,0c0.9,0,1.8,0.3,2.5,0.9v1.5c-0.5-0.9-1.5-1.3-2.5-1.3c-1.3,0-2.4,1.1-2.4,2.4
	c0,0.1,0,0.1,0,0.2c-0.1,1.3,0.9,2.5,2.3,2.6C330.7,12.9,330.8,12.9,330.8,12.9z"/>
<path class="st2" d="M338.3,7.8c-1,0-1.8,0.7-1.8,1.6c0,0,0,0.1,0,0.1v4.3h-1.2V1.8h1.2v6.1c0.4-0.8,1.2-1.3,2.1-1.3
	c1.5,0,2.5,0.9,2.5,2.8v4.5h-1.2V9.6C339.8,8.4,339.3,7.8,338.3,7.8z"/>
</svg>
