<?xml version="1.0" standalone="no"?>
<!DOCTYPE svg PUBLIC "-//W3C//DTD SVG 20010904//EN"
 "http://www.w3.org/TR/2001/REC-SVG-20010904/DTD/svg10.dtd">
<svg version="1.0" xmlns="http://www.w3.org/2000/svg"
 width="476.000000pt" height="476.000000pt" viewBox="0 0 476.000000 476.000000"
 preserveAspectRatio="xMidYMid meet">
<metadata>
Created by potrace 1.11, written by Peter Selinger 2001-2013
</metadata>
<g transform="translate(0.000000,476.000000) scale(0.100000,-0.100000)"
fill="#000000" stroke="none">
<path d="M329 3696 c-1 0 -2 -592 -3 -1314 l-1 -1313 535 3 c509 4 540 5 640
27 289 62 502 176 683 365 156 163 269 383 312 610 37 194 39 443 5 601 -5 22
-11 51 -13 65 -11 60 -71 221 -111 297 -119 223 -317 413 -536 516 -132 61
-145 66 -246 91 -193 49 -244 53 -791 53 -260 0 -474 0 -474 -1z m1079 -445
c175 -40 311 -111 416 -215 177 -176 249 -382 241 -686 -4 -144 -5 -155 -36
-268 -85 -315 -345 -531 -702 -582 -73 -11 -519 -16 -535 -6 -5 3 -9 354 -9
895 l0 889 266 -3 c230 -2 279 -5 359 -24z"/>
<path d="M2959 3696 c-1 -1 -2 -592 -3 -1313 l-1 -1313 742 0 c587 0 743 3
744 13 1 16 1 359 0 375 -1 9 -112 12 -521 12 l-520 0 0 1114 0 1114 -220 -1
c-121 0 -221 -1 -221 -1z"/>
</g>
</svg>
