<?xml version="1.0" standalone="no"?>
<!DOCTYPE svg PUBLIC "-//W3C//DTD SVG 20010904//EN"
 "http://www.w3.org/TR/2001/REC-SVG-20010904/DTD/svg10.dtd">
<svg version="1.0" xmlns="http://www.w3.org/2000/svg"
 width="476.000000pt" height="476.000000pt" viewBox="0 0 476.000000 476.000000"
 preserveAspectRatio="xMidYMid meet">
<metadata>
Created by potrace 1.11, written by Peter Selinger 2001-2013
</metadata>
<g transform="translate(0.000000,476.000000) scale(0.100000,-0.100000)"
fill="#000000" stroke="none">
<path d="M530 2380 l0 -1182 483 5 c450 4 489 6 581 26 167 37 303 93 435 178
89 58 258 236 314 330 123 210 175 434 164 703 -11 258 -64 436 -186 622 -156
240 -395 398 -716 475 -59 14 -147 17 -572 20 l-503 4 0 -1181z m923 795 c105
-18 227 -61 303 -106 77 -46 190 -160 237 -240 79 -134 112 -295 104 -494 -7
-156 -24 -229 -84 -354 -38 -79 -59 -108 -127 -176 -93 -93 -188 -147 -331
-191 -86 -26 -101 -28 -352 -32 l-263 -4 0 806 0 806 214 0 c144 0 241 -5 299
-15z"/>
<path d="M2900 2380 l0 -1180 665 0 665 0 0 180 0 180 -465 0 -465 0 0 1000 0
1000 -200 0 -200 0 0 -1180z"/>
</g>
</svg>
