<?xml version="1.0" encoding="utf-8"?>
<!-- Generator: Adobe Illustrator 24.1.1, SVG Export Plug-In . SVG Version: 6.00 Build 0)  -->
<svg version="1.1" id="Livello_1" xmlns="http://www.w3.org/2000/svg" xmlns:xlink="http://www.w3.org/1999/xlink" x="0px" y="0px"
	 viewBox="0 0 48 48" style="enable-background:new 0 0 48 48;" xml:space="preserve">
<style type="text/css">
	.st0{fill:#FFFFFF;}
</style>
<g>
	<path class="st0" d="M32.71,23.29l-8-8c0,0,0,0,0,0L24,14.59l-0.71,0.71c0,0,0,0,0,0l-8,8c-0.39,0.39-0.39,1.02,0,1.41
		s1.02,0.39,1.41,0L23,18.41V32c0,0.55,0.45,1,1,1s1-0.45,1-1V18.41l6.29,6.29C31.49,24.9,31.74,25,32,25s0.51-0.1,0.71-0.29
		C33.1,24.32,33.1,23.68,32.71,23.29z"/>
</g>
</svg>
