<?xml version="1.0" encoding="utf-8"?>
<!-- Generator: Adobe Illustrator 24.1.1, SVG Export Plug-In . SVG Version: 6.00 Build 0)  -->
<svg version="1.1" id="Livello_1" xmlns="http://www.w3.org/2000/svg" xmlns:xlink="http://www.w3.org/1999/xlink" x="0px" y="0px"
	 viewBox="0 0 48 48" style="enable-background:new 0 0 48 48;" xml:space="preserve">
<style type="text/css">
	.st0{fill:#FFFFFF;}
</style>
<path class="st0" d="M39.72,23.32L24.67,8.26c0,0,0,0,0,0L24,7.6l-0.67,0.67c0,0,0,0,0,0L8.28,23.32c-0.37,0.37-0.37,0.96,0,1.33
	c0.37,0.37,0.96,0.37,1.33,0L23.06,11.2v27.85c0,0.52,0.42,0.94,0.94,0.94s0.94-0.42,0.94-0.94V11.2l13.45,13.45
	c0.18,0.18,0.42,0.28,0.67,0.28c0.24,0,0.48-0.09,0.67-0.28C40.09,24.29,40.09,23.69,39.72,23.32z"/>
</svg>
